G04 #@! TF.GenerationSoftware,KiCad,Pcbnew,(5.1.12)-1*
G04 #@! TF.CreationDate,2021-11-18T21:12:02+02:00*
G04 #@! TF.ProjectId,SmartHome,536d6172-7448-46f6-9d65-2e6b69636164,rev?*
G04 #@! TF.SameCoordinates,Original*
G04 #@! TF.FileFunction,Soldermask,Bot*
G04 #@! TF.FilePolarity,Negative*
%FSLAX46Y46*%
G04 Gerber Fmt 4.6, Leading zero omitted, Abs format (unit mm)*
G04 Created by KiCad (PCBNEW (5.1.12)-1) date 2021-11-18 21:12:02*
%MOMM*%
%LPD*%
G01*
G04 APERTURE LIST*
%ADD10R,1.700000X1.700000*%
%ADD11O,1.700000X1.700000*%
%ADD12R,1.508000X1.508000*%
%ADD13C,1.508000*%
%ADD14C,1.400000*%
%ADD15R,1.400000X1.400000*%
%ADD16O,1.950000X1.700000*%
%ADD17C,2.000000*%
%ADD18C,1.500000*%
%ADD19C,2.800000*%
%ADD20R,2.800000X2.800000*%
%ADD21R,3.500000X3.500000*%
G04 APERTURE END LIST*
G36*
G01*
X150295560Y17218239D02*
X150295560Y18118241D01*
G75*
G02*
X150545559Y18368240I249999J0D01*
G01*
X151070561Y18368240D01*
G75*
G02*
X151320560Y18118241I0J-249999D01*
G01*
X151320560Y17218239D01*
G75*
G02*
X151070561Y16968240I-249999J0D01*
G01*
X150545559Y16968240D01*
G75*
G02*
X150295560Y17218239I0J249999D01*
G01*
G37*
G36*
G01*
X148470560Y17218239D02*
X148470560Y18118241D01*
G75*
G02*
X148720559Y18368240I249999J0D01*
G01*
X149245561Y18368240D01*
G75*
G02*
X149495560Y18118241I0J-249999D01*
G01*
X149495560Y17218239D01*
G75*
G02*
X149245561Y16968240I-249999J0D01*
G01*
X148720559Y16968240D01*
G75*
G02*
X148470560Y17218239I0J249999D01*
G01*
G37*
D10*
X144264380Y53733700D03*
D11*
X144264380Y51193700D03*
X144264380Y48653700D03*
X144264380Y46113700D03*
D12*
X164208000Y-13589000D03*
D13*
X164208000Y-5969000D03*
X164208000Y4191000D03*
X164208000Y6731000D03*
D14*
X144780000Y-26797000D03*
D15*
X148590000Y-26797000D03*
D16*
X145034000Y21583000D03*
X145034000Y24083000D03*
X145034000Y26583000D03*
G36*
G01*
X144309000Y29933000D02*
X145759000Y29933000D01*
G75*
G02*
X146009000Y29683000I0J-250000D01*
G01*
X146009000Y28483000D01*
G75*
G02*
X145759000Y28233000I-250000J0D01*
G01*
X144309000Y28233000D01*
G75*
G02*
X144059000Y28483000I0J250000D01*
G01*
X144059000Y29683000D01*
G75*
G02*
X144309000Y29933000I250000J0D01*
G01*
G37*
D17*
X143913860Y40845880D03*
X148413860Y40845880D03*
X143913860Y34345880D03*
X148413860Y34345880D03*
G36*
G01*
X159126500Y-19754001D02*
X159126500Y-18853999D01*
G75*
G02*
X159376499Y-18604000I249999J0D01*
G01*
X159901501Y-18604000D01*
G75*
G02*
X160151500Y-18853999I0J-249999D01*
G01*
X160151500Y-19754001D01*
G75*
G02*
X159901501Y-20004000I-249999J0D01*
G01*
X159376499Y-20004000D01*
G75*
G02*
X159126500Y-19754001I0J249999D01*
G01*
G37*
G36*
G01*
X157301500Y-19754001D02*
X157301500Y-18853999D01*
G75*
G02*
X157551499Y-18604000I249999J0D01*
G01*
X158076501Y-18604000D01*
G75*
G02*
X158326500Y-18853999I0J-249999D01*
G01*
X158326500Y-19754001D01*
G75*
G02*
X158076501Y-20004000I-249999J0D01*
G01*
X157551499Y-20004000D01*
G75*
G02*
X157301500Y-19754001I0J249999D01*
G01*
G37*
G36*
G01*
X159046500Y-17155381D02*
X159046500Y-16255379D01*
G75*
G02*
X159296499Y-16005380I249999J0D01*
G01*
X159821501Y-16005380D01*
G75*
G02*
X160071500Y-16255379I0J-249999D01*
G01*
X160071500Y-17155381D01*
G75*
G02*
X159821501Y-17405380I-249999J0D01*
G01*
X159296499Y-17405380D01*
G75*
G02*
X159046500Y-17155381I0J249999D01*
G01*
G37*
G36*
G01*
X157221500Y-17155381D02*
X157221500Y-16255379D01*
G75*
G02*
X157471499Y-16005380I249999J0D01*
G01*
X157996501Y-16005380D01*
G75*
G02*
X158246500Y-16255379I0J-249999D01*
G01*
X158246500Y-17155381D01*
G75*
G02*
X157996501Y-17405380I-249999J0D01*
G01*
X157471499Y-17405380D01*
G75*
G02*
X157221500Y-17155381I0J249999D01*
G01*
G37*
G36*
G01*
X150260000Y-19881001D02*
X150260000Y-18980999D01*
G75*
G02*
X150509999Y-18731000I249999J0D01*
G01*
X151035001Y-18731000D01*
G75*
G02*
X151285000Y-18980999I0J-249999D01*
G01*
X151285000Y-19881001D01*
G75*
G02*
X151035001Y-20131000I-249999J0D01*
G01*
X150509999Y-20131000D01*
G75*
G02*
X150260000Y-19881001I0J249999D01*
G01*
G37*
G36*
G01*
X148435000Y-19881001D02*
X148435000Y-18980999D01*
G75*
G02*
X148684999Y-18731000I249999J0D01*
G01*
X149210001Y-18731000D01*
G75*
G02*
X149460000Y-18980999I0J-249999D01*
G01*
X149460000Y-19881001D01*
G75*
G02*
X149210001Y-20131000I-249999J0D01*
G01*
X148684999Y-20131000D01*
G75*
G02*
X148435000Y-19881001I0J249999D01*
G01*
G37*
G36*
G01*
X150260000Y-17272609D02*
X150260000Y-16372607D01*
G75*
G02*
X150509999Y-16122608I249999J0D01*
G01*
X151035001Y-16122608D01*
G75*
G02*
X151285000Y-16372607I0J-249999D01*
G01*
X151285000Y-17272609D01*
G75*
G02*
X151035001Y-17522608I-249999J0D01*
G01*
X150509999Y-17522608D01*
G75*
G02*
X150260000Y-17272609I0J249999D01*
G01*
G37*
G36*
G01*
X148435000Y-17272609D02*
X148435000Y-16372607D01*
G75*
G02*
X148684999Y-16122608I249999J0D01*
G01*
X149210001Y-16122608D01*
G75*
G02*
X149460000Y-16372607I0J-249999D01*
G01*
X149460000Y-17272609D01*
G75*
G02*
X149210001Y-17522608I-249999J0D01*
G01*
X148684999Y-17522608D01*
G75*
G02*
X148435000Y-17272609I0J249999D01*
G01*
G37*
G36*
G01*
X159046500Y-11958151D02*
X159046500Y-11058149D01*
G75*
G02*
X159296499Y-10808150I249999J0D01*
G01*
X159821501Y-10808150D01*
G75*
G02*
X160071500Y-11058149I0J-249999D01*
G01*
X160071500Y-11958151D01*
G75*
G02*
X159821501Y-12208150I-249999J0D01*
G01*
X159296499Y-12208150D01*
G75*
G02*
X159046500Y-11958151I0J249999D01*
G01*
G37*
G36*
G01*
X157221500Y-11958151D02*
X157221500Y-11058149D01*
G75*
G02*
X157471499Y-10808150I249999J0D01*
G01*
X157996501Y-10808150D01*
G75*
G02*
X158246500Y-11058149I0J-249999D01*
G01*
X158246500Y-11958151D01*
G75*
G02*
X157996501Y-12208150I-249999J0D01*
G01*
X157471499Y-12208150D01*
G75*
G02*
X157221500Y-11958151I0J249999D01*
G01*
G37*
G36*
G01*
X159046500Y-9359536D02*
X159046500Y-8459534D01*
G75*
G02*
X159296499Y-8209535I249999J0D01*
G01*
X159821501Y-8209535D01*
G75*
G02*
X160071500Y-8459534I0J-249999D01*
G01*
X160071500Y-9359536D01*
G75*
G02*
X159821501Y-9609535I-249999J0D01*
G01*
X159296499Y-9609535D01*
G75*
G02*
X159046500Y-9359536I0J249999D01*
G01*
G37*
G36*
G01*
X157221500Y-9359536D02*
X157221500Y-8459534D01*
G75*
G02*
X157471499Y-8209535I249999J0D01*
G01*
X157996501Y-8209535D01*
G75*
G02*
X158246500Y-8459534I0J-249999D01*
G01*
X158246500Y-9359536D01*
G75*
G02*
X157996501Y-9609535I-249999J0D01*
G01*
X157471499Y-9609535D01*
G75*
G02*
X157221500Y-9359536I0J249999D01*
G01*
G37*
G36*
G01*
X159046500Y-14556766D02*
X159046500Y-13656764D01*
G75*
G02*
X159296499Y-13406765I249999J0D01*
G01*
X159821501Y-13406765D01*
G75*
G02*
X160071500Y-13656764I0J-249999D01*
G01*
X160071500Y-14556766D01*
G75*
G02*
X159821501Y-14806765I-249999J0D01*
G01*
X159296499Y-14806765D01*
G75*
G02*
X159046500Y-14556766I0J249999D01*
G01*
G37*
G36*
G01*
X157221500Y-14556766D02*
X157221500Y-13656764D01*
G75*
G02*
X157471499Y-13406765I249999J0D01*
G01*
X157996501Y-13406765D01*
G75*
G02*
X158246500Y-13656764I0J-249999D01*
G01*
X158246500Y-14556766D01*
G75*
G02*
X157996501Y-14806765I-249999J0D01*
G01*
X157471499Y-14806765D01*
G75*
G02*
X157221500Y-14556766I0J249999D01*
G01*
G37*
G36*
G01*
X150260000Y-12055841D02*
X150260000Y-11155839D01*
G75*
G02*
X150509999Y-10905840I249999J0D01*
G01*
X151035001Y-10905840D01*
G75*
G02*
X151285000Y-11155839I0J-249999D01*
G01*
X151285000Y-12055841D01*
G75*
G02*
X151035001Y-12305840I-249999J0D01*
G01*
X150509999Y-12305840D01*
G75*
G02*
X150260000Y-12055841I0J249999D01*
G01*
G37*
G36*
G01*
X148435000Y-12055841D02*
X148435000Y-11155839D01*
G75*
G02*
X148684999Y-10905840I249999J0D01*
G01*
X149210001Y-10905840D01*
G75*
G02*
X149460000Y-11155839I0J-249999D01*
G01*
X149460000Y-12055841D01*
G75*
G02*
X149210001Y-12305840I-249999J0D01*
G01*
X148684999Y-12305840D01*
G75*
G02*
X148435000Y-12055841I0J249999D01*
G01*
G37*
G36*
G01*
X150260000Y-9447457D02*
X150260000Y-8547455D01*
G75*
G02*
X150509999Y-8297456I249999J0D01*
G01*
X151035001Y-8297456D01*
G75*
G02*
X151285000Y-8547455I0J-249999D01*
G01*
X151285000Y-9447457D01*
G75*
G02*
X151035001Y-9697456I-249999J0D01*
G01*
X150509999Y-9697456D01*
G75*
G02*
X150260000Y-9447457I0J249999D01*
G01*
G37*
G36*
G01*
X148435000Y-9447457D02*
X148435000Y-8547455D01*
G75*
G02*
X148684999Y-8297456I249999J0D01*
G01*
X149210001Y-8297456D01*
G75*
G02*
X149460000Y-8547455I0J-249999D01*
G01*
X149460000Y-9447457D01*
G75*
G02*
X149210001Y-9697456I-249999J0D01*
G01*
X148684999Y-9697456D01*
G75*
G02*
X148435000Y-9447457I0J249999D01*
G01*
G37*
G36*
G01*
X150260000Y-14664225D02*
X150260000Y-13764223D01*
G75*
G02*
X150509999Y-13514224I249999J0D01*
G01*
X151035001Y-13514224D01*
G75*
G02*
X151285000Y-13764223I0J-249999D01*
G01*
X151285000Y-14664225D01*
G75*
G02*
X151035001Y-14914224I-249999J0D01*
G01*
X150509999Y-14914224D01*
G75*
G02*
X150260000Y-14664225I0J249999D01*
G01*
G37*
G36*
G01*
X148435000Y-14664225D02*
X148435000Y-13764223D01*
G75*
G02*
X148684999Y-13514224I249999J0D01*
G01*
X149210001Y-13514224D01*
G75*
G02*
X149460000Y-13764223I0J-249999D01*
G01*
X149460000Y-14664225D01*
G75*
G02*
X149210001Y-14914224I-249999J0D01*
G01*
X148684999Y-14914224D01*
G75*
G02*
X148435000Y-14664225I0J249999D01*
G01*
G37*
G36*
G01*
X159046500Y-4162306D02*
X159046500Y-3262304D01*
G75*
G02*
X159296499Y-3012305I249999J0D01*
G01*
X159821501Y-3012305D01*
G75*
G02*
X160071500Y-3262304I0J-249999D01*
G01*
X160071500Y-4162306D01*
G75*
G02*
X159821501Y-4412305I-249999J0D01*
G01*
X159296499Y-4412305D01*
G75*
G02*
X159046500Y-4162306I0J249999D01*
G01*
G37*
G36*
G01*
X157221500Y-4162306D02*
X157221500Y-3262304D01*
G75*
G02*
X157471499Y-3012305I249999J0D01*
G01*
X157996501Y-3012305D01*
G75*
G02*
X158246500Y-3262304I0J-249999D01*
G01*
X158246500Y-4162306D01*
G75*
G02*
X157996501Y-4412305I-249999J0D01*
G01*
X157471499Y-4412305D01*
G75*
G02*
X157221500Y-4162306I0J249999D01*
G01*
G37*
G36*
G01*
X159046500Y-1563691D02*
X159046500Y-663689D01*
G75*
G02*
X159296499Y-413690I249999J0D01*
G01*
X159821501Y-413690D01*
G75*
G02*
X160071500Y-663689I0J-249999D01*
G01*
X160071500Y-1563691D01*
G75*
G02*
X159821501Y-1813690I-249999J0D01*
G01*
X159296499Y-1813690D01*
G75*
G02*
X159046500Y-1563691I0J249999D01*
G01*
G37*
G36*
G01*
X157221500Y-1563691D02*
X157221500Y-663689D01*
G75*
G02*
X157471499Y-413690I249999J0D01*
G01*
X157996501Y-413690D01*
G75*
G02*
X158246500Y-663689I0J-249999D01*
G01*
X158246500Y-1563691D01*
G75*
G02*
X157996501Y-1813690I-249999J0D01*
G01*
X157471499Y-1813690D01*
G75*
G02*
X157221500Y-1563691I0J249999D01*
G01*
G37*
G36*
G01*
X159046500Y-6760921D02*
X159046500Y-5860919D01*
G75*
G02*
X159296499Y-5610920I249999J0D01*
G01*
X159821501Y-5610920D01*
G75*
G02*
X160071500Y-5860919I0J-249999D01*
G01*
X160071500Y-6760921D01*
G75*
G02*
X159821501Y-7010920I-249999J0D01*
G01*
X159296499Y-7010920D01*
G75*
G02*
X159046500Y-6760921I0J249999D01*
G01*
G37*
G36*
G01*
X157221500Y-6760921D02*
X157221500Y-5860919D01*
G75*
G02*
X157471499Y-5610920I249999J0D01*
G01*
X157996501Y-5610920D01*
G75*
G02*
X158246500Y-5860919I0J-249999D01*
G01*
X158246500Y-6760921D01*
G75*
G02*
X157996501Y-7010920I-249999J0D01*
G01*
X157471499Y-7010920D01*
G75*
G02*
X157221500Y-6760921I0J249999D01*
G01*
G37*
G36*
G01*
X150260000Y-4230689D02*
X150260000Y-3330687D01*
G75*
G02*
X150509999Y-3080688I249999J0D01*
G01*
X151035001Y-3080688D01*
G75*
G02*
X151285000Y-3330687I0J-249999D01*
G01*
X151285000Y-4230689D01*
G75*
G02*
X151035001Y-4480688I-249999J0D01*
G01*
X150509999Y-4480688D01*
G75*
G02*
X150260000Y-4230689I0J249999D01*
G01*
G37*
G36*
G01*
X148435000Y-4230689D02*
X148435000Y-3330687D01*
G75*
G02*
X148684999Y-3080688I249999J0D01*
G01*
X149210001Y-3080688D01*
G75*
G02*
X149460000Y-3330687I0J-249999D01*
G01*
X149460000Y-4230689D01*
G75*
G02*
X149210001Y-4480688I-249999J0D01*
G01*
X148684999Y-4480688D01*
G75*
G02*
X148435000Y-4230689I0J249999D01*
G01*
G37*
G36*
G01*
X150260000Y-1622305D02*
X150260000Y-722303D01*
G75*
G02*
X150509999Y-472304I249999J0D01*
G01*
X151035001Y-472304D01*
G75*
G02*
X151285000Y-722303I0J-249999D01*
G01*
X151285000Y-1622305D01*
G75*
G02*
X151035001Y-1872304I-249999J0D01*
G01*
X150509999Y-1872304D01*
G75*
G02*
X150260000Y-1622305I0J249999D01*
G01*
G37*
G36*
G01*
X148435000Y-1622305D02*
X148435000Y-722303D01*
G75*
G02*
X148684999Y-472304I249999J0D01*
G01*
X149210001Y-472304D01*
G75*
G02*
X149460000Y-722303I0J-249999D01*
G01*
X149460000Y-1622305D01*
G75*
G02*
X149210001Y-1872304I-249999J0D01*
G01*
X148684999Y-1872304D01*
G75*
G02*
X148435000Y-1622305I0J249999D01*
G01*
G37*
G36*
G01*
X150260000Y-6839073D02*
X150260000Y-5939071D01*
G75*
G02*
X150509999Y-5689072I249999J0D01*
G01*
X151035001Y-5689072D01*
G75*
G02*
X151285000Y-5939071I0J-249999D01*
G01*
X151285000Y-6839073D01*
G75*
G02*
X151035001Y-7089072I-249999J0D01*
G01*
X150509999Y-7089072D01*
G75*
G02*
X150260000Y-6839073I0J249999D01*
G01*
G37*
G36*
G01*
X148435000Y-6839073D02*
X148435000Y-5939071D01*
G75*
G02*
X148684999Y-5689072I249999J0D01*
G01*
X149210001Y-5689072D01*
G75*
G02*
X149460000Y-5939071I0J-249999D01*
G01*
X149460000Y-6839073D01*
G75*
G02*
X149210001Y-7089072I-249999J0D01*
G01*
X148684999Y-7089072D01*
G75*
G02*
X148435000Y-6839073I0J249999D01*
G01*
G37*
G36*
G01*
X159046500Y3633539D02*
X159046500Y4533541D01*
G75*
G02*
X159296499Y4783540I249999J0D01*
G01*
X159821501Y4783540D01*
G75*
G02*
X160071500Y4533541I0J-249999D01*
G01*
X160071500Y3633539D01*
G75*
G02*
X159821501Y3383540I-249999J0D01*
G01*
X159296499Y3383540D01*
G75*
G02*
X159046500Y3633539I0J249999D01*
G01*
G37*
G36*
G01*
X157221500Y3633539D02*
X157221500Y4533541D01*
G75*
G02*
X157471499Y4783540I249999J0D01*
G01*
X157996501Y4783540D01*
G75*
G02*
X158246500Y4533541I0J-249999D01*
G01*
X158246500Y3633539D01*
G75*
G02*
X157996501Y3383540I-249999J0D01*
G01*
X157471499Y3383540D01*
G75*
G02*
X157221500Y3633539I0J249999D01*
G01*
G37*
G36*
G01*
X159046500Y6232154D02*
X159046500Y7132156D01*
G75*
G02*
X159296499Y7382155I249999J0D01*
G01*
X159821501Y7382155D01*
G75*
G02*
X160071500Y7132156I0J-249999D01*
G01*
X160071500Y6232154D01*
G75*
G02*
X159821501Y5982155I-249999J0D01*
G01*
X159296499Y5982155D01*
G75*
G02*
X159046500Y6232154I0J249999D01*
G01*
G37*
G36*
G01*
X157221500Y6232154D02*
X157221500Y7132156D01*
G75*
G02*
X157471499Y7382155I249999J0D01*
G01*
X157996501Y7382155D01*
G75*
G02*
X158246500Y7132156I0J-249999D01*
G01*
X158246500Y6232154D01*
G75*
G02*
X157996501Y5982155I-249999J0D01*
G01*
X157471499Y5982155D01*
G75*
G02*
X157221500Y6232154I0J249999D01*
G01*
G37*
G36*
G01*
X159046500Y1034924D02*
X159046500Y1934926D01*
G75*
G02*
X159296499Y2184925I249999J0D01*
G01*
X159821501Y2184925D01*
G75*
G02*
X160071500Y1934926I0J-249999D01*
G01*
X160071500Y1034924D01*
G75*
G02*
X159821501Y784925I-249999J0D01*
G01*
X159296499Y784925D01*
G75*
G02*
X159046500Y1034924I0J249999D01*
G01*
G37*
G36*
G01*
X157221500Y1034924D02*
X157221500Y1934926D01*
G75*
G02*
X157471499Y2184925I249999J0D01*
G01*
X157996501Y2184925D01*
G75*
G02*
X158246500Y1934926I0J-249999D01*
G01*
X158246500Y1034924D01*
G75*
G02*
X157996501Y784925I-249999J0D01*
G01*
X157471499Y784925D01*
G75*
G02*
X157221500Y1034924I0J249999D01*
G01*
G37*
G36*
G01*
X150260000Y3594463D02*
X150260000Y4494465D01*
G75*
G02*
X150509999Y4744464I249999J0D01*
G01*
X151035001Y4744464D01*
G75*
G02*
X151285000Y4494465I0J-249999D01*
G01*
X151285000Y3594463D01*
G75*
G02*
X151035001Y3344464I-249999J0D01*
G01*
X150509999Y3344464D01*
G75*
G02*
X150260000Y3594463I0J249999D01*
G01*
G37*
G36*
G01*
X148435000Y3594463D02*
X148435000Y4494465D01*
G75*
G02*
X148684999Y4744464I249999J0D01*
G01*
X149210001Y4744464D01*
G75*
G02*
X149460000Y4494465I0J-249999D01*
G01*
X149460000Y3594463D01*
G75*
G02*
X149210001Y3344464I-249999J0D01*
G01*
X148684999Y3344464D01*
G75*
G02*
X148435000Y3594463I0J249999D01*
G01*
G37*
G36*
G01*
X150260000Y6202847D02*
X150260000Y7102849D01*
G75*
G02*
X150509999Y7352848I249999J0D01*
G01*
X151035001Y7352848D01*
G75*
G02*
X151285000Y7102849I0J-249999D01*
G01*
X151285000Y6202847D01*
G75*
G02*
X151035001Y5952848I-249999J0D01*
G01*
X150509999Y5952848D01*
G75*
G02*
X150260000Y6202847I0J249999D01*
G01*
G37*
G36*
G01*
X148435000Y6202847D02*
X148435000Y7102849D01*
G75*
G02*
X148684999Y7352848I249999J0D01*
G01*
X149210001Y7352848D01*
G75*
G02*
X149460000Y7102849I0J-249999D01*
G01*
X149460000Y6202847D01*
G75*
G02*
X149210001Y5952848I-249999J0D01*
G01*
X148684999Y5952848D01*
G75*
G02*
X148435000Y6202847I0J249999D01*
G01*
G37*
G36*
G01*
X150260000Y986079D02*
X150260000Y1886081D01*
G75*
G02*
X150509999Y2136080I249999J0D01*
G01*
X151035001Y2136080D01*
G75*
G02*
X151285000Y1886081I0J-249999D01*
G01*
X151285000Y986079D01*
G75*
G02*
X151035001Y736080I-249999J0D01*
G01*
X150509999Y736080D01*
G75*
G02*
X150260000Y986079I0J249999D01*
G01*
G37*
G36*
G01*
X148435000Y986079D02*
X148435000Y1886081D01*
G75*
G02*
X148684999Y2136080I249999J0D01*
G01*
X149210001Y2136080D01*
G75*
G02*
X149460000Y1886081I0J-249999D01*
G01*
X149460000Y986079D01*
G75*
G02*
X149210001Y736080I-249999J0D01*
G01*
X148684999Y736080D01*
G75*
G02*
X148435000Y986079I0J249999D01*
G01*
G37*
G36*
G01*
X159046500Y11429384D02*
X159046500Y12329386D01*
G75*
G02*
X159296499Y12579385I249999J0D01*
G01*
X159821501Y12579385D01*
G75*
G02*
X160071500Y12329386I0J-249999D01*
G01*
X160071500Y11429384D01*
G75*
G02*
X159821501Y11179385I-249999J0D01*
G01*
X159296499Y11179385D01*
G75*
G02*
X159046500Y11429384I0J249999D01*
G01*
G37*
G36*
G01*
X157221500Y11429384D02*
X157221500Y12329386D01*
G75*
G02*
X157471499Y12579385I249999J0D01*
G01*
X157996501Y12579385D01*
G75*
G02*
X158246500Y12329386I0J-249999D01*
G01*
X158246500Y11429384D01*
G75*
G02*
X157996501Y11179385I-249999J0D01*
G01*
X157471499Y11179385D01*
G75*
G02*
X157221500Y11429384I0J249999D01*
G01*
G37*
G36*
G01*
X159126500Y14027999D02*
X159126500Y14928001D01*
G75*
G02*
X159376499Y15178000I249999J0D01*
G01*
X159901501Y15178000D01*
G75*
G02*
X160151500Y14928001I0J-249999D01*
G01*
X160151500Y14027999D01*
G75*
G02*
X159901501Y13778000I-249999J0D01*
G01*
X159376499Y13778000D01*
G75*
G02*
X159126500Y14027999I0J249999D01*
G01*
G37*
G36*
G01*
X157301500Y14027999D02*
X157301500Y14928001D01*
G75*
G02*
X157551499Y15178000I249999J0D01*
G01*
X158076501Y15178000D01*
G75*
G02*
X158326500Y14928001I0J-249999D01*
G01*
X158326500Y14027999D01*
G75*
G02*
X158076501Y13778000I-249999J0D01*
G01*
X157551499Y13778000D01*
G75*
G02*
X157301500Y14027999I0J249999D01*
G01*
G37*
G36*
G01*
X159046500Y8830769D02*
X159046500Y9730771D01*
G75*
G02*
X159296499Y9980770I249999J0D01*
G01*
X159821501Y9980770D01*
G75*
G02*
X160071500Y9730771I0J-249999D01*
G01*
X160071500Y8830769D01*
G75*
G02*
X159821501Y8580770I-249999J0D01*
G01*
X159296499Y8580770D01*
G75*
G02*
X159046500Y8830769I0J249999D01*
G01*
G37*
G36*
G01*
X157221500Y8830769D02*
X157221500Y9730771D01*
G75*
G02*
X157471499Y9980770I249999J0D01*
G01*
X157996501Y9980770D01*
G75*
G02*
X158246500Y9730771I0J-249999D01*
G01*
X158246500Y8830769D01*
G75*
G02*
X157996501Y8580770I-249999J0D01*
G01*
X157471499Y8580770D01*
G75*
G02*
X157221500Y8830769I0J249999D01*
G01*
G37*
G36*
G01*
X150260000Y11419615D02*
X150260000Y12319617D01*
G75*
G02*
X150509999Y12569616I249999J0D01*
G01*
X151035001Y12569616D01*
G75*
G02*
X151285000Y12319617I0J-249999D01*
G01*
X151285000Y11419615D01*
G75*
G02*
X151035001Y11169616I-249999J0D01*
G01*
X150509999Y11169616D01*
G75*
G02*
X150260000Y11419615I0J249999D01*
G01*
G37*
G36*
G01*
X148435000Y11419615D02*
X148435000Y12319617D01*
G75*
G02*
X148684999Y12569616I249999J0D01*
G01*
X149210001Y12569616D01*
G75*
G02*
X149460000Y12319617I0J-249999D01*
G01*
X149460000Y11419615D01*
G75*
G02*
X149210001Y11169616I-249999J0D01*
G01*
X148684999Y11169616D01*
G75*
G02*
X148435000Y11419615I0J249999D01*
G01*
G37*
G36*
G01*
X150260000Y14027999D02*
X150260000Y14928001D01*
G75*
G02*
X150509999Y15178000I249999J0D01*
G01*
X151035001Y15178000D01*
G75*
G02*
X151285000Y14928001I0J-249999D01*
G01*
X151285000Y14027999D01*
G75*
G02*
X151035001Y13778000I-249999J0D01*
G01*
X150509999Y13778000D01*
G75*
G02*
X150260000Y14027999I0J249999D01*
G01*
G37*
G36*
G01*
X148435000Y14027999D02*
X148435000Y14928001D01*
G75*
G02*
X148684999Y15178000I249999J0D01*
G01*
X149210001Y15178000D01*
G75*
G02*
X149460000Y14928001I0J-249999D01*
G01*
X149460000Y14027999D01*
G75*
G02*
X149210001Y13778000I-249999J0D01*
G01*
X148684999Y13778000D01*
G75*
G02*
X148435000Y14027999I0J249999D01*
G01*
G37*
G36*
G01*
X150260000Y8811231D02*
X150260000Y9711233D01*
G75*
G02*
X150509999Y9961232I249999J0D01*
G01*
X151035001Y9961232D01*
G75*
G02*
X151285000Y9711233I0J-249999D01*
G01*
X151285000Y8811231D01*
G75*
G02*
X151035001Y8561232I-249999J0D01*
G01*
X150509999Y8561232D01*
G75*
G02*
X150260000Y8811231I0J249999D01*
G01*
G37*
G36*
G01*
X148435000Y8811231D02*
X148435000Y9711233D01*
G75*
G02*
X148684999Y9961232I249999J0D01*
G01*
X149210001Y9961232D01*
G75*
G02*
X149460000Y9711233I0J-249999D01*
G01*
X149460000Y8811231D01*
G75*
G02*
X149210001Y8561232I-249999J0D01*
G01*
X148684999Y8561232D01*
G75*
G02*
X148435000Y8811231I0J249999D01*
G01*
G37*
D16*
X145034000Y-19038000D03*
X145034000Y-16538000D03*
X145034000Y-14038000D03*
X145034000Y-11538000D03*
X145034000Y-9038000D03*
X145034000Y-6538000D03*
X145034000Y-4038000D03*
X145034000Y-1538000D03*
X145034000Y962000D03*
X145034000Y3462000D03*
X145034000Y5962000D03*
X145034000Y8462000D03*
X145034000Y10962000D03*
G36*
G01*
X144309000Y14312000D02*
X145759000Y14312000D01*
G75*
G02*
X146009000Y14062000I0J-250000D01*
G01*
X146009000Y12862000D01*
G75*
G02*
X145759000Y12612000I-250000J0D01*
G01*
X144309000Y12612000D01*
G75*
G02*
X144059000Y12862000I0J250000D01*
G01*
X144059000Y14062000D01*
G75*
G02*
X144309000Y14312000I250000J0D01*
G01*
G37*
D18*
X159566000Y39497000D03*
X154686000Y39497000D03*
D12*
X170558000Y-13589000D03*
D13*
X170558000Y-5969000D03*
X170558000Y4191000D03*
X170558000Y6731000D03*
D12*
X183385000Y-13589000D03*
D13*
X183385000Y-5969000D03*
X183385000Y4191000D03*
X183385000Y6731000D03*
D12*
X176781000Y-13589000D03*
D13*
X176781000Y-5969000D03*
X176781000Y4191000D03*
X176781000Y6731000D03*
D12*
X224155000Y-11983330D03*
D13*
X216535000Y-11983330D03*
X206375000Y-11983330D03*
X203835000Y-11983330D03*
D12*
X189735000Y-13589000D03*
D13*
X189735000Y-5969000D03*
X189735000Y4191000D03*
X189735000Y6731000D03*
D12*
X224155000Y2833336D03*
D13*
X216535000Y2833336D03*
X206375000Y2833336D03*
X203835000Y2833336D03*
D12*
X224155000Y-4574997D03*
D13*
X216535000Y-4574997D03*
X206375000Y-4574997D03*
X203835000Y-4574997D03*
D12*
X224155000Y17650002D03*
D13*
X216535000Y17650002D03*
X206375000Y17650002D03*
X203835000Y17650002D03*
D12*
X224155000Y10241669D03*
D13*
X216535000Y10241669D03*
X206375000Y10241669D03*
X203835000Y10241669D03*
D12*
X224155000Y32466668D03*
D13*
X216535000Y32466668D03*
X206375000Y32466668D03*
X203835000Y32466668D03*
D12*
X224155000Y25058335D03*
D13*
X216535000Y25058335D03*
X206375000Y25058335D03*
X203835000Y25058335D03*
D12*
X224155000Y47283334D03*
D13*
X216535000Y47283334D03*
X206375000Y47283334D03*
X203835000Y47283334D03*
D12*
X224155000Y39875001D03*
D13*
X216535000Y39875001D03*
X206375000Y39875001D03*
X203835000Y39875001D03*
D12*
X224155000Y62100000D03*
D13*
X216535000Y62100000D03*
X206375000Y62100000D03*
X203835000Y62100000D03*
D12*
X224155000Y54691667D03*
D13*
X216535000Y54691667D03*
X206375000Y54691667D03*
X203835000Y54691667D03*
D19*
X166831000Y-24003000D03*
D20*
X171831000Y-24003000D03*
D19*
X155655000Y-24003000D03*
D20*
X160655000Y-24003000D03*
D19*
X189310000Y-24003000D03*
D20*
X194310000Y-24003000D03*
D19*
X178134000Y-24003000D03*
D20*
X183134000Y-24003000D03*
D19*
X211662000Y-24003000D03*
D20*
X216662000Y-24003000D03*
D19*
X200486000Y-24003000D03*
D20*
X205486000Y-24003000D03*
D19*
X235518960Y-27987000D03*
D20*
X235518960Y-22987000D03*
D19*
X222838000Y-24003000D03*
D20*
X227838000Y-24003000D03*
D19*
X235511340Y-5876300D03*
D20*
X235511340Y-876300D03*
D19*
X235511340Y-16931640D03*
D20*
X235511340Y-11931640D03*
D19*
X235521500Y16273780D03*
D20*
X235521500Y21273780D03*
D19*
X235516420Y5204460D03*
D20*
X235516420Y10204460D03*
D19*
X235503720Y38450520D03*
D20*
X235503720Y43450520D03*
D19*
X235511340Y27363420D03*
D20*
X235511340Y32363420D03*
D19*
X235480860Y60537080D03*
D20*
X235480860Y65537080D03*
D19*
X235508800Y49526180D03*
D20*
X235508800Y54526180D03*
D10*
X167894000Y18923000D03*
D11*
X167894000Y16383000D03*
X165354000Y18923000D03*
X165354000Y16383000D03*
X162814000Y18923000D03*
X162814000Y16383000D03*
D10*
X189357000Y58801000D03*
D11*
X186817000Y58801000D03*
X189357000Y61341000D03*
X186817000Y61341000D03*
D21*
X152400000Y63500000D03*
G36*
G01*
X144900000Y62500000D02*
X144900000Y64500000D01*
G75*
G02*
X145650000Y65250000I750000J0D01*
G01*
X147150000Y65250000D01*
G75*
G02*
X147900000Y64500000I0J-750000D01*
G01*
X147900000Y62500000D01*
G75*
G02*
X147150000Y61750000I-750000J0D01*
G01*
X145650000Y61750000D01*
G75*
G02*
X144900000Y62500000I0J750000D01*
G01*
G37*
G36*
G01*
X147650000Y57925000D02*
X147650000Y59675000D01*
G75*
G02*
X148525000Y60550000I875000J0D01*
G01*
X150275000Y60550000D01*
G75*
G02*
X151150000Y59675000I0J-875000D01*
G01*
X151150000Y57925000D01*
G75*
G02*
X150275000Y57050000I-875000J0D01*
G01*
X148525000Y57050000D01*
G75*
G02*
X147650000Y57925000I0J875000D01*
G01*
G37*
M02*
