G04 #@! TF.GenerationSoftware,KiCad,Pcbnew,(5.1.12)-1*
G04 #@! TF.CreationDate,2021-11-18T21:12:02+02:00*
G04 #@! TF.ProjectId,SmartHome,536d6172-7448-46f6-9d65-2e6b69636164,rev?*
G04 #@! TF.SameCoordinates,Original*
G04 #@! TF.FileFunction,Copper,L1,Top*
G04 #@! TF.FilePolarity,Positive*
%FSLAX46Y46*%
G04 Gerber Fmt 4.6, Leading zero omitted, Abs format (unit mm)*
G04 Created by KiCad (PCBNEW (5.1.12)-1) date 2021-11-18 21:12:02*
%MOMM*%
%LPD*%
G01*
G04 APERTURE LIST*
G04 #@! TA.AperFunction,SMDPad,CuDef*
%ADD10R,2.500000X1.000000*%
G04 #@! TD*
G04 #@! TA.AperFunction,SMDPad,CuDef*
%ADD11R,1.000000X1.800000*%
G04 #@! TD*
G04 #@! TA.AperFunction,SMDPad,CuDef*
%ADD12R,0.550000X1.500000*%
G04 #@! TD*
G04 #@! TA.AperFunction,SMDPad,CuDef*
%ADD13R,1.500000X0.550000*%
G04 #@! TD*
G04 #@! TA.AperFunction,SMDPad,CuDef*
%ADD14R,1.000000X1.500000*%
G04 #@! TD*
G04 #@! TA.AperFunction,SMDPad,CuDef*
%ADD15C,0.100000*%
G04 #@! TD*
G04 #@! TA.AperFunction,ComponentPad*
%ADD16R,1.700000X1.700000*%
G04 #@! TD*
G04 #@! TA.AperFunction,ComponentPad*
%ADD17O,1.700000X1.700000*%
G04 #@! TD*
G04 #@! TA.AperFunction,ComponentPad*
%ADD18R,1.508000X1.508000*%
G04 #@! TD*
G04 #@! TA.AperFunction,ComponentPad*
%ADD19C,1.508000*%
G04 #@! TD*
G04 #@! TA.AperFunction,ComponentPad*
%ADD20C,1.400000*%
G04 #@! TD*
G04 #@! TA.AperFunction,ComponentPad*
%ADD21R,1.400000X1.400000*%
G04 #@! TD*
G04 #@! TA.AperFunction,ComponentPad*
%ADD22O,1.950000X1.700000*%
G04 #@! TD*
G04 #@! TA.AperFunction,ComponentPad*
%ADD23C,2.000000*%
G04 #@! TD*
G04 #@! TA.AperFunction,ComponentPad*
%ADD24C,1.500000*%
G04 #@! TD*
G04 #@! TA.AperFunction,ComponentPad*
%ADD25C,2.800000*%
G04 #@! TD*
G04 #@! TA.AperFunction,ComponentPad*
%ADD26R,2.800000X2.800000*%
G04 #@! TD*
G04 #@! TA.AperFunction,ComponentPad*
%ADD27R,3.500000X3.500000*%
G04 #@! TD*
G04 #@! TA.AperFunction,SMDPad,CuDef*
%ADD28R,1.000000X1.700000*%
G04 #@! TD*
G04 #@! TA.AperFunction,SMDPad,CuDef*
%ADD29R,3.800000X2.000000*%
G04 #@! TD*
G04 #@! TA.AperFunction,SMDPad,CuDef*
%ADD30R,1.500000X2.000000*%
G04 #@! TD*
G04 #@! TA.AperFunction,ViaPad*
%ADD31C,0.400000*%
G04 #@! TD*
G04 #@! TA.AperFunction,Conductor*
%ADD32C,0.200000*%
G04 #@! TD*
G04 #@! TA.AperFunction,Conductor*
%ADD33C,0.250000*%
G04 #@! TD*
G04 #@! TA.AperFunction,Conductor*
%ADD34C,0.800000*%
G04 #@! TD*
G04 APERTURE END LIST*
D10*
X164405000Y62682000D03*
X164405000Y60682000D03*
X164405000Y58682000D03*
X164405000Y56682000D03*
X164405000Y54682000D03*
X164405000Y52682000D03*
X164405000Y50682000D03*
X164405000Y48682000D03*
D11*
X167005000Y47182000D03*
X169005000Y47182000D03*
X171005000Y47182000D03*
X173005000Y47182000D03*
X175005000Y47182000D03*
X177005000Y47182000D03*
D10*
X179605000Y48682000D03*
X179605000Y50682000D03*
X179605000Y52682000D03*
X179605000Y54682000D03*
X179605000Y56682000D03*
X179605000Y58682000D03*
X179605000Y60682000D03*
X179605000Y62682000D03*
D12*
X168593000Y41133000D03*
X169393000Y41133000D03*
X170193000Y41133000D03*
X170993000Y41133000D03*
X171793000Y41133000D03*
X172593000Y41133000D03*
X173393000Y41133000D03*
X174193000Y41133000D03*
X174993000Y41133000D03*
X175793000Y41133000D03*
X176593000Y41133000D03*
D13*
X178293000Y39433000D03*
X178293000Y38633000D03*
X178293000Y37833000D03*
X178293000Y37033000D03*
X178293000Y36233000D03*
X178293000Y35433000D03*
X178293000Y34633000D03*
X178293000Y33833000D03*
X178293000Y33033000D03*
X178293000Y32233000D03*
X178293000Y31433000D03*
D12*
X176593000Y29733000D03*
X175793000Y29733000D03*
X174993000Y29733000D03*
X174193000Y29733000D03*
X173393000Y29733000D03*
X172593000Y29733000D03*
X171793000Y29733000D03*
X170993000Y29733000D03*
X170193000Y29733000D03*
X169393000Y29733000D03*
X168593000Y29733000D03*
D13*
X166893000Y31433000D03*
X166893000Y32233000D03*
X166893000Y33033000D03*
X166893000Y33833000D03*
X166893000Y34633000D03*
X166893000Y35433000D03*
X166893000Y36233000D03*
X166893000Y37033000D03*
X166893000Y37833000D03*
X166893000Y38633000D03*
X166893000Y39433000D03*
D14*
X189240640Y66012060D03*
G04 #@! TA.AperFunction,SMDPad,CuDef*
D15*
G36*
X187940640Y65262662D02*
G01*
X187916106Y65262662D01*
X187867275Y65267472D01*
X187819150Y65277044D01*
X187772195Y65291288D01*
X187726862Y65310065D01*
X187683589Y65333196D01*
X187642790Y65360456D01*
X187604861Y65391584D01*
X187570164Y65426281D01*
X187539036Y65464210D01*
X187511776Y65505009D01*
X187488645Y65548282D01*
X187469868Y65593615D01*
X187455624Y65640570D01*
X187446052Y65688695D01*
X187441242Y65737526D01*
X187441242Y65762060D01*
X187440640Y65762060D01*
X187440640Y66262060D01*
X187441242Y66262060D01*
X187441242Y66286594D01*
X187446052Y66335425D01*
X187455624Y66383550D01*
X187469868Y66430505D01*
X187488645Y66475838D01*
X187511776Y66519111D01*
X187539036Y66559910D01*
X187570164Y66597839D01*
X187604861Y66632536D01*
X187642790Y66663664D01*
X187683589Y66690924D01*
X187726862Y66714055D01*
X187772195Y66732832D01*
X187819150Y66747076D01*
X187867275Y66756648D01*
X187916106Y66761458D01*
X187940640Y66761458D01*
X187940640Y66762060D01*
X188490640Y66762060D01*
X188490640Y65262060D01*
X187940640Y65262060D01*
X187940640Y65262662D01*
G37*
G04 #@! TD.AperFunction*
G04 #@! TA.AperFunction,SMDPad,CuDef*
G36*
X189990640Y66762060D02*
G01*
X190540640Y66762060D01*
X190540640Y66761458D01*
X190565174Y66761458D01*
X190614005Y66756648D01*
X190662130Y66747076D01*
X190709085Y66732832D01*
X190754418Y66714055D01*
X190797691Y66690924D01*
X190838490Y66663664D01*
X190876419Y66632536D01*
X190911116Y66597839D01*
X190942244Y66559910D01*
X190969504Y66519111D01*
X190992635Y66475838D01*
X191011412Y66430505D01*
X191025656Y66383550D01*
X191035228Y66335425D01*
X191040038Y66286594D01*
X191040038Y66262060D01*
X191040640Y66262060D01*
X191040640Y65762060D01*
X191040038Y65762060D01*
X191040038Y65737526D01*
X191035228Y65688695D01*
X191025656Y65640570D01*
X191011412Y65593615D01*
X190992635Y65548282D01*
X190969504Y65505009D01*
X190942244Y65464210D01*
X190911116Y65426281D01*
X190876419Y65391584D01*
X190838490Y65360456D01*
X190797691Y65333196D01*
X190754418Y65310065D01*
X190709085Y65291288D01*
X190662130Y65277044D01*
X190614005Y65267472D01*
X190565174Y65262662D01*
X190540640Y65262662D01*
X190540640Y65262060D01*
X189990640Y65262060D01*
X189990640Y66762060D01*
G37*
G04 #@! TD.AperFunction*
D16*
X144264380Y53733700D03*
D17*
X144264380Y51193700D03*
X144264380Y48653700D03*
X144264380Y46113700D03*
D18*
X164208000Y-13589000D03*
D19*
X164208000Y-5969000D03*
X164208000Y4191000D03*
X164208000Y6731000D03*
D20*
X144780000Y-26797000D03*
D21*
X148590000Y-26797000D03*
D22*
X145034000Y21583000D03*
X145034000Y24083000D03*
X145034000Y26583000D03*
G04 #@! TA.AperFunction,ComponentPad*
G36*
G01*
X144309000Y29933000D02*
X145759000Y29933000D01*
G75*
G02*
X146009000Y29683000I0J-250000D01*
G01*
X146009000Y28483000D01*
G75*
G02*
X145759000Y28233000I-250000J0D01*
G01*
X144309000Y28233000D01*
G75*
G02*
X144059000Y28483000I0J250000D01*
G01*
X144059000Y29683000D01*
G75*
G02*
X144309000Y29933000I250000J0D01*
G01*
G37*
G04 #@! TD.AperFunction*
D23*
X143913860Y40845880D03*
X148413860Y40845880D03*
X143913860Y34345880D03*
X148413860Y34345880D03*
D22*
X145034000Y-19038000D03*
X145034000Y-16538000D03*
X145034000Y-14038000D03*
X145034000Y-11538000D03*
X145034000Y-9038000D03*
X145034000Y-6538000D03*
X145034000Y-4038000D03*
X145034000Y-1538000D03*
X145034000Y962000D03*
X145034000Y3462000D03*
X145034000Y5962000D03*
X145034000Y8462000D03*
X145034000Y10962000D03*
G04 #@! TA.AperFunction,ComponentPad*
G36*
G01*
X144309000Y14312000D02*
X145759000Y14312000D01*
G75*
G02*
X146009000Y14062000I0J-250000D01*
G01*
X146009000Y12862000D01*
G75*
G02*
X145759000Y12612000I-250000J0D01*
G01*
X144309000Y12612000D01*
G75*
G02*
X144059000Y12862000I0J250000D01*
G01*
X144059000Y14062000D01*
G75*
G02*
X144309000Y14312000I250000J0D01*
G01*
G37*
G04 #@! TD.AperFunction*
D24*
X159566000Y39497000D03*
X154686000Y39497000D03*
G04 #@! TA.AperFunction,SMDPad,CuDef*
G36*
G01*
X189660000Y53825000D02*
X189660000Y54125000D01*
G75*
G02*
X189810000Y54275000I150000J0D01*
G01*
X191260000Y54275000D01*
G75*
G02*
X191410000Y54125000I0J-150000D01*
G01*
X191410000Y53825000D01*
G75*
G02*
X191260000Y53675000I-150000J0D01*
G01*
X189810000Y53675000D01*
G75*
G02*
X189660000Y53825000I0J150000D01*
G01*
G37*
G04 #@! TD.AperFunction*
G04 #@! TA.AperFunction,SMDPad,CuDef*
G36*
G01*
X189660000Y52555000D02*
X189660000Y52855000D01*
G75*
G02*
X189810000Y53005000I150000J0D01*
G01*
X191260000Y53005000D01*
G75*
G02*
X191410000Y52855000I0J-150000D01*
G01*
X191410000Y52555000D01*
G75*
G02*
X191260000Y52405000I-150000J0D01*
G01*
X189810000Y52405000D01*
G75*
G02*
X189660000Y52555000I0J150000D01*
G01*
G37*
G04 #@! TD.AperFunction*
G04 #@! TA.AperFunction,SMDPad,CuDef*
G36*
G01*
X189660000Y51285000D02*
X189660000Y51585000D01*
G75*
G02*
X189810000Y51735000I150000J0D01*
G01*
X191260000Y51735000D01*
G75*
G02*
X191410000Y51585000I0J-150000D01*
G01*
X191410000Y51285000D01*
G75*
G02*
X191260000Y51135000I-150000J0D01*
G01*
X189810000Y51135000D01*
G75*
G02*
X189660000Y51285000I0J150000D01*
G01*
G37*
G04 #@! TD.AperFunction*
G04 #@! TA.AperFunction,SMDPad,CuDef*
G36*
G01*
X189660000Y50015000D02*
X189660000Y50315000D01*
G75*
G02*
X189810000Y50465000I150000J0D01*
G01*
X191260000Y50465000D01*
G75*
G02*
X191410000Y50315000I0J-150000D01*
G01*
X191410000Y50015000D01*
G75*
G02*
X191260000Y49865000I-150000J0D01*
G01*
X189810000Y49865000D01*
G75*
G02*
X189660000Y50015000I0J150000D01*
G01*
G37*
G04 #@! TD.AperFunction*
G04 #@! TA.AperFunction,SMDPad,CuDef*
G36*
G01*
X189660000Y48745000D02*
X189660000Y49045000D01*
G75*
G02*
X189810000Y49195000I150000J0D01*
G01*
X191260000Y49195000D01*
G75*
G02*
X191410000Y49045000I0J-150000D01*
G01*
X191410000Y48745000D01*
G75*
G02*
X191260000Y48595000I-150000J0D01*
G01*
X189810000Y48595000D01*
G75*
G02*
X189660000Y48745000I0J150000D01*
G01*
G37*
G04 #@! TD.AperFunction*
G04 #@! TA.AperFunction,SMDPad,CuDef*
G36*
G01*
X189660000Y47475000D02*
X189660000Y47775000D01*
G75*
G02*
X189810000Y47925000I150000J0D01*
G01*
X191260000Y47925000D01*
G75*
G02*
X191410000Y47775000I0J-150000D01*
G01*
X191410000Y47475000D01*
G75*
G02*
X191260000Y47325000I-150000J0D01*
G01*
X189810000Y47325000D01*
G75*
G02*
X189660000Y47475000I0J150000D01*
G01*
G37*
G04 #@! TD.AperFunction*
G04 #@! TA.AperFunction,SMDPad,CuDef*
G36*
G01*
X189660000Y46205000D02*
X189660000Y46505000D01*
G75*
G02*
X189810000Y46655000I150000J0D01*
G01*
X191260000Y46655000D01*
G75*
G02*
X191410000Y46505000I0J-150000D01*
G01*
X191410000Y46205000D01*
G75*
G02*
X191260000Y46055000I-150000J0D01*
G01*
X189810000Y46055000D01*
G75*
G02*
X189660000Y46205000I0J150000D01*
G01*
G37*
G04 #@! TD.AperFunction*
G04 #@! TA.AperFunction,SMDPad,CuDef*
G36*
G01*
X189660000Y44935000D02*
X189660000Y45235000D01*
G75*
G02*
X189810000Y45385000I150000J0D01*
G01*
X191260000Y45385000D01*
G75*
G02*
X191410000Y45235000I0J-150000D01*
G01*
X191410000Y44935000D01*
G75*
G02*
X191260000Y44785000I-150000J0D01*
G01*
X189810000Y44785000D01*
G75*
G02*
X189660000Y44935000I0J150000D01*
G01*
G37*
G04 #@! TD.AperFunction*
G04 #@! TA.AperFunction,SMDPad,CuDef*
G36*
G01*
X184510000Y44935000D02*
X184510000Y45235000D01*
G75*
G02*
X184660000Y45385000I150000J0D01*
G01*
X186110000Y45385000D01*
G75*
G02*
X186260000Y45235000I0J-150000D01*
G01*
X186260000Y44935000D01*
G75*
G02*
X186110000Y44785000I-150000J0D01*
G01*
X184660000Y44785000D01*
G75*
G02*
X184510000Y44935000I0J150000D01*
G01*
G37*
G04 #@! TD.AperFunction*
G04 #@! TA.AperFunction,SMDPad,CuDef*
G36*
G01*
X184510000Y46205000D02*
X184510000Y46505000D01*
G75*
G02*
X184660000Y46655000I150000J0D01*
G01*
X186110000Y46655000D01*
G75*
G02*
X186260000Y46505000I0J-150000D01*
G01*
X186260000Y46205000D01*
G75*
G02*
X186110000Y46055000I-150000J0D01*
G01*
X184660000Y46055000D01*
G75*
G02*
X184510000Y46205000I0J150000D01*
G01*
G37*
G04 #@! TD.AperFunction*
G04 #@! TA.AperFunction,SMDPad,CuDef*
G36*
G01*
X184510000Y47475000D02*
X184510000Y47775000D01*
G75*
G02*
X184660000Y47925000I150000J0D01*
G01*
X186110000Y47925000D01*
G75*
G02*
X186260000Y47775000I0J-150000D01*
G01*
X186260000Y47475000D01*
G75*
G02*
X186110000Y47325000I-150000J0D01*
G01*
X184660000Y47325000D01*
G75*
G02*
X184510000Y47475000I0J150000D01*
G01*
G37*
G04 #@! TD.AperFunction*
G04 #@! TA.AperFunction,SMDPad,CuDef*
G36*
G01*
X184510000Y48745000D02*
X184510000Y49045000D01*
G75*
G02*
X184660000Y49195000I150000J0D01*
G01*
X186110000Y49195000D01*
G75*
G02*
X186260000Y49045000I0J-150000D01*
G01*
X186260000Y48745000D01*
G75*
G02*
X186110000Y48595000I-150000J0D01*
G01*
X184660000Y48595000D01*
G75*
G02*
X184510000Y48745000I0J150000D01*
G01*
G37*
G04 #@! TD.AperFunction*
G04 #@! TA.AperFunction,SMDPad,CuDef*
G36*
G01*
X184510000Y50015000D02*
X184510000Y50315000D01*
G75*
G02*
X184660000Y50465000I150000J0D01*
G01*
X186110000Y50465000D01*
G75*
G02*
X186260000Y50315000I0J-150000D01*
G01*
X186260000Y50015000D01*
G75*
G02*
X186110000Y49865000I-150000J0D01*
G01*
X184660000Y49865000D01*
G75*
G02*
X184510000Y50015000I0J150000D01*
G01*
G37*
G04 #@! TD.AperFunction*
G04 #@! TA.AperFunction,SMDPad,CuDef*
G36*
G01*
X184510000Y51285000D02*
X184510000Y51585000D01*
G75*
G02*
X184660000Y51735000I150000J0D01*
G01*
X186110000Y51735000D01*
G75*
G02*
X186260000Y51585000I0J-150000D01*
G01*
X186260000Y51285000D01*
G75*
G02*
X186110000Y51135000I-150000J0D01*
G01*
X184660000Y51135000D01*
G75*
G02*
X184510000Y51285000I0J150000D01*
G01*
G37*
G04 #@! TD.AperFunction*
G04 #@! TA.AperFunction,SMDPad,CuDef*
G36*
G01*
X184510000Y52555000D02*
X184510000Y52855000D01*
G75*
G02*
X184660000Y53005000I150000J0D01*
G01*
X186110000Y53005000D01*
G75*
G02*
X186260000Y52855000I0J-150000D01*
G01*
X186260000Y52555000D01*
G75*
G02*
X186110000Y52405000I-150000J0D01*
G01*
X184660000Y52405000D01*
G75*
G02*
X184510000Y52555000I0J150000D01*
G01*
G37*
G04 #@! TD.AperFunction*
G04 #@! TA.AperFunction,SMDPad,CuDef*
G36*
G01*
X184510000Y53825000D02*
X184510000Y54125000D01*
G75*
G02*
X184660000Y54275000I150000J0D01*
G01*
X186110000Y54275000D01*
G75*
G02*
X186260000Y54125000I0J-150000D01*
G01*
X186260000Y53825000D01*
G75*
G02*
X186110000Y53675000I-150000J0D01*
G01*
X184660000Y53675000D01*
G75*
G02*
X184510000Y53825000I0J150000D01*
G01*
G37*
G04 #@! TD.AperFunction*
G04 #@! TA.AperFunction,SMDPad,CuDef*
G36*
G01*
X189660000Y30965000D02*
X189660000Y31265000D01*
G75*
G02*
X189810000Y31415000I150000J0D01*
G01*
X191260000Y31415000D01*
G75*
G02*
X191410000Y31265000I0J-150000D01*
G01*
X191410000Y30965000D01*
G75*
G02*
X191260000Y30815000I-150000J0D01*
G01*
X189810000Y30815000D01*
G75*
G02*
X189660000Y30965000I0J150000D01*
G01*
G37*
G04 #@! TD.AperFunction*
G04 #@! TA.AperFunction,SMDPad,CuDef*
G36*
G01*
X189660000Y29695000D02*
X189660000Y29995000D01*
G75*
G02*
X189810000Y30145000I150000J0D01*
G01*
X191260000Y30145000D01*
G75*
G02*
X191410000Y29995000I0J-150000D01*
G01*
X191410000Y29695000D01*
G75*
G02*
X191260000Y29545000I-150000J0D01*
G01*
X189810000Y29545000D01*
G75*
G02*
X189660000Y29695000I0J150000D01*
G01*
G37*
G04 #@! TD.AperFunction*
G04 #@! TA.AperFunction,SMDPad,CuDef*
G36*
G01*
X189660000Y28425000D02*
X189660000Y28725000D01*
G75*
G02*
X189810000Y28875000I150000J0D01*
G01*
X191260000Y28875000D01*
G75*
G02*
X191410000Y28725000I0J-150000D01*
G01*
X191410000Y28425000D01*
G75*
G02*
X191260000Y28275000I-150000J0D01*
G01*
X189810000Y28275000D01*
G75*
G02*
X189660000Y28425000I0J150000D01*
G01*
G37*
G04 #@! TD.AperFunction*
G04 #@! TA.AperFunction,SMDPad,CuDef*
G36*
G01*
X189660000Y27155000D02*
X189660000Y27455000D01*
G75*
G02*
X189810000Y27605000I150000J0D01*
G01*
X191260000Y27605000D01*
G75*
G02*
X191410000Y27455000I0J-150000D01*
G01*
X191410000Y27155000D01*
G75*
G02*
X191260000Y27005000I-150000J0D01*
G01*
X189810000Y27005000D01*
G75*
G02*
X189660000Y27155000I0J150000D01*
G01*
G37*
G04 #@! TD.AperFunction*
G04 #@! TA.AperFunction,SMDPad,CuDef*
G36*
G01*
X189660000Y25885000D02*
X189660000Y26185000D01*
G75*
G02*
X189810000Y26335000I150000J0D01*
G01*
X191260000Y26335000D01*
G75*
G02*
X191410000Y26185000I0J-150000D01*
G01*
X191410000Y25885000D01*
G75*
G02*
X191260000Y25735000I-150000J0D01*
G01*
X189810000Y25735000D01*
G75*
G02*
X189660000Y25885000I0J150000D01*
G01*
G37*
G04 #@! TD.AperFunction*
G04 #@! TA.AperFunction,SMDPad,CuDef*
G36*
G01*
X189660000Y24615000D02*
X189660000Y24915000D01*
G75*
G02*
X189810000Y25065000I150000J0D01*
G01*
X191260000Y25065000D01*
G75*
G02*
X191410000Y24915000I0J-150000D01*
G01*
X191410000Y24615000D01*
G75*
G02*
X191260000Y24465000I-150000J0D01*
G01*
X189810000Y24465000D01*
G75*
G02*
X189660000Y24615000I0J150000D01*
G01*
G37*
G04 #@! TD.AperFunction*
G04 #@! TA.AperFunction,SMDPad,CuDef*
G36*
G01*
X189660000Y23345000D02*
X189660000Y23645000D01*
G75*
G02*
X189810000Y23795000I150000J0D01*
G01*
X191260000Y23795000D01*
G75*
G02*
X191410000Y23645000I0J-150000D01*
G01*
X191410000Y23345000D01*
G75*
G02*
X191260000Y23195000I-150000J0D01*
G01*
X189810000Y23195000D01*
G75*
G02*
X189660000Y23345000I0J150000D01*
G01*
G37*
G04 #@! TD.AperFunction*
G04 #@! TA.AperFunction,SMDPad,CuDef*
G36*
G01*
X189660000Y22075000D02*
X189660000Y22375000D01*
G75*
G02*
X189810000Y22525000I150000J0D01*
G01*
X191260000Y22525000D01*
G75*
G02*
X191410000Y22375000I0J-150000D01*
G01*
X191410000Y22075000D01*
G75*
G02*
X191260000Y21925000I-150000J0D01*
G01*
X189810000Y21925000D01*
G75*
G02*
X189660000Y22075000I0J150000D01*
G01*
G37*
G04 #@! TD.AperFunction*
G04 #@! TA.AperFunction,SMDPad,CuDef*
G36*
G01*
X184510000Y22075000D02*
X184510000Y22375000D01*
G75*
G02*
X184660000Y22525000I150000J0D01*
G01*
X186110000Y22525000D01*
G75*
G02*
X186260000Y22375000I0J-150000D01*
G01*
X186260000Y22075000D01*
G75*
G02*
X186110000Y21925000I-150000J0D01*
G01*
X184660000Y21925000D01*
G75*
G02*
X184510000Y22075000I0J150000D01*
G01*
G37*
G04 #@! TD.AperFunction*
G04 #@! TA.AperFunction,SMDPad,CuDef*
G36*
G01*
X184510000Y23345000D02*
X184510000Y23645000D01*
G75*
G02*
X184660000Y23795000I150000J0D01*
G01*
X186110000Y23795000D01*
G75*
G02*
X186260000Y23645000I0J-150000D01*
G01*
X186260000Y23345000D01*
G75*
G02*
X186110000Y23195000I-150000J0D01*
G01*
X184660000Y23195000D01*
G75*
G02*
X184510000Y23345000I0J150000D01*
G01*
G37*
G04 #@! TD.AperFunction*
G04 #@! TA.AperFunction,SMDPad,CuDef*
G36*
G01*
X184510000Y24615000D02*
X184510000Y24915000D01*
G75*
G02*
X184660000Y25065000I150000J0D01*
G01*
X186110000Y25065000D01*
G75*
G02*
X186260000Y24915000I0J-150000D01*
G01*
X186260000Y24615000D01*
G75*
G02*
X186110000Y24465000I-150000J0D01*
G01*
X184660000Y24465000D01*
G75*
G02*
X184510000Y24615000I0J150000D01*
G01*
G37*
G04 #@! TD.AperFunction*
G04 #@! TA.AperFunction,SMDPad,CuDef*
G36*
G01*
X184510000Y25885000D02*
X184510000Y26185000D01*
G75*
G02*
X184660000Y26335000I150000J0D01*
G01*
X186110000Y26335000D01*
G75*
G02*
X186260000Y26185000I0J-150000D01*
G01*
X186260000Y25885000D01*
G75*
G02*
X186110000Y25735000I-150000J0D01*
G01*
X184660000Y25735000D01*
G75*
G02*
X184510000Y25885000I0J150000D01*
G01*
G37*
G04 #@! TD.AperFunction*
G04 #@! TA.AperFunction,SMDPad,CuDef*
G36*
G01*
X184510000Y27155000D02*
X184510000Y27455000D01*
G75*
G02*
X184660000Y27605000I150000J0D01*
G01*
X186110000Y27605000D01*
G75*
G02*
X186260000Y27455000I0J-150000D01*
G01*
X186260000Y27155000D01*
G75*
G02*
X186110000Y27005000I-150000J0D01*
G01*
X184660000Y27005000D01*
G75*
G02*
X184510000Y27155000I0J150000D01*
G01*
G37*
G04 #@! TD.AperFunction*
G04 #@! TA.AperFunction,SMDPad,CuDef*
G36*
G01*
X184510000Y28425000D02*
X184510000Y28725000D01*
G75*
G02*
X184660000Y28875000I150000J0D01*
G01*
X186110000Y28875000D01*
G75*
G02*
X186260000Y28725000I0J-150000D01*
G01*
X186260000Y28425000D01*
G75*
G02*
X186110000Y28275000I-150000J0D01*
G01*
X184660000Y28275000D01*
G75*
G02*
X184510000Y28425000I0J150000D01*
G01*
G37*
G04 #@! TD.AperFunction*
G04 #@! TA.AperFunction,SMDPad,CuDef*
G36*
G01*
X184510000Y29695000D02*
X184510000Y29995000D01*
G75*
G02*
X184660000Y30145000I150000J0D01*
G01*
X186110000Y30145000D01*
G75*
G02*
X186260000Y29995000I0J-150000D01*
G01*
X186260000Y29695000D01*
G75*
G02*
X186110000Y29545000I-150000J0D01*
G01*
X184660000Y29545000D01*
G75*
G02*
X184510000Y29695000I0J150000D01*
G01*
G37*
G04 #@! TD.AperFunction*
G04 #@! TA.AperFunction,SMDPad,CuDef*
G36*
G01*
X184510000Y30965000D02*
X184510000Y31265000D01*
G75*
G02*
X184660000Y31415000I150000J0D01*
G01*
X186110000Y31415000D01*
G75*
G02*
X186260000Y31265000I0J-150000D01*
G01*
X186260000Y30965000D01*
G75*
G02*
X186110000Y30815000I-150000J0D01*
G01*
X184660000Y30815000D01*
G75*
G02*
X184510000Y30965000I0J150000D01*
G01*
G37*
G04 #@! TD.AperFunction*
G04 #@! TA.AperFunction,SMDPad,CuDef*
G36*
G01*
X189660000Y42395000D02*
X189660000Y42695000D01*
G75*
G02*
X189810000Y42845000I150000J0D01*
G01*
X191260000Y42845000D01*
G75*
G02*
X191410000Y42695000I0J-150000D01*
G01*
X191410000Y42395000D01*
G75*
G02*
X191260000Y42245000I-150000J0D01*
G01*
X189810000Y42245000D01*
G75*
G02*
X189660000Y42395000I0J150000D01*
G01*
G37*
G04 #@! TD.AperFunction*
G04 #@! TA.AperFunction,SMDPad,CuDef*
G36*
G01*
X189660000Y41125000D02*
X189660000Y41425000D01*
G75*
G02*
X189810000Y41575000I150000J0D01*
G01*
X191260000Y41575000D01*
G75*
G02*
X191410000Y41425000I0J-150000D01*
G01*
X191410000Y41125000D01*
G75*
G02*
X191260000Y40975000I-150000J0D01*
G01*
X189810000Y40975000D01*
G75*
G02*
X189660000Y41125000I0J150000D01*
G01*
G37*
G04 #@! TD.AperFunction*
G04 #@! TA.AperFunction,SMDPad,CuDef*
G36*
G01*
X189660000Y39855000D02*
X189660000Y40155000D01*
G75*
G02*
X189810000Y40305000I150000J0D01*
G01*
X191260000Y40305000D01*
G75*
G02*
X191410000Y40155000I0J-150000D01*
G01*
X191410000Y39855000D01*
G75*
G02*
X191260000Y39705000I-150000J0D01*
G01*
X189810000Y39705000D01*
G75*
G02*
X189660000Y39855000I0J150000D01*
G01*
G37*
G04 #@! TD.AperFunction*
G04 #@! TA.AperFunction,SMDPad,CuDef*
G36*
G01*
X189660000Y38585000D02*
X189660000Y38885000D01*
G75*
G02*
X189810000Y39035000I150000J0D01*
G01*
X191260000Y39035000D01*
G75*
G02*
X191410000Y38885000I0J-150000D01*
G01*
X191410000Y38585000D01*
G75*
G02*
X191260000Y38435000I-150000J0D01*
G01*
X189810000Y38435000D01*
G75*
G02*
X189660000Y38585000I0J150000D01*
G01*
G37*
G04 #@! TD.AperFunction*
G04 #@! TA.AperFunction,SMDPad,CuDef*
G36*
G01*
X189660000Y37315000D02*
X189660000Y37615000D01*
G75*
G02*
X189810000Y37765000I150000J0D01*
G01*
X191260000Y37765000D01*
G75*
G02*
X191410000Y37615000I0J-150000D01*
G01*
X191410000Y37315000D01*
G75*
G02*
X191260000Y37165000I-150000J0D01*
G01*
X189810000Y37165000D01*
G75*
G02*
X189660000Y37315000I0J150000D01*
G01*
G37*
G04 #@! TD.AperFunction*
G04 #@! TA.AperFunction,SMDPad,CuDef*
G36*
G01*
X189660000Y36045000D02*
X189660000Y36345000D01*
G75*
G02*
X189810000Y36495000I150000J0D01*
G01*
X191260000Y36495000D01*
G75*
G02*
X191410000Y36345000I0J-150000D01*
G01*
X191410000Y36045000D01*
G75*
G02*
X191260000Y35895000I-150000J0D01*
G01*
X189810000Y35895000D01*
G75*
G02*
X189660000Y36045000I0J150000D01*
G01*
G37*
G04 #@! TD.AperFunction*
G04 #@! TA.AperFunction,SMDPad,CuDef*
G36*
G01*
X189660000Y34775000D02*
X189660000Y35075000D01*
G75*
G02*
X189810000Y35225000I150000J0D01*
G01*
X191260000Y35225000D01*
G75*
G02*
X191410000Y35075000I0J-150000D01*
G01*
X191410000Y34775000D01*
G75*
G02*
X191260000Y34625000I-150000J0D01*
G01*
X189810000Y34625000D01*
G75*
G02*
X189660000Y34775000I0J150000D01*
G01*
G37*
G04 #@! TD.AperFunction*
G04 #@! TA.AperFunction,SMDPad,CuDef*
G36*
G01*
X189660000Y33505000D02*
X189660000Y33805000D01*
G75*
G02*
X189810000Y33955000I150000J0D01*
G01*
X191260000Y33955000D01*
G75*
G02*
X191410000Y33805000I0J-150000D01*
G01*
X191410000Y33505000D01*
G75*
G02*
X191260000Y33355000I-150000J0D01*
G01*
X189810000Y33355000D01*
G75*
G02*
X189660000Y33505000I0J150000D01*
G01*
G37*
G04 #@! TD.AperFunction*
G04 #@! TA.AperFunction,SMDPad,CuDef*
G36*
G01*
X184510000Y33505000D02*
X184510000Y33805000D01*
G75*
G02*
X184660000Y33955000I150000J0D01*
G01*
X186110000Y33955000D01*
G75*
G02*
X186260000Y33805000I0J-150000D01*
G01*
X186260000Y33505000D01*
G75*
G02*
X186110000Y33355000I-150000J0D01*
G01*
X184660000Y33355000D01*
G75*
G02*
X184510000Y33505000I0J150000D01*
G01*
G37*
G04 #@! TD.AperFunction*
G04 #@! TA.AperFunction,SMDPad,CuDef*
G36*
G01*
X184510000Y34775000D02*
X184510000Y35075000D01*
G75*
G02*
X184660000Y35225000I150000J0D01*
G01*
X186110000Y35225000D01*
G75*
G02*
X186260000Y35075000I0J-150000D01*
G01*
X186260000Y34775000D01*
G75*
G02*
X186110000Y34625000I-150000J0D01*
G01*
X184660000Y34625000D01*
G75*
G02*
X184510000Y34775000I0J150000D01*
G01*
G37*
G04 #@! TD.AperFunction*
G04 #@! TA.AperFunction,SMDPad,CuDef*
G36*
G01*
X184510000Y36045000D02*
X184510000Y36345000D01*
G75*
G02*
X184660000Y36495000I150000J0D01*
G01*
X186110000Y36495000D01*
G75*
G02*
X186260000Y36345000I0J-150000D01*
G01*
X186260000Y36045000D01*
G75*
G02*
X186110000Y35895000I-150000J0D01*
G01*
X184660000Y35895000D01*
G75*
G02*
X184510000Y36045000I0J150000D01*
G01*
G37*
G04 #@! TD.AperFunction*
G04 #@! TA.AperFunction,SMDPad,CuDef*
G36*
G01*
X184510000Y37315000D02*
X184510000Y37615000D01*
G75*
G02*
X184660000Y37765000I150000J0D01*
G01*
X186110000Y37765000D01*
G75*
G02*
X186260000Y37615000I0J-150000D01*
G01*
X186260000Y37315000D01*
G75*
G02*
X186110000Y37165000I-150000J0D01*
G01*
X184660000Y37165000D01*
G75*
G02*
X184510000Y37315000I0J150000D01*
G01*
G37*
G04 #@! TD.AperFunction*
G04 #@! TA.AperFunction,SMDPad,CuDef*
G36*
G01*
X184510000Y38585000D02*
X184510000Y38885000D01*
G75*
G02*
X184660000Y39035000I150000J0D01*
G01*
X186110000Y39035000D01*
G75*
G02*
X186260000Y38885000I0J-150000D01*
G01*
X186260000Y38585000D01*
G75*
G02*
X186110000Y38435000I-150000J0D01*
G01*
X184660000Y38435000D01*
G75*
G02*
X184510000Y38585000I0J150000D01*
G01*
G37*
G04 #@! TD.AperFunction*
G04 #@! TA.AperFunction,SMDPad,CuDef*
G36*
G01*
X184510000Y39855000D02*
X184510000Y40155000D01*
G75*
G02*
X184660000Y40305000I150000J0D01*
G01*
X186110000Y40305000D01*
G75*
G02*
X186260000Y40155000I0J-150000D01*
G01*
X186260000Y39855000D01*
G75*
G02*
X186110000Y39705000I-150000J0D01*
G01*
X184660000Y39705000D01*
G75*
G02*
X184510000Y39855000I0J150000D01*
G01*
G37*
G04 #@! TD.AperFunction*
G04 #@! TA.AperFunction,SMDPad,CuDef*
G36*
G01*
X184510000Y41125000D02*
X184510000Y41425000D01*
G75*
G02*
X184660000Y41575000I150000J0D01*
G01*
X186110000Y41575000D01*
G75*
G02*
X186260000Y41425000I0J-150000D01*
G01*
X186260000Y41125000D01*
G75*
G02*
X186110000Y40975000I-150000J0D01*
G01*
X184660000Y40975000D01*
G75*
G02*
X184510000Y41125000I0J150000D01*
G01*
G37*
G04 #@! TD.AperFunction*
G04 #@! TA.AperFunction,SMDPad,CuDef*
G36*
G01*
X184510000Y42395000D02*
X184510000Y42695000D01*
G75*
G02*
X184660000Y42845000I150000J0D01*
G01*
X186110000Y42845000D01*
G75*
G02*
X186260000Y42695000I0J-150000D01*
G01*
X186260000Y42395000D01*
G75*
G02*
X186110000Y42245000I-150000J0D01*
G01*
X184660000Y42245000D01*
G75*
G02*
X184510000Y42395000I0J150000D01*
G01*
G37*
G04 #@! TD.AperFunction*
G04 #@! TA.AperFunction,SMDPad,CuDef*
G36*
G01*
X174186001Y11830000D02*
X173285999Y11830000D01*
G75*
G02*
X173036000Y12079999I0J249999D01*
G01*
X173036000Y12605001D01*
G75*
G02*
X173285999Y12855000I249999J0D01*
G01*
X174186001Y12855000D01*
G75*
G02*
X174436000Y12605001I0J-249999D01*
G01*
X174436000Y12079999D01*
G75*
G02*
X174186001Y11830000I-249999J0D01*
G01*
G37*
G04 #@! TD.AperFunction*
G04 #@! TA.AperFunction,SMDPad,CuDef*
G36*
G01*
X174186001Y10005000D02*
X173285999Y10005000D01*
G75*
G02*
X173036000Y10254999I0J249999D01*
G01*
X173036000Y10780001D01*
G75*
G02*
X173285999Y11030000I249999J0D01*
G01*
X174186001Y11030000D01*
G75*
G02*
X174436000Y10780001I0J-249999D01*
G01*
X174436000Y10254999D01*
G75*
G02*
X174186001Y10005000I-249999J0D01*
G01*
G37*
G04 #@! TD.AperFunction*
G04 #@! TA.AperFunction,SMDPad,CuDef*
G36*
G01*
X167836001Y11830000D02*
X166935999Y11830000D01*
G75*
G02*
X166686000Y12079999I0J249999D01*
G01*
X166686000Y12605001D01*
G75*
G02*
X166935999Y12855000I249999J0D01*
G01*
X167836001Y12855000D01*
G75*
G02*
X168086000Y12605001I0J-249999D01*
G01*
X168086000Y12079999D01*
G75*
G02*
X167836001Y11830000I-249999J0D01*
G01*
G37*
G04 #@! TD.AperFunction*
G04 #@! TA.AperFunction,SMDPad,CuDef*
G36*
G01*
X167836001Y10005000D02*
X166935999Y10005000D01*
G75*
G02*
X166686000Y10254999I0J249999D01*
G01*
X166686000Y10780001D01*
G75*
G02*
X166935999Y11030000I249999J0D01*
G01*
X167836001Y11030000D01*
G75*
G02*
X168086000Y10780001I0J-249999D01*
G01*
X168086000Y10254999D01*
G75*
G02*
X167836001Y10005000I-249999J0D01*
G01*
G37*
G04 #@! TD.AperFunction*
G04 #@! TA.AperFunction,SMDPad,CuDef*
G36*
G01*
X186632001Y11830000D02*
X185731999Y11830000D01*
G75*
G02*
X185482000Y12079999I0J249999D01*
G01*
X185482000Y12605001D01*
G75*
G02*
X185731999Y12855000I249999J0D01*
G01*
X186632001Y12855000D01*
G75*
G02*
X186882000Y12605001I0J-249999D01*
G01*
X186882000Y12079999D01*
G75*
G02*
X186632001Y11830000I-249999J0D01*
G01*
G37*
G04 #@! TD.AperFunction*
G04 #@! TA.AperFunction,SMDPad,CuDef*
G36*
G01*
X186632001Y10005000D02*
X185731999Y10005000D01*
G75*
G02*
X185482000Y10254999I0J249999D01*
G01*
X185482000Y10780001D01*
G75*
G02*
X185731999Y11030000I249999J0D01*
G01*
X186632001Y11030000D01*
G75*
G02*
X186882000Y10780001I0J-249999D01*
G01*
X186882000Y10254999D01*
G75*
G02*
X186632001Y10005000I-249999J0D01*
G01*
G37*
G04 #@! TD.AperFunction*
G04 #@! TA.AperFunction,SMDPad,CuDef*
G36*
G01*
X180409001Y11830000D02*
X179508999Y11830000D01*
G75*
G02*
X179259000Y12079999I0J249999D01*
G01*
X179259000Y12605001D01*
G75*
G02*
X179508999Y12855000I249999J0D01*
G01*
X180409001Y12855000D01*
G75*
G02*
X180659000Y12605001I0J-249999D01*
G01*
X180659000Y12079999D01*
G75*
G02*
X180409001Y11830000I-249999J0D01*
G01*
G37*
G04 #@! TD.AperFunction*
G04 #@! TA.AperFunction,SMDPad,CuDef*
G36*
G01*
X180409001Y10005000D02*
X179508999Y10005000D01*
G75*
G02*
X179259000Y10254999I0J249999D01*
G01*
X179259000Y10780001D01*
G75*
G02*
X179508999Y11030000I249999J0D01*
G01*
X180409001Y11030000D01*
G75*
G02*
X180659000Y10780001I0J-249999D01*
G01*
X180659000Y10254999D01*
G75*
G02*
X180409001Y10005000I-249999J0D01*
G01*
G37*
G04 #@! TD.AperFunction*
G04 #@! TA.AperFunction,SMDPad,CuDef*
G36*
G01*
X197250000Y-7967581D02*
X197250000Y-7067579D01*
G75*
G02*
X197499999Y-6817580I249999J0D01*
G01*
X198025001Y-6817580D01*
G75*
G02*
X198275000Y-7067579I0J-249999D01*
G01*
X198275000Y-7967581D01*
G75*
G02*
X198025001Y-8217580I-249999J0D01*
G01*
X197499999Y-8217580D01*
G75*
G02*
X197250000Y-7967581I0J249999D01*
G01*
G37*
G04 #@! TD.AperFunction*
G04 #@! TA.AperFunction,SMDPad,CuDef*
G36*
G01*
X195425000Y-7967581D02*
X195425000Y-7067579D01*
G75*
G02*
X195674999Y-6817580I249999J0D01*
G01*
X196200001Y-6817580D01*
G75*
G02*
X196450000Y-7067579I0J-249999D01*
G01*
X196450000Y-7967581D01*
G75*
G02*
X196200001Y-8217580I-249999J0D01*
G01*
X195674999Y-8217580D01*
G75*
G02*
X195425000Y-7967581I0J249999D01*
G01*
G37*
G04 #@! TD.AperFunction*
G04 #@! TA.AperFunction,SMDPad,CuDef*
G36*
G01*
X191839001Y11830000D02*
X190938999Y11830000D01*
G75*
G02*
X190689000Y12079999I0J249999D01*
G01*
X190689000Y12605001D01*
G75*
G02*
X190938999Y12855000I249999J0D01*
G01*
X191839001Y12855000D01*
G75*
G02*
X192089000Y12605001I0J-249999D01*
G01*
X192089000Y12079999D01*
G75*
G02*
X191839001Y11830000I-249999J0D01*
G01*
G37*
G04 #@! TD.AperFunction*
G04 #@! TA.AperFunction,SMDPad,CuDef*
G36*
G01*
X191839001Y10005000D02*
X190938999Y10005000D01*
G75*
G02*
X190689000Y10254999I0J249999D01*
G01*
X190689000Y10780001D01*
G75*
G02*
X190938999Y11030000I249999J0D01*
G01*
X191839001Y11030000D01*
G75*
G02*
X192089000Y10780001I0J-249999D01*
G01*
X192089000Y10254999D01*
G75*
G02*
X191839001Y10005000I-249999J0D01*
G01*
G37*
G04 #@! TD.AperFunction*
G04 #@! TA.AperFunction,SMDPad,CuDef*
G36*
G01*
X197250000Y6616935D02*
X197250000Y7516937D01*
G75*
G02*
X197499999Y7766936I249999J0D01*
G01*
X198025001Y7766936D01*
G75*
G02*
X198275000Y7516937I0J-249999D01*
G01*
X198275000Y6616935D01*
G75*
G02*
X198025001Y6366936I-249999J0D01*
G01*
X197499999Y6366936D01*
G75*
G02*
X197250000Y6616935I0J249999D01*
G01*
G37*
G04 #@! TD.AperFunction*
G04 #@! TA.AperFunction,SMDPad,CuDef*
G36*
G01*
X195425000Y6616935D02*
X195425000Y7516937D01*
G75*
G02*
X195674999Y7766936I249999J0D01*
G01*
X196200001Y7766936D01*
G75*
G02*
X196450000Y7516937I0J-249999D01*
G01*
X196450000Y6616935D01*
G75*
G02*
X196200001Y6366936I-249999J0D01*
G01*
X195674999Y6366936D01*
G75*
G02*
X195425000Y6616935I0J249999D01*
G01*
G37*
G04 #@! TD.AperFunction*
G04 #@! TA.AperFunction,SMDPad,CuDef*
G36*
G01*
X197250000Y-675323D02*
X197250000Y224679D01*
G75*
G02*
X197499999Y474678I249999J0D01*
G01*
X198025001Y474678D01*
G75*
G02*
X198275000Y224679I0J-249999D01*
G01*
X198275000Y-675323D01*
G75*
G02*
X198025001Y-925322I-249999J0D01*
G01*
X197499999Y-925322D01*
G75*
G02*
X197250000Y-675323I0J249999D01*
G01*
G37*
G04 #@! TD.AperFunction*
G04 #@! TA.AperFunction,SMDPad,CuDef*
G36*
G01*
X195425000Y-675323D02*
X195425000Y224679D01*
G75*
G02*
X195674999Y474678I249999J0D01*
G01*
X196200001Y474678D01*
G75*
G02*
X196450000Y224679I0J-249999D01*
G01*
X196450000Y-675323D01*
G75*
G02*
X196200001Y-925322I-249999J0D01*
G01*
X195674999Y-925322D01*
G75*
G02*
X195425000Y-675323I0J249999D01*
G01*
G37*
G04 #@! TD.AperFunction*
G04 #@! TA.AperFunction,SMDPad,CuDef*
G36*
G01*
X197250000Y21201451D02*
X197250000Y22101453D01*
G75*
G02*
X197499999Y22351452I249999J0D01*
G01*
X198025001Y22351452D01*
G75*
G02*
X198275000Y22101453I0J-249999D01*
G01*
X198275000Y21201451D01*
G75*
G02*
X198025001Y20951452I-249999J0D01*
G01*
X197499999Y20951452D01*
G75*
G02*
X197250000Y21201451I0J249999D01*
G01*
G37*
G04 #@! TD.AperFunction*
G04 #@! TA.AperFunction,SMDPad,CuDef*
G36*
G01*
X195425000Y21201451D02*
X195425000Y22101453D01*
G75*
G02*
X195674999Y22351452I249999J0D01*
G01*
X196200001Y22351452D01*
G75*
G02*
X196450000Y22101453I0J-249999D01*
G01*
X196450000Y21201451D01*
G75*
G02*
X196200001Y20951452I-249999J0D01*
G01*
X195674999Y20951452D01*
G75*
G02*
X195425000Y21201451I0J249999D01*
G01*
G37*
G04 #@! TD.AperFunction*
G04 #@! TA.AperFunction,SMDPad,CuDef*
G36*
G01*
X197250000Y13909193D02*
X197250000Y14809195D01*
G75*
G02*
X197499999Y15059194I249999J0D01*
G01*
X198025001Y15059194D01*
G75*
G02*
X198275000Y14809195I0J-249999D01*
G01*
X198275000Y13909193D01*
G75*
G02*
X198025001Y13659194I-249999J0D01*
G01*
X197499999Y13659194D01*
G75*
G02*
X197250000Y13909193I0J249999D01*
G01*
G37*
G04 #@! TD.AperFunction*
G04 #@! TA.AperFunction,SMDPad,CuDef*
G36*
G01*
X195425000Y13909193D02*
X195425000Y14809195D01*
G75*
G02*
X195674999Y15059194I249999J0D01*
G01*
X196200001Y15059194D01*
G75*
G02*
X196450000Y14809195I0J-249999D01*
G01*
X196450000Y13909193D01*
G75*
G02*
X196200001Y13659194I-249999J0D01*
G01*
X195674999Y13659194D01*
G75*
G02*
X195425000Y13909193I0J249999D01*
G01*
G37*
G04 #@! TD.AperFunction*
G04 #@! TA.AperFunction,SMDPad,CuDef*
G36*
G01*
X197250000Y35785967D02*
X197250000Y36685969D01*
G75*
G02*
X197499999Y36935968I249999J0D01*
G01*
X198025001Y36935968D01*
G75*
G02*
X198275000Y36685969I0J-249999D01*
G01*
X198275000Y35785967D01*
G75*
G02*
X198025001Y35535968I-249999J0D01*
G01*
X197499999Y35535968D01*
G75*
G02*
X197250000Y35785967I0J249999D01*
G01*
G37*
G04 #@! TD.AperFunction*
G04 #@! TA.AperFunction,SMDPad,CuDef*
G36*
G01*
X195425000Y35785967D02*
X195425000Y36685969D01*
G75*
G02*
X195674999Y36935968I249999J0D01*
G01*
X196200001Y36935968D01*
G75*
G02*
X196450000Y36685969I0J-249999D01*
G01*
X196450000Y35785967D01*
G75*
G02*
X196200001Y35535968I-249999J0D01*
G01*
X195674999Y35535968D01*
G75*
G02*
X195425000Y35785967I0J249999D01*
G01*
G37*
G04 #@! TD.AperFunction*
G04 #@! TA.AperFunction,SMDPad,CuDef*
G36*
G01*
X197250000Y28493709D02*
X197250000Y29393711D01*
G75*
G02*
X197499999Y29643710I249999J0D01*
G01*
X198025001Y29643710D01*
G75*
G02*
X198275000Y29393711I0J-249999D01*
G01*
X198275000Y28493709D01*
G75*
G02*
X198025001Y28243710I-249999J0D01*
G01*
X197499999Y28243710D01*
G75*
G02*
X197250000Y28493709I0J249999D01*
G01*
G37*
G04 #@! TD.AperFunction*
G04 #@! TA.AperFunction,SMDPad,CuDef*
G36*
G01*
X195425000Y28493709D02*
X195425000Y29393711D01*
G75*
G02*
X195674999Y29643710I249999J0D01*
G01*
X196200001Y29643710D01*
G75*
G02*
X196450000Y29393711I0J-249999D01*
G01*
X196450000Y28493709D01*
G75*
G02*
X196200001Y28243710I-249999J0D01*
G01*
X195674999Y28243710D01*
G75*
G02*
X195425000Y28493709I0J249999D01*
G01*
G37*
G04 #@! TD.AperFunction*
G04 #@! TA.AperFunction,SMDPad,CuDef*
G36*
G01*
X197250000Y50370483D02*
X197250000Y51270485D01*
G75*
G02*
X197499999Y51520484I249999J0D01*
G01*
X198025001Y51520484D01*
G75*
G02*
X198275000Y51270485I0J-249999D01*
G01*
X198275000Y50370483D01*
G75*
G02*
X198025001Y50120484I-249999J0D01*
G01*
X197499999Y50120484D01*
G75*
G02*
X197250000Y50370483I0J249999D01*
G01*
G37*
G04 #@! TD.AperFunction*
G04 #@! TA.AperFunction,SMDPad,CuDef*
G36*
G01*
X195425000Y50370483D02*
X195425000Y51270485D01*
G75*
G02*
X195674999Y51520484I249999J0D01*
G01*
X196200001Y51520484D01*
G75*
G02*
X196450000Y51270485I0J-249999D01*
G01*
X196450000Y50370483D01*
G75*
G02*
X196200001Y50120484I-249999J0D01*
G01*
X195674999Y50120484D01*
G75*
G02*
X195425000Y50370483I0J249999D01*
G01*
G37*
G04 #@! TD.AperFunction*
G04 #@! TA.AperFunction,SMDPad,CuDef*
G36*
G01*
X197250000Y43078225D02*
X197250000Y43978227D01*
G75*
G02*
X197499999Y44228226I249999J0D01*
G01*
X198025001Y44228226D01*
G75*
G02*
X198275000Y43978227I0J-249999D01*
G01*
X198275000Y43078225D01*
G75*
G02*
X198025001Y42828226I-249999J0D01*
G01*
X197499999Y42828226D01*
G75*
G02*
X197250000Y43078225I0J249999D01*
G01*
G37*
G04 #@! TD.AperFunction*
G04 #@! TA.AperFunction,SMDPad,CuDef*
G36*
G01*
X195425000Y43078225D02*
X195425000Y43978227D01*
G75*
G02*
X195674999Y44228226I249999J0D01*
G01*
X196200001Y44228226D01*
G75*
G02*
X196450000Y43978227I0J-249999D01*
G01*
X196450000Y43078225D01*
G75*
G02*
X196200001Y42828226I-249999J0D01*
G01*
X195674999Y42828226D01*
G75*
G02*
X195425000Y43078225I0J249999D01*
G01*
G37*
G04 #@! TD.AperFunction*
G04 #@! TA.AperFunction,SMDPad,CuDef*
G36*
G01*
X197250000Y64954999D02*
X197250000Y65855001D01*
G75*
G02*
X197499999Y66105000I249999J0D01*
G01*
X198025001Y66105000D01*
G75*
G02*
X198275000Y65855001I0J-249999D01*
G01*
X198275000Y64954999D01*
G75*
G02*
X198025001Y64705000I-249999J0D01*
G01*
X197499999Y64705000D01*
G75*
G02*
X197250000Y64954999I0J249999D01*
G01*
G37*
G04 #@! TD.AperFunction*
G04 #@! TA.AperFunction,SMDPad,CuDef*
G36*
G01*
X195425000Y64954999D02*
X195425000Y65855001D01*
G75*
G02*
X195674999Y66105000I249999J0D01*
G01*
X196200001Y66105000D01*
G75*
G02*
X196450000Y65855001I0J-249999D01*
G01*
X196450000Y64954999D01*
G75*
G02*
X196200001Y64705000I-249999J0D01*
G01*
X195674999Y64705000D01*
G75*
G02*
X195425000Y64954999I0J249999D01*
G01*
G37*
G04 #@! TD.AperFunction*
G04 #@! TA.AperFunction,SMDPad,CuDef*
G36*
G01*
X197250000Y57662741D02*
X197250000Y58562743D01*
G75*
G02*
X197499999Y58812742I249999J0D01*
G01*
X198025001Y58812742D01*
G75*
G02*
X198275000Y58562743I0J-249999D01*
G01*
X198275000Y57662741D01*
G75*
G02*
X198025001Y57412742I-249999J0D01*
G01*
X197499999Y57412742D01*
G75*
G02*
X197250000Y57662741I0J249999D01*
G01*
G37*
G04 #@! TD.AperFunction*
G04 #@! TA.AperFunction,SMDPad,CuDef*
G36*
G01*
X195425000Y57662741D02*
X195425000Y58562743D01*
G75*
G02*
X195674999Y58812742I249999J0D01*
G01*
X196200001Y58812742D01*
G75*
G02*
X196450000Y58562743I0J-249999D01*
G01*
X196450000Y57662741D01*
G75*
G02*
X196200001Y57412742I-249999J0D01*
G01*
X195674999Y57412742D01*
G75*
G02*
X195425000Y57662741I0J249999D01*
G01*
G37*
G04 #@! TD.AperFunction*
D18*
X170558000Y-13589000D03*
D19*
X170558000Y-5969000D03*
X170558000Y4191000D03*
X170558000Y6731000D03*
D18*
X183385000Y-13589000D03*
D19*
X183385000Y-5969000D03*
X183385000Y4191000D03*
X183385000Y6731000D03*
D18*
X176781000Y-13589000D03*
D19*
X176781000Y-5969000D03*
X176781000Y4191000D03*
X176781000Y6731000D03*
D18*
X224155000Y-11983330D03*
D19*
X216535000Y-11983330D03*
X206375000Y-11983330D03*
X203835000Y-11983330D03*
D18*
X189735000Y-13589000D03*
D19*
X189735000Y-5969000D03*
X189735000Y4191000D03*
X189735000Y6731000D03*
D18*
X224155000Y2833336D03*
D19*
X216535000Y2833336D03*
X206375000Y2833336D03*
X203835000Y2833336D03*
D18*
X224155000Y-4574997D03*
D19*
X216535000Y-4574997D03*
X206375000Y-4574997D03*
X203835000Y-4574997D03*
D18*
X224155000Y17650002D03*
D19*
X216535000Y17650002D03*
X206375000Y17650002D03*
X203835000Y17650002D03*
D18*
X224155000Y10241669D03*
D19*
X216535000Y10241669D03*
X206375000Y10241669D03*
X203835000Y10241669D03*
D18*
X224155000Y32466668D03*
D19*
X216535000Y32466668D03*
X206375000Y32466668D03*
X203835000Y32466668D03*
D18*
X224155000Y25058335D03*
D19*
X216535000Y25058335D03*
X206375000Y25058335D03*
X203835000Y25058335D03*
D18*
X224155000Y47283334D03*
D19*
X216535000Y47283334D03*
X206375000Y47283334D03*
X203835000Y47283334D03*
D18*
X224155000Y39875001D03*
D19*
X216535000Y39875001D03*
X206375000Y39875001D03*
X203835000Y39875001D03*
D18*
X224155000Y62100000D03*
D19*
X216535000Y62100000D03*
X206375000Y62100000D03*
X203835000Y62100000D03*
D18*
X224155000Y54691667D03*
D19*
X216535000Y54691667D03*
X206375000Y54691667D03*
X203835000Y54691667D03*
D25*
X166831000Y-24003000D03*
D26*
X171831000Y-24003000D03*
D25*
X155655000Y-24003000D03*
D26*
X160655000Y-24003000D03*
D25*
X189310000Y-24003000D03*
D26*
X194310000Y-24003000D03*
D25*
X178134000Y-24003000D03*
D26*
X183134000Y-24003000D03*
D25*
X211662000Y-24003000D03*
D26*
X216662000Y-24003000D03*
D25*
X200486000Y-24003000D03*
D26*
X205486000Y-24003000D03*
D25*
X235518960Y-27987000D03*
D26*
X235518960Y-22987000D03*
D25*
X222838000Y-24003000D03*
D26*
X227838000Y-24003000D03*
D25*
X235511340Y-5876300D03*
D26*
X235511340Y-876300D03*
D25*
X235511340Y-16931640D03*
D26*
X235511340Y-11931640D03*
D25*
X235521500Y16273780D03*
D26*
X235521500Y21273780D03*
D25*
X235516420Y5204460D03*
D26*
X235516420Y10204460D03*
D25*
X235503720Y38450520D03*
D26*
X235503720Y43450520D03*
D25*
X235511340Y27363420D03*
D26*
X235511340Y32363420D03*
D25*
X235480860Y60537080D03*
D26*
X235480860Y65537080D03*
D25*
X235508800Y49526180D03*
D26*
X235508800Y54526180D03*
G04 #@! TA.AperFunction,SMDPad,CuDef*
G36*
G01*
X170612750Y10980000D02*
X171525250Y10980000D01*
G75*
G02*
X171769000Y10736250I0J-243750D01*
G01*
X171769000Y10248750D01*
G75*
G02*
X171525250Y10005000I-243750J0D01*
G01*
X170612750Y10005000D01*
G75*
G02*
X170369000Y10248750I0J243750D01*
G01*
X170369000Y10736250D01*
G75*
G02*
X170612750Y10980000I243750J0D01*
G01*
G37*
G04 #@! TD.AperFunction*
G04 #@! TA.AperFunction,SMDPad,CuDef*
G36*
G01*
X170612750Y12855000D02*
X171525250Y12855000D01*
G75*
G02*
X171769000Y12611250I0J-243750D01*
G01*
X171769000Y12123750D01*
G75*
G02*
X171525250Y11880000I-243750J0D01*
G01*
X170612750Y11880000D01*
G75*
G02*
X170369000Y12123750I0J243750D01*
G01*
X170369000Y12611250D01*
G75*
G02*
X170612750Y12855000I243750J0D01*
G01*
G37*
G04 #@! TD.AperFunction*
G04 #@! TA.AperFunction,SMDPad,CuDef*
G36*
G01*
X163754750Y10980000D02*
X164667250Y10980000D01*
G75*
G02*
X164911000Y10736250I0J-243750D01*
G01*
X164911000Y10248750D01*
G75*
G02*
X164667250Y10005000I-243750J0D01*
G01*
X163754750Y10005000D01*
G75*
G02*
X163511000Y10248750I0J243750D01*
G01*
X163511000Y10736250D01*
G75*
G02*
X163754750Y10980000I243750J0D01*
G01*
G37*
G04 #@! TD.AperFunction*
G04 #@! TA.AperFunction,SMDPad,CuDef*
G36*
G01*
X163754750Y12855000D02*
X164667250Y12855000D01*
G75*
G02*
X164911000Y12611250I0J-243750D01*
G01*
X164911000Y12123750D01*
G75*
G02*
X164667250Y11880000I-243750J0D01*
G01*
X163754750Y11880000D01*
G75*
G02*
X163511000Y12123750I0J243750D01*
G01*
X163511000Y12611250D01*
G75*
G02*
X163754750Y12855000I243750J0D01*
G01*
G37*
G04 #@! TD.AperFunction*
G04 #@! TA.AperFunction,SMDPad,CuDef*
G36*
G01*
X183185750Y10980000D02*
X184098250Y10980000D01*
G75*
G02*
X184342000Y10736250I0J-243750D01*
G01*
X184342000Y10248750D01*
G75*
G02*
X184098250Y10005000I-243750J0D01*
G01*
X183185750Y10005000D01*
G75*
G02*
X182942000Y10248750I0J243750D01*
G01*
X182942000Y10736250D01*
G75*
G02*
X183185750Y10980000I243750J0D01*
G01*
G37*
G04 #@! TD.AperFunction*
G04 #@! TA.AperFunction,SMDPad,CuDef*
G36*
G01*
X183185750Y12855000D02*
X184098250Y12855000D01*
G75*
G02*
X184342000Y12611250I0J-243750D01*
G01*
X184342000Y12123750D01*
G75*
G02*
X184098250Y11880000I-243750J0D01*
G01*
X183185750Y11880000D01*
G75*
G02*
X182942000Y12123750I0J243750D01*
G01*
X182942000Y12611250D01*
G75*
G02*
X183185750Y12855000I243750J0D01*
G01*
G37*
G04 #@! TD.AperFunction*
G04 #@! TA.AperFunction,SMDPad,CuDef*
G36*
G01*
X176962750Y10980000D02*
X177875250Y10980000D01*
G75*
G02*
X178119000Y10736250I0J-243750D01*
G01*
X178119000Y10248750D01*
G75*
G02*
X177875250Y10005000I-243750J0D01*
G01*
X176962750Y10005000D01*
G75*
G02*
X176719000Y10248750I0J243750D01*
G01*
X176719000Y10736250D01*
G75*
G02*
X176962750Y10980000I243750J0D01*
G01*
G37*
G04 #@! TD.AperFunction*
G04 #@! TA.AperFunction,SMDPad,CuDef*
G36*
G01*
X176962750Y12855000D02*
X177875250Y12855000D01*
G75*
G02*
X178119000Y12611250I0J-243750D01*
G01*
X178119000Y12123750D01*
G75*
G02*
X177875250Y11880000I-243750J0D01*
G01*
X176962750Y11880000D01*
G75*
G02*
X176719000Y12123750I0J243750D01*
G01*
X176719000Y12611250D01*
G75*
G02*
X176962750Y12855000I243750J0D01*
G01*
G37*
G04 #@! TD.AperFunction*
G04 #@! TA.AperFunction,SMDPad,CuDef*
G36*
G01*
X196440000Y-10707459D02*
X196440000Y-11619959D01*
G75*
G02*
X196196250Y-11863709I-243750J0D01*
G01*
X195708750Y-11863709D01*
G75*
G02*
X195465000Y-11619959I0J243750D01*
G01*
X195465000Y-10707459D01*
G75*
G02*
X195708750Y-10463709I243750J0D01*
G01*
X196196250Y-10463709D01*
G75*
G02*
X196440000Y-10707459I0J-243750D01*
G01*
G37*
G04 #@! TD.AperFunction*
G04 #@! TA.AperFunction,SMDPad,CuDef*
G36*
G01*
X198315000Y-10707459D02*
X198315000Y-11619959D01*
G75*
G02*
X198071250Y-11863709I-243750J0D01*
G01*
X197583750Y-11863709D01*
G75*
G02*
X197340000Y-11619959I0J243750D01*
G01*
X197340000Y-10707459D01*
G75*
G02*
X197583750Y-10463709I243750J0D01*
G01*
X198071250Y-10463709D01*
G75*
G02*
X198315000Y-10707459I0J-243750D01*
G01*
G37*
G04 #@! TD.AperFunction*
G04 #@! TA.AperFunction,SMDPad,CuDef*
G36*
G01*
X188392750Y10940000D02*
X189305250Y10940000D01*
G75*
G02*
X189549000Y10696250I0J-243750D01*
G01*
X189549000Y10208750D01*
G75*
G02*
X189305250Y9965000I-243750J0D01*
G01*
X188392750Y9965000D01*
G75*
G02*
X188149000Y10208750I0J243750D01*
G01*
X188149000Y10696250D01*
G75*
G02*
X188392750Y10940000I243750J0D01*
G01*
G37*
G04 #@! TD.AperFunction*
G04 #@! TA.AperFunction,SMDPad,CuDef*
G36*
G01*
X188392750Y12815000D02*
X189305250Y12815000D01*
G75*
G02*
X189549000Y12571250I0J-243750D01*
G01*
X189549000Y12083750D01*
G75*
G02*
X189305250Y11840000I-243750J0D01*
G01*
X188392750Y11840000D01*
G75*
G02*
X188149000Y12083750I0J243750D01*
G01*
X188149000Y12571250D01*
G75*
G02*
X188392750Y12815000I243750J0D01*
G01*
G37*
G04 #@! TD.AperFunction*
G04 #@! TA.AperFunction,SMDPad,CuDef*
G36*
G01*
X196440000Y3877057D02*
X196440000Y2964557D01*
G75*
G02*
X196196250Y2720807I-243750J0D01*
G01*
X195708750Y2720807D01*
G75*
G02*
X195465000Y2964557I0J243750D01*
G01*
X195465000Y3877057D01*
G75*
G02*
X195708750Y4120807I243750J0D01*
G01*
X196196250Y4120807D01*
G75*
G02*
X196440000Y3877057I0J-243750D01*
G01*
G37*
G04 #@! TD.AperFunction*
G04 #@! TA.AperFunction,SMDPad,CuDef*
G36*
G01*
X198315000Y3877057D02*
X198315000Y2964557D01*
G75*
G02*
X198071250Y2720807I-243750J0D01*
G01*
X197583750Y2720807D01*
G75*
G02*
X197340000Y2964557I0J243750D01*
G01*
X197340000Y3877057D01*
G75*
G02*
X197583750Y4120807I243750J0D01*
G01*
X198071250Y4120807D01*
G75*
G02*
X198315000Y3877057I0J-243750D01*
G01*
G37*
G04 #@! TD.AperFunction*
G04 #@! TA.AperFunction,SMDPad,CuDef*
G36*
G01*
X196440000Y-3415201D02*
X196440000Y-4327701D01*
G75*
G02*
X196196250Y-4571451I-243750J0D01*
G01*
X195708750Y-4571451D01*
G75*
G02*
X195465000Y-4327701I0J243750D01*
G01*
X195465000Y-3415201D01*
G75*
G02*
X195708750Y-3171451I243750J0D01*
G01*
X196196250Y-3171451D01*
G75*
G02*
X196440000Y-3415201I0J-243750D01*
G01*
G37*
G04 #@! TD.AperFunction*
G04 #@! TA.AperFunction,SMDPad,CuDef*
G36*
G01*
X198315000Y-3415201D02*
X198315000Y-4327701D01*
G75*
G02*
X198071250Y-4571451I-243750J0D01*
G01*
X197583750Y-4571451D01*
G75*
G02*
X197340000Y-4327701I0J243750D01*
G01*
X197340000Y-3415201D01*
G75*
G02*
X197583750Y-3171451I243750J0D01*
G01*
X198071250Y-3171451D01*
G75*
G02*
X198315000Y-3415201I0J-243750D01*
G01*
G37*
G04 #@! TD.AperFunction*
G04 #@! TA.AperFunction,SMDPad,CuDef*
G36*
G01*
X196440000Y18461573D02*
X196440000Y17549073D01*
G75*
G02*
X196196250Y17305323I-243750J0D01*
G01*
X195708750Y17305323D01*
G75*
G02*
X195465000Y17549073I0J243750D01*
G01*
X195465000Y18461573D01*
G75*
G02*
X195708750Y18705323I243750J0D01*
G01*
X196196250Y18705323D01*
G75*
G02*
X196440000Y18461573I0J-243750D01*
G01*
G37*
G04 #@! TD.AperFunction*
G04 #@! TA.AperFunction,SMDPad,CuDef*
G36*
G01*
X198315000Y18461573D02*
X198315000Y17549073D01*
G75*
G02*
X198071250Y17305323I-243750J0D01*
G01*
X197583750Y17305323D01*
G75*
G02*
X197340000Y17549073I0J243750D01*
G01*
X197340000Y18461573D01*
G75*
G02*
X197583750Y18705323I243750J0D01*
G01*
X198071250Y18705323D01*
G75*
G02*
X198315000Y18461573I0J-243750D01*
G01*
G37*
G04 #@! TD.AperFunction*
G04 #@! TA.AperFunction,SMDPad,CuDef*
G36*
G01*
X196440000Y11169315D02*
X196440000Y10256815D01*
G75*
G02*
X196196250Y10013065I-243750J0D01*
G01*
X195708750Y10013065D01*
G75*
G02*
X195465000Y10256815I0J243750D01*
G01*
X195465000Y11169315D01*
G75*
G02*
X195708750Y11413065I243750J0D01*
G01*
X196196250Y11413065D01*
G75*
G02*
X196440000Y11169315I0J-243750D01*
G01*
G37*
G04 #@! TD.AperFunction*
G04 #@! TA.AperFunction,SMDPad,CuDef*
G36*
G01*
X198315000Y11169315D02*
X198315000Y10256815D01*
G75*
G02*
X198071250Y10013065I-243750J0D01*
G01*
X197583750Y10013065D01*
G75*
G02*
X197340000Y10256815I0J243750D01*
G01*
X197340000Y11169315D01*
G75*
G02*
X197583750Y11413065I243750J0D01*
G01*
X198071250Y11413065D01*
G75*
G02*
X198315000Y11169315I0J-243750D01*
G01*
G37*
G04 #@! TD.AperFunction*
G04 #@! TA.AperFunction,SMDPad,CuDef*
G36*
G01*
X196440000Y33046089D02*
X196440000Y32133589D01*
G75*
G02*
X196196250Y31889839I-243750J0D01*
G01*
X195708750Y31889839D01*
G75*
G02*
X195465000Y32133589I0J243750D01*
G01*
X195465000Y33046089D01*
G75*
G02*
X195708750Y33289839I243750J0D01*
G01*
X196196250Y33289839D01*
G75*
G02*
X196440000Y33046089I0J-243750D01*
G01*
G37*
G04 #@! TD.AperFunction*
G04 #@! TA.AperFunction,SMDPad,CuDef*
G36*
G01*
X198315000Y33046089D02*
X198315000Y32133589D01*
G75*
G02*
X198071250Y31889839I-243750J0D01*
G01*
X197583750Y31889839D01*
G75*
G02*
X197340000Y32133589I0J243750D01*
G01*
X197340000Y33046089D01*
G75*
G02*
X197583750Y33289839I243750J0D01*
G01*
X198071250Y33289839D01*
G75*
G02*
X198315000Y33046089I0J-243750D01*
G01*
G37*
G04 #@! TD.AperFunction*
G04 #@! TA.AperFunction,SMDPad,CuDef*
G36*
G01*
X196440000Y25753831D02*
X196440000Y24841331D01*
G75*
G02*
X196196250Y24597581I-243750J0D01*
G01*
X195708750Y24597581D01*
G75*
G02*
X195465000Y24841331I0J243750D01*
G01*
X195465000Y25753831D01*
G75*
G02*
X195708750Y25997581I243750J0D01*
G01*
X196196250Y25997581D01*
G75*
G02*
X196440000Y25753831I0J-243750D01*
G01*
G37*
G04 #@! TD.AperFunction*
G04 #@! TA.AperFunction,SMDPad,CuDef*
G36*
G01*
X198315000Y25753831D02*
X198315000Y24841331D01*
G75*
G02*
X198071250Y24597581I-243750J0D01*
G01*
X197583750Y24597581D01*
G75*
G02*
X197340000Y24841331I0J243750D01*
G01*
X197340000Y25753831D01*
G75*
G02*
X197583750Y25997581I243750J0D01*
G01*
X198071250Y25997581D01*
G75*
G02*
X198315000Y25753831I0J-243750D01*
G01*
G37*
G04 #@! TD.AperFunction*
G04 #@! TA.AperFunction,SMDPad,CuDef*
G36*
G01*
X196440000Y47630605D02*
X196440000Y46718105D01*
G75*
G02*
X196196250Y46474355I-243750J0D01*
G01*
X195708750Y46474355D01*
G75*
G02*
X195465000Y46718105I0J243750D01*
G01*
X195465000Y47630605D01*
G75*
G02*
X195708750Y47874355I243750J0D01*
G01*
X196196250Y47874355D01*
G75*
G02*
X196440000Y47630605I0J-243750D01*
G01*
G37*
G04 #@! TD.AperFunction*
G04 #@! TA.AperFunction,SMDPad,CuDef*
G36*
G01*
X198315000Y47630605D02*
X198315000Y46718105D01*
G75*
G02*
X198071250Y46474355I-243750J0D01*
G01*
X197583750Y46474355D01*
G75*
G02*
X197340000Y46718105I0J243750D01*
G01*
X197340000Y47630605D01*
G75*
G02*
X197583750Y47874355I243750J0D01*
G01*
X198071250Y47874355D01*
G75*
G02*
X198315000Y47630605I0J-243750D01*
G01*
G37*
G04 #@! TD.AperFunction*
G04 #@! TA.AperFunction,SMDPad,CuDef*
G36*
G01*
X196440000Y40338347D02*
X196440000Y39425847D01*
G75*
G02*
X196196250Y39182097I-243750J0D01*
G01*
X195708750Y39182097D01*
G75*
G02*
X195465000Y39425847I0J243750D01*
G01*
X195465000Y40338347D01*
G75*
G02*
X195708750Y40582097I243750J0D01*
G01*
X196196250Y40582097D01*
G75*
G02*
X196440000Y40338347I0J-243750D01*
G01*
G37*
G04 #@! TD.AperFunction*
G04 #@! TA.AperFunction,SMDPad,CuDef*
G36*
G01*
X198315000Y40338347D02*
X198315000Y39425847D01*
G75*
G02*
X198071250Y39182097I-243750J0D01*
G01*
X197583750Y39182097D01*
G75*
G02*
X197340000Y39425847I0J243750D01*
G01*
X197340000Y40338347D01*
G75*
G02*
X197583750Y40582097I243750J0D01*
G01*
X198071250Y40582097D01*
G75*
G02*
X198315000Y40338347I0J-243750D01*
G01*
G37*
G04 #@! TD.AperFunction*
G04 #@! TA.AperFunction,SMDPad,CuDef*
G36*
G01*
X196440000Y62215121D02*
X196440000Y61302621D01*
G75*
G02*
X196196250Y61058871I-243750J0D01*
G01*
X195708750Y61058871D01*
G75*
G02*
X195465000Y61302621I0J243750D01*
G01*
X195465000Y62215121D01*
G75*
G02*
X195708750Y62458871I243750J0D01*
G01*
X196196250Y62458871D01*
G75*
G02*
X196440000Y62215121I0J-243750D01*
G01*
G37*
G04 #@! TD.AperFunction*
G04 #@! TA.AperFunction,SMDPad,CuDef*
G36*
G01*
X198315000Y62215121D02*
X198315000Y61302621D01*
G75*
G02*
X198071250Y61058871I-243750J0D01*
G01*
X197583750Y61058871D01*
G75*
G02*
X197340000Y61302621I0J243750D01*
G01*
X197340000Y62215121D01*
G75*
G02*
X197583750Y62458871I243750J0D01*
G01*
X198071250Y62458871D01*
G75*
G02*
X198315000Y62215121I0J-243750D01*
G01*
G37*
G04 #@! TD.AperFunction*
G04 #@! TA.AperFunction,SMDPad,CuDef*
G36*
G01*
X196440000Y54812250D02*
X196440000Y53899750D01*
G75*
G02*
X196196250Y53656000I-243750J0D01*
G01*
X195708750Y53656000D01*
G75*
G02*
X195465000Y53899750I0J243750D01*
G01*
X195465000Y54812250D01*
G75*
G02*
X195708750Y55056000I243750J0D01*
G01*
X196196250Y55056000D01*
G75*
G02*
X196440000Y54812250I0J-243750D01*
G01*
G37*
G04 #@! TD.AperFunction*
G04 #@! TA.AperFunction,SMDPad,CuDef*
G36*
G01*
X198315000Y54812250D02*
X198315000Y53899750D01*
G75*
G02*
X198071250Y53656000I-243750J0D01*
G01*
X197583750Y53656000D01*
G75*
G02*
X197340000Y53899750I0J243750D01*
G01*
X197340000Y54812250D01*
G75*
G02*
X197583750Y55056000I243750J0D01*
G01*
X198071250Y55056000D01*
G75*
G02*
X198315000Y54812250I0J-243750D01*
G01*
G37*
G04 #@! TD.AperFunction*
G04 #@! TA.AperFunction,SMDPad,CuDef*
G36*
G01*
X154338000Y34597000D02*
X155288000Y34597000D01*
G75*
G02*
X155538000Y34347000I0J-250000D01*
G01*
X155538000Y33847000D01*
G75*
G02*
X155288000Y33597000I-250000J0D01*
G01*
X154338000Y33597000D01*
G75*
G02*
X154088000Y33847000I0J250000D01*
G01*
X154088000Y34347000D01*
G75*
G02*
X154338000Y34597000I250000J0D01*
G01*
G37*
G04 #@! TD.AperFunction*
G04 #@! TA.AperFunction,SMDPad,CuDef*
G36*
G01*
X154338000Y32697000D02*
X155288000Y32697000D01*
G75*
G02*
X155538000Y32447000I0J-250000D01*
G01*
X155538000Y31947000D01*
G75*
G02*
X155288000Y31697000I-250000J0D01*
G01*
X154338000Y31697000D01*
G75*
G02*
X154088000Y31947000I0J250000D01*
G01*
X154088000Y32447000D01*
G75*
G02*
X154338000Y32697000I250000J0D01*
G01*
G37*
G04 #@! TD.AperFunction*
G04 #@! TA.AperFunction,SMDPad,CuDef*
G36*
G01*
X151671000Y34663000D02*
X152621000Y34663000D01*
G75*
G02*
X152871000Y34413000I0J-250000D01*
G01*
X152871000Y33913000D01*
G75*
G02*
X152621000Y33663000I-250000J0D01*
G01*
X151671000Y33663000D01*
G75*
G02*
X151421000Y33913000I0J250000D01*
G01*
X151421000Y34413000D01*
G75*
G02*
X151671000Y34663000I250000J0D01*
G01*
G37*
G04 #@! TD.AperFunction*
G04 #@! TA.AperFunction,SMDPad,CuDef*
G36*
G01*
X151671000Y32763000D02*
X152621000Y32763000D01*
G75*
G02*
X152871000Y32513000I0J-250000D01*
G01*
X152871000Y32013000D01*
G75*
G02*
X152621000Y31763000I-250000J0D01*
G01*
X151671000Y31763000D01*
G75*
G02*
X151421000Y32013000I0J250000D01*
G01*
X151421000Y32513000D01*
G75*
G02*
X151671000Y32763000I250000J0D01*
G01*
G37*
G04 #@! TD.AperFunction*
G04 #@! TA.AperFunction,SMDPad,CuDef*
G36*
G01*
X181283429Y42310073D02*
X180611678Y41638322D01*
G75*
G02*
X180258124Y41638322I-176777J176777D01*
G01*
X179904571Y41991875D01*
G75*
G02*
X179904571Y42345429I176777J176777D01*
G01*
X180576322Y43017180D01*
G75*
G02*
X180929876Y43017180I176777J-176777D01*
G01*
X181283429Y42663627D01*
G75*
G02*
X181283429Y42310073I-176777J-176777D01*
G01*
G37*
G04 #@! TD.AperFunction*
G04 #@! TA.AperFunction,SMDPad,CuDef*
G36*
G01*
X182626931Y40966571D02*
X181955180Y40294820D01*
G75*
G02*
X181601626Y40294820I-176777J176777D01*
G01*
X181248073Y40648373D01*
G75*
G02*
X181248073Y41001927I176777J176777D01*
G01*
X181919824Y41673678D01*
G75*
G02*
X182273378Y41673678I176777J-176777D01*
G01*
X182626931Y41320125D01*
G75*
G02*
X182626931Y40966571I-176777J-176777D01*
G01*
G37*
G04 #@! TD.AperFunction*
G04 #@! TA.AperFunction,SMDPad,CuDef*
G36*
G01*
X156878000Y34597000D02*
X157828000Y34597000D01*
G75*
G02*
X158078000Y34347000I0J-250000D01*
G01*
X158078000Y33847000D01*
G75*
G02*
X157828000Y33597000I-250000J0D01*
G01*
X156878000Y33597000D01*
G75*
G02*
X156628000Y33847000I0J250000D01*
G01*
X156628000Y34347000D01*
G75*
G02*
X156878000Y34597000I250000J0D01*
G01*
G37*
G04 #@! TD.AperFunction*
G04 #@! TA.AperFunction,SMDPad,CuDef*
G36*
G01*
X156878000Y32697000D02*
X157828000Y32697000D01*
G75*
G02*
X158078000Y32447000I0J-250000D01*
G01*
X158078000Y31947000D01*
G75*
G02*
X157828000Y31697000I-250000J0D01*
G01*
X156878000Y31697000D01*
G75*
G02*
X156628000Y31947000I0J250000D01*
G01*
X156628000Y32447000D01*
G75*
G02*
X156878000Y32697000I250000J0D01*
G01*
G37*
G04 #@! TD.AperFunction*
G04 #@! TA.AperFunction,SMDPad,CuDef*
G36*
G01*
X159545000Y32697000D02*
X160495000Y32697000D01*
G75*
G02*
X160745000Y32447000I0J-250000D01*
G01*
X160745000Y31947000D01*
G75*
G02*
X160495000Y31697000I-250000J0D01*
G01*
X159545000Y31697000D01*
G75*
G02*
X159295000Y31947000I0J250000D01*
G01*
X159295000Y32447000D01*
G75*
G02*
X159545000Y32697000I250000J0D01*
G01*
G37*
G04 #@! TD.AperFunction*
G04 #@! TA.AperFunction,SMDPad,CuDef*
G36*
G01*
X159545000Y34597000D02*
X160495000Y34597000D01*
G75*
G02*
X160745000Y34347000I0J-250000D01*
G01*
X160745000Y33847000D01*
G75*
G02*
X160495000Y33597000I-250000J0D01*
G01*
X159545000Y33597000D01*
G75*
G02*
X159295000Y33847000I0J250000D01*
G01*
X159295000Y34347000D01*
G75*
G02*
X159545000Y34597000I250000J0D01*
G01*
G37*
G04 #@! TD.AperFunction*
G04 #@! TA.AperFunction,SMDPad,CuDef*
G36*
G01*
X155922960Y47700820D02*
X156872960Y47700820D01*
G75*
G02*
X157122960Y47450820I0J-250000D01*
G01*
X157122960Y46950820D01*
G75*
G02*
X156872960Y46700820I-250000J0D01*
G01*
X155922960Y46700820D01*
G75*
G02*
X155672960Y46950820I0J250000D01*
G01*
X155672960Y47450820D01*
G75*
G02*
X155922960Y47700820I250000J0D01*
G01*
G37*
G04 #@! TD.AperFunction*
G04 #@! TA.AperFunction,SMDPad,CuDef*
G36*
G01*
X155922960Y45800820D02*
X156872960Y45800820D01*
G75*
G02*
X157122960Y45550820I0J-250000D01*
G01*
X157122960Y45050820D01*
G75*
G02*
X156872960Y44800820I-250000J0D01*
G01*
X155922960Y44800820D01*
G75*
G02*
X155672960Y45050820I0J250000D01*
G01*
X155672960Y45550820D01*
G75*
G02*
X155922960Y45800820I250000J0D01*
G01*
G37*
G04 #@! TD.AperFunction*
G04 #@! TA.AperFunction,SMDPad,CuDef*
G36*
G01*
X158084500Y45783040D02*
X159034500Y45783040D01*
G75*
G02*
X159284500Y45533040I0J-250000D01*
G01*
X159284500Y45033040D01*
G75*
G02*
X159034500Y44783040I-250000J0D01*
G01*
X158084500Y44783040D01*
G75*
G02*
X157834500Y45033040I0J250000D01*
G01*
X157834500Y45533040D01*
G75*
G02*
X158084500Y45783040I250000J0D01*
G01*
G37*
G04 #@! TD.AperFunction*
G04 #@! TA.AperFunction,SMDPad,CuDef*
G36*
G01*
X158084500Y47683040D02*
X159034500Y47683040D01*
G75*
G02*
X159284500Y47433040I0J-250000D01*
G01*
X159284500Y46933040D01*
G75*
G02*
X159034500Y46683040I-250000J0D01*
G01*
X158084500Y46683040D01*
G75*
G02*
X157834500Y46933040I0J250000D01*
G01*
X157834500Y47433040D01*
G75*
G02*
X158084500Y47683040I250000J0D01*
G01*
G37*
G04 #@! TD.AperFunction*
D16*
X167894000Y18923000D03*
D17*
X167894000Y16383000D03*
X165354000Y18923000D03*
X165354000Y16383000D03*
X162814000Y18923000D03*
X162814000Y16383000D03*
D16*
X189357000Y58801000D03*
D17*
X186817000Y58801000D03*
X189357000Y61341000D03*
X186817000Y61341000D03*
D27*
X152400000Y63500000D03*
G04 #@! TA.AperFunction,ComponentPad*
G36*
G01*
X144900000Y62500000D02*
X144900000Y64500000D01*
G75*
G02*
X145650000Y65250000I750000J0D01*
G01*
X147150000Y65250000D01*
G75*
G02*
X147900000Y64500000I0J-750000D01*
G01*
X147900000Y62500000D01*
G75*
G02*
X147150000Y61750000I-750000J0D01*
G01*
X145650000Y61750000D01*
G75*
G02*
X144900000Y62500000I0J750000D01*
G01*
G37*
G04 #@! TD.AperFunction*
G04 #@! TA.AperFunction,ComponentPad*
G36*
G01*
X147650000Y57925000D02*
X147650000Y59675000D01*
G75*
G02*
X148525000Y60550000I875000J0D01*
G01*
X150275000Y60550000D01*
G75*
G02*
X151150000Y59675000I0J-875000D01*
G01*
X151150000Y57925000D01*
G75*
G02*
X150275000Y57050000I-875000J0D01*
G01*
X148525000Y57050000D01*
G75*
G02*
X147650000Y57925000I0J875000D01*
G01*
G37*
G04 #@! TD.AperFunction*
G04 #@! TA.AperFunction,SMDPad,CuDef*
G36*
G01*
X156636020Y63951699D02*
X156636020Y64851701D01*
G75*
G02*
X156886019Y65101700I249999J0D01*
G01*
X157411021Y65101700D01*
G75*
G02*
X157661020Y64851701I0J-249999D01*
G01*
X157661020Y63951699D01*
G75*
G02*
X157411021Y63701700I-249999J0D01*
G01*
X156886019Y63701700D01*
G75*
G02*
X156636020Y63951699I0J249999D01*
G01*
G37*
G04 #@! TD.AperFunction*
G04 #@! TA.AperFunction,SMDPad,CuDef*
G36*
G01*
X158461020Y63951699D02*
X158461020Y64851701D01*
G75*
G02*
X158711019Y65101700I249999J0D01*
G01*
X159236021Y65101700D01*
G75*
G02*
X159486020Y64851701I0J-249999D01*
G01*
X159486020Y63951699D01*
G75*
G02*
X159236021Y63701700I-249999J0D01*
G01*
X158711019Y63701700D01*
G75*
G02*
X158461020Y63951699I0J249999D01*
G01*
G37*
G04 #@! TD.AperFunction*
G04 #@! TA.AperFunction,SMDPad,CuDef*
G36*
G01*
X157648320Y67216441D02*
X157648320Y66316439D01*
G75*
G02*
X157398321Y66066440I-249999J0D01*
G01*
X156873319Y66066440D01*
G75*
G02*
X156623320Y66316439I0J249999D01*
G01*
X156623320Y67216441D01*
G75*
G02*
X156873319Y67466440I249999J0D01*
G01*
X157398321Y67466440D01*
G75*
G02*
X157648320Y67216441I0J-249999D01*
G01*
G37*
G04 #@! TD.AperFunction*
G04 #@! TA.AperFunction,SMDPad,CuDef*
G36*
G01*
X159473320Y67216441D02*
X159473320Y66316439D01*
G75*
G02*
X159223321Y66066440I-249999J0D01*
G01*
X158698319Y66066440D01*
G75*
G02*
X158448320Y66316439I0J249999D01*
G01*
X158448320Y67216441D01*
G75*
G02*
X158698319Y67466440I249999J0D01*
G01*
X159223321Y67466440D01*
G75*
G02*
X159473320Y67216441I0J-249999D01*
G01*
G37*
G04 #@! TD.AperFunction*
G04 #@! TA.AperFunction,SMDPad,CuDef*
G36*
G01*
X160525039Y45906100D02*
X161425041Y45906100D01*
G75*
G02*
X161675040Y45656101I0J-249999D01*
G01*
X161675040Y45131099D01*
G75*
G02*
X161425041Y44881100I-249999J0D01*
G01*
X160525039Y44881100D01*
G75*
G02*
X160275040Y45131099I0J249999D01*
G01*
X160275040Y45656101D01*
G75*
G02*
X160525039Y45906100I249999J0D01*
G01*
G37*
G04 #@! TD.AperFunction*
G04 #@! TA.AperFunction,SMDPad,CuDef*
G36*
G01*
X160525039Y47731100D02*
X161425041Y47731100D01*
G75*
G02*
X161675040Y47481101I0J-249999D01*
G01*
X161675040Y46956099D01*
G75*
G02*
X161425041Y46706100I-249999J0D01*
G01*
X160525039Y46706100D01*
G75*
G02*
X160275040Y46956099I0J249999D01*
G01*
X160275040Y47481101D01*
G75*
G02*
X160525039Y47731100I249999J0D01*
G01*
G37*
G04 #@! TD.AperFunction*
G04 #@! TA.AperFunction,SMDPad,CuDef*
G36*
G01*
X162121001Y11806500D02*
X161220999Y11806500D01*
G75*
G02*
X160971000Y12056499I0J249999D01*
G01*
X160971000Y12581501D01*
G75*
G02*
X161220999Y12831500I249999J0D01*
G01*
X162121001Y12831500D01*
G75*
G02*
X162371000Y12581501I0J-249999D01*
G01*
X162371000Y12056499D01*
G75*
G02*
X162121001Y11806500I-249999J0D01*
G01*
G37*
G04 #@! TD.AperFunction*
G04 #@! TA.AperFunction,SMDPad,CuDef*
G36*
G01*
X162121001Y9981500D02*
X161220999Y9981500D01*
G75*
G02*
X160971000Y10231499I0J249999D01*
G01*
X160971000Y10756501D01*
G75*
G02*
X161220999Y11006500I249999J0D01*
G01*
X162121001Y11006500D01*
G75*
G02*
X162371000Y10756501I0J-249999D01*
G01*
X162371000Y10231499D01*
G75*
G02*
X162121001Y9981500I-249999J0D01*
G01*
G37*
G04 #@! TD.AperFunction*
G04 #@! TA.AperFunction,SMDPad,CuDef*
G36*
G01*
X159516500Y60394001D02*
X159516500Y59493999D01*
G75*
G02*
X159266501Y59244000I-249999J0D01*
G01*
X158741499Y59244000D01*
G75*
G02*
X158491500Y59493999I0J249999D01*
G01*
X158491500Y60394001D01*
G75*
G02*
X158741499Y60644000I249999J0D01*
G01*
X159266501Y60644000D01*
G75*
G02*
X159516500Y60394001I0J-249999D01*
G01*
G37*
G04 #@! TD.AperFunction*
G04 #@! TA.AperFunction,SMDPad,CuDef*
G36*
G01*
X157691500Y60394001D02*
X157691500Y59493999D01*
G75*
G02*
X157441501Y59244000I-249999J0D01*
G01*
X156916499Y59244000D01*
G75*
G02*
X156666500Y59493999I0J249999D01*
G01*
X156666500Y60394001D01*
G75*
G02*
X156916499Y60644000I249999J0D01*
G01*
X157441501Y60644000D01*
G75*
G02*
X157691500Y60394001I0J-249999D01*
G01*
G37*
G04 #@! TD.AperFunction*
G04 #@! TA.AperFunction,SMDPad,CuDef*
G36*
G01*
X156666500Y61678399D02*
X156666500Y62578401D01*
G75*
G02*
X156916499Y62828400I249999J0D01*
G01*
X157441501Y62828400D01*
G75*
G02*
X157691500Y62578401I0J-249999D01*
G01*
X157691500Y61678399D01*
G75*
G02*
X157441501Y61428400I-249999J0D01*
G01*
X156916499Y61428400D01*
G75*
G02*
X156666500Y61678399I0J249999D01*
G01*
G37*
G04 #@! TD.AperFunction*
G04 #@! TA.AperFunction,SMDPad,CuDef*
G36*
G01*
X158491500Y61678399D02*
X158491500Y62578401D01*
G75*
G02*
X158741499Y62828400I249999J0D01*
G01*
X159266501Y62828400D01*
G75*
G02*
X159516500Y62578401I0J-249999D01*
G01*
X159516500Y61678399D01*
G75*
G02*
X159266501Y61428400I-249999J0D01*
G01*
X158741499Y61428400D01*
G75*
G02*
X158491500Y61678399I0J249999D01*
G01*
G37*
G04 #@! TD.AperFunction*
D28*
X159481600Y56794800D03*
X159481600Y50494800D03*
X155681600Y56794800D03*
X155681600Y50494800D03*
D29*
X150329900Y54239560D03*
D30*
X150329900Y47939560D03*
X152629900Y47939560D03*
X148029900Y47939560D03*
D31*
X171831000Y45085000D03*
X184053032Y41276689D03*
X183769000Y40005000D03*
X170942000Y44577000D03*
X184023000Y38735000D03*
X170179942Y44072022D03*
X183769000Y37465000D03*
X169392699Y43672011D03*
X183896000Y36195000D03*
X168593000Y43117000D03*
X183769000Y34925000D03*
X162633660Y39403020D03*
X183896000Y31115000D03*
X163703000Y38735000D03*
X183261000Y29845000D03*
X165735000Y37846000D03*
X163449000Y37084000D03*
X160665169Y60004969D03*
X160690560Y37025580D03*
X194564020Y54229020D03*
X196850000Y41656000D03*
X196850000Y34036000D03*
X196850000Y27051000D03*
X196850000Y19939000D03*
X196850000Y12573000D03*
X196850000Y5207000D03*
X195952500Y2040500D03*
X196850000Y-2032000D03*
X164726990Y33175026D03*
X164726990Y36202990D03*
X193767010Y43145010D03*
X196850000Y49530000D03*
X194530980Y63820040D03*
X187452000Y11430000D03*
X194564001Y61976019D03*
X161737000Y32197000D03*
X165227000Y32385000D03*
X172593000Y37211000D03*
X171704000Y35433000D03*
X179392580Y47035720D03*
X182372000Y31115000D03*
X186690000Y40741600D03*
X158064200Y58874660D03*
X183441340Y45082460D03*
X182372000Y33662620D03*
X165234990Y35433000D03*
X173482000Y35306000D03*
X168529000Y33020000D03*
X166636700Y40467280D03*
X168021000Y49022000D03*
X168758000Y32233000D03*
X170053000Y48768000D03*
X167459660Y40980360D03*
X151511000Y14478000D03*
X151823616Y11869616D03*
X151765000Y9271000D03*
X152019000Y6731000D03*
X151657540Y4083540D03*
X152273000Y1524000D03*
X152781000Y-19431000D03*
X153289000Y-16764000D03*
X153797000Y-14224000D03*
X154305000Y-11557000D03*
X154813000Y-8890000D03*
X155321000Y-6350000D03*
X155829000Y-3683000D03*
X156337000Y-1016000D03*
X157154520Y48682000D03*
X150329900Y46255940D03*
X161386520Y63616840D03*
X161406840Y65636140D03*
X191833500Y64874140D03*
X198564500Y16573500D03*
X195961000Y16637000D03*
X190535000Y32801000D03*
X190535000Y43907000D03*
X190563500Y21272500D03*
X189740540Y67820540D03*
X195453000Y45720000D03*
X194564000Y51435000D03*
X194437000Y48895000D03*
X196088000Y37719000D03*
X195961000Y-9398000D03*
X179959000Y9271000D03*
X180086000Y19304000D03*
X186182000Y9398000D03*
X186182000Y13830300D03*
X167386000Y9144000D03*
X169672000Y13843000D03*
X173736000Y9398000D03*
X173863000Y18542000D03*
X159252920Y20858480D03*
X183235600Y53695600D03*
X167589200Y22199600D03*
X167487600Y20777200D03*
X160733239Y21388839D03*
X184758385Y55745010D03*
X183896000Y55245000D03*
X168046400Y21437600D03*
X160782000Y22047200D03*
X162282000Y60682000D03*
X171005000Y45579800D03*
X157581600Y30276800D03*
X150964900Y19403060D03*
X150741380Y16273780D03*
D32*
X183896000Y41275000D02*
X183896000Y41275000D01*
X171793000Y42634000D02*
X171793000Y42634000D01*
X171793000Y45047000D02*
X171831000Y45085000D01*
X171793000Y41133000D02*
X171793000Y45047000D01*
X184054721Y41275000D02*
X184053032Y41276689D01*
X185385000Y41275000D02*
X184054721Y41275000D01*
X185385000Y40005000D02*
X183769000Y40005000D01*
X183769000Y40005000D02*
X183769000Y40005000D01*
X170993000Y41133000D02*
X170993000Y44526000D01*
X185385000Y38735000D02*
X184023000Y38735000D01*
X184023000Y38735000D02*
X184023000Y38735000D01*
X170193000Y42659000D02*
X170193000Y42659000D01*
X170193000Y41133000D02*
X170193000Y44058964D01*
X170193000Y44058964D02*
X170179942Y44072022D01*
X185385000Y37465000D02*
X183769000Y37465000D01*
X183769000Y37465000D02*
X183769000Y37465000D01*
X169393000Y42647000D02*
X169393000Y42647000D01*
X169393000Y43663000D02*
X169393000Y43663000D01*
X169418000Y43688000D02*
X169402011Y43672011D01*
X169402011Y43672011D02*
X169392699Y43672011D01*
X169393000Y41133000D02*
X169393000Y43671710D01*
X169393000Y43671710D02*
X169392699Y43672011D01*
X185385000Y36195000D02*
X183896000Y36195000D01*
X183896000Y36195000D02*
X183896000Y36195000D01*
X168593000Y41133000D02*
X168593000Y42083000D01*
X168593000Y42083000D02*
X168593000Y43117000D01*
X168593000Y43117000D02*
X168593000Y43117000D01*
X185385000Y34925000D02*
X183769000Y34925000D01*
X183769000Y34925000D02*
X183769000Y34925000D01*
X162663640Y39433000D02*
X162633660Y39403020D01*
X166893000Y39433000D02*
X162663640Y39433000D01*
X185385000Y31115000D02*
X183896000Y31115000D01*
X183896000Y31115000D02*
X183896000Y31115000D01*
X166791000Y38735000D02*
X166893000Y38633000D01*
X163703000Y38735000D02*
X166791000Y38735000D01*
X185385000Y29845000D02*
X183792667Y29845000D01*
X183792667Y29845000D02*
X183261000Y29845000D01*
X166893000Y37833000D02*
X165748000Y37833000D01*
X161663999Y12326001D02*
X161663999Y18788999D01*
X161671000Y12319000D02*
X161663999Y12326001D01*
X161798000Y18923000D02*
X162814000Y18923000D01*
X161663999Y18788999D02*
X161798000Y18923000D01*
X159004000Y59944000D02*
X160680400Y59944000D01*
X160665160Y60004960D02*
X160665169Y60004969D01*
X148413860Y40845880D02*
X148413860Y34345880D01*
X160697980Y37033000D02*
X160690560Y37025580D01*
X166893000Y37033000D02*
X160697980Y37033000D01*
X196608291Y-11163709D02*
X195952500Y-11163709D01*
X196775010Y-10996990D02*
X196608291Y-11163709D01*
X195825520Y54229020D02*
X195952500Y54356000D01*
X194564020Y54229020D02*
X195825520Y54229020D01*
X164211000Y10492500D02*
X164211000Y11430000D01*
X171069000Y10492500D02*
X171069000Y11430000D01*
X164211000Y11430000D02*
X171069000Y11430000D01*
X177419000Y10492500D02*
X177419000Y11430000D01*
X171069000Y11430000D02*
X177419000Y11430000D01*
X183642000Y10492500D02*
X183642000Y11430000D01*
X177419000Y11430000D02*
X183642000Y11430000D01*
X195952500Y54356000D02*
X196596000Y54356000D01*
X196596000Y54356000D02*
X196850000Y54102000D01*
X196083597Y39751000D02*
X195952500Y39882097D01*
X196850000Y39751000D02*
X196083597Y39751000D01*
X196792645Y47174355D02*
X196850000Y47117000D01*
X195952500Y47174355D02*
X196792645Y47174355D01*
X196850000Y47117000D02*
X196850000Y41656000D01*
X196850000Y54102000D02*
X196850000Y47117000D01*
X195952500Y32589839D02*
X196645161Y32589839D01*
X196850000Y41656000D02*
X196850000Y39751000D01*
X196088000Y34036000D02*
X196723000Y34036000D01*
X195952500Y33900500D02*
X196088000Y34036000D01*
X195952500Y32589839D02*
X195952500Y33900500D01*
X196723000Y34036000D02*
X196850000Y34036000D01*
X196850000Y34036000D02*
X196850000Y34036000D01*
X195952500Y25297581D02*
X195952500Y26788500D01*
X196215000Y27051000D02*
X196850000Y27051000D01*
X195952500Y26788500D02*
X196215000Y27051000D01*
X195952500Y18005323D02*
X195952500Y19803500D01*
X195952500Y19803500D02*
X196088000Y19939000D01*
X196088000Y19939000D02*
X196850000Y19939000D01*
X196850000Y19939000D02*
X196850000Y19939000D01*
X195952500Y10713065D02*
X195952500Y12437500D01*
X196088000Y12573000D02*
X196850000Y12573000D01*
X195952500Y12437500D02*
X196088000Y12573000D01*
X195952500Y3420807D02*
X195952500Y4817500D01*
X196342000Y5207000D02*
X196850000Y5207000D01*
X195952500Y4817500D02*
X196342000Y5207000D01*
X195952500Y3420807D02*
X195952500Y2040500D01*
X195952500Y2040500D02*
X195952500Y2040500D01*
X195952500Y-3871451D02*
X195952500Y-2167500D01*
X196088000Y-2032000D02*
X196850000Y-2032000D01*
X195952500Y-2167500D02*
X196088000Y-2032000D01*
X195952500Y-3871451D02*
X196403451Y-3871451D01*
X196775010Y-4243010D02*
X196775010Y-4878010D01*
X196403451Y-3871451D02*
X196775010Y-4243010D01*
X196775010Y-4878010D02*
X196775010Y-8202990D01*
X196775010Y-8202990D02*
X196775010Y-10996990D01*
X196775010Y-7948990D02*
X196775010Y-8202990D01*
X161671000Y10517500D02*
X162790500Y10517500D01*
X162790500Y10517500D02*
X163068000Y10795000D01*
X163068000Y11303000D02*
X163195000Y11430000D01*
X163068000Y10795000D02*
X163068000Y11303000D01*
X163195000Y11430000D02*
X164211000Y11430000D01*
X164846000Y33147000D02*
X164846000Y33147000D01*
X166862990Y36202990D02*
X166893000Y36233000D01*
X164726990Y36202990D02*
X166862990Y36202990D01*
X176619000Y36233000D02*
X178293000Y36233000D01*
X173393000Y36309000D02*
X173317000Y36233000D01*
X173393000Y41133000D02*
X173393000Y36309000D01*
X173317000Y36233000D02*
X176619000Y36233000D01*
X172593000Y36144000D02*
X172682000Y36233000D01*
X172593000Y29733000D02*
X172593000Y36144000D01*
X172682000Y36233000D02*
X173317000Y36233000D01*
X166893000Y36233000D02*
X172682000Y36233000D01*
X179667000Y36233000D02*
X178293000Y36233000D01*
X179959000Y35941000D02*
X179667000Y36233000D01*
X179959000Y34925000D02*
X179959000Y35941000D01*
X179667000Y34633000D02*
X179959000Y34925000D01*
X178293000Y34633000D02*
X179667000Y34633000D01*
X181102000Y40148747D02*
X181937502Y40984249D01*
X181102000Y37084000D02*
X181102000Y40148747D01*
X179959000Y35941000D02*
X181102000Y37084000D01*
X189623598Y43145010D02*
X193767010Y43145010D01*
X188388588Y41910000D02*
X189623598Y43145010D01*
X182863253Y41910000D02*
X188388588Y41910000D01*
X181937502Y40984249D02*
X182863253Y41910000D01*
X193767010Y43145010D02*
X193767010Y43145010D01*
X154813000Y34097000D02*
X157353000Y34097000D01*
X157353000Y34097000D02*
X160020000Y34097000D01*
X164698964Y33147000D02*
X164726990Y33175026D01*
X160147000Y33147000D02*
X164698964Y33147000D01*
X160020000Y33274000D02*
X160147000Y33147000D01*
X160020000Y34097000D02*
X160020000Y33274000D01*
X187940640Y66012060D02*
X187940640Y64001960D01*
X188122560Y63820040D02*
X194530980Y63820040D01*
X187940640Y64001960D02*
X188122560Y63820040D01*
X194530980Y63820040D02*
X194564000Y63820040D01*
X153852840Y34097000D02*
X154813000Y34097000D01*
X152629900Y35319940D02*
X153852840Y34097000D01*
X152629900Y47939560D02*
X152629900Y35319940D01*
X163068000Y13134340D02*
X163068000Y11303000D01*
X163304220Y13370560D02*
X163068000Y13134340D01*
X167546020Y13370560D02*
X163304220Y13370560D01*
X167894000Y13718540D02*
X167546020Y13370560D01*
X167894000Y16383000D02*
X167894000Y13718540D01*
X188595000Y11430000D02*
X188849000Y11176000D01*
X187452000Y11430000D02*
X188595000Y11430000D01*
X188849000Y11176000D02*
X188849000Y10452500D01*
X183642000Y11430000D02*
X187452000Y11430000D01*
X195952500Y61758871D02*
X194781149Y61758871D01*
X194781149Y61758871D02*
X194564001Y61976019D01*
X152629900Y50067180D02*
X152629900Y47939560D01*
X152008840Y50688240D02*
X152629900Y50067180D01*
X146311620Y50688240D02*
X152008840Y50688240D01*
X145735040Y51264820D02*
X146311620Y50688240D01*
X144335500Y51264820D02*
X145735040Y51264820D01*
X144264380Y51193700D02*
X144335500Y51264820D01*
X160020000Y32197000D02*
X161737000Y32197000D01*
X161737000Y32197000D02*
X163510000Y32197000D01*
X163510000Y32197000D02*
X165039000Y32197000D01*
X165039000Y32197000D02*
X165100000Y32258000D01*
X165039000Y32197000D02*
X165227000Y32385000D01*
X165227000Y32385000D02*
X165227000Y32385000D01*
X166893000Y35433000D02*
X165354000Y35433000D01*
X172593000Y41133000D02*
X172593000Y37211000D01*
X166893000Y35433000D02*
X171704000Y35433000D01*
X172593000Y37211000D02*
X172593000Y37211000D01*
X171704000Y35433000D02*
X171704000Y35433000D01*
X182372000Y31115000D02*
X182372000Y31115000D01*
X152212000Y32197000D02*
X152146000Y32263000D01*
X160020000Y32197000D02*
X152212000Y32197000D01*
X186690000Y34085000D02*
X186690000Y40741600D01*
X186260000Y33655000D02*
X186690000Y34085000D01*
X185385000Y33655000D02*
X186260000Y33655000D01*
X158064200Y60901580D02*
X158115000Y60952380D01*
X158115000Y60952380D02*
X158729680Y60952380D01*
X159004000Y61226700D02*
X159004000Y62128400D01*
X158729680Y60952380D02*
X159004000Y61226700D01*
X158595060Y47218600D02*
X158559500Y47183040D01*
X156415740Y47183040D02*
X156397960Y47200820D01*
X158559500Y47183040D02*
X156415740Y47183040D01*
X158064200Y58874660D02*
X158064200Y58874660D01*
X158064200Y58874660D02*
X158064200Y60901580D01*
X147315760Y48653700D02*
X148029900Y47939560D01*
X144264380Y48653700D02*
X147315760Y48653700D01*
X155681600Y50494800D02*
X155681600Y52428060D01*
X155681600Y50494800D02*
X155681600Y49108440D01*
X156397960Y48392080D02*
X156397960Y47200820D01*
X155681600Y49108440D02*
X156397960Y48392080D01*
X160975040Y47218600D02*
X159837120Y47218600D01*
X159837120Y47218600D02*
X158595060Y47218600D01*
X159837120Y47218600D02*
X159837120Y41864280D01*
X159837120Y41864280D02*
X160848040Y40853360D01*
X160848040Y40853360D02*
X160848040Y38521640D01*
X160848040Y38521640D02*
X160063180Y37736780D01*
X160063180Y37736780D02*
X160063180Y36944300D01*
X161574480Y35433000D02*
X165354000Y35433000D01*
X160063180Y36944300D02*
X161574480Y35433000D01*
X155681600Y52428060D02*
X155681600Y52857480D01*
X155681600Y52857480D02*
X155681600Y56794800D01*
X143913860Y40845880D02*
X143913860Y34345880D01*
X143008311Y49909769D02*
X144264380Y48653700D01*
X143008311Y52180451D02*
X143008311Y49909769D01*
X143210280Y52382420D02*
X143008311Y52180451D01*
X155635960Y52382420D02*
X143210280Y52382420D01*
X155681600Y52428060D02*
X155635960Y52382420D01*
X157881720Y56794800D02*
X157429600Y56794800D01*
X158064200Y56977280D02*
X157881720Y56794800D01*
X157429600Y56794800D02*
X155681600Y56794800D01*
X158064200Y58874660D02*
X158064200Y56977280D01*
X179392580Y48469580D02*
X179605000Y48682000D01*
X179392580Y47035720D02*
X179392580Y48469580D01*
X185385000Y45085000D02*
X184023000Y45085000D01*
X180393498Y42471498D02*
X180393498Y42110502D01*
X183007000Y45085000D02*
X180393498Y42471498D01*
X184023000Y45085000D02*
X183007000Y45085000D01*
X182372000Y29083000D02*
X182372000Y31115000D01*
X182372000Y22479000D02*
X182372000Y29083000D01*
X182626000Y22225000D02*
X182372000Y22479000D01*
X185385000Y22225000D02*
X182626000Y22225000D01*
X185385000Y33655000D02*
X182379620Y33655000D01*
X182372000Y33713420D02*
X182372000Y33662620D01*
X182379620Y33655000D02*
X182372000Y33662620D01*
X173393000Y29733000D02*
X173393000Y35217000D01*
X173609000Y35433000D02*
X178293000Y35433000D01*
X173393000Y35217000D02*
X173609000Y35433000D01*
X158559500Y40503500D02*
X159566000Y39497000D01*
X158559500Y45283040D02*
X158559500Y40503500D01*
X159566000Y36773460D02*
X161706460Y34633000D01*
X159566000Y39497000D02*
X159566000Y36773460D01*
X161706460Y34633000D02*
X166893000Y34633000D01*
X157053280Y45270340D02*
X157022800Y45239860D01*
X161940760Y33833000D02*
X166893000Y33833000D01*
X154686000Y39497000D02*
X156276760Y39497000D01*
X156397960Y39618200D02*
X156276760Y39497000D01*
X156397960Y39987220D02*
X156397960Y39618200D01*
X156397960Y45300820D02*
X156397960Y39987220D01*
X156397960Y39987220D02*
X156397960Y39885620D01*
X156276760Y39497000D02*
X157985460Y39497000D01*
X159069130Y38413330D02*
X159069130Y36704630D01*
X157985460Y39497000D02*
X159069130Y38413330D01*
X159069130Y36704630D02*
X161940760Y33833000D01*
X167843000Y33033000D02*
X167856000Y33020000D01*
X166893000Y33033000D02*
X167843000Y33033000D01*
X167856000Y33020000D02*
X168529000Y33020000D01*
X168529000Y33020000D02*
X168529000Y33020000D01*
X168021000Y49022000D02*
X168021000Y49022000D01*
X168021000Y44958000D02*
X168021000Y48768000D01*
X168021000Y48768000D02*
X168021000Y49022000D01*
X166636700Y43573700D02*
X168021000Y44958000D01*
X166636700Y40467280D02*
X166636700Y43573700D01*
X166893000Y32233000D02*
X168758000Y32233000D01*
X168758000Y32233000D02*
X168885000Y32233000D01*
X170053000Y48768000D02*
X170053000Y48768000D01*
X170053000Y48768000D02*
X170053000Y46238160D01*
X170053000Y46238160D02*
X167449500Y43634660D01*
X167449500Y43634660D02*
X167449500Y41136980D01*
X151618991Y14585991D02*
X151511000Y14478000D01*
X151618991Y14839991D02*
X151618991Y14585991D01*
X151618991Y14839991D02*
X151618991Y14497009D01*
X151618991Y23602991D02*
X151618991Y14839991D01*
X151618991Y23729991D02*
X151618991Y23602991D01*
X151618991Y29317991D02*
X151618991Y23602991D01*
X152019000Y29718000D02*
X151618991Y29317991D01*
X166474140Y29718000D02*
X152019000Y29718000D01*
X166893000Y30136860D02*
X166474140Y29718000D01*
X166893000Y31433000D02*
X166893000Y30136860D01*
X151892000Y11938000D02*
X151892000Y11811000D01*
X152038010Y14185311D02*
X151892000Y14039301D01*
X152038010Y28848010D02*
X152038010Y14185311D01*
X152400000Y29210000D02*
X152038010Y28848010D01*
X167513000Y29210000D02*
X152400000Y29210000D01*
X168036000Y29733000D02*
X167513000Y29210000D01*
X151892000Y14039301D02*
X151892000Y11938000D01*
X168593000Y29733000D02*
X168036000Y29733000D01*
X151765000Y10922000D02*
X151765000Y9271000D01*
X152469969Y11626969D02*
X151765000Y10922000D01*
X152469969Y28263969D02*
X152469969Y11626969D01*
X152781000Y28575000D02*
X152469969Y28263969D01*
X169185000Y28575000D02*
X152781000Y28575000D01*
X169393000Y28783000D02*
X169185000Y28575000D01*
X169393000Y29733000D02*
X169393000Y28783000D01*
X152273000Y8763000D02*
X152273000Y8636000D01*
X152273000Y7239000D02*
X152273000Y6985000D01*
X152273000Y8763000D02*
X152273000Y7239000D01*
X152273000Y6985000D02*
X152019000Y6731000D01*
X152273000Y10668000D02*
X152273000Y8763000D01*
X152869980Y11264980D02*
X152273000Y10668000D01*
X152869980Y27705680D02*
X152869980Y11264980D01*
X153123311Y27959011D02*
X152869980Y27705680D01*
X169691011Y27959011D02*
X153123311Y27959011D01*
X170193000Y28461000D02*
X169691011Y27959011D01*
X170193000Y29733000D02*
X170193000Y28461000D01*
X151657540Y4425460D02*
X151657540Y4083540D01*
X151638000Y4445000D02*
X151657540Y4425460D01*
X151765000Y4572000D02*
X151638000Y4445000D01*
X151765000Y5530300D02*
X151765000Y4572000D01*
X153269991Y27324009D02*
X153269991Y7035291D01*
X170180000Y27559000D02*
X153504982Y27559000D01*
X153269991Y7035291D02*
X151765000Y5530300D01*
X153504982Y27559000D02*
X153269991Y27324009D01*
X170993000Y28372000D02*
X170180000Y27559000D01*
X170993000Y29733000D02*
X170993000Y28372000D01*
X153670002Y6869602D02*
X152781000Y5980600D01*
X153924000Y27051000D02*
X153670002Y26797002D01*
X170434000Y27051000D02*
X153924000Y27051000D01*
X171793000Y28410000D02*
X170434000Y27051000D01*
X171793000Y29733000D02*
X171793000Y28410000D01*
X152781000Y5980600D02*
X152781000Y5969000D01*
X152781000Y5969000D02*
X152273000Y5461000D01*
X152273000Y5461000D02*
X152273000Y1651000D01*
X152273000Y1651000D02*
X152273000Y1524000D01*
X152273000Y1524000D02*
X152273000Y1397000D01*
X153670002Y26797002D02*
X153670002Y21082002D01*
X153670002Y21082002D02*
X153670002Y6869602D01*
X153670002Y21209002D02*
X153670002Y21082002D01*
X152781000Y-19431000D02*
X152781000Y-19431000D01*
X152781000Y-1143000D02*
X152781000Y-19431000D01*
X152781000Y5207000D02*
X152781000Y-1143000D01*
X154178000Y6604000D02*
X152781000Y5207000D01*
X154178000Y26416000D02*
X154178000Y6604000D01*
X154305000Y26543000D02*
X154178000Y26416000D01*
X174193000Y28783000D02*
X171953000Y26543000D01*
X171953000Y26543000D02*
X154305000Y26543000D01*
X174193000Y29733000D02*
X174193000Y28783000D01*
X154686000Y6477000D02*
X153289000Y5080000D01*
X153289000Y5080000D02*
X153289000Y-3683000D01*
X153289000Y-3683000D02*
X153289000Y-3810000D01*
X153289000Y-3810000D02*
X153289000Y-16764000D01*
X153289000Y-16764000D02*
X153289000Y-16764000D01*
X154813000Y26035000D02*
X154686000Y25908000D01*
X172245000Y26035000D02*
X154813000Y26035000D01*
X174993000Y28783000D02*
X172245000Y26035000D01*
X154686000Y25908000D02*
X154686000Y25654000D01*
X174993000Y29733000D02*
X174993000Y28783000D01*
X154686000Y25654000D02*
X154686000Y19939000D01*
X154686000Y19939000D02*
X154686000Y6477000D01*
X154686000Y20066000D02*
X154686000Y19939000D01*
X155594011Y25546011D02*
X155575000Y25527000D01*
X172556011Y25546011D02*
X155594011Y25546011D01*
X175793000Y28783000D02*
X172556011Y25546011D01*
X175793000Y29733000D02*
X175793000Y28783000D01*
X153797000Y-14224000D02*
X153797000Y-14224000D01*
X153797000Y4699000D02*
X153797000Y-14224000D01*
X155194000Y6096000D02*
X153797000Y4699000D01*
X155194000Y25273000D02*
X155194000Y6096000D01*
X155467011Y25546011D02*
X155194000Y25273000D01*
X155594011Y25546011D02*
X155467011Y25546011D01*
X172954991Y25126991D02*
X155936991Y25126991D01*
X176593000Y28765000D02*
X172954991Y25126991D01*
X176593000Y29733000D02*
X176593000Y28765000D01*
X155936991Y25126991D02*
X155702000Y24892000D01*
X155702000Y24892000D02*
X155702000Y24257000D01*
X155702000Y5969000D02*
X154305000Y4572000D01*
X154305000Y4572000D02*
X154305000Y-11557000D01*
X154305000Y-11557000D02*
X154305000Y-11557000D01*
X155702000Y24257000D02*
X155702000Y18542000D01*
X155702000Y18542000D02*
X155702000Y5969000D01*
X155702000Y18669000D02*
X155702000Y18542000D01*
X174371000Y24638000D02*
X156337000Y24638000D01*
X178293000Y31433000D02*
X178293000Y28560000D01*
X156171980Y5676980D02*
X154813000Y4318000D01*
X178293000Y28560000D02*
X174371000Y24638000D01*
X156337000Y24638000D02*
X156171980Y24472980D01*
X154813000Y4318000D02*
X154813000Y-8890000D01*
X154813000Y-8890000D02*
X154813000Y-8890000D01*
X156171980Y24472980D02*
X156171980Y18707020D01*
X156171980Y18707020D02*
X156171980Y5676980D01*
X156171980Y18884980D02*
X156171980Y18707020D01*
X155321000Y4191000D02*
X155321000Y-6350000D01*
X156571991Y5441991D02*
X155321000Y4191000D01*
X174625000Y24130000D02*
X156914301Y24130000D01*
X179451000Y28956000D02*
X174625000Y24130000D01*
X179451000Y32025000D02*
X179451000Y28956000D01*
X179243000Y32233000D02*
X179451000Y32025000D01*
X156914301Y24130000D02*
X156571991Y23787690D01*
X178293000Y32233000D02*
X179243000Y32233000D01*
X155321000Y-6350000D02*
X155321000Y-6477000D01*
X156571991Y23787690D02*
X156571991Y17926009D01*
X156571991Y17926009D02*
X156571991Y5441991D01*
X156571991Y18199690D02*
X156571991Y17926009D01*
X155829000Y-3683000D02*
X155829000Y-3810000D01*
X155829000Y4064000D02*
X155829000Y-3683000D01*
X156972000Y5207000D02*
X155829000Y4064000D01*
X156972001Y17526001D02*
X156972000Y17526000D01*
X157226000Y23622000D02*
X156972000Y23368000D01*
X174700998Y23622000D02*
X157226000Y23622000D01*
X179920978Y28841980D02*
X174700998Y23622000D01*
X179920978Y32804022D02*
X179920978Y28841980D01*
X179692000Y33033000D02*
X179920978Y32804022D01*
X178293000Y33033000D02*
X179692000Y33033000D01*
X156972000Y17526000D02*
X156972000Y5207000D01*
X156972000Y23368000D02*
X156972001Y17526001D01*
X156972000Y17780000D02*
X156972000Y17526000D01*
X156337000Y-1016000D02*
X156337000Y-1143000D01*
X156337000Y3810000D02*
X156337000Y-1016000D01*
X157480000Y4953000D02*
X156337000Y3810000D01*
X157480000Y17272000D02*
X157480000Y4953000D01*
X157480000Y17526000D02*
X157480000Y17272000D01*
X180035000Y33833000D02*
X178293000Y33833000D01*
X180320989Y28555989D02*
X180320989Y33547011D01*
X174879000Y23114000D02*
X180320989Y28555989D01*
X157675580Y23114000D02*
X174879000Y23114000D01*
X157480000Y22918420D02*
X157675580Y23114000D01*
X180320989Y33547011D02*
X180035000Y33833000D01*
X157480000Y17272000D02*
X157480000Y22918420D01*
X179527000Y37033000D02*
X178293000Y37033000D01*
X180035000Y37033000D02*
X179527000Y37033000D01*
X180674338Y40974338D02*
X180674338Y37672338D01*
X180674338Y37672338D02*
X180035000Y37033000D01*
X182245000Y42545000D02*
X180674338Y40974338D01*
X185385000Y42545000D02*
X182245000Y42545000D01*
X179692000Y37833000D02*
X178293000Y37833000D01*
X180086000Y38227000D02*
X179692000Y37833000D01*
X180086000Y40386000D02*
X180086000Y38227000D01*
X179705000Y40767000D02*
X180086000Y40386000D01*
X179197000Y40767000D02*
X179705000Y40767000D01*
X178943000Y41021000D02*
X179197000Y40767000D01*
X178943000Y42291000D02*
X178943000Y41021000D01*
X179197000Y42545000D02*
X178943000Y42291000D01*
X179578000Y42545000D02*
X179197000Y42545000D01*
X183388000Y46355000D02*
X179578000Y42545000D01*
X185385000Y46355000D02*
X183388000Y46355000D01*
X179349000Y38633000D02*
X179243000Y38633000D01*
X179578000Y38862000D02*
X179349000Y38633000D01*
X179578000Y40132000D02*
X179578000Y38862000D01*
X179451000Y40259000D02*
X179578000Y40132000D01*
X178689000Y40259000D02*
X179451000Y40259000D01*
X179243000Y38633000D02*
X178293000Y38633000D01*
X178406150Y40541850D02*
X178689000Y40259000D01*
X178406150Y42897150D02*
X178406150Y40541850D01*
X178590850Y43081850D02*
X178406150Y42897150D01*
X179295150Y43081850D02*
X178590850Y43081850D01*
X183838300Y47625000D02*
X179295150Y43081850D01*
X185385000Y47625000D02*
X183838300Y47625000D01*
X177292000Y43434000D02*
X177292000Y39624000D01*
X177292000Y39624000D02*
X177483000Y39433000D01*
X177546000Y43688000D02*
X177292000Y43434000D01*
X179324000Y43688000D02*
X177546000Y43688000D01*
X177483000Y39433000D02*
X178293000Y39433000D01*
X183642000Y48006000D02*
X179324000Y43688000D01*
X183642000Y48641000D02*
X183642000Y48006000D01*
X183896000Y48895000D02*
X183642000Y48641000D01*
X185385000Y48895000D02*
X183896000Y48895000D01*
X176593000Y43300700D02*
X176593000Y41133000D01*
X176593000Y43751000D02*
X176593000Y43300700D01*
X177057009Y44215009D02*
X176593000Y43751000D01*
X179285309Y44215009D02*
X177057009Y44215009D01*
X183134000Y48063700D02*
X179285309Y44215009D01*
X183134000Y49784000D02*
X183134000Y48063700D01*
X183515000Y50165000D02*
X183134000Y49784000D01*
X185385000Y50165000D02*
X183515000Y50165000D01*
X183769000Y51435000D02*
X182626000Y50292000D01*
X179108020Y44615020D02*
X176568020Y44615020D01*
X182626000Y48133000D02*
X179108020Y44615020D01*
X182626000Y50292000D02*
X182626000Y48133000D01*
X175793000Y43840000D02*
X175793000Y41133000D01*
X185385000Y51435000D02*
X183769000Y51435000D01*
X176568020Y44615020D02*
X175793000Y43840000D01*
X184023000Y52705000D02*
X185385000Y52705000D01*
X182225989Y50907989D02*
X184023000Y52705000D01*
X176110311Y45104011D02*
X179031311Y45104011D01*
X174993000Y43986700D02*
X176110311Y45104011D01*
X174993000Y41133000D02*
X174993000Y43986700D01*
X179031311Y45104011D02*
X182225989Y48298689D01*
X182225989Y48298689D02*
X182225989Y50907989D01*
X174193000Y43752400D02*
X175944622Y45504022D01*
X184510000Y53975000D02*
X185385000Y53975000D01*
X178865622Y45504022D02*
X181825978Y48464378D01*
X181825978Y48464378D02*
X181825978Y51290978D01*
X175944622Y45504022D02*
X178865622Y45504022D01*
X174193000Y41133000D02*
X174193000Y43752400D01*
X181825978Y51290978D02*
X184510000Y53975000D01*
X157148520Y66753740D02*
X157135820Y66766440D01*
X157148520Y64401700D02*
X157148520Y66753740D01*
X150329900Y55816500D02*
X150329900Y54239560D01*
X148615400Y44490640D02*
X143215360Y44490640D01*
X143215360Y44490640D02*
X142608300Y45097700D01*
X142608300Y45097700D02*
X142608300Y55145940D01*
X143278860Y55816500D02*
X150329900Y55816500D01*
X142608300Y55145940D02*
X143278860Y55816500D01*
X164405000Y48682000D02*
X157154520Y48682000D01*
X157154520Y48682000D02*
X157154520Y48682000D01*
X150329900Y46205140D02*
X150323550Y46198790D01*
X150329900Y47939560D02*
X150329900Y46255940D01*
X152146000Y34163000D02*
X152146000Y43911520D01*
X151566880Y44490640D02*
X151668480Y44389040D01*
X152146000Y43911520D02*
X151668480Y44389040D01*
X150323550Y44578270D02*
X150411180Y44490640D01*
X150323550Y46198790D02*
X150323550Y44578270D01*
X150411180Y44490640D02*
X151566880Y44490640D01*
X148615400Y44490640D02*
X150411180Y44490640D01*
X150329900Y46255940D02*
X150329900Y46205140D01*
X154993340Y64401700D02*
X157148520Y64401700D01*
X154757120Y56357520D02*
X154757120Y64165480D01*
X154223720Y55824120D02*
X154757120Y56357520D01*
X154757120Y64165480D02*
X154993340Y64401700D01*
X150337520Y55824120D02*
X154223720Y55824120D01*
X150329900Y55816500D02*
X150337520Y55824120D01*
X179605000Y62682000D02*
X184531120Y62682000D01*
X184531120Y62682000D02*
X185254900Y61958220D01*
X185254900Y61958220D02*
X185254900Y58856880D01*
X185310780Y58801000D02*
X186817000Y58801000D01*
X185254900Y58856880D02*
X185310780Y58801000D01*
X179605000Y60682000D02*
X177730020Y60682000D01*
X177730020Y60682000D02*
X177502820Y60909200D01*
X177502820Y60909200D02*
X177502820Y63535560D01*
X177502820Y63535560D02*
X177726340Y63759080D01*
X177726340Y63759080D02*
X186204860Y63759080D01*
X186817000Y63146940D02*
X186817000Y61341000D01*
X186204860Y63759080D02*
X186817000Y63146940D01*
X159512000Y52217000D02*
X159507000Y52222000D01*
X159507000Y50520200D02*
X159481600Y50494800D01*
X159481600Y53619320D02*
X176590880Y53619320D01*
X159481600Y56794800D02*
X159481600Y53619320D01*
X159481600Y53619320D02*
X159481600Y50494800D01*
X177653560Y54682000D02*
X179605000Y54682000D01*
X176590880Y53619320D02*
X177653560Y54682000D01*
X159481600Y56794800D02*
X160660480Y56794800D01*
X160660480Y56794800D02*
X161386520Y57520840D01*
X161386520Y57520840D02*
X161386520Y63616840D01*
X161386520Y63616840D02*
X161386520Y63644780D01*
X158973520Y64401700D02*
X158973520Y65448180D01*
X158973520Y65448180D02*
X159161480Y65636140D01*
X159161480Y65636140D02*
X161406840Y65636140D01*
X161406840Y65636140D02*
X161414460Y65636140D01*
X157179000Y62128400D02*
X157179000Y59944000D01*
X162331400Y62804040D02*
X162453440Y62682000D01*
X162331400Y64015620D02*
X162331400Y62804040D01*
X162184080Y64162940D02*
X162331400Y64015620D01*
X160502600Y64162940D02*
X162184080Y64162940D01*
X160329880Y63990220D02*
X160502600Y64162940D01*
X160329880Y63390780D02*
X160329880Y63990220D01*
X162453440Y62682000D02*
X164405000Y62682000D01*
X160200340Y63261240D02*
X160329880Y63390780D01*
X157383480Y63261240D02*
X160200340Y63261240D01*
X157179000Y63056760D02*
X157383480Y63261240D01*
X157179000Y62128400D02*
X157179000Y63056760D01*
X197827500Y65340000D02*
X197762500Y65405000D01*
X197827500Y61758871D02*
X197827500Y65340000D01*
X197827500Y58047742D02*
X197762500Y58112742D01*
X197827500Y54356000D02*
X197827500Y58047742D01*
X197827500Y50755484D02*
X197762500Y50820484D01*
X197827500Y47174355D02*
X197827500Y50755484D01*
X197827500Y43463226D02*
X197762500Y43528226D01*
X197827500Y39882097D02*
X197827500Y43463226D01*
X197827500Y36170968D02*
X197762500Y36235968D01*
X197827500Y32589839D02*
X197827500Y36170968D01*
X197827500Y28878710D02*
X197762500Y28943710D01*
X197827500Y25297581D02*
X197827500Y28878710D01*
X197827500Y21586452D02*
X197762500Y21651452D01*
X197827500Y18005323D02*
X197827500Y21586452D01*
X197827500Y14294194D02*
X197762500Y14359194D01*
X197827500Y10713065D02*
X197827500Y14294194D01*
X197827500Y7001936D02*
X197762500Y7066936D01*
X197827500Y3420807D02*
X197827500Y7001936D01*
D33*
X197762500Y-3806451D02*
X197827500Y-3871451D01*
X197762500Y-225322D02*
X197762500Y-3806451D01*
X197827500Y-7582580D02*
X197762500Y-7517580D01*
X197827500Y-11163709D02*
X197827500Y-7582580D01*
D32*
X191374000Y12327500D02*
X191389000Y12342500D01*
X188849000Y12327500D02*
X191374000Y12327500D01*
X186157000Y12367500D02*
X186182000Y12342500D01*
X183642000Y12367500D02*
X186157000Y12367500D01*
X179934000Y12367500D02*
X179959000Y12342500D01*
X177419000Y12367500D02*
X179934000Y12367500D01*
X173711000Y12367500D02*
X173736000Y12342500D01*
X171069000Y12367500D02*
X173711000Y12367500D01*
X167361000Y12367500D02*
X167386000Y12342500D01*
X164211000Y12367500D02*
X167361000Y12367500D01*
X191818260Y66012060D02*
X191833500Y65996820D01*
X191833500Y65996820D02*
X191833500Y64874140D01*
X190540640Y66012060D02*
X191818260Y66012060D01*
X190535000Y22225000D02*
X190535000Y21301000D01*
X190535000Y21301000D02*
X190563500Y21272500D01*
X190535000Y33655000D02*
X190535000Y32801000D01*
X190535000Y32801000D02*
X190535000Y32801000D01*
X190535000Y45085000D02*
X190535000Y43907000D01*
X198501000Y16637000D02*
X198564500Y16573500D01*
X195961000Y16637000D02*
X198501000Y16637000D01*
X189240640Y67320640D02*
X189740540Y67820540D01*
X189240640Y66012060D02*
X189240640Y67320640D01*
D34*
X164208000Y-5969000D02*
X165735000Y-5969000D01*
X165735000Y-5969000D02*
X166370000Y-6604000D01*
X166370000Y-6604000D02*
X166370000Y-19939000D01*
X162306000Y-24003000D02*
X160655000Y-24003000D01*
X166370000Y-19939000D02*
X162306000Y-24003000D01*
D32*
X195937500Y58112742D02*
X193240742Y58112742D01*
X193240742Y58112742D02*
X192532000Y57404000D01*
X192532000Y57404000D02*
X192532000Y53340000D01*
X191897000Y52705000D02*
X190535000Y52705000D01*
X192532000Y53340000D02*
X191897000Y52705000D01*
X203835000Y59055000D02*
X203835000Y54691667D01*
X203344780Y59545220D02*
X203835000Y59055000D01*
X196215000Y59545220D02*
X203344780Y59545220D01*
X195937500Y59267720D02*
X196215000Y59545220D01*
X195937500Y58112742D02*
X195937500Y59267720D01*
X203835000Y66421000D02*
X203835000Y62100000D01*
X203200000Y67056000D02*
X203835000Y66421000D01*
X196088000Y67056000D02*
X203200000Y67056000D01*
X195937500Y66905500D02*
X196088000Y67056000D01*
X195937500Y65405000D02*
X195937500Y66905500D01*
X190535000Y53975000D02*
X191643000Y53975000D01*
X191643000Y53975000D02*
X192024000Y54356000D01*
X195937500Y65405000D02*
X195937500Y63915920D01*
X195937500Y63915920D02*
X194812920Y62791340D01*
X192549780Y62791340D02*
X192024000Y62265560D01*
X194812920Y62791340D02*
X192549780Y62791340D01*
X192024000Y54356000D02*
X192024000Y62265560D01*
X195937500Y43528226D02*
X195425000Y43528226D01*
X195364022Y43589204D02*
X195364022Y45631022D01*
X195425000Y43528226D02*
X195364022Y43589204D01*
X195364022Y45631022D02*
X195453000Y45720000D01*
X194945000Y46228000D02*
X195453000Y45720000D01*
X194945000Y49916080D02*
X194945000Y46228000D01*
X194696080Y50165000D02*
X194945000Y49916080D01*
X190535000Y50165000D02*
X194696080Y50165000D01*
X190535000Y51435000D02*
X194564000Y51435000D01*
X194604476Y50820484D02*
X194564000Y50860960D01*
X194564000Y50860960D02*
X194564000Y51435000D01*
X195937500Y50820484D02*
X194604476Y50820484D01*
X203835000Y29718000D02*
X203835000Y25058335D01*
X202946000Y30607000D02*
X203835000Y29718000D01*
X196088000Y30607000D02*
X202946000Y30607000D01*
X195937500Y30456500D02*
X196088000Y30607000D01*
X195937500Y28943710D02*
X195937500Y30456500D01*
X194964011Y45573989D02*
X194964011Y29112249D01*
X194437000Y46101000D02*
X194964011Y45573989D01*
X195132550Y28943710D02*
X195937500Y28943710D01*
X194437000Y47117000D02*
X194437000Y46101000D01*
X193929000Y47625000D02*
X194437000Y47117000D01*
X194964011Y29112249D02*
X195132550Y28943710D01*
X190535000Y47625000D02*
X193929000Y47625000D01*
X190535000Y48895000D02*
X194437000Y48895000D01*
X194437000Y48895000D02*
X194437000Y48895000D01*
X203835000Y36857940D02*
X203835000Y32466668D01*
X196082920Y37713920D02*
X202979020Y37713920D01*
X195937500Y37568500D02*
X196082920Y37713920D01*
X202979020Y37713920D02*
X203835000Y36857940D01*
X195937500Y36235968D02*
X195937500Y37568500D01*
X194682806Y14359194D02*
X195937500Y14359194D01*
X194113031Y14928969D02*
X194682806Y14359194D01*
X194113031Y40582969D02*
X194113031Y14928969D01*
X192151000Y42545000D02*
X194113031Y40582969D01*
X190535000Y42545000D02*
X192151000Y42545000D01*
X195937500Y15724500D02*
X195937500Y14359194D01*
X196215000Y16002000D02*
X195937500Y15724500D01*
X202839320Y16002000D02*
X196215000Y16002000D01*
X203835000Y15006320D02*
X202839320Y16002000D01*
X203835000Y10241669D02*
X203835000Y15006320D01*
X194564000Y21998940D02*
X194911488Y21651452D01*
X194564000Y45303296D02*
X194564000Y21998940D01*
X194911488Y21651452D02*
X195937500Y21651452D01*
X193512296Y46355000D02*
X194564000Y45303296D01*
X190535000Y46355000D02*
X193512296Y46355000D01*
X203835000Y22600920D02*
X203835000Y17650002D01*
X196215000Y23622000D02*
X202813920Y23622000D01*
X202813920Y23622000D02*
X203835000Y22600920D01*
X195937500Y23344500D02*
X196215000Y23622000D01*
X195937500Y21651452D02*
X195937500Y23344500D01*
X203835000Y127000D02*
X203835000Y-4574997D01*
X202438000Y1524000D02*
X203835000Y127000D01*
X196088000Y1524000D02*
X202438000Y1524000D01*
X195937500Y1373500D02*
X196088000Y1524000D01*
X195937500Y-225322D02*
X195937500Y1373500D01*
X194281322Y-225322D02*
X195937500Y-225322D01*
X193313009Y39096991D02*
X193313009Y742991D01*
X192405000Y40005000D02*
X193313009Y39096991D01*
X193313009Y742991D02*
X194281322Y-225322D01*
X190535000Y40005000D02*
X192405000Y40005000D01*
X194355064Y7066936D02*
X195937500Y7066936D01*
X193713020Y7708980D02*
X194355064Y7066936D01*
X193713020Y39770680D02*
X193713020Y7708980D01*
X192208700Y41275000D02*
X193713020Y39770680D01*
X190535000Y41275000D02*
X192208700Y41275000D01*
X195937500Y8485500D02*
X195937500Y7066936D01*
X196088000Y8636000D02*
X195937500Y8485500D01*
X202780900Y8636000D02*
X196088000Y8636000D01*
X203835000Y7581900D02*
X202780900Y8636000D01*
X203835000Y2833336D02*
X203835000Y7581900D01*
X191389000Y10517500D02*
X191389000Y7493000D01*
X190627000Y6731000D02*
X189735000Y6731000D01*
X191389000Y7493000D02*
X190627000Y6731000D01*
X192151000Y37465000D02*
X190535000Y37465000D01*
X192405000Y37211000D02*
X192151000Y37465000D01*
X192405000Y10795000D02*
X192405000Y37211000D01*
X192127500Y10517500D02*
X192405000Y10795000D01*
X191389000Y10517500D02*
X192127500Y10517500D01*
X193572580Y-7517580D02*
X195937500Y-7517580D01*
X192913000Y-6858000D02*
X193572580Y-7517580D01*
X192913000Y38354000D02*
X192913000Y-6858000D01*
X192532000Y38735000D02*
X192913000Y38354000D01*
X190535000Y38735000D02*
X192532000Y38735000D01*
X195937500Y-9374500D02*
X195961000Y-9398000D01*
X195937500Y-7517580D02*
X195937500Y-9374500D01*
X179959000Y10517500D02*
X179959000Y9271000D01*
X179197000Y6731000D02*
X176781000Y6731000D01*
X179959000Y7493000D02*
X179197000Y6731000D01*
X179959000Y9271000D02*
X179959000Y7493000D01*
X180103780Y19321780D02*
X180086000Y19304000D01*
X181531260Y19321780D02*
X180103780Y19321780D01*
X181820820Y31716980D02*
X181820820Y19611340D01*
X182107840Y32004000D02*
X181820820Y31716980D01*
X186436000Y32004000D02*
X182107840Y32004000D01*
X189357000Y34925000D02*
X186436000Y32004000D01*
X181820820Y19611340D02*
X181531260Y19321780D01*
X190535000Y34925000D02*
X189357000Y34925000D01*
X186182000Y10517500D02*
X186182000Y9398000D01*
X185674000Y6731000D02*
X183385000Y6731000D01*
X186182000Y7239000D02*
X185674000Y6731000D01*
X186182000Y9398000D02*
X186182000Y7239000D01*
X186179460Y13843000D02*
X186176920Y13845540D01*
X191566800Y13843000D02*
X186179460Y13843000D01*
X191897000Y14173200D02*
X191566800Y13843000D01*
X191897000Y36068000D02*
X191897000Y14173200D01*
X191770000Y36195000D02*
X191897000Y36068000D01*
X190535000Y36195000D02*
X191770000Y36195000D01*
X167386000Y10517500D02*
X167386000Y9144000D01*
X166624000Y6731000D02*
X164208000Y6731000D01*
X167386000Y7493000D02*
X166624000Y6731000D01*
X167386000Y9144000D02*
X167386000Y7493000D01*
X169672000Y13843000D02*
X169672000Y13716000D01*
X169672000Y17498060D02*
X169672000Y13843000D01*
X170080940Y17907000D02*
X169672000Y17498060D01*
X187579000Y18630900D02*
X186855100Y17907000D01*
X187579000Y29591000D02*
X187579000Y18630900D01*
X187833000Y29845000D02*
X187579000Y29591000D01*
X186855100Y17907000D02*
X170080940Y17907000D01*
X190535000Y29845000D02*
X187833000Y29845000D01*
X173736000Y10517500D02*
X173736000Y9398000D01*
X173355000Y6731000D02*
X170558000Y6731000D01*
X173736000Y7112000D02*
X173355000Y6731000D01*
X173736000Y9398000D02*
X173736000Y7112000D01*
X173863000Y18542000D02*
X173863000Y18542000D01*
X186489340Y18542000D02*
X173863000Y18542000D01*
X186944000Y18996660D02*
X186489340Y18542000D01*
X186944000Y30734000D02*
X186944000Y18996660D01*
X187325000Y31115000D02*
X186944000Y30734000D01*
X190535000Y31115000D02*
X187325000Y31115000D01*
X163177220Y63657480D02*
X165856920Y63657480D01*
X158960820Y66766440D02*
X162072320Y66766440D01*
X162072320Y66766440D02*
X162731411Y66107349D01*
X162731411Y66107349D02*
X162731411Y64103289D01*
X166072820Y63441580D02*
X166072820Y58899820D01*
X162731411Y64103289D02*
X163177220Y63657480D01*
X165856920Y63657480D02*
X166072820Y63441580D01*
X166072820Y58899820D02*
X165855000Y58682000D01*
X165855000Y58682000D02*
X164405000Y58682000D01*
X165352720Y45337720D02*
X161030920Y45337720D01*
X166107501Y46092501D02*
X165352720Y45337720D01*
X166107501Y50115079D02*
X166107501Y46092501D01*
X166547422Y50555000D02*
X166107501Y50115079D01*
X161030920Y45337720D02*
X160975040Y45393600D01*
X179685000Y50555000D02*
X166547422Y50555000D01*
X164405000Y52682000D02*
X176989600Y52682000D01*
X176989600Y52682000D02*
X178003200Y53695600D01*
X178003200Y53695600D02*
X183235600Y53695600D01*
X183235600Y53695600D02*
X183235600Y53695600D01*
X183235600Y53695600D02*
X183235600Y53695600D01*
X167589200Y22199600D02*
X167589200Y22199600D01*
X166014400Y22199600D02*
X167589200Y22199600D01*
X165544500Y22669500D02*
X166014400Y22199600D01*
X159727900Y22669500D02*
X165544500Y22669500D01*
X159252920Y22194520D02*
X159727900Y22669500D01*
X159252920Y20858480D02*
X159252920Y22194520D01*
X167487600Y20777200D02*
X161344878Y20777200D01*
X161344878Y20777200D02*
X160733239Y21388839D01*
X184269000Y58682000D02*
X184758385Y58192615D01*
X184758385Y58192615D02*
X184758385Y55745010D01*
X179605000Y58682000D02*
X184269000Y58682000D01*
X179605000Y56682000D02*
X183729000Y56682000D01*
X183729000Y56682000D02*
X183896000Y56515000D01*
X183896000Y56515000D02*
X183896000Y55245000D01*
X183896000Y55245000D02*
X183896000Y55245000D01*
X161391600Y21437600D02*
X160782000Y22047200D01*
X168046400Y21437600D02*
X161391600Y21437600D01*
X164405000Y60682000D02*
X162282000Y60682000D01*
X162282000Y60682000D02*
X162282000Y60682000D01*
X171005000Y47182000D02*
X171005000Y45579800D01*
X171005000Y45579800D02*
X171005000Y45579800D01*
X150964900Y29400500D02*
X150964900Y19403060D01*
X151841200Y30276800D02*
X150964900Y29400500D01*
X157581600Y30276800D02*
X151841200Y30276800D01*
X145028920Y-25003760D02*
X144780000Y-25252680D01*
X149631400Y-25003760D02*
X145028920Y-25003760D01*
X150741380Y-23893780D02*
X149631400Y-25003760D01*
X144780000Y-25252680D02*
X144780000Y-26797000D01*
X150741380Y16273780D02*
X150741380Y-23893780D01*
M02*
