G04 #@! TF.GenerationSoftware,KiCad,Pcbnew,(5.1.12)-1*
G04 #@! TF.CreationDate,2021-11-18T21:12:02+02:00*
G04 #@! TF.ProjectId,SmartHome,536d6172-7448-46f6-9d65-2e6b69636164,rev?*
G04 #@! TF.SameCoordinates,Original*
G04 #@! TF.FileFunction,Legend,Top*
G04 #@! TF.FilePolarity,Positive*
%FSLAX46Y46*%
G04 Gerber Fmt 4.6, Leading zero omitted, Abs format (unit mm)*
G04 Created by KiCad (PCBNEW (5.1.12)-1) date 2021-11-18 21:12:02*
%MOMM*%
%LPD*%
G01*
G04 APERTURE LIST*
%ADD10C,0.150000*%
%ADD11C,0.250000*%
%ADD12C,0.600000*%
%ADD13C,0.120000*%
%ADD14C,0.127000*%
%ADD15C,0.200000*%
%ADD16C,0.015000*%
%ADD17C,0.080000*%
%ADD18R,2.500000X1.000000*%
%ADD19R,1.000000X1.800000*%
%ADD20R,0.550000X1.500000*%
%ADD21R,1.500000X0.550000*%
%ADD22R,1.000000X1.500000*%
%ADD23C,0.100000*%
%ADD24R,1.700000X1.700000*%
%ADD25O,1.700000X1.700000*%
%ADD26R,1.508000X1.508000*%
%ADD27C,1.508000*%
%ADD28C,1.400000*%
%ADD29R,1.400000X1.400000*%
%ADD30O,1.950000X1.700000*%
%ADD31C,2.000000*%
%ADD32C,1.500000*%
%ADD33C,2.800000*%
%ADD34R,2.800000X2.800000*%
%ADD35R,3.500000X3.500000*%
%ADD36R,1.000000X1.700000*%
%ADD37R,3.800000X2.000000*%
%ADD38R,1.500000X2.000000*%
G04 APERTURE END LIST*
D10*
X148002025Y6222949D02*
X148002025Y5556283D01*
X147763929Y6603902D02*
X147525834Y5889616D01*
X148144882Y5889616D01*
X147478215Y9056815D02*
X148097263Y9056815D01*
X147763929Y8675862D01*
X147906787Y8675862D01*
X148002025Y8628243D01*
X148049644Y8580624D01*
X148097263Y8485386D01*
X148097263Y8247291D01*
X148049644Y8152053D01*
X148002025Y8104434D01*
X147906787Y8056815D01*
X147621072Y8056815D01*
X147525834Y8104434D01*
X147478215Y8152053D01*
X148049644Y4055751D02*
X147573453Y4055751D01*
X147525834Y3579560D01*
X147573453Y3627179D01*
X147668691Y3674798D01*
X147906787Y3674798D01*
X148002025Y3627179D01*
X148049644Y3579560D01*
X148097263Y3484322D01*
X148097263Y3246227D01*
X148049644Y3150989D01*
X148002025Y3103370D01*
X147906787Y3055751D01*
X147668691Y3055751D01*
X147573453Y3103370D01*
X147525834Y3150989D01*
X148002025Y1555219D02*
X147811549Y1555219D01*
X147716310Y1507600D01*
X147668691Y1459980D01*
X147573453Y1317123D01*
X147525834Y1126647D01*
X147525834Y745695D01*
X147573453Y650457D01*
X147621072Y602838D01*
X147716310Y555219D01*
X147906787Y555219D01*
X148002025Y602838D01*
X148049644Y650457D01*
X148097263Y745695D01*
X148097263Y983790D01*
X148049644Y1079028D01*
X148002025Y1126647D01*
X147906787Y1174266D01*
X147716310Y1174266D01*
X147621072Y1126647D01*
X147573453Y1079028D01*
X147525834Y983790D01*
X147478215Y-945312D02*
X148144882Y-945312D01*
X147716310Y-1945312D01*
X147716310Y-3874416D02*
X147621072Y-3826797D01*
X147573453Y-3779178D01*
X147525834Y-3683940D01*
X147525834Y-3636321D01*
X147573453Y-3541083D01*
X147621072Y-3493464D01*
X147716310Y-3445844D01*
X147906787Y-3445844D01*
X148002025Y-3493464D01*
X148049644Y-3541083D01*
X148097263Y-3636321D01*
X148097263Y-3683940D01*
X148049644Y-3779178D01*
X148002025Y-3826797D01*
X147906787Y-3874416D01*
X147716310Y-3874416D01*
X147621072Y-3922035D01*
X147573453Y-3969654D01*
X147525834Y-4064892D01*
X147525834Y-4255368D01*
X147573453Y-4350606D01*
X147621072Y-4398225D01*
X147716310Y-4445844D01*
X147906787Y-4445844D01*
X148002025Y-4398225D01*
X148049644Y-4350606D01*
X148097263Y-4255368D01*
X148097263Y-4064892D01*
X148049644Y-3969654D01*
X148002025Y-3922035D01*
X147906787Y-3874416D01*
X147621072Y-6946376D02*
X147811549Y-6946376D01*
X147906787Y-6898757D01*
X147954406Y-6851138D01*
X148049644Y-6708281D01*
X148097263Y-6517805D01*
X148097263Y-6136853D01*
X148049644Y-6041615D01*
X148002025Y-5993996D01*
X147906787Y-5946376D01*
X147716310Y-5946376D01*
X147621072Y-5993996D01*
X147573453Y-6041615D01*
X147525834Y-6136853D01*
X147525834Y-6374948D01*
X147573453Y-6470186D01*
X147621072Y-6517805D01*
X147716310Y-6565424D01*
X147906787Y-6565424D01*
X148002025Y-6517805D01*
X148049644Y-6470186D01*
X148097263Y-6374948D01*
X148097263Y-9446908D02*
X147525835Y-9446908D01*
X147811549Y-9446908D02*
X147811549Y-8446908D01*
X147716311Y-8589766D01*
X147621073Y-8685004D01*
X147525835Y-8732623D01*
X148716311Y-8446908D02*
X148811549Y-8446908D01*
X148906787Y-8494528D01*
X148954406Y-8542147D01*
X149002025Y-8637385D01*
X149049644Y-8827861D01*
X149049644Y-9065956D01*
X149002025Y-9256432D01*
X148954406Y-9351670D01*
X148906787Y-9399289D01*
X148811549Y-9446908D01*
X148716311Y-9446908D01*
X148621073Y-9399289D01*
X148573454Y-9351670D01*
X148525835Y-9256432D01*
X148478216Y-9065956D01*
X148478216Y-8827861D01*
X148525835Y-8637385D01*
X148573454Y-8542147D01*
X148621073Y-8494528D01*
X148716311Y-8446908D01*
X148097263Y-11947440D02*
X147525835Y-11947440D01*
X147811549Y-11947440D02*
X147811549Y-10947440D01*
X147716311Y-11090298D01*
X147621073Y-11185536D01*
X147525835Y-11233155D01*
X149049644Y-11947440D02*
X148478216Y-11947440D01*
X148763930Y-11947440D02*
X148763930Y-10947440D01*
X148668692Y-11090298D01*
X148573454Y-11185536D01*
X148478216Y-11233155D01*
X148097263Y-14447972D02*
X147525835Y-14447972D01*
X147811549Y-14447972D02*
X147811549Y-13447972D01*
X147716311Y-13590830D01*
X147621073Y-13686068D01*
X147525835Y-13733687D01*
X148478216Y-13543211D02*
X148525835Y-13495592D01*
X148621073Y-13447972D01*
X148859168Y-13447972D01*
X148954406Y-13495592D01*
X149002025Y-13543211D01*
X149049644Y-13638449D01*
X149049644Y-13733687D01*
X149002025Y-13876544D01*
X148430597Y-14447972D01*
X149049644Y-14447972D01*
X148097263Y-16948504D02*
X147525835Y-16948504D01*
X147811549Y-16948504D02*
X147811549Y-15948504D01*
X147716311Y-16091362D01*
X147621073Y-16186600D01*
X147525835Y-16234219D01*
X148430597Y-15948504D02*
X149049644Y-15948504D01*
X148716311Y-16329457D01*
X148859168Y-16329457D01*
X148954406Y-16377076D01*
X149002025Y-16424695D01*
X149049644Y-16519933D01*
X149049644Y-16758028D01*
X149002025Y-16853266D01*
X148954406Y-16900885D01*
X148859168Y-16948504D01*
X148573454Y-16948504D01*
X148478216Y-16900885D01*
X148430597Y-16853266D01*
X148097263Y-19449040D02*
X147525835Y-19449040D01*
X147811549Y-19449040D02*
X147811549Y-18449040D01*
X147716311Y-18591898D01*
X147621073Y-18687136D01*
X147525835Y-18734755D01*
X148954406Y-18782374D02*
X148954406Y-19449040D01*
X148716311Y-18401421D02*
X148478216Y-19115707D01*
X149097263Y-19115707D01*
X147525834Y11462108D02*
X147573453Y11509728D01*
X147668691Y11557347D01*
X147906787Y11557347D01*
X148002025Y11509728D01*
X148049644Y11462108D01*
X148097263Y11366870D01*
X148097263Y11271632D01*
X148049644Y11128775D01*
X147478215Y10557347D01*
X148097263Y10557347D01*
X148097263Y13057879D02*
X147525834Y13057879D01*
X147811549Y13057879D02*
X147811549Y14057879D01*
X147716310Y13915021D01*
X147621072Y13819783D01*
X147525834Y13772164D01*
D11*
X167007518Y23342908D02*
X167340851Y23342908D01*
X167483708Y22819099D02*
X167007518Y22819099D01*
X167007518Y23819099D01*
X167483708Y23819099D01*
X167864660Y22866718D02*
X167959899Y22819099D01*
X168150375Y22819099D01*
X168245613Y22866718D01*
X168293232Y22961956D01*
X168293232Y23009575D01*
X168245613Y23104813D01*
X168150375Y23152432D01*
X168007518Y23152432D01*
X167912280Y23200051D01*
X167864660Y23295289D01*
X167864660Y23342908D01*
X167912280Y23438146D01*
X168007518Y23485765D01*
X168150375Y23485765D01*
X168245613Y23438146D01*
X168864660Y22819099D02*
X168769422Y22866718D01*
X168721803Y22961956D01*
X168721803Y23819099D01*
X169674184Y22819099D02*
X169674184Y23342908D01*
X169626565Y23438146D01*
X169531327Y23485765D01*
X169340851Y23485765D01*
X169245613Y23438146D01*
X169674184Y22866718D02*
X169578946Y22819099D01*
X169340851Y22819099D01*
X169245613Y22866718D01*
X169197994Y22961956D01*
X169197994Y23057194D01*
X169245613Y23152432D01*
X169340851Y23200051D01*
X169578946Y23200051D01*
X169674184Y23247670D01*
X170150375Y22819099D02*
X170150375Y23485765D01*
X170150375Y23390527D02*
X170197994Y23438146D01*
X170293232Y23485765D01*
X170436089Y23485765D01*
X170531327Y23438146D01*
X170578946Y23342908D01*
X170578946Y22819099D01*
X170578946Y23342908D02*
X170626565Y23438146D01*
X170721803Y23485765D01*
X170864660Y23485765D01*
X170959899Y23438146D01*
X171007518Y23342908D01*
X171007518Y22819099D01*
X172197994Y22866718D02*
X172340851Y22819099D01*
X172578946Y22819099D01*
X172674184Y22866718D01*
X172721803Y22914337D01*
X172769422Y23009575D01*
X172769422Y23104813D01*
X172721803Y23200051D01*
X172674184Y23247670D01*
X172578946Y23295289D01*
X172388470Y23342908D01*
X172293232Y23390527D01*
X172245613Y23438146D01*
X172197994Y23533384D01*
X172197994Y23628622D01*
X172245613Y23723860D01*
X172293232Y23771480D01*
X172388470Y23819099D01*
X172626565Y23819099D01*
X172769422Y23771480D01*
X173197994Y22819099D02*
X173197994Y23819099D01*
X173626565Y22819099D02*
X173626565Y23342908D01*
X173578946Y23438146D01*
X173483708Y23485765D01*
X173340851Y23485765D01*
X173245613Y23438146D01*
X173197994Y23390527D01*
X174531327Y22819099D02*
X174531327Y23342908D01*
X174483708Y23438146D01*
X174388470Y23485765D01*
X174197994Y23485765D01*
X174102756Y23438146D01*
X174531327Y22866718D02*
X174436089Y22819099D01*
X174197994Y22819099D01*
X174102756Y22866718D01*
X174055137Y22961956D01*
X174055137Y23057194D01*
X174102756Y23152432D01*
X174197994Y23200051D01*
X174436089Y23200051D01*
X174531327Y23247670D01*
X175007518Y22819099D02*
X175007518Y23819099D01*
X175436089Y22819099D02*
X175436089Y23342908D01*
X175388470Y23438146D01*
X175293232Y23485765D01*
X175150375Y23485765D01*
X175055137Y23438146D01*
X175007518Y23390527D01*
X175912280Y22819099D02*
X175912280Y23485765D01*
X175912280Y23819099D02*
X175864660Y23771480D01*
X175912280Y23723860D01*
X175959899Y23771480D01*
X175912280Y23819099D01*
X175912280Y23723860D01*
X176388470Y23485765D02*
X176388470Y22819099D01*
X176388470Y23390527D02*
X176436089Y23438146D01*
X176531327Y23485765D01*
X176674184Y23485765D01*
X176769422Y23438146D01*
X176817041Y23342908D01*
X176817041Y22819099D01*
D10*
X177533490Y24057859D02*
X177866823Y23057859D01*
X178200157Y24057859D01*
X179057300Y23057859D02*
X178485871Y23057859D01*
X178771585Y23057859D02*
X178771585Y24057859D01*
X178676347Y23915001D01*
X178581109Y23819763D01*
X178485871Y23772144D01*
X179485871Y23153097D02*
X179533490Y23105478D01*
X179485871Y23057859D01*
X179438252Y23105478D01*
X179485871Y23153097D01*
X179485871Y23057859D01*
X180152538Y24057859D02*
X180247776Y24057859D01*
X180343014Y24010240D01*
X180390633Y23962620D01*
X180438252Y23867382D01*
X180485871Y23676906D01*
X180485871Y23438811D01*
X180438252Y23248335D01*
X180390633Y23153097D01*
X180343014Y23105478D01*
X180247776Y23057859D01*
X180152538Y23057859D01*
X180057300Y23105478D01*
X180009680Y23153097D01*
X179962061Y23248335D01*
X179914442Y23438811D01*
X179914442Y23676906D01*
X179962061Y23867382D01*
X180009680Y23962620D01*
X180057300Y24010240D01*
X180152538Y24057859D01*
D12*
X151473971Y24856274D02*
X151884685Y24713417D01*
X152598971Y24713417D01*
X152902542Y24856274D01*
X153063257Y24999131D01*
X153241828Y25284845D01*
X153277542Y25570560D01*
X153170400Y25856274D01*
X153045400Y25999131D01*
X152777542Y26141988D01*
X152223971Y26284845D01*
X151956114Y26427702D01*
X151831114Y26570560D01*
X151723971Y26856274D01*
X151759685Y27141988D01*
X151938257Y27427702D01*
X152098971Y27570560D01*
X152402542Y27713417D01*
X153116828Y27713417D01*
X153527542Y27570560D01*
X154456114Y24713417D02*
X154706114Y26713417D01*
X154670400Y26427702D02*
X154831114Y26570560D01*
X155134685Y26713417D01*
X155563257Y26713417D01*
X155831114Y26570560D01*
X155938257Y26284845D01*
X155741828Y24713417D01*
X155938257Y26284845D02*
X156116828Y26570560D01*
X156420400Y26713417D01*
X156848971Y26713417D01*
X157116828Y26570560D01*
X157223971Y26284845D01*
X157027542Y24713417D01*
X159741828Y24713417D02*
X159938257Y26284845D01*
X159831114Y26570560D01*
X159563257Y26713417D01*
X158991828Y26713417D01*
X158688257Y26570560D01*
X159759685Y24856274D02*
X159456114Y24713417D01*
X158741828Y24713417D01*
X158473971Y24856274D01*
X158366828Y25141988D01*
X158402542Y25427702D01*
X158581114Y25713417D01*
X158884685Y25856274D01*
X159598971Y25856274D01*
X159902542Y25999131D01*
X161170400Y24713417D02*
X161420400Y26713417D01*
X161348971Y26141988D02*
X161527542Y26427702D01*
X161688257Y26570560D01*
X161991828Y26713417D01*
X162277542Y26713417D01*
X162848971Y26713417D02*
X163991828Y26713417D01*
X163402542Y27713417D02*
X163081114Y25141988D01*
X163188257Y24856274D01*
X163456114Y24713417D01*
X163741828Y24713417D01*
X167027542Y24713417D02*
X167402542Y27713417D01*
X167223971Y26284845D02*
X168938257Y26284845D01*
X168741828Y24713417D02*
X169116828Y27713417D01*
X170598971Y24713417D02*
X170331114Y24856274D01*
X170206114Y24999131D01*
X170098971Y25284845D01*
X170206114Y26141988D01*
X170384685Y26427702D01*
X170545400Y26570560D01*
X170848971Y26713417D01*
X171277542Y26713417D01*
X171545400Y26570560D01*
X171670400Y26427702D01*
X171777542Y26141988D01*
X171670400Y25284845D01*
X171491828Y24999131D01*
X171331114Y24856274D01*
X171027542Y24713417D01*
X170598971Y24713417D01*
X172884685Y24713417D02*
X173134685Y26713417D01*
X173098971Y26427702D02*
X173259685Y26570560D01*
X173563257Y26713417D01*
X173991828Y26713417D01*
X174259685Y26570560D01*
X174366828Y26284845D01*
X174170400Y24713417D01*
X174366828Y26284845D02*
X174545400Y26570560D01*
X174848971Y26713417D01*
X175277542Y26713417D01*
X175545400Y26570560D01*
X175652542Y26284845D01*
X175456114Y24713417D01*
X178045400Y24856274D02*
X177741828Y24713417D01*
X177170400Y24713417D01*
X176902542Y24856274D01*
X176795400Y25141988D01*
X176938257Y26284845D01*
X177116828Y26570560D01*
X177420400Y26713417D01*
X177991828Y26713417D01*
X178259685Y26570560D01*
X178366828Y26284845D01*
X178331114Y25999131D01*
X176866828Y25713417D01*
D10*
X147602984Y21135079D02*
X147602984Y22135079D01*
X147841080Y22135079D01*
X147983937Y22087460D01*
X148079175Y21992221D01*
X148126794Y21896983D01*
X148174413Y21706507D01*
X148174413Y21563650D01*
X148126794Y21373174D01*
X148079175Y21277936D01*
X147983937Y21182698D01*
X147841080Y21135079D01*
X147602984Y21135079D01*
X148507746Y22135079D02*
X149126794Y22135079D01*
X148793460Y21754126D01*
X148936318Y21754126D01*
X149031556Y21706507D01*
X149079175Y21658888D01*
X149126794Y21563650D01*
X149126794Y21325555D01*
X149079175Y21230317D01*
X149031556Y21182698D01*
X148936318Y21135079D01*
X148650603Y21135079D01*
X148555365Y21182698D01*
X148507746Y21230317D01*
X147509004Y23644599D02*
X147509004Y24644599D01*
X147747100Y24644599D01*
X147889957Y24596980D01*
X147985195Y24501741D01*
X148032814Y24406503D01*
X148080433Y24216027D01*
X148080433Y24073170D01*
X148032814Y23882694D01*
X147985195Y23787456D01*
X147889957Y23692218D01*
X147747100Y23644599D01*
X147509004Y23644599D01*
X148461385Y24549360D02*
X148509004Y24596980D01*
X148604242Y24644599D01*
X148842338Y24644599D01*
X148937576Y24596980D01*
X148985195Y24549360D01*
X149032814Y24454122D01*
X149032814Y24358884D01*
X148985195Y24216027D01*
X148413766Y23644599D01*
X149032814Y23644599D01*
X147458204Y26232859D02*
X147458204Y27232859D01*
X147696300Y27232859D01*
X147839157Y27185240D01*
X147934395Y27090001D01*
X147982014Y26994763D01*
X148029633Y26804287D01*
X148029633Y26661430D01*
X147982014Y26470954D01*
X147934395Y26375716D01*
X147839157Y26280478D01*
X147696300Y26232859D01*
X147458204Y26232859D01*
X148982014Y26232859D02*
X148410585Y26232859D01*
X148696300Y26232859D02*
X148696300Y27232859D01*
X148601061Y27090001D01*
X148505823Y26994763D01*
X148410585Y26947144D01*
X147452175Y28845213D02*
X147928365Y28845213D01*
X147356937Y28559499D02*
X147690270Y29559499D01*
X148023603Y28559499D01*
X148356937Y28559499D02*
X148356937Y29559499D01*
X148928365Y28559499D01*
X148928365Y29559499D01*
X183856333Y61015619D02*
X183523000Y61491809D01*
X183284904Y61015619D02*
X183284904Y62015619D01*
X183665857Y62015619D01*
X183761095Y61968000D01*
X183808714Y61920380D01*
X183856333Y61825142D01*
X183856333Y61682285D01*
X183808714Y61587047D01*
X183761095Y61539428D01*
X183665857Y61491809D01*
X183284904Y61491809D01*
X184189666Y62015619D02*
X184856333Y61015619D01*
X184856333Y62015619D02*
X184189666Y61015619D01*
X183261095Y59094619D02*
X183832523Y59094619D01*
X183546809Y58094619D02*
X183546809Y59094619D01*
X184070619Y59094619D02*
X184737285Y58094619D01*
X184737285Y59094619D02*
X184070619Y58094619D01*
D13*
X163885000Y63682000D02*
X163275000Y63682000D01*
X163885000Y63682000D02*
X163885000Y71302000D01*
X163885000Y47062000D02*
X163885000Y47682000D01*
X166005000Y47062000D02*
X163885000Y47062000D01*
X180125000Y47062000D02*
X178005000Y47062000D01*
X180125000Y47682000D02*
X180125000Y47062000D01*
X180125000Y71302000D02*
X180125000Y63682000D01*
X163885000Y71302000D02*
X180125000Y71302000D01*
D10*
X167418000Y40608000D02*
X167418000Y40033000D01*
X177768000Y40608000D02*
X177768000Y39933000D01*
X177768000Y30258000D02*
X177768000Y30933000D01*
X167418000Y30258000D02*
X167418000Y30933000D01*
X167418000Y40608000D02*
X168093000Y40608000D01*
X167418000Y30258000D02*
X168093000Y30258000D01*
X177768000Y30258000D02*
X177093000Y30258000D01*
X177768000Y40608000D02*
X177093000Y40608000D01*
X167418000Y40033000D02*
X166143000Y40033000D01*
D13*
X190640640Y65012060D02*
X187840640Y65012060D01*
X187190640Y65712060D02*
X187190640Y66312060D01*
X187840640Y67012060D02*
X190640640Y67012060D01*
X191290640Y66312060D02*
X191290640Y65712060D01*
X190440640Y67212060D02*
X190740640Y67512060D01*
X190740640Y67512060D02*
X190140640Y67512060D01*
X190440640Y67212060D02*
X190140640Y67512060D01*
X191290640Y65712060D02*
G75*
G02*
X190590640Y65012060I-700000J0D01*
G01*
X190590640Y67012060D02*
G75*
G02*
X191290640Y66312060I0J-700000D01*
G01*
X187190640Y66312060D02*
G75*
G02*
X187890640Y67012060I700000J0D01*
G01*
X187890640Y65012060D02*
G75*
G02*
X187190640Y65712060I0J700000D01*
G01*
X142934380Y55063700D02*
X144264380Y55063700D01*
X142934380Y53733700D02*
X142934380Y55063700D01*
X142934380Y52463700D02*
X145594380Y52463700D01*
X145594380Y52463700D02*
X145594380Y44783700D01*
X142934380Y52463700D02*
X142934380Y44783700D01*
X142934380Y44783700D02*
X145594380Y44783700D01*
D14*
X162858000Y8821000D02*
X162858000Y-15679000D01*
X162858000Y-15679000D02*
X168358000Y-15679000D01*
X168358000Y-15679000D02*
X168358000Y8821000D01*
X168358000Y8821000D02*
X162858000Y8821000D01*
D15*
X164438000Y-16383000D02*
G75*
G03*
X164438000Y-16383000I-100000J0D01*
G01*
D13*
X150740000Y-22897000D02*
X150140000Y-22897000D01*
X150740000Y-23737000D02*
X150740000Y-22897000D01*
X143780000Y-30397000D02*
X143780000Y-29897000D01*
X145780000Y-30397000D02*
X145780000Y-29897000D01*
X145780000Y-29897000D02*
X143780000Y-29897000D01*
X145780000Y-30397000D02*
X143780000Y-30397000D01*
X145565000Y-26186000D02*
X145864000Y-25887000D01*
X143869000Y-27882000D02*
X144169000Y-27583000D01*
X145390000Y-26011000D02*
X145690000Y-25712000D01*
X143695000Y-27707000D02*
X143994000Y-27408000D01*
X147590000Y-30397000D02*
X147590000Y-29897000D01*
X149590000Y-30397000D02*
X149590000Y-29897000D01*
X149590000Y-29897000D02*
X147590000Y-29897000D01*
X149590000Y-30397000D02*
X147590000Y-30397000D01*
X149536000Y-26026000D02*
X149675000Y-25887000D01*
X147679000Y-27882000D02*
X147819000Y-27742000D01*
X149361000Y-25852000D02*
X149501000Y-25712000D01*
X147505000Y-27707000D02*
X147645000Y-27568000D01*
X142870000Y-30557000D02*
X142870000Y-23137000D01*
X150500000Y-30557000D02*
X150500000Y-23137000D01*
X150500000Y-23137000D02*
X142870000Y-23137000D01*
X150500000Y-30557000D02*
X142870000Y-30557000D01*
X150500000Y-28497000D02*
X142870000Y-28497000D01*
X150500000Y-25096000D02*
X142870000Y-25096000D01*
X150500000Y-23797000D02*
X142870000Y-23797000D01*
X146210000Y-26797000D02*
G75*
G03*
X146210000Y-26797000I-1430000J0D01*
G01*
X150020000Y-26797000D02*
G75*
G03*
X150020000Y-26797000I-1430000J0D01*
G01*
X142424000Y31993000D02*
X142424000Y29493000D01*
X144924000Y31993000D02*
X142424000Y31993000D01*
X144224000Y19973000D02*
X142724000Y19973000D01*
X144224000Y18973000D02*
X144224000Y19973000D01*
X144224000Y30693000D02*
X142724000Y30693000D01*
X144224000Y31693000D02*
X144224000Y30693000D01*
X145034000Y19473000D02*
X145034000Y18973000D01*
X146244000Y19473000D02*
X145034000Y19473000D01*
X146244000Y31193000D02*
X146244000Y19473000D01*
X145034000Y31193000D02*
X146244000Y31193000D01*
X145034000Y31693000D02*
X145034000Y31193000D01*
X146744000Y18973000D02*
X146744000Y31693000D01*
X142724000Y18973000D02*
X146744000Y18973000D01*
X142724000Y31693000D02*
X142724000Y18973000D01*
X146744000Y31693000D02*
X142724000Y31693000D01*
X149413860Y35345880D02*
X149413860Y39845880D01*
X145413860Y34095880D02*
X146913860Y34095880D01*
X142913860Y39845880D02*
X142913860Y35345880D01*
X146913860Y41095880D02*
X145413860Y41095880D01*
X142424000Y16372000D02*
X142424000Y13872000D01*
X144924000Y16372000D02*
X142424000Y16372000D01*
X144224000Y-20648000D02*
X142724000Y-20648000D01*
X144224000Y-21648000D02*
X144224000Y-20648000D01*
X144224000Y15072000D02*
X142724000Y15072000D01*
X144224000Y16072000D02*
X144224000Y15072000D01*
X145034000Y-21148000D02*
X145034000Y-21648000D01*
X146244000Y-21148000D02*
X145034000Y-21148000D01*
X146244000Y15572000D02*
X146244000Y-21148000D01*
X145034000Y15572000D02*
X146244000Y15572000D01*
X145034000Y16072000D02*
X145034000Y15572000D01*
X146744000Y-21648000D02*
X146744000Y16072000D01*
X142724000Y-21648000D02*
X146744000Y-21648000D01*
X142724000Y16072000D02*
X142724000Y-21648000D01*
X146744000Y16072000D02*
X142724000Y16072000D01*
X153926000Y42022000D02*
X160326000Y42022000D01*
X153926000Y36972000D02*
X160326000Y36972000D01*
X160326000Y36972000D02*
G75*
G03*
X160326000Y42022000I0J2525000D01*
G01*
X153926000Y36972000D02*
G75*
G02*
X153926000Y42022000I0J2525000D01*
G01*
X187960000Y44470000D02*
X189910000Y44470000D01*
X187960000Y44470000D02*
X186010000Y44470000D01*
X187960000Y54590000D02*
X189910000Y54590000D01*
X187960000Y54590000D02*
X184510000Y54590000D01*
X187960000Y21610000D02*
X189910000Y21610000D01*
X187960000Y21610000D02*
X186010000Y21610000D01*
X187960000Y31730000D02*
X189910000Y31730000D01*
X187960000Y31730000D02*
X184510000Y31730000D01*
X187960000Y33040000D02*
X189910000Y33040000D01*
X187960000Y33040000D02*
X186010000Y33040000D01*
X187960000Y43160000D02*
X189910000Y43160000D01*
X187960000Y43160000D02*
X184510000Y43160000D01*
X173001000Y11202936D02*
X173001000Y11657064D01*
X174471000Y11202936D02*
X174471000Y11657064D01*
X166651000Y11202936D02*
X166651000Y11657064D01*
X168121000Y11202936D02*
X168121000Y11657064D01*
X185447000Y11202936D02*
X185447000Y11657064D01*
X186917000Y11202936D02*
X186917000Y11657064D01*
X179224000Y11202936D02*
X179224000Y11657064D01*
X180694000Y11202936D02*
X180694000Y11657064D01*
X196622936Y-6782580D02*
X197077064Y-6782580D01*
X196622936Y-8252580D02*
X197077064Y-8252580D01*
X190654000Y11202936D02*
X190654000Y11657064D01*
X192124000Y11202936D02*
X192124000Y11657064D01*
X196622936Y7801936D02*
X197077064Y7801936D01*
X196622936Y6331936D02*
X197077064Y6331936D01*
X196622936Y509678D02*
X197077064Y509678D01*
X196622936Y-960322D02*
X197077064Y-960322D01*
X196622936Y22386452D02*
X197077064Y22386452D01*
X196622936Y20916452D02*
X197077064Y20916452D01*
X196622936Y15094194D02*
X197077064Y15094194D01*
X196622936Y13624194D02*
X197077064Y13624194D01*
X196622936Y36970968D02*
X197077064Y36970968D01*
X196622936Y35500968D02*
X197077064Y35500968D01*
X196622936Y29678710D02*
X197077064Y29678710D01*
X196622936Y28208710D02*
X197077064Y28208710D01*
X196622936Y51555484D02*
X197077064Y51555484D01*
X196622936Y50085484D02*
X197077064Y50085484D01*
X196622936Y44263226D02*
X197077064Y44263226D01*
X196622936Y42793226D02*
X197077064Y42793226D01*
X196622936Y66140000D02*
X197077064Y66140000D01*
X196622936Y64670000D02*
X197077064Y64670000D01*
X196622936Y58847742D02*
X197077064Y58847742D01*
X196622936Y57377742D02*
X197077064Y57377742D01*
D14*
X169208000Y8821000D02*
X169208000Y-15679000D01*
X169208000Y-15679000D02*
X174708000Y-15679000D01*
X174708000Y-15679000D02*
X174708000Y8821000D01*
X174708000Y8821000D02*
X169208000Y8821000D01*
D15*
X170788000Y-16383000D02*
G75*
G03*
X170788000Y-16383000I-100000J0D01*
G01*
D14*
X182035000Y8821000D02*
X182035000Y-15679000D01*
X182035000Y-15679000D02*
X187535000Y-15679000D01*
X187535000Y-15679000D02*
X187535000Y8821000D01*
X187535000Y8821000D02*
X182035000Y8821000D01*
D15*
X183615000Y-16383000D02*
G75*
G03*
X183615000Y-16383000I-100000J0D01*
G01*
D14*
X175431000Y8821000D02*
X175431000Y-15679000D01*
X175431000Y-15679000D02*
X180931000Y-15679000D01*
X180931000Y-15679000D02*
X180931000Y8821000D01*
X180931000Y8821000D02*
X175431000Y8821000D01*
D15*
X177011000Y-16383000D02*
G75*
G03*
X177011000Y-16383000I-100000J0D01*
G01*
D14*
X201745000Y-13333330D02*
X226245000Y-13333330D01*
X226245000Y-13333330D02*
X226245000Y-7833330D01*
X226245000Y-7833330D02*
X201745000Y-7833330D01*
X201745000Y-7833330D02*
X201745000Y-13333330D01*
D15*
X227049000Y-11853330D02*
G75*
G03*
X227049000Y-11853330I-100000J0D01*
G01*
D14*
X188385000Y8821000D02*
X188385000Y-15679000D01*
X188385000Y-15679000D02*
X193885000Y-15679000D01*
X193885000Y-15679000D02*
X193885000Y8821000D01*
X193885000Y8821000D02*
X188385000Y8821000D01*
D15*
X189965000Y-16383000D02*
G75*
G03*
X189965000Y-16383000I-100000J0D01*
G01*
D14*
X201745000Y1483336D02*
X226245000Y1483336D01*
X226245000Y1483336D02*
X226245000Y6983336D01*
X226245000Y6983336D02*
X201745000Y6983336D01*
X201745000Y6983336D02*
X201745000Y1483336D01*
D15*
X227049000Y2963336D02*
G75*
G03*
X227049000Y2963336I-100000J0D01*
G01*
D14*
X201745000Y-5924997D02*
X226245000Y-5924997D01*
X226245000Y-5924997D02*
X226245000Y-424997D01*
X226245000Y-424997D02*
X201745000Y-424997D01*
X201745000Y-424997D02*
X201745000Y-5924997D01*
D15*
X227049000Y-4444997D02*
G75*
G03*
X227049000Y-4444997I-100000J0D01*
G01*
D14*
X201745000Y16300002D02*
X226245000Y16300002D01*
X226245000Y16300002D02*
X226245000Y21800002D01*
X226245000Y21800002D02*
X201745000Y21800002D01*
X201745000Y21800002D02*
X201745000Y16300002D01*
D15*
X227049000Y17780002D02*
G75*
G03*
X227049000Y17780002I-100000J0D01*
G01*
D14*
X201745000Y8891669D02*
X226245000Y8891669D01*
X226245000Y8891669D02*
X226245000Y14391669D01*
X226245000Y14391669D02*
X201745000Y14391669D01*
X201745000Y14391669D02*
X201745000Y8891669D01*
D15*
X227049000Y10371669D02*
G75*
G03*
X227049000Y10371669I-100000J0D01*
G01*
D14*
X201745000Y31116668D02*
X226245000Y31116668D01*
X226245000Y31116668D02*
X226245000Y36616668D01*
X226245000Y36616668D02*
X201745000Y36616668D01*
X201745000Y36616668D02*
X201745000Y31116668D01*
D15*
X227049000Y32596668D02*
G75*
G03*
X227049000Y32596668I-100000J0D01*
G01*
D14*
X201745000Y23708335D02*
X226245000Y23708335D01*
X226245000Y23708335D02*
X226245000Y29208335D01*
X226245000Y29208335D02*
X201745000Y29208335D01*
X201745000Y29208335D02*
X201745000Y23708335D01*
D15*
X227049000Y25188335D02*
G75*
G03*
X227049000Y25188335I-100000J0D01*
G01*
D14*
X201745000Y45933334D02*
X226245000Y45933334D01*
X226245000Y45933334D02*
X226245000Y51433334D01*
X226245000Y51433334D02*
X201745000Y51433334D01*
X201745000Y51433334D02*
X201745000Y45933334D01*
D15*
X227049000Y47413334D02*
G75*
G03*
X227049000Y47413334I-100000J0D01*
G01*
D14*
X201745000Y38525001D02*
X226245000Y38525001D01*
X226245000Y38525001D02*
X226245000Y44025001D01*
X226245000Y44025001D02*
X201745000Y44025001D01*
X201745000Y44025001D02*
X201745000Y38525001D01*
D15*
X227049000Y40005001D02*
G75*
G03*
X227049000Y40005001I-100000J0D01*
G01*
D14*
X201745000Y60750000D02*
X226245000Y60750000D01*
X226245000Y60750000D02*
X226245000Y66250000D01*
X226245000Y66250000D02*
X201745000Y66250000D01*
X201745000Y66250000D02*
X201745000Y60750000D01*
D15*
X227049000Y62230000D02*
G75*
G03*
X227049000Y62230000I-100000J0D01*
G01*
D14*
X201745000Y53341667D02*
X226245000Y53341667D01*
X226245000Y53341667D02*
X226245000Y58841667D01*
X226245000Y58841667D02*
X201745000Y58841667D01*
X201745000Y58841667D02*
X201745000Y53341667D01*
D15*
X227049000Y54821667D02*
G75*
G03*
X227049000Y54821667I-100000J0D01*
G01*
D13*
X168611000Y-24003000D02*
G75*
G03*
X168611000Y-24003000I-1780000J0D01*
G01*
X174391000Y-22003000D02*
X164271000Y-22003000D01*
X174391000Y-26003000D02*
X164271000Y-26003000D01*
X174391000Y-27003000D02*
X164271000Y-27003000D01*
X174391000Y-30563000D02*
X164271000Y-30563000D01*
X174391000Y-19943000D02*
X164271000Y-19943000D01*
X174391000Y-30563000D02*
X174391000Y-19943000D01*
X164271000Y-30563000D02*
X164271000Y-19943000D01*
X165481000Y-25136000D02*
X165530000Y-25086000D01*
X167939000Y-22678000D02*
X167963000Y-22653000D01*
X165698000Y-25353000D02*
X165723000Y-25329000D01*
X168131000Y-22920000D02*
X168181000Y-22870000D01*
X174631000Y-21943000D02*
X174631000Y-19703000D01*
X174631000Y-19703000D02*
X172631000Y-19703000D01*
X171800186Y-22222611D02*
G75*
G02*
X172527000Y-22364000I30814J-1780389D01*
G01*
X173470205Y-23307484D02*
G75*
G02*
X173470000Y-24699000I-1639205J-695516D01*
G01*
X172526516Y-25642205D02*
G75*
G02*
X171135000Y-25642000I-695516J1639205D01*
G01*
X170191795Y-24698516D02*
G75*
G02*
X170192000Y-23307000I1639205J695516D01*
G01*
X171135499Y-22364501D02*
G75*
G02*
X171831000Y-22223000I695501J-1638499D01*
G01*
X157435000Y-24003000D02*
G75*
G03*
X157435000Y-24003000I-1780000J0D01*
G01*
X163215000Y-22003000D02*
X153095000Y-22003000D01*
X163215000Y-26003000D02*
X153095000Y-26003000D01*
X163215000Y-27003000D02*
X153095000Y-27003000D01*
X163215000Y-30563000D02*
X153095000Y-30563000D01*
X163215000Y-19943000D02*
X153095000Y-19943000D01*
X163215000Y-30563000D02*
X163215000Y-19943000D01*
X153095000Y-30563000D02*
X153095000Y-19943000D01*
X154305000Y-25136000D02*
X154354000Y-25086000D01*
X156763000Y-22678000D02*
X156787000Y-22653000D01*
X154522000Y-25353000D02*
X154547000Y-25329000D01*
X156955000Y-22920000D02*
X157005000Y-22870000D01*
X163455000Y-21943000D02*
X163455000Y-19703000D01*
X163455000Y-19703000D02*
X161455000Y-19703000D01*
X160624186Y-22222611D02*
G75*
G02*
X161351000Y-22364000I30814J-1780389D01*
G01*
X162294205Y-23307484D02*
G75*
G02*
X162294000Y-24699000I-1639205J-695516D01*
G01*
X161350516Y-25642205D02*
G75*
G02*
X159959000Y-25642000I-695516J1639205D01*
G01*
X159015795Y-24698516D02*
G75*
G02*
X159016000Y-23307000I1639205J695516D01*
G01*
X159959499Y-22364501D02*
G75*
G02*
X160655000Y-22223000I695501J-1638499D01*
G01*
X191090000Y-24003000D02*
G75*
G03*
X191090000Y-24003000I-1780000J0D01*
G01*
X196870000Y-22003000D02*
X186750000Y-22003000D01*
X196870000Y-26003000D02*
X186750000Y-26003000D01*
X196870000Y-27003000D02*
X186750000Y-27003000D01*
X196870000Y-30563000D02*
X186750000Y-30563000D01*
X196870000Y-19943000D02*
X186750000Y-19943000D01*
X196870000Y-30563000D02*
X196870000Y-19943000D01*
X186750000Y-30563000D02*
X186750000Y-19943000D01*
X187960000Y-25136000D02*
X188009000Y-25086000D01*
X190418000Y-22678000D02*
X190442000Y-22653000D01*
X188177000Y-25353000D02*
X188202000Y-25329000D01*
X190610000Y-22920000D02*
X190660000Y-22870000D01*
X197110000Y-21943000D02*
X197110000Y-19703000D01*
X197110000Y-19703000D02*
X195110000Y-19703000D01*
X194279186Y-22222611D02*
G75*
G02*
X195006000Y-22364000I30814J-1780389D01*
G01*
X195949205Y-23307484D02*
G75*
G02*
X195949000Y-24699000I-1639205J-695516D01*
G01*
X195005516Y-25642205D02*
G75*
G02*
X193614000Y-25642000I-695516J1639205D01*
G01*
X192670795Y-24698516D02*
G75*
G02*
X192671000Y-23307000I1639205J695516D01*
G01*
X193614499Y-22364501D02*
G75*
G02*
X194310000Y-22223000I695501J-1638499D01*
G01*
X179914000Y-24003000D02*
G75*
G03*
X179914000Y-24003000I-1780000J0D01*
G01*
X185694000Y-22003000D02*
X175574000Y-22003000D01*
X185694000Y-26003000D02*
X175574000Y-26003000D01*
X185694000Y-27003000D02*
X175574000Y-27003000D01*
X185694000Y-30563000D02*
X175574000Y-30563000D01*
X185694000Y-19943000D02*
X175574000Y-19943000D01*
X185694000Y-30563000D02*
X185694000Y-19943000D01*
X175574000Y-30563000D02*
X175574000Y-19943000D01*
X176784000Y-25136000D02*
X176833000Y-25086000D01*
X179242000Y-22678000D02*
X179266000Y-22653000D01*
X177001000Y-25353000D02*
X177026000Y-25329000D01*
X179434000Y-22920000D02*
X179484000Y-22870000D01*
X185934000Y-21943000D02*
X185934000Y-19703000D01*
X185934000Y-19703000D02*
X183934000Y-19703000D01*
X183103186Y-22222611D02*
G75*
G02*
X183830000Y-22364000I30814J-1780389D01*
G01*
X184773205Y-23307484D02*
G75*
G02*
X184773000Y-24699000I-1639205J-695516D01*
G01*
X183829516Y-25642205D02*
G75*
G02*
X182438000Y-25642000I-695516J1639205D01*
G01*
X181494795Y-24698516D02*
G75*
G02*
X181495000Y-23307000I1639205J695516D01*
G01*
X182438499Y-22364501D02*
G75*
G02*
X183134000Y-22223000I695501J-1638499D01*
G01*
X213442000Y-24003000D02*
G75*
G03*
X213442000Y-24003000I-1780000J0D01*
G01*
X219222000Y-22003000D02*
X209102000Y-22003000D01*
X219222000Y-26003000D02*
X209102000Y-26003000D01*
X219222000Y-27003000D02*
X209102000Y-27003000D01*
X219222000Y-30563000D02*
X209102000Y-30563000D01*
X219222000Y-19943000D02*
X209102000Y-19943000D01*
X219222000Y-30563000D02*
X219222000Y-19943000D01*
X209102000Y-30563000D02*
X209102000Y-19943000D01*
X210312000Y-25136000D02*
X210361000Y-25086000D01*
X212770000Y-22678000D02*
X212794000Y-22653000D01*
X210529000Y-25353000D02*
X210554000Y-25329000D01*
X212962000Y-22920000D02*
X213012000Y-22870000D01*
X219462000Y-21943000D02*
X219462000Y-19703000D01*
X219462000Y-19703000D02*
X217462000Y-19703000D01*
X216631186Y-22222611D02*
G75*
G02*
X217358000Y-22364000I30814J-1780389D01*
G01*
X218301205Y-23307484D02*
G75*
G02*
X218301000Y-24699000I-1639205J-695516D01*
G01*
X217357516Y-25642205D02*
G75*
G02*
X215966000Y-25642000I-695516J1639205D01*
G01*
X215022795Y-24698516D02*
G75*
G02*
X215023000Y-23307000I1639205J695516D01*
G01*
X215966499Y-22364501D02*
G75*
G02*
X216662000Y-22223000I695501J-1638499D01*
G01*
X202266000Y-24003000D02*
G75*
G03*
X202266000Y-24003000I-1780000J0D01*
G01*
X208046000Y-22003000D02*
X197926000Y-22003000D01*
X208046000Y-26003000D02*
X197926000Y-26003000D01*
X208046000Y-27003000D02*
X197926000Y-27003000D01*
X208046000Y-30563000D02*
X197926000Y-30563000D01*
X208046000Y-19943000D02*
X197926000Y-19943000D01*
X208046000Y-30563000D02*
X208046000Y-19943000D01*
X197926000Y-30563000D02*
X197926000Y-19943000D01*
X199136000Y-25136000D02*
X199185000Y-25086000D01*
X201594000Y-22678000D02*
X201618000Y-22653000D01*
X199353000Y-25353000D02*
X199378000Y-25329000D01*
X201786000Y-22920000D02*
X201836000Y-22870000D01*
X208286000Y-21943000D02*
X208286000Y-19703000D01*
X208286000Y-19703000D02*
X206286000Y-19703000D01*
X205455186Y-22222611D02*
G75*
G02*
X206182000Y-22364000I30814J-1780389D01*
G01*
X207125205Y-23307484D02*
G75*
G02*
X207125000Y-24699000I-1639205J-695516D01*
G01*
X206181516Y-25642205D02*
G75*
G02*
X204790000Y-25642000I-695516J1639205D01*
G01*
X203846795Y-24698516D02*
G75*
G02*
X203847000Y-23307000I1639205J695516D01*
G01*
X204790499Y-22364501D02*
G75*
G02*
X205486000Y-22223000I695501J-1638499D01*
G01*
X237298960Y-27987000D02*
G75*
G03*
X237298960Y-27987000I-1780000J0D01*
G01*
X233518960Y-20427000D02*
X233518960Y-30547000D01*
X237518960Y-20427000D02*
X237518960Y-30547000D01*
X238518960Y-20427000D02*
X238518960Y-30547000D01*
X242078960Y-20427000D02*
X242078960Y-30547000D01*
X231458960Y-20427000D02*
X231458960Y-30547000D01*
X242078960Y-20427000D02*
X231458960Y-20427000D01*
X242078960Y-30547000D02*
X231458960Y-30547000D01*
X236651960Y-29337000D02*
X236601960Y-29288000D01*
X234193960Y-26879000D02*
X234168960Y-26855000D01*
X236868960Y-29120000D02*
X236844960Y-29095000D01*
X234435960Y-26687000D02*
X234385960Y-26637000D01*
X233458960Y-20187000D02*
X231218960Y-20187000D01*
X231218960Y-20187000D02*
X231218960Y-22187000D01*
X233738571Y-23017814D02*
G75*
G02*
X233879960Y-22291000I1780389J30814D01*
G01*
X234823444Y-21347795D02*
G75*
G02*
X236214960Y-21348000I695516J-1639205D01*
G01*
X237158165Y-22291484D02*
G75*
G02*
X237157960Y-23683000I-1639205J-695516D01*
G01*
X236214476Y-24626205D02*
G75*
G02*
X234822960Y-24626000I-695516J1639205D01*
G01*
X233880461Y-23682501D02*
G75*
G02*
X233738960Y-22987000I1638499J695501D01*
G01*
X224618000Y-24003000D02*
G75*
G03*
X224618000Y-24003000I-1780000J0D01*
G01*
X230398000Y-22003000D02*
X220278000Y-22003000D01*
X230398000Y-26003000D02*
X220278000Y-26003000D01*
X230398000Y-27003000D02*
X220278000Y-27003000D01*
X230398000Y-30563000D02*
X220278000Y-30563000D01*
X230398000Y-19943000D02*
X220278000Y-19943000D01*
X230398000Y-30563000D02*
X230398000Y-19943000D01*
X220278000Y-30563000D02*
X220278000Y-19943000D01*
X221488000Y-25136000D02*
X221537000Y-25086000D01*
X223946000Y-22678000D02*
X223970000Y-22653000D01*
X221705000Y-25353000D02*
X221730000Y-25329000D01*
X224138000Y-22920000D02*
X224188000Y-22870000D01*
X230638000Y-21943000D02*
X230638000Y-19703000D01*
X230638000Y-19703000D02*
X228638000Y-19703000D01*
X227807186Y-22222611D02*
G75*
G02*
X228534000Y-22364000I30814J-1780389D01*
G01*
X229477205Y-23307484D02*
G75*
G02*
X229477000Y-24699000I-1639205J-695516D01*
G01*
X228533516Y-25642205D02*
G75*
G02*
X227142000Y-25642000I-695516J1639205D01*
G01*
X226198795Y-24698516D02*
G75*
G02*
X226199000Y-23307000I1639205J695516D01*
G01*
X227142499Y-22364501D02*
G75*
G02*
X227838000Y-22223000I695501J-1638499D01*
G01*
X237291340Y-5876300D02*
G75*
G03*
X237291340Y-5876300I-1780000J0D01*
G01*
X233511340Y1683700D02*
X233511340Y-8436300D01*
X237511340Y1683700D02*
X237511340Y-8436300D01*
X238511340Y1683700D02*
X238511340Y-8436300D01*
X242071340Y1683700D02*
X242071340Y-8436300D01*
X231451340Y1683700D02*
X231451340Y-8436300D01*
X242071340Y1683700D02*
X231451340Y1683700D01*
X242071340Y-8436300D02*
X231451340Y-8436300D01*
X236644340Y-7226300D02*
X236594340Y-7177300D01*
X234186340Y-4768300D02*
X234161340Y-4744300D01*
X236861340Y-7009300D02*
X236837340Y-6984300D01*
X234428340Y-4576300D02*
X234378340Y-4526300D01*
X233451340Y1923700D02*
X231211340Y1923700D01*
X231211340Y1923700D02*
X231211340Y-76300D01*
X233730951Y-907114D02*
G75*
G02*
X233872340Y-180300I1780389J30814D01*
G01*
X234815824Y762905D02*
G75*
G02*
X236207340Y762700I695516J-1639205D01*
G01*
X237150545Y-180784D02*
G75*
G02*
X237150340Y-1572300I-1639205J-695516D01*
G01*
X236206856Y-2515505D02*
G75*
G02*
X234815340Y-2515300I-695516J1639205D01*
G01*
X233872841Y-1571801D02*
G75*
G02*
X233731340Y-876300I1638499J695501D01*
G01*
X237291340Y-16931640D02*
G75*
G03*
X237291340Y-16931640I-1780000J0D01*
G01*
X233511340Y-9371640D02*
X233511340Y-19491640D01*
X237511340Y-9371640D02*
X237511340Y-19491640D01*
X238511340Y-9371640D02*
X238511340Y-19491640D01*
X242071340Y-9371640D02*
X242071340Y-19491640D01*
X231451340Y-9371640D02*
X231451340Y-19491640D01*
X242071340Y-9371640D02*
X231451340Y-9371640D01*
X242071340Y-19491640D02*
X231451340Y-19491640D01*
X236644340Y-18281640D02*
X236594340Y-18232640D01*
X234186340Y-15823640D02*
X234161340Y-15799640D01*
X236861340Y-18064640D02*
X236837340Y-18039640D01*
X234428340Y-15631640D02*
X234378340Y-15581640D01*
X233451340Y-9131640D02*
X231211340Y-9131640D01*
X231211340Y-9131640D02*
X231211340Y-11131640D01*
X233730951Y-11962454D02*
G75*
G02*
X233872340Y-11235640I1780389J30814D01*
G01*
X234815824Y-10292435D02*
G75*
G02*
X236207340Y-10292640I695516J-1639205D01*
G01*
X237150545Y-11236124D02*
G75*
G02*
X237150340Y-12627640I-1639205J-695516D01*
G01*
X236206856Y-13570845D02*
G75*
G02*
X234815340Y-13570640I-695516J1639205D01*
G01*
X233872841Y-12627141D02*
G75*
G02*
X233731340Y-11931640I1638499J695501D01*
G01*
X237301500Y16273780D02*
G75*
G03*
X237301500Y16273780I-1780000J0D01*
G01*
X233521500Y23833780D02*
X233521500Y13713780D01*
X237521500Y23833780D02*
X237521500Y13713780D01*
X238521500Y23833780D02*
X238521500Y13713780D01*
X242081500Y23833780D02*
X242081500Y13713780D01*
X231461500Y23833780D02*
X231461500Y13713780D01*
X242081500Y23833780D02*
X231461500Y23833780D01*
X242081500Y13713780D02*
X231461500Y13713780D01*
X236654500Y14923780D02*
X236604500Y14972780D01*
X234196500Y17381780D02*
X234171500Y17405780D01*
X236871500Y15140780D02*
X236847500Y15165780D01*
X234438500Y17573780D02*
X234388500Y17623780D01*
X233461500Y24073780D02*
X231221500Y24073780D01*
X231221500Y24073780D02*
X231221500Y22073780D01*
X233741111Y21242966D02*
G75*
G02*
X233882500Y21969780I1780389J30814D01*
G01*
X234825984Y22912985D02*
G75*
G02*
X236217500Y22912780I695516J-1639205D01*
G01*
X237160705Y21969296D02*
G75*
G02*
X237160500Y20577780I-1639205J-695516D01*
G01*
X236217016Y19634575D02*
G75*
G02*
X234825500Y19634780I-695516J1639205D01*
G01*
X233883001Y20578279D02*
G75*
G02*
X233741500Y21273780I1638499J695501D01*
G01*
X237296420Y5204460D02*
G75*
G03*
X237296420Y5204460I-1780000J0D01*
G01*
X233516420Y12764460D02*
X233516420Y2644460D01*
X237516420Y12764460D02*
X237516420Y2644460D01*
X238516420Y12764460D02*
X238516420Y2644460D01*
X242076420Y12764460D02*
X242076420Y2644460D01*
X231456420Y12764460D02*
X231456420Y2644460D01*
X242076420Y12764460D02*
X231456420Y12764460D01*
X242076420Y2644460D02*
X231456420Y2644460D01*
X236649420Y3854460D02*
X236599420Y3903460D01*
X234191420Y6312460D02*
X234166420Y6336460D01*
X236866420Y4071460D02*
X236842420Y4096460D01*
X234433420Y6504460D02*
X234383420Y6554460D01*
X233456420Y13004460D02*
X231216420Y13004460D01*
X231216420Y13004460D02*
X231216420Y11004460D01*
X233736031Y10173646D02*
G75*
G02*
X233877420Y10900460I1780389J30814D01*
G01*
X234820904Y11843665D02*
G75*
G02*
X236212420Y11843460I695516J-1639205D01*
G01*
X237155625Y10899976D02*
G75*
G02*
X237155420Y9508460I-1639205J-695516D01*
G01*
X236211936Y8565255D02*
G75*
G02*
X234820420Y8565460I-695516J1639205D01*
G01*
X233877921Y9508959D02*
G75*
G02*
X233736420Y10204460I1638499J695501D01*
G01*
X237283720Y38450520D02*
G75*
G03*
X237283720Y38450520I-1780000J0D01*
G01*
X233503720Y46010520D02*
X233503720Y35890520D01*
X237503720Y46010520D02*
X237503720Y35890520D01*
X238503720Y46010520D02*
X238503720Y35890520D01*
X242063720Y46010520D02*
X242063720Y35890520D01*
X231443720Y46010520D02*
X231443720Y35890520D01*
X242063720Y46010520D02*
X231443720Y46010520D01*
X242063720Y35890520D02*
X231443720Y35890520D01*
X236636720Y37100520D02*
X236586720Y37149520D01*
X234178720Y39558520D02*
X234153720Y39582520D01*
X236853720Y37317520D02*
X236829720Y37342520D01*
X234420720Y39750520D02*
X234370720Y39800520D01*
X233443720Y46250520D02*
X231203720Y46250520D01*
X231203720Y46250520D02*
X231203720Y44250520D01*
X233723331Y43419706D02*
G75*
G02*
X233864720Y44146520I1780389J30814D01*
G01*
X234808204Y45089725D02*
G75*
G02*
X236199720Y45089520I695516J-1639205D01*
G01*
X237142925Y44146036D02*
G75*
G02*
X237142720Y42754520I-1639205J-695516D01*
G01*
X236199236Y41811315D02*
G75*
G02*
X234807720Y41811520I-695516J1639205D01*
G01*
X233865221Y42755019D02*
G75*
G02*
X233723720Y43450520I1638499J695501D01*
G01*
X237291340Y27363420D02*
G75*
G03*
X237291340Y27363420I-1780000J0D01*
G01*
X233511340Y34923420D02*
X233511340Y24803420D01*
X237511340Y34923420D02*
X237511340Y24803420D01*
X238511340Y34923420D02*
X238511340Y24803420D01*
X242071340Y34923420D02*
X242071340Y24803420D01*
X231451340Y34923420D02*
X231451340Y24803420D01*
X242071340Y34923420D02*
X231451340Y34923420D01*
X242071340Y24803420D02*
X231451340Y24803420D01*
X236644340Y26013420D02*
X236594340Y26062420D01*
X234186340Y28471420D02*
X234161340Y28495420D01*
X236861340Y26230420D02*
X236837340Y26255420D01*
X234428340Y28663420D02*
X234378340Y28713420D01*
X233451340Y35163420D02*
X231211340Y35163420D01*
X231211340Y35163420D02*
X231211340Y33163420D01*
X233730951Y32332606D02*
G75*
G02*
X233872340Y33059420I1780389J30814D01*
G01*
X234815824Y34002625D02*
G75*
G02*
X236207340Y34002420I695516J-1639205D01*
G01*
X237150545Y33058936D02*
G75*
G02*
X237150340Y31667420I-1639205J-695516D01*
G01*
X236206856Y30724215D02*
G75*
G02*
X234815340Y30724420I-695516J1639205D01*
G01*
X233872841Y31667919D02*
G75*
G02*
X233731340Y32363420I1638499J695501D01*
G01*
X237260860Y60537080D02*
G75*
G03*
X237260860Y60537080I-1780000J0D01*
G01*
X233480860Y68097080D02*
X233480860Y57977080D01*
X237480860Y68097080D02*
X237480860Y57977080D01*
X238480860Y68097080D02*
X238480860Y57977080D01*
X242040860Y68097080D02*
X242040860Y57977080D01*
X231420860Y68097080D02*
X231420860Y57977080D01*
X242040860Y68097080D02*
X231420860Y68097080D01*
X242040860Y57977080D02*
X231420860Y57977080D01*
X236613860Y59187080D02*
X236563860Y59236080D01*
X234155860Y61645080D02*
X234130860Y61669080D01*
X236830860Y59404080D02*
X236806860Y59429080D01*
X234397860Y61837080D02*
X234347860Y61887080D01*
X233420860Y68337080D02*
X231180860Y68337080D01*
X231180860Y68337080D02*
X231180860Y66337080D01*
X233700471Y65506266D02*
G75*
G02*
X233841860Y66233080I1780389J30814D01*
G01*
X234785344Y67176285D02*
G75*
G02*
X236176860Y67176080I695516J-1639205D01*
G01*
X237120065Y66232596D02*
G75*
G02*
X237119860Y64841080I-1639205J-695516D01*
G01*
X236176376Y63897875D02*
G75*
G02*
X234784860Y63898080I-695516J1639205D01*
G01*
X233842361Y64841579D02*
G75*
G02*
X233700860Y65537080I1638499J695501D01*
G01*
X237288800Y49526180D02*
G75*
G03*
X237288800Y49526180I-1780000J0D01*
G01*
X233508800Y57086180D02*
X233508800Y46966180D01*
X237508800Y57086180D02*
X237508800Y46966180D01*
X238508800Y57086180D02*
X238508800Y46966180D01*
X242068800Y57086180D02*
X242068800Y46966180D01*
X231448800Y57086180D02*
X231448800Y46966180D01*
X242068800Y57086180D02*
X231448800Y57086180D01*
X242068800Y46966180D02*
X231448800Y46966180D01*
X236641800Y48176180D02*
X236591800Y48225180D01*
X234183800Y50634180D02*
X234158800Y50658180D01*
X236858800Y48393180D02*
X236834800Y48418180D01*
X234425800Y50826180D02*
X234375800Y50876180D01*
X233448800Y57326180D02*
X231208800Y57326180D01*
X231208800Y57326180D02*
X231208800Y55326180D01*
X233728411Y54495366D02*
G75*
G02*
X233869800Y55222180I1780389J30814D01*
G01*
X234813284Y56165385D02*
G75*
G02*
X236204800Y56165180I695516J-1639205D01*
G01*
X237148005Y55221696D02*
G75*
G02*
X237147800Y53830180I-1639205J-695516D01*
G01*
X236204316Y52886975D02*
G75*
G02*
X234812800Y52887180I-695516J1639205D01*
G01*
X233870301Y53830679D02*
G75*
G02*
X233728800Y54526180I1638499J695501D01*
G01*
X172029000Y10430000D02*
X172029000Y13115000D01*
X172029000Y13115000D02*
X170109000Y13115000D01*
X170109000Y13115000D02*
X170109000Y10430000D01*
X165171000Y10430000D02*
X165171000Y13115000D01*
X165171000Y13115000D02*
X163251000Y13115000D01*
X163251000Y13115000D02*
X163251000Y10430000D01*
X184602000Y10430000D02*
X184602000Y13115000D01*
X184602000Y13115000D02*
X182682000Y13115000D01*
X182682000Y13115000D02*
X182682000Y10430000D01*
X178379000Y10430000D02*
X178379000Y13115000D01*
X178379000Y13115000D02*
X176459000Y13115000D01*
X176459000Y13115000D02*
X176459000Y10430000D01*
X195890000Y-12123709D02*
X198575000Y-12123709D01*
X198575000Y-12123709D02*
X198575000Y-10203709D01*
X198575000Y-10203709D02*
X195890000Y-10203709D01*
X189809000Y10390000D02*
X189809000Y13075000D01*
X189809000Y13075000D02*
X187889000Y13075000D01*
X187889000Y13075000D02*
X187889000Y10390000D01*
X195890000Y2460807D02*
X198575000Y2460807D01*
X198575000Y2460807D02*
X198575000Y4380807D01*
X198575000Y4380807D02*
X195890000Y4380807D01*
X195890000Y-4831451D02*
X198575000Y-4831451D01*
X198575000Y-4831451D02*
X198575000Y-2911451D01*
X198575000Y-2911451D02*
X195890000Y-2911451D01*
X195890000Y17045323D02*
X198575000Y17045323D01*
X198575000Y17045323D02*
X198575000Y18965323D01*
X198575000Y18965323D02*
X195890000Y18965323D01*
X195890000Y9753065D02*
X198575000Y9753065D01*
X198575000Y9753065D02*
X198575000Y11673065D01*
X198575000Y11673065D02*
X195890000Y11673065D01*
X195890000Y31629839D02*
X198575000Y31629839D01*
X198575000Y31629839D02*
X198575000Y33549839D01*
X198575000Y33549839D02*
X195890000Y33549839D01*
X195890000Y24337581D02*
X198575000Y24337581D01*
X198575000Y24337581D02*
X198575000Y26257581D01*
X198575000Y26257581D02*
X195890000Y26257581D01*
X195890000Y46214355D02*
X198575000Y46214355D01*
X198575000Y46214355D02*
X198575000Y48134355D01*
X198575000Y48134355D02*
X195890000Y48134355D01*
X195890000Y38922097D02*
X198575000Y38922097D01*
X198575000Y38922097D02*
X198575000Y40842097D01*
X198575000Y40842097D02*
X195890000Y40842097D01*
X195890000Y60798871D02*
X198575000Y60798871D01*
X198575000Y60798871D02*
X198575000Y62718871D01*
X198575000Y62718871D02*
X195890000Y62718871D01*
X195890000Y53396000D02*
X198575000Y53396000D01*
X198575000Y53396000D02*
X198575000Y55316000D01*
X198575000Y55316000D02*
X195890000Y55316000D01*
X154078000Y33408252D02*
X154078000Y32885748D01*
X155548000Y33408252D02*
X155548000Y32885748D01*
X151411000Y33474252D02*
X151411000Y32951748D01*
X152881000Y33474252D02*
X152881000Y32951748D01*
X180930761Y40951543D02*
X180561294Y41321010D01*
X181970208Y41990990D02*
X181600741Y42360457D01*
X156618000Y33408252D02*
X156618000Y32885748D01*
X158088000Y33408252D02*
X158088000Y32885748D01*
X160755000Y33408252D02*
X160755000Y32885748D01*
X159285000Y33408252D02*
X159285000Y32885748D01*
X155662960Y46512072D02*
X155662960Y45989568D01*
X157132960Y46512072D02*
X157132960Y45989568D01*
X159294500Y46494292D02*
X159294500Y45971788D01*
X157824500Y46494292D02*
X157824500Y45971788D01*
X169224000Y20253000D02*
X169224000Y18923000D01*
X167894000Y20253000D02*
X169224000Y20253000D01*
X169224000Y17653000D02*
X169224000Y15053000D01*
X166624000Y17653000D02*
X169224000Y17653000D01*
X166624000Y20253000D02*
X166624000Y17653000D01*
X169224000Y15053000D02*
X161484000Y15053000D01*
X166624000Y20253000D02*
X161484000Y20253000D01*
X161484000Y20253000D02*
X161484000Y15053000D01*
X190687000Y57471000D02*
X189357000Y57471000D01*
X190687000Y58801000D02*
X190687000Y57471000D01*
X188087000Y57471000D02*
X185487000Y57471000D01*
X188087000Y60071000D02*
X188087000Y57471000D01*
X190687000Y60071000D02*
X188087000Y60071000D01*
X185487000Y57471000D02*
X185487000Y62671000D01*
X190687000Y60071000D02*
X190687000Y62671000D01*
X190687000Y62671000D02*
X185487000Y62671000D01*
X153300000Y68100000D02*
X153300000Y65500000D01*
X138600000Y68100000D02*
X153300000Y68100000D01*
X153300000Y58900000D02*
X151400000Y58900000D01*
X153300000Y61600000D02*
X153300000Y58900000D01*
X138600000Y58900000D02*
X138600000Y68100000D01*
X147400000Y58900000D02*
X138600000Y58900000D01*
X152450000Y68300000D02*
X153500000Y68300000D01*
X153500000Y67250000D02*
X153500000Y68300000D01*
X157833956Y63666700D02*
X158288084Y63666700D01*
X157833956Y65136700D02*
X158288084Y65136700D01*
X158275384Y66031440D02*
X157821256Y66031440D01*
X158275384Y67501440D02*
X157821256Y67501440D01*
X161710040Y46533164D02*
X161710040Y46079036D01*
X160240040Y46533164D02*
X160240040Y46079036D01*
X160936000Y11179436D02*
X160936000Y11633564D01*
X162406000Y11179436D02*
X162406000Y11633564D01*
X158318564Y60679000D02*
X157864436Y60679000D01*
X158318564Y59209000D02*
X157864436Y59209000D01*
X157864436Y61393400D02*
X158318564Y61393400D01*
X157864436Y62863400D02*
X158318564Y62863400D01*
X160331600Y54894800D02*
X160331600Y52394800D01*
X158581600Y56394800D02*
X156581600Y56394800D01*
X154831600Y54894800D02*
X154831600Y52394800D01*
X158581600Y50894800D02*
X156581600Y50894800D01*
X159881600Y55344800D02*
X160331600Y54894800D01*
X159881600Y51944800D02*
X160331600Y52394800D01*
X155281600Y51944800D02*
X154831600Y52394800D01*
X155281600Y55344800D02*
X154831600Y54894800D01*
X146919900Y46989560D02*
X146919900Y52999560D01*
X153739900Y49239560D02*
X153739900Y52999560D01*
X146919900Y52999560D02*
X148179900Y52999560D01*
X153739900Y52999560D02*
X152479900Y52999560D01*
D10*
X170862095Y59602619D02*
X170862095Y58793095D01*
X170909714Y58697857D01*
X170957333Y58650238D01*
X171052571Y58602619D01*
X171243047Y58602619D01*
X171338285Y58650238D01*
X171385904Y58697857D01*
X171433523Y58793095D01*
X171433523Y59602619D01*
X171862095Y59507380D02*
X171909714Y59555000D01*
X172004952Y59602619D01*
X172243047Y59602619D01*
X172338285Y59555000D01*
X172385904Y59507380D01*
X172433523Y59412142D01*
X172433523Y59316904D01*
X172385904Y59174047D01*
X171814476Y58602619D01*
X172433523Y58602619D01*
X171831095Y43430619D02*
X171831095Y42621095D01*
X171878714Y42525857D01*
X171926333Y42478238D01*
X172021571Y42430619D01*
X172212047Y42430619D01*
X172307285Y42478238D01*
X172354904Y42525857D01*
X172402523Y42621095D01*
X172402523Y43430619D01*
X173307285Y43430619D02*
X173116809Y43430619D01*
X173021571Y43383000D01*
X172973952Y43335380D01*
X172878714Y43192523D01*
X172831095Y43002047D01*
X172831095Y42621095D01*
X172878714Y42525857D01*
X172926333Y42478238D01*
X173021571Y42430619D01*
X173212047Y42430619D01*
X173307285Y42478238D01*
X173354904Y42525857D01*
X173402523Y42621095D01*
X173402523Y42859190D01*
X173354904Y42954428D01*
X173307285Y43002047D01*
X173212047Y43049666D01*
X173021571Y43049666D01*
X172926333Y43002047D01*
X172878714Y42954428D01*
X172831095Y42859190D01*
X184627306Y66503799D02*
X184627306Y65789513D01*
X184579687Y65646656D01*
X184484449Y65551418D01*
X184341592Y65503799D01*
X184246354Y65503799D01*
X185103497Y65503799D02*
X185103497Y66503799D01*
X185484449Y66503799D01*
X185579687Y66456180D01*
X185627306Y66408560D01*
X185674925Y66313322D01*
X185674925Y66170465D01*
X185627306Y66075227D01*
X185579687Y66027608D01*
X185484449Y65979989D01*
X185103497Y65979989D01*
X186627306Y65503799D02*
X186055878Y65503799D01*
X186341592Y65503799D02*
X186341592Y66503799D01*
X186246354Y66360941D01*
X186151116Y66265703D01*
X186055878Y66218084D01*
X142734706Y56846719D02*
X142734706Y56132433D01*
X142687087Y55989576D01*
X142591849Y55894338D01*
X142448992Y55846719D01*
X142353754Y55846719D01*
X143115659Y56846719D02*
X143734706Y56846719D01*
X143401373Y56465766D01*
X143544230Y56465766D01*
X143639468Y56418147D01*
X143687087Y56370528D01*
X143734706Y56275290D01*
X143734706Y56037195D01*
X143687087Y55941957D01*
X143639468Y55894338D01*
X143544230Y55846719D01*
X143258516Y55846719D01*
X143163278Y55894338D01*
X143115659Y55941957D01*
D16*
X161920120Y-14233691D02*
X160918695Y-14233691D01*
X161920120Y-13661448D02*
X161347877Y-14090630D01*
X160918695Y-13661448D02*
X161490938Y-14233691D01*
X161920120Y-12707710D02*
X161920120Y-13279952D01*
X161920120Y-12993831D02*
X160918695Y-12993831D01*
X161061756Y-13089205D01*
X161157130Y-13184579D01*
X161204817Y-13279952D01*
X160918695Y-11849345D02*
X160918695Y-12040093D01*
X160966382Y-12135467D01*
X161014069Y-12183154D01*
X161157130Y-12278527D01*
X161347877Y-12326214D01*
X161729372Y-12326214D01*
X161824746Y-12278527D01*
X161872433Y-12230841D01*
X161920120Y-12135467D01*
X161920120Y-11944719D01*
X161872433Y-11849345D01*
X161824746Y-11801658D01*
X161729372Y-11753972D01*
X161490938Y-11753972D01*
X161395564Y-11801658D01*
X161347877Y-11849345D01*
X161300190Y-11944719D01*
X161300190Y-12135467D01*
X161347877Y-12230841D01*
X161395564Y-12278527D01*
X161490938Y-12326214D01*
D10*
X145875476Y-28662380D02*
X145875476Y-29376666D01*
X145827857Y-29519523D01*
X145732619Y-29614761D01*
X145589761Y-29662380D01*
X145494523Y-29662380D01*
X146304047Y-28757619D02*
X146351666Y-28710000D01*
X146446904Y-28662380D01*
X146685000Y-28662380D01*
X146780238Y-28710000D01*
X146827857Y-28757619D01*
X146875476Y-28852857D01*
X146875476Y-28948095D01*
X146827857Y-29090952D01*
X146256428Y-29662380D01*
X146875476Y-29662380D01*
X147208809Y-28662380D02*
X147827857Y-28662380D01*
X147494523Y-29043333D01*
X147637380Y-29043333D01*
X147732619Y-29090952D01*
X147780238Y-29138571D01*
X147827857Y-29233809D01*
X147827857Y-29471904D01*
X147780238Y-29567142D01*
X147732619Y-29614761D01*
X147637380Y-29662380D01*
X147351666Y-29662380D01*
X147256428Y-29614761D01*
X147208809Y-29567142D01*
X142835380Y24082476D02*
X143549666Y24082476D01*
X143692523Y24034857D01*
X143787761Y23939619D01*
X143835380Y23796761D01*
X143835380Y23701523D01*
X142930619Y24511047D02*
X142883000Y24558666D01*
X142835380Y24653904D01*
X142835380Y24892000D01*
X142883000Y24987238D01*
X142930619Y25034857D01*
X143025857Y25082476D01*
X143121095Y25082476D01*
X143263952Y25034857D01*
X143835380Y24463428D01*
X143835380Y25082476D01*
X142930619Y25463428D02*
X142883000Y25511047D01*
X142835380Y25606285D01*
X142835380Y25844380D01*
X142883000Y25939619D01*
X142930619Y25987238D01*
X143025857Y26034857D01*
X143121095Y26034857D01*
X143263952Y25987238D01*
X143835380Y25415809D01*
X143835380Y26034857D01*
X146705580Y36083454D02*
X146229390Y35750120D01*
X146705580Y35512025D02*
X145705580Y35512025D01*
X145705580Y35892978D01*
X145753200Y35988216D01*
X145800819Y36035835D01*
X145896057Y36083454D01*
X146038914Y36083454D01*
X146134152Y36035835D01*
X146181771Y35988216D01*
X146229390Y35892978D01*
X146229390Y35512025D01*
X146657961Y36892978D02*
X146705580Y36797740D01*
X146705580Y36607263D01*
X146657961Y36512025D01*
X146562723Y36464406D01*
X146181771Y36464406D01*
X146086533Y36512025D01*
X146038914Y36607263D01*
X146038914Y36797740D01*
X146086533Y36892978D01*
X146181771Y36940597D01*
X146277009Y36940597D01*
X146372247Y36464406D01*
X146657961Y37321549D02*
X146705580Y37416787D01*
X146705580Y37607263D01*
X146657961Y37702501D01*
X146562723Y37750120D01*
X146515104Y37750120D01*
X146419866Y37702501D01*
X146372247Y37607263D01*
X146372247Y37464406D01*
X146324628Y37369168D01*
X146229390Y37321549D01*
X146181771Y37321549D01*
X146086533Y37369168D01*
X146038914Y37464406D01*
X146038914Y37607263D01*
X146086533Y37702501D01*
X146657961Y38559644D02*
X146705580Y38464406D01*
X146705580Y38273930D01*
X146657961Y38178692D01*
X146562723Y38131073D01*
X146181771Y38131073D01*
X146086533Y38178692D01*
X146038914Y38273930D01*
X146038914Y38464406D01*
X146086533Y38559644D01*
X146181771Y38607263D01*
X146277009Y38607263D01*
X146372247Y38131073D01*
X146038914Y38892978D02*
X146038914Y39273930D01*
X145705580Y39035835D02*
X146562723Y39035835D01*
X146657961Y39083454D01*
X146705580Y39178692D01*
X146705580Y39273930D01*
X146705580Y40131073D02*
X146705580Y39559644D01*
X146705580Y39845359D02*
X145705580Y39845359D01*
X145848438Y39750120D01*
X145943676Y39654882D01*
X145991295Y39559644D01*
X142568680Y-5036083D02*
X143282966Y-5036083D01*
X143425823Y-5083702D01*
X143521061Y-5178940D01*
X143568680Y-5321798D01*
X143568680Y-5417036D01*
X142663919Y-4607512D02*
X142616300Y-4559893D01*
X142568680Y-4464655D01*
X142568680Y-4226560D01*
X142616300Y-4131321D01*
X142663919Y-4083702D01*
X142759157Y-4036083D01*
X142854395Y-4036083D01*
X142997252Y-4083702D01*
X143568680Y-4655131D01*
X143568680Y-4036083D01*
X143568680Y-3083702D02*
X143568680Y-3655131D01*
X143568680Y-3369417D02*
X142568680Y-3369417D01*
X142711538Y-3464655D01*
X142806776Y-3559893D01*
X142854395Y-3655131D01*
X154489115Y35581317D02*
X154441496Y35533698D01*
X154298639Y35486079D01*
X154203400Y35486079D01*
X154060543Y35533698D01*
X153965305Y35628936D01*
X153917686Y35724174D01*
X153870067Y35914650D01*
X153870067Y36057507D01*
X153917686Y36247983D01*
X153965305Y36343221D01*
X154060543Y36438460D01*
X154203400Y36486079D01*
X154298639Y36486079D01*
X154441496Y36438460D01*
X154489115Y36390840D01*
X154917686Y35486079D02*
X154917686Y36152745D01*
X154917686Y35962269D02*
X154965305Y36057507D01*
X155012924Y36105126D01*
X155108162Y36152745D01*
X155203400Y36152745D01*
X155441496Y36152745D02*
X155679591Y35486079D01*
X155917686Y36152745D02*
X155679591Y35486079D01*
X155584353Y35247983D01*
X155536734Y35200364D01*
X155441496Y35152745D01*
X156251020Y35533698D02*
X156346258Y35486079D01*
X156536734Y35486079D01*
X156631972Y35533698D01*
X156679591Y35628936D01*
X156679591Y35676555D01*
X156631972Y35771793D01*
X156536734Y35819412D01*
X156393877Y35819412D01*
X156298639Y35867031D01*
X156251020Y35962269D01*
X156251020Y36009888D01*
X156298639Y36105126D01*
X156393877Y36152745D01*
X156536734Y36152745D01*
X156631972Y36105126D01*
X156965305Y36152745D02*
X157346258Y36152745D01*
X157108162Y36486079D02*
X157108162Y35628936D01*
X157155781Y35533698D01*
X157251020Y35486079D01*
X157346258Y35486079D01*
X158108162Y35486079D02*
X158108162Y36009888D01*
X158060543Y36105126D01*
X157965305Y36152745D01*
X157774829Y36152745D01*
X157679591Y36105126D01*
X158108162Y35533698D02*
X158012924Y35486079D01*
X157774829Y35486079D01*
X157679591Y35533698D01*
X157631972Y35628936D01*
X157631972Y35724174D01*
X157679591Y35819412D01*
X157774829Y35867031D01*
X158012924Y35867031D01*
X158108162Y35914650D01*
X158727210Y35486079D02*
X158631972Y35533698D01*
X158584353Y35628936D01*
X158584353Y36486079D01*
X159631972Y35486079D02*
X159060543Y35486079D01*
X159346258Y35486079D02*
X159346258Y36486079D01*
X159251020Y36343221D01*
X159155781Y36247983D01*
X159060543Y36200364D01*
X187198095Y50331619D02*
X187198095Y49522095D01*
X187245714Y49426857D01*
X187293333Y49379238D01*
X187388571Y49331619D01*
X187579047Y49331619D01*
X187674285Y49379238D01*
X187721904Y49426857D01*
X187769523Y49522095D01*
X187769523Y50331619D01*
X188721904Y50331619D02*
X188245714Y50331619D01*
X188198095Y49855428D01*
X188245714Y49903047D01*
X188340952Y49950666D01*
X188579047Y49950666D01*
X188674285Y49903047D01*
X188721904Y49855428D01*
X188769523Y49760190D01*
X188769523Y49522095D01*
X188721904Y49426857D01*
X188674285Y49379238D01*
X188579047Y49331619D01*
X188340952Y49331619D01*
X188245714Y49379238D01*
X188198095Y49426857D01*
X187325095Y26963619D02*
X187325095Y26154095D01*
X187372714Y26058857D01*
X187420333Y26011238D01*
X187515571Y25963619D01*
X187706047Y25963619D01*
X187801285Y26011238D01*
X187848904Y26058857D01*
X187896523Y26154095D01*
X187896523Y26963619D01*
X188801285Y26630285D02*
X188801285Y25963619D01*
X188563190Y27011238D02*
X188325095Y26296952D01*
X188944142Y26296952D01*
X187198095Y38393619D02*
X187198095Y37584095D01*
X187245714Y37488857D01*
X187293333Y37441238D01*
X187388571Y37393619D01*
X187579047Y37393619D01*
X187674285Y37441238D01*
X187721904Y37488857D01*
X187769523Y37584095D01*
X187769523Y38393619D01*
X188150476Y38393619D02*
X188769523Y38393619D01*
X188436190Y38012666D01*
X188579047Y38012666D01*
X188674285Y37965047D01*
X188721904Y37917428D01*
X188769523Y37822190D01*
X188769523Y37584095D01*
X188721904Y37488857D01*
X188674285Y37441238D01*
X188579047Y37393619D01*
X188293333Y37393619D01*
X188198095Y37441238D01*
X188150476Y37488857D01*
X170619000Y13653333D02*
X170385666Y13986666D01*
X170219000Y13653333D02*
X170219000Y14353333D01*
X170485666Y14353333D01*
X170552333Y14320000D01*
X170585666Y14286666D01*
X170619000Y14220000D01*
X170619000Y14120000D01*
X170585666Y14053333D01*
X170552333Y14020000D01*
X170485666Y13986666D01*
X170219000Y13986666D01*
X170885666Y14286666D02*
X170919000Y14320000D01*
X170985666Y14353333D01*
X171152333Y14353333D01*
X171219000Y14320000D01*
X171252333Y14286666D01*
X171285666Y14220000D01*
X171285666Y14153333D01*
X171252333Y14053333D01*
X170852333Y13653333D01*
X171285666Y13653333D01*
X171952333Y13653333D02*
X171552333Y13653333D01*
X171752333Y13653333D02*
X171752333Y14353333D01*
X171685666Y14253333D01*
X171619000Y14186666D01*
X171552333Y14153333D01*
X167063000Y13653333D02*
X166829666Y13986666D01*
X166663000Y13653333D02*
X166663000Y14353333D01*
X166929666Y14353333D01*
X166996333Y14320000D01*
X167029666Y14286666D01*
X167063000Y14220000D01*
X167063000Y14120000D01*
X167029666Y14053333D01*
X166996333Y14020000D01*
X166929666Y13986666D01*
X166663000Y13986666D01*
X167329666Y14286666D02*
X167363000Y14320000D01*
X167429666Y14353333D01*
X167596333Y14353333D01*
X167663000Y14320000D01*
X167696333Y14286666D01*
X167729666Y14220000D01*
X167729666Y14153333D01*
X167696333Y14053333D01*
X167296333Y13653333D01*
X167729666Y13653333D01*
X167996333Y14286666D02*
X168029666Y14320000D01*
X168096333Y14353333D01*
X168263000Y14353333D01*
X168329666Y14320000D01*
X168363000Y14286666D01*
X168396333Y14220000D01*
X168396333Y14153333D01*
X168363000Y14053333D01*
X167963000Y13653333D01*
X168396333Y13653333D01*
X183192000Y13653333D02*
X182958666Y13986666D01*
X182792000Y13653333D02*
X182792000Y14353333D01*
X183058666Y14353333D01*
X183125333Y14320000D01*
X183158666Y14286666D01*
X183192000Y14220000D01*
X183192000Y14120000D01*
X183158666Y14053333D01*
X183125333Y14020000D01*
X183058666Y13986666D01*
X182792000Y13986666D01*
X183858666Y13653333D02*
X183458666Y13653333D01*
X183658666Y13653333D02*
X183658666Y14353333D01*
X183592000Y14253333D01*
X183525333Y14186666D01*
X183458666Y14153333D01*
X184192000Y13653333D02*
X184325333Y13653333D01*
X184392000Y13686666D01*
X184425333Y13720000D01*
X184492000Y13820000D01*
X184525333Y13953333D01*
X184525333Y14220000D01*
X184492000Y14286666D01*
X184458666Y14320000D01*
X184392000Y14353333D01*
X184258666Y14353333D01*
X184192000Y14320000D01*
X184158666Y14286666D01*
X184125333Y14220000D01*
X184125333Y14053333D01*
X184158666Y13986666D01*
X184192000Y13953333D01*
X184258666Y13920000D01*
X184392000Y13920000D01*
X184458666Y13953333D01*
X184492000Y13986666D01*
X184525333Y14053333D01*
X179636000Y13526333D02*
X179402666Y13859666D01*
X179236000Y13526333D02*
X179236000Y14226333D01*
X179502666Y14226333D01*
X179569333Y14193000D01*
X179602666Y14159666D01*
X179636000Y14093000D01*
X179636000Y13993000D01*
X179602666Y13926333D01*
X179569333Y13893000D01*
X179502666Y13859666D01*
X179236000Y13859666D01*
X179902666Y14159666D02*
X179936000Y14193000D01*
X180002666Y14226333D01*
X180169333Y14226333D01*
X180236000Y14193000D01*
X180269333Y14159666D01*
X180302666Y14093000D01*
X180302666Y14026333D01*
X180269333Y13926333D01*
X179869333Y13526333D01*
X180302666Y13526333D01*
X180736000Y14226333D02*
X180802666Y14226333D01*
X180869333Y14193000D01*
X180902666Y14159666D01*
X180936000Y14093000D01*
X180969333Y13959666D01*
X180969333Y13793000D01*
X180936000Y13659666D01*
X180902666Y13593000D01*
X180869333Y13559666D01*
X180802666Y13526333D01*
X180736000Y13526333D01*
X180669333Y13559666D01*
X180636000Y13593000D01*
X180602666Y13659666D01*
X180569333Y13793000D01*
X180569333Y13959666D01*
X180602666Y14093000D01*
X180636000Y14159666D01*
X180669333Y14193000D01*
X180736000Y14226333D01*
X196207142Y-6319960D02*
X195873809Y-5843770D01*
X195635714Y-6319960D02*
X195635714Y-5319960D01*
X196016666Y-5319960D01*
X196111904Y-5367580D01*
X196159523Y-5415199D01*
X196207142Y-5510437D01*
X196207142Y-5653294D01*
X196159523Y-5748532D01*
X196111904Y-5796151D01*
X196016666Y-5843770D01*
X195635714Y-5843770D01*
X197159523Y-6319960D02*
X196588095Y-6319960D01*
X196873809Y-6319960D02*
X196873809Y-5319960D01*
X196778571Y-5462818D01*
X196683333Y-5558056D01*
X196588095Y-5605675D01*
X197492857Y-5319960D02*
X198159523Y-5319960D01*
X197730952Y-6319960D01*
D17*
X191127142Y13517619D02*
X190793809Y13993809D01*
X190555714Y13517619D02*
X190555714Y14517619D01*
X190936666Y14517619D01*
X191031904Y14470000D01*
X191079523Y14422380D01*
X191127142Y14327142D01*
X191127142Y14184285D01*
X191079523Y14089047D01*
X191031904Y14041428D01*
X190936666Y13993809D01*
X190555714Y13993809D01*
X192079523Y13517619D02*
X191508095Y13517619D01*
X191793809Y13517619D02*
X191793809Y14517619D01*
X191698571Y14374761D01*
X191603333Y14279523D01*
X191508095Y14231904D01*
X192650952Y14089047D02*
X192555714Y14136666D01*
X192508095Y14184285D01*
X192460476Y14279523D01*
X192460476Y14327142D01*
X192508095Y14422380D01*
X192555714Y14470000D01*
X192650952Y14517619D01*
X192841428Y14517619D01*
X192936666Y14470000D01*
X192984285Y14422380D01*
X193031904Y14327142D01*
X193031904Y14279523D01*
X192984285Y14184285D01*
X192936666Y14136666D01*
X192841428Y14089047D01*
X192650952Y14089047D01*
X192555714Y14041428D01*
X192508095Y13993809D01*
X192460476Y13898571D01*
X192460476Y13708095D01*
X192508095Y13612857D01*
X192555714Y13565238D01*
X192650952Y13517619D01*
X192841428Y13517619D01*
X192936666Y13565238D01*
X192984285Y13612857D01*
X193031904Y13708095D01*
X193031904Y13898571D01*
X192984285Y13993809D01*
X192936666Y14041428D01*
X192841428Y14089047D01*
D10*
X196207142Y8264555D02*
X195873809Y8740745D01*
X195635714Y8264555D02*
X195635714Y9264555D01*
X196016666Y9264555D01*
X196111904Y9216936D01*
X196159523Y9169316D01*
X196207142Y9074078D01*
X196207142Y8931221D01*
X196159523Y8835983D01*
X196111904Y8788364D01*
X196016666Y8740745D01*
X195635714Y8740745D01*
X197159523Y8264555D02*
X196588095Y8264555D01*
X196873809Y8264555D02*
X196873809Y9264555D01*
X196778571Y9121697D01*
X196683333Y9026459D01*
X196588095Y8978840D01*
X198064285Y9264555D02*
X197588095Y9264555D01*
X197540476Y8788364D01*
X197588095Y8835983D01*
X197683333Y8883602D01*
X197921428Y8883602D01*
X198016666Y8835983D01*
X198064285Y8788364D01*
X198111904Y8693126D01*
X198111904Y8455031D01*
X198064285Y8359793D01*
X198016666Y8312174D01*
X197921428Y8264555D01*
X197683333Y8264555D01*
X197588095Y8312174D01*
X197540476Y8359793D01*
X196207142Y972297D02*
X195873809Y1448487D01*
X195635714Y972297D02*
X195635714Y1972297D01*
X196016666Y1972297D01*
X196111904Y1924678D01*
X196159523Y1877058D01*
X196207142Y1781820D01*
X196207142Y1638963D01*
X196159523Y1543725D01*
X196111904Y1496106D01*
X196016666Y1448487D01*
X195635714Y1448487D01*
X197159523Y972297D02*
X196588095Y972297D01*
X196873809Y972297D02*
X196873809Y1972297D01*
X196778571Y1829439D01*
X196683333Y1734201D01*
X196588095Y1686582D01*
X198016666Y1972297D02*
X197826190Y1972297D01*
X197730952Y1924678D01*
X197683333Y1877058D01*
X197588095Y1734201D01*
X197540476Y1543725D01*
X197540476Y1162773D01*
X197588095Y1067535D01*
X197635714Y1019916D01*
X197730952Y972297D01*
X197921428Y972297D01*
X198016666Y1019916D01*
X198064285Y1067535D01*
X198111904Y1162773D01*
X198111904Y1400868D01*
X198064285Y1496106D01*
X198016666Y1543725D01*
X197921428Y1591344D01*
X197730952Y1591344D01*
X197635714Y1543725D01*
X197588095Y1496106D01*
X197540476Y1400868D01*
X196207142Y22849071D02*
X195873809Y23325261D01*
X195635714Y22849071D02*
X195635714Y23849071D01*
X196016666Y23849071D01*
X196111904Y23801452D01*
X196159523Y23753832D01*
X196207142Y23658594D01*
X196207142Y23515737D01*
X196159523Y23420499D01*
X196111904Y23372880D01*
X196016666Y23325261D01*
X195635714Y23325261D01*
X197159523Y22849071D02*
X196588095Y22849071D01*
X196873809Y22849071D02*
X196873809Y23849071D01*
X196778571Y23706213D01*
X196683333Y23610975D01*
X196588095Y23563356D01*
X197540476Y23753832D02*
X197588095Y23801452D01*
X197683333Y23849071D01*
X197921428Y23849071D01*
X198016666Y23801452D01*
X198064285Y23753832D01*
X198111904Y23658594D01*
X198111904Y23563356D01*
X198064285Y23420499D01*
X197492857Y22849071D01*
X198111904Y22849071D01*
X196207142Y15556813D02*
X195873809Y16033003D01*
X195635714Y15556813D02*
X195635714Y16556813D01*
X196016666Y16556813D01*
X196111904Y16509194D01*
X196159523Y16461574D01*
X196207142Y16366336D01*
X196207142Y16223479D01*
X196159523Y16128241D01*
X196111904Y16080622D01*
X196016666Y16033003D01*
X195635714Y16033003D01*
X197159523Y15556813D02*
X196588095Y15556813D01*
X196873809Y15556813D02*
X196873809Y16556813D01*
X196778571Y16413955D01*
X196683333Y16318717D01*
X196588095Y16271098D01*
X197492857Y16556813D02*
X198111904Y16556813D01*
X197778571Y16175860D01*
X197921428Y16175860D01*
X198016666Y16128241D01*
X198064285Y16080622D01*
X198111904Y15985384D01*
X198111904Y15747289D01*
X198064285Y15652051D01*
X198016666Y15604432D01*
X197921428Y15556813D01*
X197635714Y15556813D01*
X197540476Y15604432D01*
X197492857Y15652051D01*
X196683333Y37433587D02*
X196350000Y37909777D01*
X196111904Y37433587D02*
X196111904Y38433587D01*
X196492857Y38433587D01*
X196588095Y38385968D01*
X196635714Y38338348D01*
X196683333Y38243110D01*
X196683333Y38100253D01*
X196635714Y38005015D01*
X196588095Y37957396D01*
X196492857Y37909777D01*
X196111904Y37909777D01*
X197159523Y37433587D02*
X197350000Y37433587D01*
X197445238Y37481206D01*
X197492857Y37528825D01*
X197588095Y37671682D01*
X197635714Y37862158D01*
X197635714Y38243110D01*
X197588095Y38338348D01*
X197540476Y38385968D01*
X197445238Y38433587D01*
X197254761Y38433587D01*
X197159523Y38385968D01*
X197111904Y38338348D01*
X197064285Y38243110D01*
X197064285Y38005015D01*
X197111904Y37909777D01*
X197159523Y37862158D01*
X197254761Y37814539D01*
X197445238Y37814539D01*
X197540476Y37862158D01*
X197588095Y37909777D01*
X197635714Y38005015D01*
X196207142Y30141329D02*
X195873809Y30617519D01*
X195635714Y30141329D02*
X195635714Y31141329D01*
X196016666Y31141329D01*
X196111904Y31093710D01*
X196159523Y31046090D01*
X196207142Y30950852D01*
X196207142Y30807995D01*
X196159523Y30712757D01*
X196111904Y30665138D01*
X196016666Y30617519D01*
X195635714Y30617519D01*
X197159523Y30141329D02*
X196588095Y30141329D01*
X196873809Y30141329D02*
X196873809Y31141329D01*
X196778571Y30998471D01*
X196683333Y30903233D01*
X196588095Y30855614D01*
X198111904Y30141329D02*
X197540476Y30141329D01*
X197826190Y30141329D02*
X197826190Y31141329D01*
X197730952Y30998471D01*
X197635714Y30903233D01*
X197540476Y30855614D01*
X196683333Y52018103D02*
X196350000Y52494293D01*
X196111904Y52018103D02*
X196111904Y53018103D01*
X196492857Y53018103D01*
X196588095Y52970484D01*
X196635714Y52922864D01*
X196683333Y52827626D01*
X196683333Y52684769D01*
X196635714Y52589531D01*
X196588095Y52541912D01*
X196492857Y52494293D01*
X196111904Y52494293D01*
X197588095Y53018103D02*
X197111904Y53018103D01*
X197064285Y52541912D01*
X197111904Y52589531D01*
X197207142Y52637150D01*
X197445238Y52637150D01*
X197540476Y52589531D01*
X197588095Y52541912D01*
X197635714Y52446674D01*
X197635714Y52208579D01*
X197588095Y52113341D01*
X197540476Y52065722D01*
X197445238Y52018103D01*
X197207142Y52018103D01*
X197111904Y52065722D01*
X197064285Y52113341D01*
X196683333Y44725845D02*
X196350000Y45202035D01*
X196111904Y44725845D02*
X196111904Y45725845D01*
X196492857Y45725845D01*
X196588095Y45678226D01*
X196635714Y45630606D01*
X196683333Y45535368D01*
X196683333Y45392511D01*
X196635714Y45297273D01*
X196588095Y45249654D01*
X196492857Y45202035D01*
X196111904Y45202035D01*
X197016666Y45725845D02*
X197683333Y45725845D01*
X197254761Y44725845D01*
X196683333Y66602619D02*
X196350000Y67078809D01*
X196111904Y66602619D02*
X196111904Y67602619D01*
X196492857Y67602619D01*
X196588095Y67555000D01*
X196635714Y67507380D01*
X196683333Y67412142D01*
X196683333Y67269285D01*
X196635714Y67174047D01*
X196588095Y67126428D01*
X196492857Y67078809D01*
X196111904Y67078809D01*
X197635714Y66602619D02*
X197064285Y66602619D01*
X197350000Y66602619D02*
X197350000Y67602619D01*
X197254761Y67459761D01*
X197159523Y67364523D01*
X197064285Y67316904D01*
X196683333Y59310361D02*
X196350000Y59786551D01*
X196111904Y59310361D02*
X196111904Y60310361D01*
X196492857Y60310361D01*
X196588095Y60262742D01*
X196635714Y60215122D01*
X196683333Y60119884D01*
X196683333Y59977027D01*
X196635714Y59881789D01*
X196588095Y59834170D01*
X196492857Y59786551D01*
X196111904Y59786551D01*
X197064285Y60215122D02*
X197111904Y60262742D01*
X197207142Y60310361D01*
X197445238Y60310361D01*
X197540476Y60262742D01*
X197588095Y60215122D01*
X197635714Y60119884D01*
X197635714Y60024646D01*
X197588095Y59881789D01*
X197016666Y59310361D01*
X197635714Y59310361D01*
D16*
X168270120Y-14233691D02*
X167268695Y-14233691D01*
X168270120Y-13661448D02*
X167697877Y-14090630D01*
X167268695Y-13661448D02*
X167840938Y-14233691D01*
X168270120Y-12707710D02*
X168270120Y-13279952D01*
X168270120Y-12993831D02*
X167268695Y-12993831D01*
X167411756Y-13089205D01*
X167507130Y-13184579D01*
X167554817Y-13279952D01*
X167268695Y-11801658D02*
X167268695Y-12278527D01*
X167745564Y-12326214D01*
X167697877Y-12278527D01*
X167650190Y-12183154D01*
X167650190Y-11944719D01*
X167697877Y-11849345D01*
X167745564Y-11801658D01*
X167840938Y-11753972D01*
X168079372Y-11753972D01*
X168174746Y-11801658D01*
X168222433Y-11849345D01*
X168270120Y-11944719D01*
X168270120Y-12183154D01*
X168222433Y-12278527D01*
X168174746Y-12326214D01*
X181097120Y-14233691D02*
X180095695Y-14233691D01*
X181097120Y-13661448D02*
X180524877Y-14090630D01*
X180095695Y-13661448D02*
X180667938Y-14233691D01*
X181097120Y-12707710D02*
X181097120Y-13279952D01*
X181097120Y-12993831D02*
X180095695Y-12993831D01*
X180238756Y-13089205D01*
X180334130Y-13184579D01*
X180381817Y-13279952D01*
X180095695Y-12373901D02*
X180095695Y-11753972D01*
X180477190Y-12087780D01*
X180477190Y-11944719D01*
X180524877Y-11849345D01*
X180572564Y-11801658D01*
X180667938Y-11753972D01*
X180906372Y-11753972D01*
X181001746Y-11801658D01*
X181049433Y-11849345D01*
X181097120Y-11944719D01*
X181097120Y-12230841D01*
X181049433Y-12326214D01*
X181001746Y-12373901D01*
X174493120Y-14233691D02*
X173491695Y-14233691D01*
X174493120Y-13661448D02*
X173920877Y-14090630D01*
X173491695Y-13661448D02*
X174063938Y-14233691D01*
X174493120Y-12707710D02*
X174493120Y-13279952D01*
X174493120Y-12993831D02*
X173491695Y-12993831D01*
X173634756Y-13089205D01*
X173730130Y-13184579D01*
X173777817Y-13279952D01*
X173825503Y-11849345D02*
X174493120Y-11849345D01*
X173444008Y-12087780D02*
X174159312Y-12326214D01*
X174159312Y-11706285D01*
X222367658Y-15177260D02*
X222367658Y-14175835D01*
X222939901Y-15177260D02*
X222510719Y-14605017D01*
X222939901Y-14175835D02*
X222367658Y-14748078D01*
X223893639Y-15177260D02*
X223321397Y-15177260D01*
X223607518Y-15177260D02*
X223607518Y-14175835D01*
X223512144Y-14318896D01*
X223416770Y-14414270D01*
X223321397Y-14461957D01*
X224847377Y-15177260D02*
X224275135Y-15177260D01*
X224561256Y-15177260D02*
X224561256Y-14175835D01*
X224465882Y-14318896D01*
X224370508Y-14414270D01*
X224275135Y-14461957D01*
X187447120Y-14233691D02*
X186445695Y-14233691D01*
X187447120Y-13661448D02*
X186874877Y-14090630D01*
X186445695Y-13661448D02*
X187017938Y-14233691D01*
X187447120Y-12707710D02*
X187447120Y-13279952D01*
X187447120Y-12993831D02*
X186445695Y-12993831D01*
X186588756Y-13089205D01*
X186684130Y-13184579D01*
X186731817Y-13279952D01*
X186541069Y-12326214D02*
X186493382Y-12278527D01*
X186445695Y-12183154D01*
X186445695Y-11944719D01*
X186493382Y-11849345D01*
X186541069Y-11801658D01*
X186636443Y-11753972D01*
X186731817Y-11753972D01*
X186874877Y-11801658D01*
X187447120Y-12373901D01*
X187447120Y-11753972D01*
X222844527Y-360594D02*
X222844527Y640830D01*
X223416770Y-360594D02*
X222987588Y211648D01*
X223416770Y640830D02*
X222844527Y68587D01*
X223893639Y-360594D02*
X224084387Y-360594D01*
X224179761Y-312907D01*
X224227448Y-265220D01*
X224322822Y-122160D01*
X224370508Y68587D01*
X224370508Y450082D01*
X224322822Y545456D01*
X224275135Y593143D01*
X224179761Y640830D01*
X223989013Y640830D01*
X223893639Y593143D01*
X223845952Y545456D01*
X223798266Y450082D01*
X223798266Y211648D01*
X223845952Y116274D01*
X223893639Y68587D01*
X223989013Y20900D01*
X224179761Y20900D01*
X224275135Y68587D01*
X224322822Y116274D01*
X224370508Y211648D01*
X222367658Y-7768927D02*
X222367658Y-6767502D01*
X222939901Y-7768927D02*
X222510719Y-7196684D01*
X222939901Y-6767502D02*
X222367658Y-7339745D01*
X223893639Y-7768927D02*
X223321397Y-7768927D01*
X223607518Y-7768927D02*
X223607518Y-6767502D01*
X223512144Y-6910563D01*
X223416770Y-7005937D01*
X223321397Y-7053624D01*
X224513569Y-6767502D02*
X224608943Y-6767502D01*
X224704317Y-6815189D01*
X224752004Y-6862876D01*
X224799691Y-6958250D01*
X224847377Y-7148997D01*
X224847377Y-7387432D01*
X224799691Y-7578179D01*
X224752004Y-7673553D01*
X224704317Y-7721240D01*
X224608943Y-7768927D01*
X224513569Y-7768927D01*
X224418195Y-7721240D01*
X224370508Y-7673553D01*
X224322822Y-7578179D01*
X224275135Y-7387432D01*
X224275135Y-7148997D01*
X224322822Y-6958250D01*
X224370508Y-6862876D01*
X224418195Y-6815189D01*
X224513569Y-6767502D01*
X222844527Y14456071D02*
X222844527Y15457496D01*
X223416770Y14456071D02*
X222987588Y15028314D01*
X223416770Y15457496D02*
X222844527Y14885253D01*
X223750579Y15457496D02*
X224418195Y15457496D01*
X223989013Y14456071D01*
X222844527Y7047738D02*
X222844527Y8049163D01*
X223416770Y7047738D02*
X222987588Y7619981D01*
X223416770Y8049163D02*
X222844527Y7476920D01*
X223989013Y7619981D02*
X223893639Y7667668D01*
X223845952Y7715355D01*
X223798266Y7810728D01*
X223798266Y7858415D01*
X223845952Y7953789D01*
X223893639Y8001476D01*
X223989013Y8049163D01*
X224179761Y8049163D01*
X224275135Y8001476D01*
X224322822Y7953789D01*
X224370508Y7858415D01*
X224370508Y7810728D01*
X224322822Y7715355D01*
X224275135Y7667668D01*
X224179761Y7619981D01*
X223989013Y7619981D01*
X223893639Y7572294D01*
X223845952Y7524607D01*
X223798266Y7429233D01*
X223798266Y7238486D01*
X223845952Y7143112D01*
X223893639Y7095425D01*
X223989013Y7047738D01*
X224179761Y7047738D01*
X224275135Y7095425D01*
X224322822Y7143112D01*
X224370508Y7238486D01*
X224370508Y7429233D01*
X224322822Y7524607D01*
X224275135Y7572294D01*
X224179761Y7619981D01*
X222844527Y29272737D02*
X222844527Y30274162D01*
X223416770Y29272737D02*
X222987588Y29844980D01*
X223416770Y30274162D02*
X222844527Y29701919D01*
X224322822Y30274162D02*
X223845952Y30274162D01*
X223798266Y29797293D01*
X223845952Y29844980D01*
X223941326Y29892667D01*
X224179761Y29892667D01*
X224275135Y29844980D01*
X224322822Y29797293D01*
X224370508Y29701919D01*
X224370508Y29463485D01*
X224322822Y29368111D01*
X224275135Y29320424D01*
X224179761Y29272737D01*
X223941326Y29272737D01*
X223845952Y29320424D01*
X223798266Y29368111D01*
X222844527Y21864404D02*
X222844527Y22865829D01*
X223416770Y21864404D02*
X222987588Y22436647D01*
X223416770Y22865829D02*
X222844527Y22293586D01*
X224275135Y22865829D02*
X224084387Y22865829D01*
X223989013Y22818142D01*
X223941326Y22770455D01*
X223845952Y22627394D01*
X223798266Y22436647D01*
X223798266Y22055152D01*
X223845952Y21959778D01*
X223893639Y21912091D01*
X223989013Y21864404D01*
X224179761Y21864404D01*
X224275135Y21912091D01*
X224322822Y21959778D01*
X224370508Y22055152D01*
X224370508Y22293586D01*
X224322822Y22388960D01*
X224275135Y22436647D01*
X224179761Y22484334D01*
X223989013Y22484334D01*
X223893639Y22436647D01*
X223845952Y22388960D01*
X223798266Y22293586D01*
X222844527Y44089403D02*
X222844527Y45090828D01*
X223416770Y44089403D02*
X222987588Y44661646D01*
X223416770Y45090828D02*
X222844527Y44518585D01*
X223750579Y45090828D02*
X224370508Y45090828D01*
X224036700Y44709333D01*
X224179761Y44709333D01*
X224275135Y44661646D01*
X224322822Y44613959D01*
X224370508Y44518585D01*
X224370508Y44280151D01*
X224322822Y44184777D01*
X224275135Y44137090D01*
X224179761Y44089403D01*
X223893639Y44089403D01*
X223798266Y44137090D01*
X223750579Y44184777D01*
X222844527Y36681070D02*
X222844527Y37682495D01*
X223416770Y36681070D02*
X222987588Y37253313D01*
X223416770Y37682495D02*
X222844527Y37110252D01*
X224275135Y37348687D02*
X224275135Y36681070D01*
X224036700Y37730182D02*
X223798266Y37014878D01*
X224418195Y37014878D01*
X222844527Y58906069D02*
X222844527Y59907494D01*
X223416770Y58906069D02*
X222987588Y59478312D01*
X223416770Y59907494D02*
X222844527Y59335251D01*
X224370508Y58906069D02*
X223798266Y58906069D01*
X224084387Y58906069D02*
X224084387Y59907494D01*
X223989013Y59764433D01*
X223893639Y59669059D01*
X223798266Y59621372D01*
X222844527Y51497736D02*
X222844527Y52499161D01*
X223416770Y51497736D02*
X222987588Y52069979D01*
X223416770Y52499161D02*
X222844527Y51926918D01*
X223798266Y52403787D02*
X223845952Y52451474D01*
X223941326Y52499161D01*
X224179761Y52499161D01*
X224275135Y52451474D01*
X224322822Y52403787D01*
X224370508Y52308413D01*
X224370508Y52213039D01*
X224322822Y52069979D01*
X223750579Y51497736D01*
X224370508Y51497736D01*
D10*
X168608476Y-28408380D02*
X168608476Y-29122666D01*
X168560857Y-29265523D01*
X168465619Y-29360761D01*
X168322761Y-29408380D01*
X168227523Y-29408380D01*
X169608476Y-29408380D02*
X169037047Y-29408380D01*
X169322761Y-29408380D02*
X169322761Y-28408380D01*
X169227523Y-28551238D01*
X169132285Y-28646476D01*
X169037047Y-28694095D01*
X170084666Y-29408380D02*
X170275142Y-29408380D01*
X170370380Y-29360761D01*
X170418000Y-29313142D01*
X170513238Y-29170285D01*
X170560857Y-28979809D01*
X170560857Y-28598857D01*
X170513238Y-28503619D01*
X170465619Y-28456000D01*
X170370380Y-28408380D01*
X170179904Y-28408380D01*
X170084666Y-28456000D01*
X170037047Y-28503619D01*
X169989428Y-28598857D01*
X169989428Y-28836952D01*
X170037047Y-28932190D01*
X170084666Y-28979809D01*
X170179904Y-29027428D01*
X170370380Y-29027428D01*
X170465619Y-28979809D01*
X170513238Y-28932190D01*
X170560857Y-28836952D01*
X157305476Y-28154380D02*
X157305476Y-28868666D01*
X157257857Y-29011523D01*
X157162619Y-29106761D01*
X157019761Y-29154380D01*
X156924523Y-29154380D01*
X157734047Y-28249619D02*
X157781666Y-28202000D01*
X157876904Y-28154380D01*
X158115000Y-28154380D01*
X158210238Y-28202000D01*
X158257857Y-28249619D01*
X158305476Y-28344857D01*
X158305476Y-28440095D01*
X158257857Y-28582952D01*
X157686428Y-29154380D01*
X158305476Y-29154380D01*
X158924523Y-28154380D02*
X159019761Y-28154380D01*
X159115000Y-28202000D01*
X159162619Y-28249619D01*
X159210238Y-28344857D01*
X159257857Y-28535333D01*
X159257857Y-28773428D01*
X159210238Y-28963904D01*
X159162619Y-29059142D01*
X159115000Y-29106761D01*
X159019761Y-29154380D01*
X158924523Y-29154380D01*
X158829285Y-29106761D01*
X158781666Y-29059142D01*
X158734047Y-28963904D01*
X158686428Y-28773428D01*
X158686428Y-28535333D01*
X158734047Y-28344857D01*
X158781666Y-28249619D01*
X158829285Y-28202000D01*
X158924523Y-28154380D01*
X191637810Y-28154380D02*
X191637810Y-28868666D01*
X191590191Y-29011523D01*
X191494953Y-29106761D01*
X191352095Y-29154380D01*
X191256857Y-29154380D01*
X192637810Y-29154380D02*
X192066381Y-29154380D01*
X192352095Y-29154380D02*
X192352095Y-28154380D01*
X192256857Y-28297238D01*
X192161619Y-28392476D01*
X192066381Y-28440095D01*
X193494953Y-28154380D02*
X193304476Y-28154380D01*
X193209238Y-28202000D01*
X193161619Y-28249619D01*
X193066381Y-28392476D01*
X193018762Y-28582952D01*
X193018762Y-28963904D01*
X193066381Y-29059142D01*
X193114000Y-29106761D01*
X193209238Y-29154380D01*
X193399714Y-29154380D01*
X193494953Y-29106761D01*
X193542572Y-29059142D01*
X193590191Y-28963904D01*
X193590191Y-28725809D01*
X193542572Y-28630571D01*
X193494953Y-28582952D01*
X193399714Y-28535333D01*
X193209238Y-28535333D01*
X193114000Y-28582952D01*
X193066381Y-28630571D01*
X193018762Y-28725809D01*
X180377143Y-28154380D02*
X180377143Y-28868666D01*
X180329524Y-29011523D01*
X180234286Y-29106761D01*
X180091428Y-29154380D01*
X179996190Y-29154380D01*
X181377143Y-29154380D02*
X180805714Y-29154380D01*
X181091428Y-29154380D02*
X181091428Y-28154380D01*
X180996190Y-28297238D01*
X180900952Y-28392476D01*
X180805714Y-28440095D01*
X181710476Y-28154380D02*
X182377143Y-28154380D01*
X181948571Y-29154380D01*
X213352476Y-28154380D02*
X213352476Y-28868666D01*
X213304857Y-29011523D01*
X213209619Y-29106761D01*
X213066761Y-29154380D01*
X212971523Y-29154380D01*
X214352476Y-29154380D02*
X213781047Y-29154380D01*
X214066761Y-29154380D02*
X214066761Y-28154380D01*
X213971523Y-28297238D01*
X213876285Y-28392476D01*
X213781047Y-28440095D01*
X215209619Y-28487714D02*
X215209619Y-29154380D01*
X214971523Y-28106761D02*
X214733428Y-28821047D01*
X215352476Y-28821047D01*
X202517476Y-28027380D02*
X202517476Y-28741666D01*
X202469857Y-28884523D01*
X202374619Y-28979761D01*
X202231761Y-29027380D01*
X202136523Y-29027380D01*
X203517476Y-29027380D02*
X202946047Y-29027380D01*
X203231761Y-29027380D02*
X203231761Y-28027380D01*
X203136523Y-28170238D01*
X203041285Y-28265476D01*
X202946047Y-28313095D01*
X204422238Y-28027380D02*
X203946047Y-28027380D01*
X203898428Y-28503571D01*
X203946047Y-28455952D01*
X204041285Y-28408333D01*
X204279380Y-28408333D01*
X204374619Y-28455952D01*
X204422238Y-28503571D01*
X204469857Y-28598809D01*
X204469857Y-28836904D01*
X204422238Y-28932142D01*
X204374619Y-28979761D01*
X204279380Y-29027380D01*
X204041285Y-29027380D01*
X203946047Y-28979761D01*
X203898428Y-28932142D01*
X239670340Y-26209523D02*
X240384626Y-26209523D01*
X240527483Y-26257142D01*
X240622721Y-26352380D01*
X240670340Y-26495238D01*
X240670340Y-26590476D01*
X240670340Y-25209523D02*
X240670340Y-25780952D01*
X240670340Y-25495238D02*
X239670340Y-25495238D01*
X239813198Y-25590476D01*
X239908436Y-25685714D01*
X239956055Y-25780952D01*
X239765579Y-24828571D02*
X239717960Y-24780952D01*
X239670340Y-24685714D01*
X239670340Y-24447619D01*
X239717960Y-24352380D01*
X239765579Y-24304761D01*
X239860817Y-24257142D01*
X239956055Y-24257142D01*
X240098912Y-24304761D01*
X240670340Y-24876190D01*
X240670340Y-24257142D01*
X224657811Y-28408380D02*
X224657811Y-29122666D01*
X224610192Y-29265523D01*
X224514954Y-29360761D01*
X224372096Y-29408380D01*
X224276858Y-29408380D01*
X225657811Y-29408380D02*
X225086382Y-29408380D01*
X225372096Y-29408380D02*
X225372096Y-28408380D01*
X225276858Y-28551238D01*
X225181620Y-28646476D01*
X225086382Y-28694095D01*
X225991144Y-28408380D02*
X226610192Y-28408380D01*
X226276858Y-28789333D01*
X226419715Y-28789333D01*
X226514954Y-28836952D01*
X226562573Y-28884571D01*
X226610192Y-28979809D01*
X226610192Y-29217904D01*
X226562573Y-29313142D01*
X226514954Y-29360761D01*
X226419715Y-29408380D01*
X226134001Y-29408380D01*
X226038763Y-29360761D01*
X225991144Y-29313142D01*
X239916720Y-4062539D02*
X240631006Y-4062539D01*
X240773863Y-4110158D01*
X240869101Y-4205396D01*
X240916720Y-4348254D01*
X240916720Y-4443492D01*
X240916720Y-3062539D02*
X240916720Y-3633968D01*
X240916720Y-3348254D02*
X239916720Y-3348254D01*
X240059578Y-3443492D01*
X240154816Y-3538730D01*
X240202435Y-3633968D01*
X239916720Y-2443492D02*
X239916720Y-2348254D01*
X239964340Y-2253016D01*
X240011959Y-2205396D01*
X240107197Y-2157777D01*
X240297673Y-2110158D01*
X240535768Y-2110158D01*
X240726244Y-2157777D01*
X240821482Y-2205396D01*
X240869101Y-2253016D01*
X240916720Y-2348254D01*
X240916720Y-2443492D01*
X240869101Y-2538730D01*
X240821482Y-2586349D01*
X240726244Y-2633968D01*
X240535768Y-2681587D01*
X240297673Y-2681587D01*
X240107197Y-2633968D01*
X240011959Y-2586349D01*
X239964340Y-2538730D01*
X239916720Y-2443492D01*
X239916720Y-15281163D02*
X240631006Y-15281163D01*
X240773863Y-15328782D01*
X240869101Y-15424020D01*
X240916720Y-15566878D01*
X240916720Y-15662116D01*
X240916720Y-14281163D02*
X240916720Y-14852592D01*
X240916720Y-14566878D02*
X239916720Y-14566878D01*
X240059578Y-14662116D01*
X240154816Y-14757354D01*
X240202435Y-14852592D01*
X240916720Y-13328782D02*
X240916720Y-13900211D01*
X240916720Y-13614497D02*
X239916720Y-13614497D01*
X240059578Y-13709735D01*
X240154816Y-13804973D01*
X240202435Y-13900211D01*
X240053880Y19144302D02*
X240768166Y19144302D01*
X240911023Y19096683D01*
X241006261Y19001445D01*
X241053880Y18858588D01*
X241053880Y18763350D01*
X240053880Y19525255D02*
X240053880Y20191921D01*
X241053880Y19763350D01*
X239921800Y7530696D02*
X240636086Y7530696D01*
X240778943Y7483077D01*
X240874181Y7387839D01*
X240921800Y7244982D01*
X240921800Y7149744D01*
X240350372Y8149744D02*
X240302753Y8054506D01*
X240255134Y8006887D01*
X240159896Y7959268D01*
X240112277Y7959268D01*
X240017039Y8006887D01*
X239969420Y8054506D01*
X239921800Y8149744D01*
X239921800Y8340220D01*
X239969420Y8435458D01*
X240017039Y8483077D01*
X240112277Y8530696D01*
X240159896Y8530696D01*
X240255134Y8483077D01*
X240302753Y8435458D01*
X240350372Y8340220D01*
X240350372Y8149744D01*
X240397991Y8054506D01*
X240445610Y8006887D01*
X240540848Y7959268D01*
X240731324Y7959268D01*
X240826562Y8006887D01*
X240874181Y8054506D01*
X240921800Y8149744D01*
X240921800Y8340220D01*
X240874181Y8435458D01*
X240826562Y8483077D01*
X240731324Y8530696D01*
X240540848Y8530696D01*
X240445610Y8483077D01*
X240397991Y8435458D01*
X240350372Y8340220D01*
X240036100Y40758614D02*
X240750386Y40758614D01*
X240893243Y40710995D01*
X240988481Y40615757D01*
X241036100Y40472900D01*
X241036100Y40377662D01*
X240369434Y41663376D02*
X241036100Y41663376D01*
X239988481Y41425281D02*
X240702767Y41187186D01*
X240702767Y41806233D01*
X240043720Y29762228D02*
X240758006Y29762228D01*
X240900863Y29714609D01*
X240996101Y29619371D01*
X241043720Y29476514D01*
X241043720Y29381276D01*
X240043720Y30714609D02*
X240043720Y30238419D01*
X240519911Y30190800D01*
X240472292Y30238419D01*
X240424673Y30333657D01*
X240424673Y30571752D01*
X240472292Y30666990D01*
X240519911Y30714609D01*
X240615149Y30762228D01*
X240853244Y30762228D01*
X240948482Y30714609D01*
X240996101Y30666990D01*
X241043720Y30571752D01*
X241043720Y30333657D01*
X240996101Y30238419D01*
X240948482Y30190800D01*
X240013240Y62536746D02*
X240727526Y62536746D01*
X240870383Y62489127D01*
X240965621Y62393889D01*
X241013240Y62251032D01*
X241013240Y62155794D01*
X241013240Y63536746D02*
X241013240Y62965318D01*
X241013240Y63251032D02*
X240013240Y63251032D01*
X240156098Y63155794D01*
X240251336Y63060556D01*
X240298955Y62965318D01*
X240041180Y51489560D02*
X240755466Y51489560D01*
X240898323Y51441941D01*
X240993561Y51346703D01*
X241041180Y51203846D01*
X241041180Y51108608D01*
X240136419Y51918132D02*
X240088800Y51965751D01*
X240041180Y52060989D01*
X240041180Y52299084D01*
X240088800Y52394322D01*
X240136419Y52441941D01*
X240231657Y52489560D01*
X240326895Y52489560D01*
X240469752Y52441941D01*
X241041180Y51870513D01*
X241041180Y52489560D01*
X172902714Y13653333D02*
X172902714Y14353333D01*
X173140809Y14353333D01*
X173283666Y14320000D01*
X173378904Y14253333D01*
X173426523Y14186666D01*
X173474142Y14053333D01*
X173474142Y13953333D01*
X173426523Y13820000D01*
X173378904Y13753333D01*
X173283666Y13686666D01*
X173140809Y13653333D01*
X172902714Y13653333D01*
X174426523Y13653333D02*
X173855095Y13653333D01*
X174140809Y13653333D02*
X174140809Y14353333D01*
X174045571Y14253333D01*
X173950333Y14186666D01*
X173855095Y14153333D01*
X175331285Y14353333D02*
X174855095Y14353333D01*
X174807476Y14020000D01*
X174855095Y14053333D01*
X174950333Y14086666D01*
X175188428Y14086666D01*
X175283666Y14053333D01*
X175331285Y14020000D01*
X175378904Y13953333D01*
X175378904Y13786666D01*
X175331285Y13720000D01*
X175283666Y13686666D01*
X175188428Y13653333D01*
X174950333Y13653333D01*
X174855095Y13686666D01*
X174807476Y13720000D01*
X163488000Y13653333D02*
X163488000Y14353333D01*
X163654666Y14353333D01*
X163754666Y14320000D01*
X163821333Y14253333D01*
X163854666Y14186666D01*
X163888000Y14053333D01*
X163888000Y13953333D01*
X163854666Y13820000D01*
X163821333Y13753333D01*
X163754666Y13686666D01*
X163654666Y13653333D01*
X163488000Y13653333D01*
X164554666Y13653333D02*
X164154666Y13653333D01*
X164354666Y13653333D02*
X164354666Y14353333D01*
X164288000Y14253333D01*
X164221333Y14186666D01*
X164154666Y14153333D01*
X165154666Y14353333D02*
X165021333Y14353333D01*
X164954666Y14320000D01*
X164921333Y14286666D01*
X164854666Y14186666D01*
X164821333Y14053333D01*
X164821333Y13786666D01*
X164854666Y13720000D01*
X164888000Y13686666D01*
X164954666Y13653333D01*
X165088000Y13653333D01*
X165154666Y13686666D01*
X165188000Y13720000D01*
X165221333Y13786666D01*
X165221333Y13953333D01*
X165188000Y14020000D01*
X165154666Y14053333D01*
X165088000Y14086666D01*
X164954666Y14086666D01*
X164888000Y14053333D01*
X164854666Y14020000D01*
X164821333Y13953333D01*
X185332000Y13526333D02*
X185332000Y14226333D01*
X185498666Y14226333D01*
X185598666Y14193000D01*
X185665333Y14126333D01*
X185698666Y14059666D01*
X185732000Y13926333D01*
X185732000Y13826333D01*
X185698666Y13693000D01*
X185665333Y13626333D01*
X185598666Y13559666D01*
X185498666Y13526333D01*
X185332000Y13526333D01*
X186398666Y13526333D02*
X185998666Y13526333D01*
X186198666Y13526333D02*
X186198666Y14226333D01*
X186132000Y14126333D01*
X186065333Y14059666D01*
X185998666Y14026333D01*
X186632000Y14226333D02*
X187065333Y14226333D01*
X186832000Y13959666D01*
X186932000Y13959666D01*
X186998666Y13926333D01*
X187032000Y13893000D01*
X187065333Y13826333D01*
X187065333Y13659666D01*
X187032000Y13593000D01*
X186998666Y13559666D01*
X186932000Y13526333D01*
X186732000Y13526333D01*
X186665333Y13559666D01*
X186632000Y13593000D01*
X176442000Y13526333D02*
X176442000Y14226333D01*
X176608666Y14226333D01*
X176708666Y14193000D01*
X176775333Y14126333D01*
X176808666Y14059666D01*
X176842000Y13926333D01*
X176842000Y13826333D01*
X176808666Y13693000D01*
X176775333Y13626333D01*
X176708666Y13559666D01*
X176608666Y13526333D01*
X176442000Y13526333D01*
X177508666Y13526333D02*
X177108666Y13526333D01*
X177308666Y13526333D02*
X177308666Y14226333D01*
X177242000Y14126333D01*
X177175333Y14059666D01*
X177108666Y14026333D01*
X178108666Y13993000D02*
X178108666Y13526333D01*
X177942000Y14259666D02*
X177775333Y13759666D01*
X178208666Y13759666D01*
X195889714Y-9850380D02*
X195889714Y-8850380D01*
X196127809Y-8850380D01*
X196270666Y-8898000D01*
X196365904Y-8993238D01*
X196413523Y-9088476D01*
X196461142Y-9278952D01*
X196461142Y-9421809D01*
X196413523Y-9612285D01*
X196365904Y-9707523D01*
X196270666Y-9802761D01*
X196127809Y-9850380D01*
X195889714Y-9850380D01*
X197413523Y-9850380D02*
X196842095Y-9850380D01*
X197127809Y-9850380D02*
X197127809Y-8850380D01*
X197032571Y-8993238D01*
X196937333Y-9088476D01*
X196842095Y-9136095D01*
X198365904Y-9850380D02*
X197794476Y-9850380D01*
X198080190Y-9850380D02*
X198080190Y-8850380D01*
X197984952Y-8993238D01*
X197889714Y-9088476D01*
X197794476Y-9136095D01*
X187999000Y13653333D02*
X187999000Y14353333D01*
X188165666Y14353333D01*
X188265666Y14320000D01*
X188332333Y14253333D01*
X188365666Y14186666D01*
X188399000Y14053333D01*
X188399000Y13953333D01*
X188365666Y13820000D01*
X188332333Y13753333D01*
X188265666Y13686666D01*
X188165666Y13653333D01*
X187999000Y13653333D01*
X189065666Y13653333D02*
X188665666Y13653333D01*
X188865666Y13653333D02*
X188865666Y14353333D01*
X188799000Y14253333D01*
X188732333Y14186666D01*
X188665666Y14153333D01*
X189332333Y14286666D02*
X189365666Y14320000D01*
X189432333Y14353333D01*
X189599000Y14353333D01*
X189665666Y14320000D01*
X189699000Y14286666D01*
X189732333Y14220000D01*
X189732333Y14153333D01*
X189699000Y14053333D01*
X189299000Y13653333D01*
X189732333Y13653333D01*
X196365904Y4627619D02*
X196365904Y5627619D01*
X196604000Y5627619D01*
X196746857Y5580000D01*
X196842095Y5484761D01*
X196889714Y5389523D01*
X196937333Y5199047D01*
X196937333Y5056190D01*
X196889714Y4865714D01*
X196842095Y4770476D01*
X196746857Y4675238D01*
X196604000Y4627619D01*
X196365904Y4627619D01*
X197413523Y4627619D02*
X197604000Y4627619D01*
X197699238Y4675238D01*
X197746857Y4722857D01*
X197842095Y4865714D01*
X197889714Y5056190D01*
X197889714Y5437142D01*
X197842095Y5532380D01*
X197794476Y5580000D01*
X197699238Y5627619D01*
X197508761Y5627619D01*
X197413523Y5580000D01*
X197365904Y5532380D01*
X197318285Y5437142D01*
X197318285Y5199047D01*
X197365904Y5103809D01*
X197413523Y5056190D01*
X197508761Y5008571D01*
X197699238Y5008571D01*
X197794476Y5056190D01*
X197842095Y5103809D01*
X197889714Y5199047D01*
X195381714Y-2484380D02*
X195381714Y-1484380D01*
X195619809Y-1484380D01*
X195762666Y-1532000D01*
X195857904Y-1627238D01*
X195905523Y-1722476D01*
X195953142Y-1912952D01*
X195953142Y-2055809D01*
X195905523Y-2246285D01*
X195857904Y-2341523D01*
X195762666Y-2436761D01*
X195619809Y-2484380D01*
X195381714Y-2484380D01*
X196905523Y-2484380D02*
X196334095Y-2484380D01*
X196619809Y-2484380D02*
X196619809Y-1484380D01*
X196524571Y-1627238D01*
X196429333Y-1722476D01*
X196334095Y-1770095D01*
X197524571Y-1484380D02*
X197619809Y-1484380D01*
X197715047Y-1532000D01*
X197762666Y-1579619D01*
X197810285Y-1674857D01*
X197857904Y-1865333D01*
X197857904Y-2103428D01*
X197810285Y-2293904D01*
X197762666Y-2389142D01*
X197715047Y-2436761D01*
X197619809Y-2484380D01*
X197524571Y-2484380D01*
X197429333Y-2436761D01*
X197381714Y-2389142D01*
X197334095Y-2293904D01*
X197286476Y-2103428D01*
X197286476Y-1865333D01*
X197334095Y-1674857D01*
X197381714Y-1579619D01*
X197429333Y-1532000D01*
X197524571Y-1484380D01*
X196151904Y19359619D02*
X196151904Y20359619D01*
X196390000Y20359619D01*
X196532857Y20312000D01*
X196628095Y20216761D01*
X196675714Y20121523D01*
X196723333Y19931047D01*
X196723333Y19788190D01*
X196675714Y19597714D01*
X196628095Y19502476D01*
X196532857Y19407238D01*
X196390000Y19359619D01*
X196151904Y19359619D01*
X197056666Y20359619D02*
X197723333Y20359619D01*
X197294761Y19359619D01*
X196365904Y11739619D02*
X196365904Y12739619D01*
X196604000Y12739619D01*
X196746857Y12692000D01*
X196842095Y12596761D01*
X196889714Y12501523D01*
X196937333Y12311047D01*
X196937333Y12168190D01*
X196889714Y11977714D01*
X196842095Y11882476D01*
X196746857Y11787238D01*
X196604000Y11739619D01*
X196365904Y11739619D01*
X197508761Y12311047D02*
X197413523Y12358666D01*
X197365904Y12406285D01*
X197318285Y12501523D01*
X197318285Y12549142D01*
X197365904Y12644380D01*
X197413523Y12692000D01*
X197508761Y12739619D01*
X197699238Y12739619D01*
X197794476Y12692000D01*
X197842095Y12644380D01*
X197889714Y12549142D01*
X197889714Y12501523D01*
X197842095Y12406285D01*
X197794476Y12358666D01*
X197699238Y12311047D01*
X197508761Y12311047D01*
X197413523Y12263428D01*
X197365904Y12215809D01*
X197318285Y12120571D01*
X197318285Y11930095D01*
X197365904Y11834857D01*
X197413523Y11787238D01*
X197508761Y11739619D01*
X197699238Y11739619D01*
X197794476Y11787238D01*
X197842095Y11834857D01*
X197889714Y11930095D01*
X197889714Y12120571D01*
X197842095Y12215809D01*
X197794476Y12263428D01*
X197699238Y12311047D01*
X196365904Y33583619D02*
X196365904Y34583619D01*
X196604000Y34583619D01*
X196746857Y34536000D01*
X196842095Y34440761D01*
X196889714Y34345523D01*
X196937333Y34155047D01*
X196937333Y34012190D01*
X196889714Y33821714D01*
X196842095Y33726476D01*
X196746857Y33631238D01*
X196604000Y33583619D01*
X196365904Y33583619D01*
X197842095Y34583619D02*
X197365904Y34583619D01*
X197318285Y34107428D01*
X197365904Y34155047D01*
X197461142Y34202666D01*
X197699238Y34202666D01*
X197794476Y34155047D01*
X197842095Y34107428D01*
X197889714Y34012190D01*
X197889714Y33774095D01*
X197842095Y33678857D01*
X197794476Y33631238D01*
X197699238Y33583619D01*
X197461142Y33583619D01*
X197365904Y33631238D01*
X197318285Y33678857D01*
X196365904Y26471619D02*
X196365904Y27471619D01*
X196604000Y27471619D01*
X196746857Y27424000D01*
X196842095Y27328761D01*
X196889714Y27233523D01*
X196937333Y27043047D01*
X196937333Y26900190D01*
X196889714Y26709714D01*
X196842095Y26614476D01*
X196746857Y26519238D01*
X196604000Y26471619D01*
X196365904Y26471619D01*
X197794476Y27471619D02*
X197604000Y27471619D01*
X197508761Y27424000D01*
X197461142Y27376380D01*
X197365904Y27233523D01*
X197318285Y27043047D01*
X197318285Y26662095D01*
X197365904Y26566857D01*
X197413523Y26519238D01*
X197508761Y26471619D01*
X197699238Y26471619D01*
X197794476Y26519238D01*
X197842095Y26566857D01*
X197889714Y26662095D01*
X197889714Y26900190D01*
X197842095Y26995428D01*
X197794476Y27043047D01*
X197699238Y27090666D01*
X197508761Y27090666D01*
X197413523Y27043047D01*
X197365904Y26995428D01*
X197318285Y26900190D01*
X196151904Y48315619D02*
X196151904Y49315619D01*
X196390000Y49315619D01*
X196532857Y49268000D01*
X196628095Y49172761D01*
X196675714Y49077523D01*
X196723333Y48887047D01*
X196723333Y48744190D01*
X196675714Y48553714D01*
X196628095Y48458476D01*
X196532857Y48363238D01*
X196390000Y48315619D01*
X196151904Y48315619D01*
X197056666Y49315619D02*
X197675714Y49315619D01*
X197342380Y48934666D01*
X197485238Y48934666D01*
X197580476Y48887047D01*
X197628095Y48839428D01*
X197675714Y48744190D01*
X197675714Y48506095D01*
X197628095Y48410857D01*
X197580476Y48363238D01*
X197485238Y48315619D01*
X197199523Y48315619D01*
X197104285Y48363238D01*
X197056666Y48410857D01*
X196151904Y41203619D02*
X196151904Y42203619D01*
X196390000Y42203619D01*
X196532857Y42156000D01*
X196628095Y42060761D01*
X196675714Y41965523D01*
X196723333Y41775047D01*
X196723333Y41632190D01*
X196675714Y41441714D01*
X196628095Y41346476D01*
X196532857Y41251238D01*
X196390000Y41203619D01*
X196151904Y41203619D01*
X197580476Y41870285D02*
X197580476Y41203619D01*
X197342380Y42251238D02*
X197104285Y41536952D01*
X197723333Y41536952D01*
X196238904Y63047619D02*
X196238904Y64047619D01*
X196477000Y64047619D01*
X196619857Y64000000D01*
X196715095Y63904761D01*
X196762714Y63809523D01*
X196810333Y63619047D01*
X196810333Y63476190D01*
X196762714Y63285714D01*
X196715095Y63190476D01*
X196619857Y63095238D01*
X196477000Y63047619D01*
X196238904Y63047619D01*
X197762714Y63047619D02*
X197191285Y63047619D01*
X197477000Y63047619D02*
X197477000Y64047619D01*
X197381761Y63904761D01*
X197286523Y63809523D01*
X197191285Y63761904D01*
X196151904Y55427619D02*
X196151904Y56427619D01*
X196390000Y56427619D01*
X196532857Y56380000D01*
X196628095Y56284761D01*
X196675714Y56189523D01*
X196723333Y55999047D01*
X196723333Y55856190D01*
X196675714Y55665714D01*
X196628095Y55570476D01*
X196532857Y55475238D01*
X196390000Y55427619D01*
X196151904Y55427619D01*
X197104285Y56332380D02*
X197151904Y56380000D01*
X197247142Y56427619D01*
X197485238Y56427619D01*
X197580476Y56380000D01*
X197628095Y56332380D01*
X197675714Y56237142D01*
X197675714Y56141904D01*
X197628095Y55999047D01*
X197056666Y55427619D01*
X197675714Y55427619D01*
X155170142Y30313333D02*
X155217761Y30265714D01*
X155265380Y30122857D01*
X155265380Y30027619D01*
X155217761Y29884761D01*
X155122523Y29789523D01*
X155027285Y29741904D01*
X154836809Y29694285D01*
X154693952Y29694285D01*
X154503476Y29741904D01*
X154408238Y29789523D01*
X154313000Y29884761D01*
X154265380Y30027619D01*
X154265380Y30122857D01*
X154313000Y30265714D01*
X154360619Y30313333D01*
X155265380Y31265714D02*
X155265380Y30694285D01*
X155265380Y30980000D02*
X154265380Y30980000D01*
X154408238Y30884761D01*
X154503476Y30789523D01*
X154551095Y30694285D01*
X152503142Y30313333D02*
X152550761Y30265714D01*
X152598380Y30122857D01*
X152598380Y30027619D01*
X152550761Y29884761D01*
X152455523Y29789523D01*
X152360285Y29741904D01*
X152169809Y29694285D01*
X152026952Y29694285D01*
X151836476Y29741904D01*
X151741238Y29789523D01*
X151646000Y29884761D01*
X151598380Y30027619D01*
X151598380Y30122857D01*
X151646000Y30265714D01*
X151693619Y30313333D01*
X151693619Y30694285D02*
X151646000Y30741904D01*
X151598380Y30837142D01*
X151598380Y31075238D01*
X151646000Y31170476D01*
X151693619Y31218095D01*
X151788857Y31265714D01*
X151884095Y31265714D01*
X152026952Y31218095D01*
X152598380Y30646666D01*
X152598380Y31265714D01*
X182001610Y42791312D02*
X181934267Y42791312D01*
X181799580Y42858656D01*
X181732236Y42926000D01*
X181664893Y43060687D01*
X181664893Y43195374D01*
X181698564Y43296389D01*
X181799580Y43464748D01*
X181900595Y43565763D01*
X182068954Y43666778D01*
X182169969Y43700450D01*
X182304656Y43700450D01*
X182439343Y43633106D01*
X182506687Y43565763D01*
X182574030Y43431076D01*
X182574030Y43363732D01*
X182877076Y43195374D02*
X183314809Y42757641D01*
X182809732Y42723969D01*
X182910748Y42622954D01*
X182944419Y42521938D01*
X182944419Y42454595D01*
X182910748Y42353580D01*
X182742389Y42185221D01*
X182641374Y42151549D01*
X182574030Y42151549D01*
X182473015Y42185221D01*
X182270984Y42387251D01*
X182237312Y42488267D01*
X182237312Y42555610D01*
X157583142Y30313333D02*
X157630761Y30265714D01*
X157678380Y30122857D01*
X157678380Y30027619D01*
X157630761Y29884761D01*
X157535523Y29789523D01*
X157440285Y29741904D01*
X157249809Y29694285D01*
X157106952Y29694285D01*
X156916476Y29741904D01*
X156821238Y29789523D01*
X156726000Y29884761D01*
X156678380Y30027619D01*
X156678380Y30122857D01*
X156726000Y30265714D01*
X156773619Y30313333D01*
X157011714Y31170476D02*
X157678380Y31170476D01*
X156630761Y30932380D02*
X157345047Y30694285D01*
X157345047Y31313333D01*
X160377142Y30186333D02*
X160424761Y30138714D01*
X160472380Y29995857D01*
X160472380Y29900619D01*
X160424761Y29757761D01*
X160329523Y29662523D01*
X160234285Y29614904D01*
X160043809Y29567285D01*
X159900952Y29567285D01*
X159710476Y29614904D01*
X159615238Y29662523D01*
X159520000Y29757761D01*
X159472380Y29900619D01*
X159472380Y29995857D01*
X159520000Y30138714D01*
X159567619Y30186333D01*
X159472380Y31091095D02*
X159472380Y30614904D01*
X159948571Y30567285D01*
X159900952Y30614904D01*
X159853333Y30710142D01*
X159853333Y30948238D01*
X159900952Y31043476D01*
X159948571Y31091095D01*
X160043809Y31138714D01*
X160281904Y31138714D01*
X160377142Y31091095D01*
X160424761Y31043476D01*
X160472380Y30948238D01*
X160472380Y30710142D01*
X160424761Y30614904D01*
X160377142Y30567285D01*
X156668742Y43323173D02*
X156716361Y43275554D01*
X156763980Y43132697D01*
X156763980Y43037459D01*
X156716361Y42894601D01*
X156621123Y42799363D01*
X156525885Y42751744D01*
X156335409Y42704125D01*
X156192552Y42704125D01*
X156002076Y42751744D01*
X155906838Y42799363D01*
X155811600Y42894601D01*
X155763980Y43037459D01*
X155763980Y43132697D01*
X155811600Y43275554D01*
X155859219Y43323173D01*
X155763980Y44180316D02*
X155763980Y43989840D01*
X155811600Y43894601D01*
X155859219Y43846982D01*
X156002076Y43751744D01*
X156192552Y43704125D01*
X156573504Y43704125D01*
X156668742Y43751744D01*
X156716361Y43799363D01*
X156763980Y43894601D01*
X156763980Y44085078D01*
X156716361Y44180316D01*
X156668742Y44227935D01*
X156573504Y44275554D01*
X156335409Y44275554D01*
X156240171Y44227935D01*
X156192552Y44180316D01*
X156144933Y44085078D01*
X156144933Y43894601D01*
X156192552Y43799363D01*
X156240171Y43751744D01*
X156335409Y43704125D01*
X158896322Y43422273D02*
X158943941Y43374654D01*
X158991560Y43231797D01*
X158991560Y43136559D01*
X158943941Y42993701D01*
X158848703Y42898463D01*
X158753465Y42850844D01*
X158562989Y42803225D01*
X158420132Y42803225D01*
X158229656Y42850844D01*
X158134418Y42898463D01*
X158039180Y42993701D01*
X157991560Y43136559D01*
X157991560Y43231797D01*
X158039180Y43374654D01*
X158086799Y43422273D01*
X157991560Y43755606D02*
X157991560Y44422273D01*
X158991560Y43993701D01*
X169676380Y17319666D02*
X170390666Y17319666D01*
X170533523Y17272047D01*
X170628761Y17176809D01*
X170676380Y17033952D01*
X170676380Y16938714D01*
X170676380Y17843476D02*
X170676380Y18033952D01*
X170628761Y18129190D01*
X170581142Y18176809D01*
X170438285Y18272047D01*
X170247809Y18319666D01*
X169866857Y18319666D01*
X169771619Y18272047D01*
X169724000Y18224428D01*
X169676380Y18129190D01*
X169676380Y17938714D01*
X169724000Y17843476D01*
X169771619Y17795857D01*
X169866857Y17748238D01*
X170104952Y17748238D01*
X170200190Y17795857D01*
X170247809Y17843476D01*
X170295428Y17938714D01*
X170295428Y18129190D01*
X170247809Y18224428D01*
X170200190Y18272047D01*
X170104952Y18319666D01*
X187753666Y57018619D02*
X187753666Y56304333D01*
X187706047Y56161476D01*
X187610809Y56066238D01*
X187467952Y56018619D01*
X187372714Y56018619D01*
X188658428Y57018619D02*
X188467952Y57018619D01*
X188372714Y56971000D01*
X188325095Y56923380D01*
X188229857Y56780523D01*
X188182238Y56590047D01*
X188182238Y56209095D01*
X188229857Y56113857D01*
X188277476Y56066238D01*
X188372714Y56018619D01*
X188563190Y56018619D01*
X188658428Y56066238D01*
X188706047Y56113857D01*
X188753666Y56209095D01*
X188753666Y56447190D01*
X188706047Y56542428D01*
X188658428Y56590047D01*
X188563190Y56637666D01*
X188372714Y56637666D01*
X188277476Y56590047D01*
X188229857Y56542428D01*
X188182238Y56447190D01*
D11*
X144544399Y55610499D02*
X144544399Y56610499D01*
X144925351Y56610499D01*
X145020589Y56562880D01*
X145068208Y56515260D01*
X145115827Y56420022D01*
X145115827Y56277165D01*
X145068208Y56181927D01*
X145020589Y56134308D01*
X144925351Y56086689D01*
X144544399Y56086689D01*
X145687256Y55610499D02*
X145592018Y55658118D01*
X145544399Y55705737D01*
X145496780Y55800975D01*
X145496780Y56086689D01*
X145544399Y56181927D01*
X145592018Y56229546D01*
X145687256Y56277165D01*
X145830113Y56277165D01*
X145925351Y56229546D01*
X145972970Y56181927D01*
X146020589Y56086689D01*
X146020589Y55800975D01*
X145972970Y55705737D01*
X145925351Y55658118D01*
X145830113Y55610499D01*
X145687256Y55610499D01*
X146353922Y56277165D02*
X146544399Y55610499D01*
X146734875Y56086689D01*
X146925351Y55610499D01*
X147115827Y56277165D01*
X147877732Y55658118D02*
X147782494Y55610499D01*
X147592018Y55610499D01*
X147496780Y55658118D01*
X147449160Y55753356D01*
X147449160Y56134308D01*
X147496780Y56229546D01*
X147592018Y56277165D01*
X147782494Y56277165D01*
X147877732Y56229546D01*
X147925351Y56134308D01*
X147925351Y56039070D01*
X147449160Y55943832D01*
X148353922Y55610499D02*
X148353922Y56277165D01*
X148353922Y56086689D02*
X148401541Y56181927D01*
X148449160Y56229546D01*
X148544399Y56277165D01*
X148639637Y56277165D01*
X148972970Y55991451D02*
X149734875Y55991451D01*
X150211065Y55610499D02*
X150211065Y56277165D01*
X150211065Y56610499D02*
X150163446Y56562880D01*
X150211065Y56515260D01*
X150258684Y56562880D01*
X150211065Y56610499D01*
X150211065Y56515260D01*
X150687256Y56277165D02*
X150687256Y55610499D01*
X150687256Y56181927D02*
X150734875Y56229546D01*
X150830113Y56277165D01*
X150972970Y56277165D01*
X151068208Y56229546D01*
X151115827Y56134308D01*
X151115827Y55610499D01*
X151592018Y56277165D02*
X151592018Y55277165D01*
X151592018Y56229546D02*
X151687256Y56277165D01*
X151877732Y56277165D01*
X151972970Y56229546D01*
X152020589Y56181927D01*
X152068208Y56086689D01*
X152068208Y55800975D01*
X152020589Y55705737D01*
X151972970Y55658118D01*
X151877732Y55610499D01*
X151687256Y55610499D01*
X151592018Y55658118D01*
X152925351Y56277165D02*
X152925351Y55610499D01*
X152496780Y56277165D02*
X152496780Y55753356D01*
X152544399Y55658118D01*
X152639637Y55610499D01*
X152782494Y55610499D01*
X152877732Y55658118D01*
X152925351Y55705737D01*
X153258684Y56277165D02*
X153639637Y56277165D01*
X153401541Y56610499D02*
X153401541Y55753356D01*
X153449160Y55658118D01*
X153544399Y55610499D01*
X153639637Y55610499D01*
X154496780Y55610499D02*
X153925351Y55610499D01*
X154211065Y55610499D02*
X154211065Y56610499D01*
X154115827Y56467641D01*
X154020589Y56372403D01*
X153925351Y56324784D01*
D10*
X160683913Y63974719D02*
X160350580Y64450909D01*
X160112484Y63974719D02*
X160112484Y64974719D01*
X160493437Y64974719D01*
X160588675Y64927100D01*
X160636294Y64879480D01*
X160683913Y64784242D01*
X160683913Y64641385D01*
X160636294Y64546147D01*
X160588675Y64498528D01*
X160493437Y64450909D01*
X160112484Y64450909D01*
X161017246Y64974719D02*
X161636294Y64974719D01*
X161302960Y64593766D01*
X161445818Y64593766D01*
X161541056Y64546147D01*
X161588675Y64498528D01*
X161636294Y64403290D01*
X161636294Y64165195D01*
X161588675Y64069957D01*
X161541056Y64022338D01*
X161445818Y63974719D01*
X161160103Y63974719D01*
X161064865Y64022338D01*
X161017246Y64069957D01*
X160821073Y66326759D02*
X160487740Y66802949D01*
X160249644Y66326759D02*
X160249644Y67326759D01*
X160630597Y67326759D01*
X160725835Y67279140D01*
X160773454Y67231520D01*
X160821073Y67136282D01*
X160821073Y66993425D01*
X160773454Y66898187D01*
X160725835Y66850568D01*
X160630597Y66802949D01*
X160249644Y66802949D01*
X161678216Y66993425D02*
X161678216Y66326759D01*
X161440120Y67374378D02*
X161202025Y66660092D01*
X161821073Y66660092D01*
X161402020Y43483233D02*
X160925830Y43149900D01*
X161402020Y42911804D02*
X160402020Y42911804D01*
X160402020Y43292757D01*
X160449640Y43387995D01*
X160497259Y43435614D01*
X160592497Y43483233D01*
X160735354Y43483233D01*
X160830592Y43435614D01*
X160878211Y43387995D01*
X160925830Y43292757D01*
X160925830Y42911804D01*
X160402020Y44340376D02*
X160402020Y44149900D01*
X160449640Y44054661D01*
X160497259Y44007042D01*
X160640116Y43911804D01*
X160830592Y43864185D01*
X161211544Y43864185D01*
X161306782Y43911804D01*
X161354401Y43959423D01*
X161402020Y44054661D01*
X161402020Y44245138D01*
X161354401Y44340376D01*
X161306782Y44387995D01*
X161211544Y44435614D01*
X160973449Y44435614D01*
X160878211Y44387995D01*
X160830592Y44340376D01*
X160782973Y44245138D01*
X160782973Y44054661D01*
X160830592Y43959423D01*
X160878211Y43911804D01*
X160973449Y43864185D01*
X161221000Y13629833D02*
X160987666Y13963166D01*
X160821000Y13629833D02*
X160821000Y14329833D01*
X161087666Y14329833D01*
X161154333Y14296500D01*
X161187666Y14263166D01*
X161221000Y14196500D01*
X161221000Y14096500D01*
X161187666Y14029833D01*
X161154333Y13996500D01*
X161087666Y13963166D01*
X160821000Y13963166D01*
X161887666Y13629833D02*
X161487666Y13629833D01*
X161687666Y13629833D02*
X161687666Y14329833D01*
X161621000Y14229833D01*
X161554333Y14163166D01*
X161487666Y14129833D01*
X162487666Y14096500D02*
X162487666Y13629833D01*
X162321000Y14363166D02*
X162154333Y13863166D01*
X162587666Y13863166D01*
X160716933Y59517019D02*
X160383600Y59993209D01*
X160145504Y59517019D02*
X160145504Y60517019D01*
X160526457Y60517019D01*
X160621695Y60469400D01*
X160669314Y60421780D01*
X160716933Y60326542D01*
X160716933Y60183685D01*
X160669314Y60088447D01*
X160621695Y60040828D01*
X160526457Y59993209D01*
X160145504Y59993209D01*
X161288361Y60088447D02*
X161193123Y60136066D01*
X161145504Y60183685D01*
X161097885Y60278923D01*
X161097885Y60326542D01*
X161145504Y60421780D01*
X161193123Y60469400D01*
X161288361Y60517019D01*
X161478838Y60517019D01*
X161574076Y60469400D01*
X161621695Y60421780D01*
X161669314Y60326542D01*
X161669314Y60278923D01*
X161621695Y60183685D01*
X161574076Y60136066D01*
X161478838Y60088447D01*
X161288361Y60088447D01*
X161193123Y60040828D01*
X161145504Y59993209D01*
X161097885Y59897971D01*
X161097885Y59707495D01*
X161145504Y59612257D01*
X161193123Y59564638D01*
X161288361Y59517019D01*
X161478838Y59517019D01*
X161574076Y59564638D01*
X161621695Y59612257D01*
X161669314Y59707495D01*
X161669314Y59897971D01*
X161621695Y59993209D01*
X161574076Y60040828D01*
X161478838Y60088447D01*
X160596342Y61726819D02*
X160263009Y62203009D01*
X160024914Y61726819D02*
X160024914Y62726819D01*
X160405866Y62726819D01*
X160501104Y62679200D01*
X160548723Y62631580D01*
X160596342Y62536342D01*
X160596342Y62393485D01*
X160548723Y62298247D01*
X160501104Y62250628D01*
X160405866Y62203009D01*
X160024914Y62203009D01*
X161548723Y61726819D02*
X160977295Y61726819D01*
X161263009Y61726819D02*
X161263009Y62726819D01*
X161167771Y62583961D01*
X161072533Y62488723D01*
X160977295Y62441104D01*
X162167771Y62726819D02*
X162263009Y62726819D01*
X162358247Y62679200D01*
X162405866Y62631580D01*
X162453485Y62536342D01*
X162501104Y62345866D01*
X162501104Y62107771D01*
X162453485Y61917295D01*
X162405866Y61822057D01*
X162358247Y61774438D01*
X162263009Y61726819D01*
X162167771Y61726819D01*
X162072533Y61774438D01*
X162024914Y61822057D01*
X161977295Y61917295D01*
X161929676Y62107771D01*
X161929676Y62345866D01*
X161977295Y62536342D01*
X162024914Y62631580D01*
X162072533Y62679200D01*
X162167771Y62726819D01*
X161736361Y52311466D02*
X161783980Y52454323D01*
X161783980Y52692419D01*
X161736361Y52787657D01*
X161688742Y52835276D01*
X161593504Y52882895D01*
X161498266Y52882895D01*
X161403028Y52835276D01*
X161355409Y52787657D01*
X161307790Y52692419D01*
X161260171Y52501942D01*
X161212552Y52406704D01*
X161164933Y52359085D01*
X161069695Y52311466D01*
X160974457Y52311466D01*
X160879219Y52359085D01*
X160831600Y52406704D01*
X160783980Y52501942D01*
X160783980Y52740038D01*
X160831600Y52882895D01*
X160783980Y53216228D02*
X161783980Y53454323D01*
X161069695Y53644800D01*
X161783980Y53835276D01*
X160783980Y54073371D01*
X161783980Y54978133D02*
X161783980Y54406704D01*
X161783980Y54692419D02*
X160783980Y54692419D01*
X160926838Y54597180D01*
X161022076Y54501942D01*
X161069695Y54406704D01*
X149528280Y49946655D02*
X150337804Y49946655D01*
X150433042Y49994274D01*
X150480661Y50041893D01*
X150528280Y50137131D01*
X150528280Y50327607D01*
X150480661Y50422845D01*
X150433042Y50470464D01*
X150337804Y50518083D01*
X149528280Y50518083D01*
X150528280Y51518083D02*
X150528280Y50946655D01*
X150528280Y51232369D02*
X149528280Y51232369D01*
X149671138Y51137131D01*
X149766376Y51041893D01*
X149813995Y50946655D01*
%LPC*%
D18*
X164405000Y62682000D03*
X164405000Y60682000D03*
X164405000Y58682000D03*
X164405000Y56682000D03*
X164405000Y54682000D03*
X164405000Y52682000D03*
X164405000Y50682000D03*
X164405000Y48682000D03*
D19*
X167005000Y47182000D03*
X169005000Y47182000D03*
X171005000Y47182000D03*
X173005000Y47182000D03*
X175005000Y47182000D03*
X177005000Y47182000D03*
D18*
X179605000Y48682000D03*
X179605000Y50682000D03*
X179605000Y52682000D03*
X179605000Y54682000D03*
X179605000Y56682000D03*
X179605000Y58682000D03*
X179605000Y60682000D03*
X179605000Y62682000D03*
D20*
X168593000Y41133000D03*
X169393000Y41133000D03*
X170193000Y41133000D03*
X170993000Y41133000D03*
X171793000Y41133000D03*
X172593000Y41133000D03*
X173393000Y41133000D03*
X174193000Y41133000D03*
X174993000Y41133000D03*
X175793000Y41133000D03*
X176593000Y41133000D03*
D21*
X178293000Y39433000D03*
X178293000Y38633000D03*
X178293000Y37833000D03*
X178293000Y37033000D03*
X178293000Y36233000D03*
X178293000Y35433000D03*
X178293000Y34633000D03*
X178293000Y33833000D03*
X178293000Y33033000D03*
X178293000Y32233000D03*
X178293000Y31433000D03*
D20*
X176593000Y29733000D03*
X175793000Y29733000D03*
X174993000Y29733000D03*
X174193000Y29733000D03*
X173393000Y29733000D03*
X172593000Y29733000D03*
X171793000Y29733000D03*
X170993000Y29733000D03*
X170193000Y29733000D03*
X169393000Y29733000D03*
X168593000Y29733000D03*
D21*
X166893000Y31433000D03*
X166893000Y32233000D03*
X166893000Y33033000D03*
X166893000Y33833000D03*
X166893000Y34633000D03*
X166893000Y35433000D03*
X166893000Y36233000D03*
X166893000Y37033000D03*
X166893000Y37833000D03*
X166893000Y38633000D03*
X166893000Y39433000D03*
D22*
X189240640Y66012060D03*
D23*
G36*
X187940640Y65262662D02*
G01*
X187916106Y65262662D01*
X187867275Y65267472D01*
X187819150Y65277044D01*
X187772195Y65291288D01*
X187726862Y65310065D01*
X187683589Y65333196D01*
X187642790Y65360456D01*
X187604861Y65391584D01*
X187570164Y65426281D01*
X187539036Y65464210D01*
X187511776Y65505009D01*
X187488645Y65548282D01*
X187469868Y65593615D01*
X187455624Y65640570D01*
X187446052Y65688695D01*
X187441242Y65737526D01*
X187441242Y65762060D01*
X187440640Y65762060D01*
X187440640Y66262060D01*
X187441242Y66262060D01*
X187441242Y66286594D01*
X187446052Y66335425D01*
X187455624Y66383550D01*
X187469868Y66430505D01*
X187488645Y66475838D01*
X187511776Y66519111D01*
X187539036Y66559910D01*
X187570164Y66597839D01*
X187604861Y66632536D01*
X187642790Y66663664D01*
X187683589Y66690924D01*
X187726862Y66714055D01*
X187772195Y66732832D01*
X187819150Y66747076D01*
X187867275Y66756648D01*
X187916106Y66761458D01*
X187940640Y66761458D01*
X187940640Y66762060D01*
X188490640Y66762060D01*
X188490640Y65262060D01*
X187940640Y65262060D01*
X187940640Y65262662D01*
G37*
G36*
X189990640Y66762060D02*
G01*
X190540640Y66762060D01*
X190540640Y66761458D01*
X190565174Y66761458D01*
X190614005Y66756648D01*
X190662130Y66747076D01*
X190709085Y66732832D01*
X190754418Y66714055D01*
X190797691Y66690924D01*
X190838490Y66663664D01*
X190876419Y66632536D01*
X190911116Y66597839D01*
X190942244Y66559910D01*
X190969504Y66519111D01*
X190992635Y66475838D01*
X191011412Y66430505D01*
X191025656Y66383550D01*
X191035228Y66335425D01*
X191040038Y66286594D01*
X191040038Y66262060D01*
X191040640Y66262060D01*
X191040640Y65762060D01*
X191040038Y65762060D01*
X191040038Y65737526D01*
X191035228Y65688695D01*
X191025656Y65640570D01*
X191011412Y65593615D01*
X190992635Y65548282D01*
X190969504Y65505009D01*
X190942244Y65464210D01*
X190911116Y65426281D01*
X190876419Y65391584D01*
X190838490Y65360456D01*
X190797691Y65333196D01*
X190754418Y65310065D01*
X190709085Y65291288D01*
X190662130Y65277044D01*
X190614005Y65267472D01*
X190565174Y65262662D01*
X190540640Y65262662D01*
X190540640Y65262060D01*
X189990640Y65262060D01*
X189990640Y66762060D01*
G37*
D24*
X144264380Y53733700D03*
D25*
X144264380Y51193700D03*
X144264380Y48653700D03*
X144264380Y46113700D03*
D26*
X164208000Y-13589000D03*
D27*
X164208000Y-5969000D03*
X164208000Y4191000D03*
X164208000Y6731000D03*
D28*
X144780000Y-26797000D03*
D29*
X148590000Y-26797000D03*
D30*
X145034000Y21583000D03*
X145034000Y24083000D03*
X145034000Y26583000D03*
G36*
G01*
X144309000Y29933000D02*
X145759000Y29933000D01*
G75*
G02*
X146009000Y29683000I0J-250000D01*
G01*
X146009000Y28483000D01*
G75*
G02*
X145759000Y28233000I-250000J0D01*
G01*
X144309000Y28233000D01*
G75*
G02*
X144059000Y28483000I0J250000D01*
G01*
X144059000Y29683000D01*
G75*
G02*
X144309000Y29933000I250000J0D01*
G01*
G37*
D31*
X143913860Y40845880D03*
X148413860Y40845880D03*
X143913860Y34345880D03*
X148413860Y34345880D03*
D30*
X145034000Y-19038000D03*
X145034000Y-16538000D03*
X145034000Y-14038000D03*
X145034000Y-11538000D03*
X145034000Y-9038000D03*
X145034000Y-6538000D03*
X145034000Y-4038000D03*
X145034000Y-1538000D03*
X145034000Y962000D03*
X145034000Y3462000D03*
X145034000Y5962000D03*
X145034000Y8462000D03*
X145034000Y10962000D03*
G36*
G01*
X144309000Y14312000D02*
X145759000Y14312000D01*
G75*
G02*
X146009000Y14062000I0J-250000D01*
G01*
X146009000Y12862000D01*
G75*
G02*
X145759000Y12612000I-250000J0D01*
G01*
X144309000Y12612000D01*
G75*
G02*
X144059000Y12862000I0J250000D01*
G01*
X144059000Y14062000D01*
G75*
G02*
X144309000Y14312000I250000J0D01*
G01*
G37*
D32*
X159566000Y39497000D03*
X154686000Y39497000D03*
G36*
G01*
X189660000Y53825000D02*
X189660000Y54125000D01*
G75*
G02*
X189810000Y54275000I150000J0D01*
G01*
X191260000Y54275000D01*
G75*
G02*
X191410000Y54125000I0J-150000D01*
G01*
X191410000Y53825000D01*
G75*
G02*
X191260000Y53675000I-150000J0D01*
G01*
X189810000Y53675000D01*
G75*
G02*
X189660000Y53825000I0J150000D01*
G01*
G37*
G36*
G01*
X189660000Y52555000D02*
X189660000Y52855000D01*
G75*
G02*
X189810000Y53005000I150000J0D01*
G01*
X191260000Y53005000D01*
G75*
G02*
X191410000Y52855000I0J-150000D01*
G01*
X191410000Y52555000D01*
G75*
G02*
X191260000Y52405000I-150000J0D01*
G01*
X189810000Y52405000D01*
G75*
G02*
X189660000Y52555000I0J150000D01*
G01*
G37*
G36*
G01*
X189660000Y51285000D02*
X189660000Y51585000D01*
G75*
G02*
X189810000Y51735000I150000J0D01*
G01*
X191260000Y51735000D01*
G75*
G02*
X191410000Y51585000I0J-150000D01*
G01*
X191410000Y51285000D01*
G75*
G02*
X191260000Y51135000I-150000J0D01*
G01*
X189810000Y51135000D01*
G75*
G02*
X189660000Y51285000I0J150000D01*
G01*
G37*
G36*
G01*
X189660000Y50015000D02*
X189660000Y50315000D01*
G75*
G02*
X189810000Y50465000I150000J0D01*
G01*
X191260000Y50465000D01*
G75*
G02*
X191410000Y50315000I0J-150000D01*
G01*
X191410000Y50015000D01*
G75*
G02*
X191260000Y49865000I-150000J0D01*
G01*
X189810000Y49865000D01*
G75*
G02*
X189660000Y50015000I0J150000D01*
G01*
G37*
G36*
G01*
X189660000Y48745000D02*
X189660000Y49045000D01*
G75*
G02*
X189810000Y49195000I150000J0D01*
G01*
X191260000Y49195000D01*
G75*
G02*
X191410000Y49045000I0J-150000D01*
G01*
X191410000Y48745000D01*
G75*
G02*
X191260000Y48595000I-150000J0D01*
G01*
X189810000Y48595000D01*
G75*
G02*
X189660000Y48745000I0J150000D01*
G01*
G37*
G36*
G01*
X189660000Y47475000D02*
X189660000Y47775000D01*
G75*
G02*
X189810000Y47925000I150000J0D01*
G01*
X191260000Y47925000D01*
G75*
G02*
X191410000Y47775000I0J-150000D01*
G01*
X191410000Y47475000D01*
G75*
G02*
X191260000Y47325000I-150000J0D01*
G01*
X189810000Y47325000D01*
G75*
G02*
X189660000Y47475000I0J150000D01*
G01*
G37*
G36*
G01*
X189660000Y46205000D02*
X189660000Y46505000D01*
G75*
G02*
X189810000Y46655000I150000J0D01*
G01*
X191260000Y46655000D01*
G75*
G02*
X191410000Y46505000I0J-150000D01*
G01*
X191410000Y46205000D01*
G75*
G02*
X191260000Y46055000I-150000J0D01*
G01*
X189810000Y46055000D01*
G75*
G02*
X189660000Y46205000I0J150000D01*
G01*
G37*
G36*
G01*
X189660000Y44935000D02*
X189660000Y45235000D01*
G75*
G02*
X189810000Y45385000I150000J0D01*
G01*
X191260000Y45385000D01*
G75*
G02*
X191410000Y45235000I0J-150000D01*
G01*
X191410000Y44935000D01*
G75*
G02*
X191260000Y44785000I-150000J0D01*
G01*
X189810000Y44785000D01*
G75*
G02*
X189660000Y44935000I0J150000D01*
G01*
G37*
G36*
G01*
X184510000Y44935000D02*
X184510000Y45235000D01*
G75*
G02*
X184660000Y45385000I150000J0D01*
G01*
X186110000Y45385000D01*
G75*
G02*
X186260000Y45235000I0J-150000D01*
G01*
X186260000Y44935000D01*
G75*
G02*
X186110000Y44785000I-150000J0D01*
G01*
X184660000Y44785000D01*
G75*
G02*
X184510000Y44935000I0J150000D01*
G01*
G37*
G36*
G01*
X184510000Y46205000D02*
X184510000Y46505000D01*
G75*
G02*
X184660000Y46655000I150000J0D01*
G01*
X186110000Y46655000D01*
G75*
G02*
X186260000Y46505000I0J-150000D01*
G01*
X186260000Y46205000D01*
G75*
G02*
X186110000Y46055000I-150000J0D01*
G01*
X184660000Y46055000D01*
G75*
G02*
X184510000Y46205000I0J150000D01*
G01*
G37*
G36*
G01*
X184510000Y47475000D02*
X184510000Y47775000D01*
G75*
G02*
X184660000Y47925000I150000J0D01*
G01*
X186110000Y47925000D01*
G75*
G02*
X186260000Y47775000I0J-150000D01*
G01*
X186260000Y47475000D01*
G75*
G02*
X186110000Y47325000I-150000J0D01*
G01*
X184660000Y47325000D01*
G75*
G02*
X184510000Y47475000I0J150000D01*
G01*
G37*
G36*
G01*
X184510000Y48745000D02*
X184510000Y49045000D01*
G75*
G02*
X184660000Y49195000I150000J0D01*
G01*
X186110000Y49195000D01*
G75*
G02*
X186260000Y49045000I0J-150000D01*
G01*
X186260000Y48745000D01*
G75*
G02*
X186110000Y48595000I-150000J0D01*
G01*
X184660000Y48595000D01*
G75*
G02*
X184510000Y48745000I0J150000D01*
G01*
G37*
G36*
G01*
X184510000Y50015000D02*
X184510000Y50315000D01*
G75*
G02*
X184660000Y50465000I150000J0D01*
G01*
X186110000Y50465000D01*
G75*
G02*
X186260000Y50315000I0J-150000D01*
G01*
X186260000Y50015000D01*
G75*
G02*
X186110000Y49865000I-150000J0D01*
G01*
X184660000Y49865000D01*
G75*
G02*
X184510000Y50015000I0J150000D01*
G01*
G37*
G36*
G01*
X184510000Y51285000D02*
X184510000Y51585000D01*
G75*
G02*
X184660000Y51735000I150000J0D01*
G01*
X186110000Y51735000D01*
G75*
G02*
X186260000Y51585000I0J-150000D01*
G01*
X186260000Y51285000D01*
G75*
G02*
X186110000Y51135000I-150000J0D01*
G01*
X184660000Y51135000D01*
G75*
G02*
X184510000Y51285000I0J150000D01*
G01*
G37*
G36*
G01*
X184510000Y52555000D02*
X184510000Y52855000D01*
G75*
G02*
X184660000Y53005000I150000J0D01*
G01*
X186110000Y53005000D01*
G75*
G02*
X186260000Y52855000I0J-150000D01*
G01*
X186260000Y52555000D01*
G75*
G02*
X186110000Y52405000I-150000J0D01*
G01*
X184660000Y52405000D01*
G75*
G02*
X184510000Y52555000I0J150000D01*
G01*
G37*
G36*
G01*
X184510000Y53825000D02*
X184510000Y54125000D01*
G75*
G02*
X184660000Y54275000I150000J0D01*
G01*
X186110000Y54275000D01*
G75*
G02*
X186260000Y54125000I0J-150000D01*
G01*
X186260000Y53825000D01*
G75*
G02*
X186110000Y53675000I-150000J0D01*
G01*
X184660000Y53675000D01*
G75*
G02*
X184510000Y53825000I0J150000D01*
G01*
G37*
G36*
G01*
X189660000Y30965000D02*
X189660000Y31265000D01*
G75*
G02*
X189810000Y31415000I150000J0D01*
G01*
X191260000Y31415000D01*
G75*
G02*
X191410000Y31265000I0J-150000D01*
G01*
X191410000Y30965000D01*
G75*
G02*
X191260000Y30815000I-150000J0D01*
G01*
X189810000Y30815000D01*
G75*
G02*
X189660000Y30965000I0J150000D01*
G01*
G37*
G36*
G01*
X189660000Y29695000D02*
X189660000Y29995000D01*
G75*
G02*
X189810000Y30145000I150000J0D01*
G01*
X191260000Y30145000D01*
G75*
G02*
X191410000Y29995000I0J-150000D01*
G01*
X191410000Y29695000D01*
G75*
G02*
X191260000Y29545000I-150000J0D01*
G01*
X189810000Y29545000D01*
G75*
G02*
X189660000Y29695000I0J150000D01*
G01*
G37*
G36*
G01*
X189660000Y28425000D02*
X189660000Y28725000D01*
G75*
G02*
X189810000Y28875000I150000J0D01*
G01*
X191260000Y28875000D01*
G75*
G02*
X191410000Y28725000I0J-150000D01*
G01*
X191410000Y28425000D01*
G75*
G02*
X191260000Y28275000I-150000J0D01*
G01*
X189810000Y28275000D01*
G75*
G02*
X189660000Y28425000I0J150000D01*
G01*
G37*
G36*
G01*
X189660000Y27155000D02*
X189660000Y27455000D01*
G75*
G02*
X189810000Y27605000I150000J0D01*
G01*
X191260000Y27605000D01*
G75*
G02*
X191410000Y27455000I0J-150000D01*
G01*
X191410000Y27155000D01*
G75*
G02*
X191260000Y27005000I-150000J0D01*
G01*
X189810000Y27005000D01*
G75*
G02*
X189660000Y27155000I0J150000D01*
G01*
G37*
G36*
G01*
X189660000Y25885000D02*
X189660000Y26185000D01*
G75*
G02*
X189810000Y26335000I150000J0D01*
G01*
X191260000Y26335000D01*
G75*
G02*
X191410000Y26185000I0J-150000D01*
G01*
X191410000Y25885000D01*
G75*
G02*
X191260000Y25735000I-150000J0D01*
G01*
X189810000Y25735000D01*
G75*
G02*
X189660000Y25885000I0J150000D01*
G01*
G37*
G36*
G01*
X189660000Y24615000D02*
X189660000Y24915000D01*
G75*
G02*
X189810000Y25065000I150000J0D01*
G01*
X191260000Y25065000D01*
G75*
G02*
X191410000Y24915000I0J-150000D01*
G01*
X191410000Y24615000D01*
G75*
G02*
X191260000Y24465000I-150000J0D01*
G01*
X189810000Y24465000D01*
G75*
G02*
X189660000Y24615000I0J150000D01*
G01*
G37*
G36*
G01*
X189660000Y23345000D02*
X189660000Y23645000D01*
G75*
G02*
X189810000Y23795000I150000J0D01*
G01*
X191260000Y23795000D01*
G75*
G02*
X191410000Y23645000I0J-150000D01*
G01*
X191410000Y23345000D01*
G75*
G02*
X191260000Y23195000I-150000J0D01*
G01*
X189810000Y23195000D01*
G75*
G02*
X189660000Y23345000I0J150000D01*
G01*
G37*
G36*
G01*
X189660000Y22075000D02*
X189660000Y22375000D01*
G75*
G02*
X189810000Y22525000I150000J0D01*
G01*
X191260000Y22525000D01*
G75*
G02*
X191410000Y22375000I0J-150000D01*
G01*
X191410000Y22075000D01*
G75*
G02*
X191260000Y21925000I-150000J0D01*
G01*
X189810000Y21925000D01*
G75*
G02*
X189660000Y22075000I0J150000D01*
G01*
G37*
G36*
G01*
X184510000Y22075000D02*
X184510000Y22375000D01*
G75*
G02*
X184660000Y22525000I150000J0D01*
G01*
X186110000Y22525000D01*
G75*
G02*
X186260000Y22375000I0J-150000D01*
G01*
X186260000Y22075000D01*
G75*
G02*
X186110000Y21925000I-150000J0D01*
G01*
X184660000Y21925000D01*
G75*
G02*
X184510000Y22075000I0J150000D01*
G01*
G37*
G36*
G01*
X184510000Y23345000D02*
X184510000Y23645000D01*
G75*
G02*
X184660000Y23795000I150000J0D01*
G01*
X186110000Y23795000D01*
G75*
G02*
X186260000Y23645000I0J-150000D01*
G01*
X186260000Y23345000D01*
G75*
G02*
X186110000Y23195000I-150000J0D01*
G01*
X184660000Y23195000D01*
G75*
G02*
X184510000Y23345000I0J150000D01*
G01*
G37*
G36*
G01*
X184510000Y24615000D02*
X184510000Y24915000D01*
G75*
G02*
X184660000Y25065000I150000J0D01*
G01*
X186110000Y25065000D01*
G75*
G02*
X186260000Y24915000I0J-150000D01*
G01*
X186260000Y24615000D01*
G75*
G02*
X186110000Y24465000I-150000J0D01*
G01*
X184660000Y24465000D01*
G75*
G02*
X184510000Y24615000I0J150000D01*
G01*
G37*
G36*
G01*
X184510000Y25885000D02*
X184510000Y26185000D01*
G75*
G02*
X184660000Y26335000I150000J0D01*
G01*
X186110000Y26335000D01*
G75*
G02*
X186260000Y26185000I0J-150000D01*
G01*
X186260000Y25885000D01*
G75*
G02*
X186110000Y25735000I-150000J0D01*
G01*
X184660000Y25735000D01*
G75*
G02*
X184510000Y25885000I0J150000D01*
G01*
G37*
G36*
G01*
X184510000Y27155000D02*
X184510000Y27455000D01*
G75*
G02*
X184660000Y27605000I150000J0D01*
G01*
X186110000Y27605000D01*
G75*
G02*
X186260000Y27455000I0J-150000D01*
G01*
X186260000Y27155000D01*
G75*
G02*
X186110000Y27005000I-150000J0D01*
G01*
X184660000Y27005000D01*
G75*
G02*
X184510000Y27155000I0J150000D01*
G01*
G37*
G36*
G01*
X184510000Y28425000D02*
X184510000Y28725000D01*
G75*
G02*
X184660000Y28875000I150000J0D01*
G01*
X186110000Y28875000D01*
G75*
G02*
X186260000Y28725000I0J-150000D01*
G01*
X186260000Y28425000D01*
G75*
G02*
X186110000Y28275000I-150000J0D01*
G01*
X184660000Y28275000D01*
G75*
G02*
X184510000Y28425000I0J150000D01*
G01*
G37*
G36*
G01*
X184510000Y29695000D02*
X184510000Y29995000D01*
G75*
G02*
X184660000Y30145000I150000J0D01*
G01*
X186110000Y30145000D01*
G75*
G02*
X186260000Y29995000I0J-150000D01*
G01*
X186260000Y29695000D01*
G75*
G02*
X186110000Y29545000I-150000J0D01*
G01*
X184660000Y29545000D01*
G75*
G02*
X184510000Y29695000I0J150000D01*
G01*
G37*
G36*
G01*
X184510000Y30965000D02*
X184510000Y31265000D01*
G75*
G02*
X184660000Y31415000I150000J0D01*
G01*
X186110000Y31415000D01*
G75*
G02*
X186260000Y31265000I0J-150000D01*
G01*
X186260000Y30965000D01*
G75*
G02*
X186110000Y30815000I-150000J0D01*
G01*
X184660000Y30815000D01*
G75*
G02*
X184510000Y30965000I0J150000D01*
G01*
G37*
G36*
G01*
X189660000Y42395000D02*
X189660000Y42695000D01*
G75*
G02*
X189810000Y42845000I150000J0D01*
G01*
X191260000Y42845000D01*
G75*
G02*
X191410000Y42695000I0J-150000D01*
G01*
X191410000Y42395000D01*
G75*
G02*
X191260000Y42245000I-150000J0D01*
G01*
X189810000Y42245000D01*
G75*
G02*
X189660000Y42395000I0J150000D01*
G01*
G37*
G36*
G01*
X189660000Y41125000D02*
X189660000Y41425000D01*
G75*
G02*
X189810000Y41575000I150000J0D01*
G01*
X191260000Y41575000D01*
G75*
G02*
X191410000Y41425000I0J-150000D01*
G01*
X191410000Y41125000D01*
G75*
G02*
X191260000Y40975000I-150000J0D01*
G01*
X189810000Y40975000D01*
G75*
G02*
X189660000Y41125000I0J150000D01*
G01*
G37*
G36*
G01*
X189660000Y39855000D02*
X189660000Y40155000D01*
G75*
G02*
X189810000Y40305000I150000J0D01*
G01*
X191260000Y40305000D01*
G75*
G02*
X191410000Y40155000I0J-150000D01*
G01*
X191410000Y39855000D01*
G75*
G02*
X191260000Y39705000I-150000J0D01*
G01*
X189810000Y39705000D01*
G75*
G02*
X189660000Y39855000I0J150000D01*
G01*
G37*
G36*
G01*
X189660000Y38585000D02*
X189660000Y38885000D01*
G75*
G02*
X189810000Y39035000I150000J0D01*
G01*
X191260000Y39035000D01*
G75*
G02*
X191410000Y38885000I0J-150000D01*
G01*
X191410000Y38585000D01*
G75*
G02*
X191260000Y38435000I-150000J0D01*
G01*
X189810000Y38435000D01*
G75*
G02*
X189660000Y38585000I0J150000D01*
G01*
G37*
G36*
G01*
X189660000Y37315000D02*
X189660000Y37615000D01*
G75*
G02*
X189810000Y37765000I150000J0D01*
G01*
X191260000Y37765000D01*
G75*
G02*
X191410000Y37615000I0J-150000D01*
G01*
X191410000Y37315000D01*
G75*
G02*
X191260000Y37165000I-150000J0D01*
G01*
X189810000Y37165000D01*
G75*
G02*
X189660000Y37315000I0J150000D01*
G01*
G37*
G36*
G01*
X189660000Y36045000D02*
X189660000Y36345000D01*
G75*
G02*
X189810000Y36495000I150000J0D01*
G01*
X191260000Y36495000D01*
G75*
G02*
X191410000Y36345000I0J-150000D01*
G01*
X191410000Y36045000D01*
G75*
G02*
X191260000Y35895000I-150000J0D01*
G01*
X189810000Y35895000D01*
G75*
G02*
X189660000Y36045000I0J150000D01*
G01*
G37*
G36*
G01*
X189660000Y34775000D02*
X189660000Y35075000D01*
G75*
G02*
X189810000Y35225000I150000J0D01*
G01*
X191260000Y35225000D01*
G75*
G02*
X191410000Y35075000I0J-150000D01*
G01*
X191410000Y34775000D01*
G75*
G02*
X191260000Y34625000I-150000J0D01*
G01*
X189810000Y34625000D01*
G75*
G02*
X189660000Y34775000I0J150000D01*
G01*
G37*
G36*
G01*
X189660000Y33505000D02*
X189660000Y33805000D01*
G75*
G02*
X189810000Y33955000I150000J0D01*
G01*
X191260000Y33955000D01*
G75*
G02*
X191410000Y33805000I0J-150000D01*
G01*
X191410000Y33505000D01*
G75*
G02*
X191260000Y33355000I-150000J0D01*
G01*
X189810000Y33355000D01*
G75*
G02*
X189660000Y33505000I0J150000D01*
G01*
G37*
G36*
G01*
X184510000Y33505000D02*
X184510000Y33805000D01*
G75*
G02*
X184660000Y33955000I150000J0D01*
G01*
X186110000Y33955000D01*
G75*
G02*
X186260000Y33805000I0J-150000D01*
G01*
X186260000Y33505000D01*
G75*
G02*
X186110000Y33355000I-150000J0D01*
G01*
X184660000Y33355000D01*
G75*
G02*
X184510000Y33505000I0J150000D01*
G01*
G37*
G36*
G01*
X184510000Y34775000D02*
X184510000Y35075000D01*
G75*
G02*
X184660000Y35225000I150000J0D01*
G01*
X186110000Y35225000D01*
G75*
G02*
X186260000Y35075000I0J-150000D01*
G01*
X186260000Y34775000D01*
G75*
G02*
X186110000Y34625000I-150000J0D01*
G01*
X184660000Y34625000D01*
G75*
G02*
X184510000Y34775000I0J150000D01*
G01*
G37*
G36*
G01*
X184510000Y36045000D02*
X184510000Y36345000D01*
G75*
G02*
X184660000Y36495000I150000J0D01*
G01*
X186110000Y36495000D01*
G75*
G02*
X186260000Y36345000I0J-150000D01*
G01*
X186260000Y36045000D01*
G75*
G02*
X186110000Y35895000I-150000J0D01*
G01*
X184660000Y35895000D01*
G75*
G02*
X184510000Y36045000I0J150000D01*
G01*
G37*
G36*
G01*
X184510000Y37315000D02*
X184510000Y37615000D01*
G75*
G02*
X184660000Y37765000I150000J0D01*
G01*
X186110000Y37765000D01*
G75*
G02*
X186260000Y37615000I0J-150000D01*
G01*
X186260000Y37315000D01*
G75*
G02*
X186110000Y37165000I-150000J0D01*
G01*
X184660000Y37165000D01*
G75*
G02*
X184510000Y37315000I0J150000D01*
G01*
G37*
G36*
G01*
X184510000Y38585000D02*
X184510000Y38885000D01*
G75*
G02*
X184660000Y39035000I150000J0D01*
G01*
X186110000Y39035000D01*
G75*
G02*
X186260000Y38885000I0J-150000D01*
G01*
X186260000Y38585000D01*
G75*
G02*
X186110000Y38435000I-150000J0D01*
G01*
X184660000Y38435000D01*
G75*
G02*
X184510000Y38585000I0J150000D01*
G01*
G37*
G36*
G01*
X184510000Y39855000D02*
X184510000Y40155000D01*
G75*
G02*
X184660000Y40305000I150000J0D01*
G01*
X186110000Y40305000D01*
G75*
G02*
X186260000Y40155000I0J-150000D01*
G01*
X186260000Y39855000D01*
G75*
G02*
X186110000Y39705000I-150000J0D01*
G01*
X184660000Y39705000D01*
G75*
G02*
X184510000Y39855000I0J150000D01*
G01*
G37*
G36*
G01*
X184510000Y41125000D02*
X184510000Y41425000D01*
G75*
G02*
X184660000Y41575000I150000J0D01*
G01*
X186110000Y41575000D01*
G75*
G02*
X186260000Y41425000I0J-150000D01*
G01*
X186260000Y41125000D01*
G75*
G02*
X186110000Y40975000I-150000J0D01*
G01*
X184660000Y40975000D01*
G75*
G02*
X184510000Y41125000I0J150000D01*
G01*
G37*
G36*
G01*
X184510000Y42395000D02*
X184510000Y42695000D01*
G75*
G02*
X184660000Y42845000I150000J0D01*
G01*
X186110000Y42845000D01*
G75*
G02*
X186260000Y42695000I0J-150000D01*
G01*
X186260000Y42395000D01*
G75*
G02*
X186110000Y42245000I-150000J0D01*
G01*
X184660000Y42245000D01*
G75*
G02*
X184510000Y42395000I0J150000D01*
G01*
G37*
G36*
G01*
X174186001Y11830000D02*
X173285999Y11830000D01*
G75*
G02*
X173036000Y12079999I0J249999D01*
G01*
X173036000Y12605001D01*
G75*
G02*
X173285999Y12855000I249999J0D01*
G01*
X174186001Y12855000D01*
G75*
G02*
X174436000Y12605001I0J-249999D01*
G01*
X174436000Y12079999D01*
G75*
G02*
X174186001Y11830000I-249999J0D01*
G01*
G37*
G36*
G01*
X174186001Y10005000D02*
X173285999Y10005000D01*
G75*
G02*
X173036000Y10254999I0J249999D01*
G01*
X173036000Y10780001D01*
G75*
G02*
X173285999Y11030000I249999J0D01*
G01*
X174186001Y11030000D01*
G75*
G02*
X174436000Y10780001I0J-249999D01*
G01*
X174436000Y10254999D01*
G75*
G02*
X174186001Y10005000I-249999J0D01*
G01*
G37*
G36*
G01*
X167836001Y11830000D02*
X166935999Y11830000D01*
G75*
G02*
X166686000Y12079999I0J249999D01*
G01*
X166686000Y12605001D01*
G75*
G02*
X166935999Y12855000I249999J0D01*
G01*
X167836001Y12855000D01*
G75*
G02*
X168086000Y12605001I0J-249999D01*
G01*
X168086000Y12079999D01*
G75*
G02*
X167836001Y11830000I-249999J0D01*
G01*
G37*
G36*
G01*
X167836001Y10005000D02*
X166935999Y10005000D01*
G75*
G02*
X166686000Y10254999I0J249999D01*
G01*
X166686000Y10780001D01*
G75*
G02*
X166935999Y11030000I249999J0D01*
G01*
X167836001Y11030000D01*
G75*
G02*
X168086000Y10780001I0J-249999D01*
G01*
X168086000Y10254999D01*
G75*
G02*
X167836001Y10005000I-249999J0D01*
G01*
G37*
G36*
G01*
X186632001Y11830000D02*
X185731999Y11830000D01*
G75*
G02*
X185482000Y12079999I0J249999D01*
G01*
X185482000Y12605001D01*
G75*
G02*
X185731999Y12855000I249999J0D01*
G01*
X186632001Y12855000D01*
G75*
G02*
X186882000Y12605001I0J-249999D01*
G01*
X186882000Y12079999D01*
G75*
G02*
X186632001Y11830000I-249999J0D01*
G01*
G37*
G36*
G01*
X186632001Y10005000D02*
X185731999Y10005000D01*
G75*
G02*
X185482000Y10254999I0J249999D01*
G01*
X185482000Y10780001D01*
G75*
G02*
X185731999Y11030000I249999J0D01*
G01*
X186632001Y11030000D01*
G75*
G02*
X186882000Y10780001I0J-249999D01*
G01*
X186882000Y10254999D01*
G75*
G02*
X186632001Y10005000I-249999J0D01*
G01*
G37*
G36*
G01*
X180409001Y11830000D02*
X179508999Y11830000D01*
G75*
G02*
X179259000Y12079999I0J249999D01*
G01*
X179259000Y12605001D01*
G75*
G02*
X179508999Y12855000I249999J0D01*
G01*
X180409001Y12855000D01*
G75*
G02*
X180659000Y12605001I0J-249999D01*
G01*
X180659000Y12079999D01*
G75*
G02*
X180409001Y11830000I-249999J0D01*
G01*
G37*
G36*
G01*
X180409001Y10005000D02*
X179508999Y10005000D01*
G75*
G02*
X179259000Y10254999I0J249999D01*
G01*
X179259000Y10780001D01*
G75*
G02*
X179508999Y11030000I249999J0D01*
G01*
X180409001Y11030000D01*
G75*
G02*
X180659000Y10780001I0J-249999D01*
G01*
X180659000Y10254999D01*
G75*
G02*
X180409001Y10005000I-249999J0D01*
G01*
G37*
G36*
G01*
X197250000Y-7967581D02*
X197250000Y-7067579D01*
G75*
G02*
X197499999Y-6817580I249999J0D01*
G01*
X198025001Y-6817580D01*
G75*
G02*
X198275000Y-7067579I0J-249999D01*
G01*
X198275000Y-7967581D01*
G75*
G02*
X198025001Y-8217580I-249999J0D01*
G01*
X197499999Y-8217580D01*
G75*
G02*
X197250000Y-7967581I0J249999D01*
G01*
G37*
G36*
G01*
X195425000Y-7967581D02*
X195425000Y-7067579D01*
G75*
G02*
X195674999Y-6817580I249999J0D01*
G01*
X196200001Y-6817580D01*
G75*
G02*
X196450000Y-7067579I0J-249999D01*
G01*
X196450000Y-7967581D01*
G75*
G02*
X196200001Y-8217580I-249999J0D01*
G01*
X195674999Y-8217580D01*
G75*
G02*
X195425000Y-7967581I0J249999D01*
G01*
G37*
G36*
G01*
X191839001Y11830000D02*
X190938999Y11830000D01*
G75*
G02*
X190689000Y12079999I0J249999D01*
G01*
X190689000Y12605001D01*
G75*
G02*
X190938999Y12855000I249999J0D01*
G01*
X191839001Y12855000D01*
G75*
G02*
X192089000Y12605001I0J-249999D01*
G01*
X192089000Y12079999D01*
G75*
G02*
X191839001Y11830000I-249999J0D01*
G01*
G37*
G36*
G01*
X191839001Y10005000D02*
X190938999Y10005000D01*
G75*
G02*
X190689000Y10254999I0J249999D01*
G01*
X190689000Y10780001D01*
G75*
G02*
X190938999Y11030000I249999J0D01*
G01*
X191839001Y11030000D01*
G75*
G02*
X192089000Y10780001I0J-249999D01*
G01*
X192089000Y10254999D01*
G75*
G02*
X191839001Y10005000I-249999J0D01*
G01*
G37*
G36*
G01*
X197250000Y6616935D02*
X197250000Y7516937D01*
G75*
G02*
X197499999Y7766936I249999J0D01*
G01*
X198025001Y7766936D01*
G75*
G02*
X198275000Y7516937I0J-249999D01*
G01*
X198275000Y6616935D01*
G75*
G02*
X198025001Y6366936I-249999J0D01*
G01*
X197499999Y6366936D01*
G75*
G02*
X197250000Y6616935I0J249999D01*
G01*
G37*
G36*
G01*
X195425000Y6616935D02*
X195425000Y7516937D01*
G75*
G02*
X195674999Y7766936I249999J0D01*
G01*
X196200001Y7766936D01*
G75*
G02*
X196450000Y7516937I0J-249999D01*
G01*
X196450000Y6616935D01*
G75*
G02*
X196200001Y6366936I-249999J0D01*
G01*
X195674999Y6366936D01*
G75*
G02*
X195425000Y6616935I0J249999D01*
G01*
G37*
G36*
G01*
X197250000Y-675323D02*
X197250000Y224679D01*
G75*
G02*
X197499999Y474678I249999J0D01*
G01*
X198025001Y474678D01*
G75*
G02*
X198275000Y224679I0J-249999D01*
G01*
X198275000Y-675323D01*
G75*
G02*
X198025001Y-925322I-249999J0D01*
G01*
X197499999Y-925322D01*
G75*
G02*
X197250000Y-675323I0J249999D01*
G01*
G37*
G36*
G01*
X195425000Y-675323D02*
X195425000Y224679D01*
G75*
G02*
X195674999Y474678I249999J0D01*
G01*
X196200001Y474678D01*
G75*
G02*
X196450000Y224679I0J-249999D01*
G01*
X196450000Y-675323D01*
G75*
G02*
X196200001Y-925322I-249999J0D01*
G01*
X195674999Y-925322D01*
G75*
G02*
X195425000Y-675323I0J249999D01*
G01*
G37*
G36*
G01*
X197250000Y21201451D02*
X197250000Y22101453D01*
G75*
G02*
X197499999Y22351452I249999J0D01*
G01*
X198025001Y22351452D01*
G75*
G02*
X198275000Y22101453I0J-249999D01*
G01*
X198275000Y21201451D01*
G75*
G02*
X198025001Y20951452I-249999J0D01*
G01*
X197499999Y20951452D01*
G75*
G02*
X197250000Y21201451I0J249999D01*
G01*
G37*
G36*
G01*
X195425000Y21201451D02*
X195425000Y22101453D01*
G75*
G02*
X195674999Y22351452I249999J0D01*
G01*
X196200001Y22351452D01*
G75*
G02*
X196450000Y22101453I0J-249999D01*
G01*
X196450000Y21201451D01*
G75*
G02*
X196200001Y20951452I-249999J0D01*
G01*
X195674999Y20951452D01*
G75*
G02*
X195425000Y21201451I0J249999D01*
G01*
G37*
G36*
G01*
X197250000Y13909193D02*
X197250000Y14809195D01*
G75*
G02*
X197499999Y15059194I249999J0D01*
G01*
X198025001Y15059194D01*
G75*
G02*
X198275000Y14809195I0J-249999D01*
G01*
X198275000Y13909193D01*
G75*
G02*
X198025001Y13659194I-249999J0D01*
G01*
X197499999Y13659194D01*
G75*
G02*
X197250000Y13909193I0J249999D01*
G01*
G37*
G36*
G01*
X195425000Y13909193D02*
X195425000Y14809195D01*
G75*
G02*
X195674999Y15059194I249999J0D01*
G01*
X196200001Y15059194D01*
G75*
G02*
X196450000Y14809195I0J-249999D01*
G01*
X196450000Y13909193D01*
G75*
G02*
X196200001Y13659194I-249999J0D01*
G01*
X195674999Y13659194D01*
G75*
G02*
X195425000Y13909193I0J249999D01*
G01*
G37*
G36*
G01*
X197250000Y35785967D02*
X197250000Y36685969D01*
G75*
G02*
X197499999Y36935968I249999J0D01*
G01*
X198025001Y36935968D01*
G75*
G02*
X198275000Y36685969I0J-249999D01*
G01*
X198275000Y35785967D01*
G75*
G02*
X198025001Y35535968I-249999J0D01*
G01*
X197499999Y35535968D01*
G75*
G02*
X197250000Y35785967I0J249999D01*
G01*
G37*
G36*
G01*
X195425000Y35785967D02*
X195425000Y36685969D01*
G75*
G02*
X195674999Y36935968I249999J0D01*
G01*
X196200001Y36935968D01*
G75*
G02*
X196450000Y36685969I0J-249999D01*
G01*
X196450000Y35785967D01*
G75*
G02*
X196200001Y35535968I-249999J0D01*
G01*
X195674999Y35535968D01*
G75*
G02*
X195425000Y35785967I0J249999D01*
G01*
G37*
G36*
G01*
X197250000Y28493709D02*
X197250000Y29393711D01*
G75*
G02*
X197499999Y29643710I249999J0D01*
G01*
X198025001Y29643710D01*
G75*
G02*
X198275000Y29393711I0J-249999D01*
G01*
X198275000Y28493709D01*
G75*
G02*
X198025001Y28243710I-249999J0D01*
G01*
X197499999Y28243710D01*
G75*
G02*
X197250000Y28493709I0J249999D01*
G01*
G37*
G36*
G01*
X195425000Y28493709D02*
X195425000Y29393711D01*
G75*
G02*
X195674999Y29643710I249999J0D01*
G01*
X196200001Y29643710D01*
G75*
G02*
X196450000Y29393711I0J-249999D01*
G01*
X196450000Y28493709D01*
G75*
G02*
X196200001Y28243710I-249999J0D01*
G01*
X195674999Y28243710D01*
G75*
G02*
X195425000Y28493709I0J249999D01*
G01*
G37*
G36*
G01*
X197250000Y50370483D02*
X197250000Y51270485D01*
G75*
G02*
X197499999Y51520484I249999J0D01*
G01*
X198025001Y51520484D01*
G75*
G02*
X198275000Y51270485I0J-249999D01*
G01*
X198275000Y50370483D01*
G75*
G02*
X198025001Y50120484I-249999J0D01*
G01*
X197499999Y50120484D01*
G75*
G02*
X197250000Y50370483I0J249999D01*
G01*
G37*
G36*
G01*
X195425000Y50370483D02*
X195425000Y51270485D01*
G75*
G02*
X195674999Y51520484I249999J0D01*
G01*
X196200001Y51520484D01*
G75*
G02*
X196450000Y51270485I0J-249999D01*
G01*
X196450000Y50370483D01*
G75*
G02*
X196200001Y50120484I-249999J0D01*
G01*
X195674999Y50120484D01*
G75*
G02*
X195425000Y50370483I0J249999D01*
G01*
G37*
G36*
G01*
X197250000Y43078225D02*
X197250000Y43978227D01*
G75*
G02*
X197499999Y44228226I249999J0D01*
G01*
X198025001Y44228226D01*
G75*
G02*
X198275000Y43978227I0J-249999D01*
G01*
X198275000Y43078225D01*
G75*
G02*
X198025001Y42828226I-249999J0D01*
G01*
X197499999Y42828226D01*
G75*
G02*
X197250000Y43078225I0J249999D01*
G01*
G37*
G36*
G01*
X195425000Y43078225D02*
X195425000Y43978227D01*
G75*
G02*
X195674999Y44228226I249999J0D01*
G01*
X196200001Y44228226D01*
G75*
G02*
X196450000Y43978227I0J-249999D01*
G01*
X196450000Y43078225D01*
G75*
G02*
X196200001Y42828226I-249999J0D01*
G01*
X195674999Y42828226D01*
G75*
G02*
X195425000Y43078225I0J249999D01*
G01*
G37*
G36*
G01*
X197250000Y64954999D02*
X197250000Y65855001D01*
G75*
G02*
X197499999Y66105000I249999J0D01*
G01*
X198025001Y66105000D01*
G75*
G02*
X198275000Y65855001I0J-249999D01*
G01*
X198275000Y64954999D01*
G75*
G02*
X198025001Y64705000I-249999J0D01*
G01*
X197499999Y64705000D01*
G75*
G02*
X197250000Y64954999I0J249999D01*
G01*
G37*
G36*
G01*
X195425000Y64954999D02*
X195425000Y65855001D01*
G75*
G02*
X195674999Y66105000I249999J0D01*
G01*
X196200001Y66105000D01*
G75*
G02*
X196450000Y65855001I0J-249999D01*
G01*
X196450000Y64954999D01*
G75*
G02*
X196200001Y64705000I-249999J0D01*
G01*
X195674999Y64705000D01*
G75*
G02*
X195425000Y64954999I0J249999D01*
G01*
G37*
G36*
G01*
X197250000Y57662741D02*
X197250000Y58562743D01*
G75*
G02*
X197499999Y58812742I249999J0D01*
G01*
X198025001Y58812742D01*
G75*
G02*
X198275000Y58562743I0J-249999D01*
G01*
X198275000Y57662741D01*
G75*
G02*
X198025001Y57412742I-249999J0D01*
G01*
X197499999Y57412742D01*
G75*
G02*
X197250000Y57662741I0J249999D01*
G01*
G37*
G36*
G01*
X195425000Y57662741D02*
X195425000Y58562743D01*
G75*
G02*
X195674999Y58812742I249999J0D01*
G01*
X196200001Y58812742D01*
G75*
G02*
X196450000Y58562743I0J-249999D01*
G01*
X196450000Y57662741D01*
G75*
G02*
X196200001Y57412742I-249999J0D01*
G01*
X195674999Y57412742D01*
G75*
G02*
X195425000Y57662741I0J249999D01*
G01*
G37*
D26*
X170558000Y-13589000D03*
D27*
X170558000Y-5969000D03*
X170558000Y4191000D03*
X170558000Y6731000D03*
D26*
X183385000Y-13589000D03*
D27*
X183385000Y-5969000D03*
X183385000Y4191000D03*
X183385000Y6731000D03*
D26*
X176781000Y-13589000D03*
D27*
X176781000Y-5969000D03*
X176781000Y4191000D03*
X176781000Y6731000D03*
D26*
X224155000Y-11983330D03*
D27*
X216535000Y-11983330D03*
X206375000Y-11983330D03*
X203835000Y-11983330D03*
D26*
X189735000Y-13589000D03*
D27*
X189735000Y-5969000D03*
X189735000Y4191000D03*
X189735000Y6731000D03*
D26*
X224155000Y2833336D03*
D27*
X216535000Y2833336D03*
X206375000Y2833336D03*
X203835000Y2833336D03*
D26*
X224155000Y-4574997D03*
D27*
X216535000Y-4574997D03*
X206375000Y-4574997D03*
X203835000Y-4574997D03*
D26*
X224155000Y17650002D03*
D27*
X216535000Y17650002D03*
X206375000Y17650002D03*
X203835000Y17650002D03*
D26*
X224155000Y10241669D03*
D27*
X216535000Y10241669D03*
X206375000Y10241669D03*
X203835000Y10241669D03*
D26*
X224155000Y32466668D03*
D27*
X216535000Y32466668D03*
X206375000Y32466668D03*
X203835000Y32466668D03*
D26*
X224155000Y25058335D03*
D27*
X216535000Y25058335D03*
X206375000Y25058335D03*
X203835000Y25058335D03*
D26*
X224155000Y47283334D03*
D27*
X216535000Y47283334D03*
X206375000Y47283334D03*
X203835000Y47283334D03*
D26*
X224155000Y39875001D03*
D27*
X216535000Y39875001D03*
X206375000Y39875001D03*
X203835000Y39875001D03*
D26*
X224155000Y62100000D03*
D27*
X216535000Y62100000D03*
X206375000Y62100000D03*
X203835000Y62100000D03*
D26*
X224155000Y54691667D03*
D27*
X216535000Y54691667D03*
X206375000Y54691667D03*
X203835000Y54691667D03*
D33*
X166831000Y-24003000D03*
D34*
X171831000Y-24003000D03*
D33*
X155655000Y-24003000D03*
D34*
X160655000Y-24003000D03*
D33*
X189310000Y-24003000D03*
D34*
X194310000Y-24003000D03*
D33*
X178134000Y-24003000D03*
D34*
X183134000Y-24003000D03*
D33*
X211662000Y-24003000D03*
D34*
X216662000Y-24003000D03*
D33*
X200486000Y-24003000D03*
D34*
X205486000Y-24003000D03*
D33*
X235518960Y-27987000D03*
D34*
X235518960Y-22987000D03*
D33*
X222838000Y-24003000D03*
D34*
X227838000Y-24003000D03*
D33*
X235511340Y-5876300D03*
D34*
X235511340Y-876300D03*
D33*
X235511340Y-16931640D03*
D34*
X235511340Y-11931640D03*
D33*
X235521500Y16273780D03*
D34*
X235521500Y21273780D03*
D33*
X235516420Y5204460D03*
D34*
X235516420Y10204460D03*
D33*
X235503720Y38450520D03*
D34*
X235503720Y43450520D03*
D33*
X235511340Y27363420D03*
D34*
X235511340Y32363420D03*
D33*
X235480860Y60537080D03*
D34*
X235480860Y65537080D03*
D33*
X235508800Y49526180D03*
D34*
X235508800Y54526180D03*
G36*
G01*
X170612750Y10980000D02*
X171525250Y10980000D01*
G75*
G02*
X171769000Y10736250I0J-243750D01*
G01*
X171769000Y10248750D01*
G75*
G02*
X171525250Y10005000I-243750J0D01*
G01*
X170612750Y10005000D01*
G75*
G02*
X170369000Y10248750I0J243750D01*
G01*
X170369000Y10736250D01*
G75*
G02*
X170612750Y10980000I243750J0D01*
G01*
G37*
G36*
G01*
X170612750Y12855000D02*
X171525250Y12855000D01*
G75*
G02*
X171769000Y12611250I0J-243750D01*
G01*
X171769000Y12123750D01*
G75*
G02*
X171525250Y11880000I-243750J0D01*
G01*
X170612750Y11880000D01*
G75*
G02*
X170369000Y12123750I0J243750D01*
G01*
X170369000Y12611250D01*
G75*
G02*
X170612750Y12855000I243750J0D01*
G01*
G37*
G36*
G01*
X163754750Y10980000D02*
X164667250Y10980000D01*
G75*
G02*
X164911000Y10736250I0J-243750D01*
G01*
X164911000Y10248750D01*
G75*
G02*
X164667250Y10005000I-243750J0D01*
G01*
X163754750Y10005000D01*
G75*
G02*
X163511000Y10248750I0J243750D01*
G01*
X163511000Y10736250D01*
G75*
G02*
X163754750Y10980000I243750J0D01*
G01*
G37*
G36*
G01*
X163754750Y12855000D02*
X164667250Y12855000D01*
G75*
G02*
X164911000Y12611250I0J-243750D01*
G01*
X164911000Y12123750D01*
G75*
G02*
X164667250Y11880000I-243750J0D01*
G01*
X163754750Y11880000D01*
G75*
G02*
X163511000Y12123750I0J243750D01*
G01*
X163511000Y12611250D01*
G75*
G02*
X163754750Y12855000I243750J0D01*
G01*
G37*
G36*
G01*
X183185750Y10980000D02*
X184098250Y10980000D01*
G75*
G02*
X184342000Y10736250I0J-243750D01*
G01*
X184342000Y10248750D01*
G75*
G02*
X184098250Y10005000I-243750J0D01*
G01*
X183185750Y10005000D01*
G75*
G02*
X182942000Y10248750I0J243750D01*
G01*
X182942000Y10736250D01*
G75*
G02*
X183185750Y10980000I243750J0D01*
G01*
G37*
G36*
G01*
X183185750Y12855000D02*
X184098250Y12855000D01*
G75*
G02*
X184342000Y12611250I0J-243750D01*
G01*
X184342000Y12123750D01*
G75*
G02*
X184098250Y11880000I-243750J0D01*
G01*
X183185750Y11880000D01*
G75*
G02*
X182942000Y12123750I0J243750D01*
G01*
X182942000Y12611250D01*
G75*
G02*
X183185750Y12855000I243750J0D01*
G01*
G37*
G36*
G01*
X176962750Y10980000D02*
X177875250Y10980000D01*
G75*
G02*
X178119000Y10736250I0J-243750D01*
G01*
X178119000Y10248750D01*
G75*
G02*
X177875250Y10005000I-243750J0D01*
G01*
X176962750Y10005000D01*
G75*
G02*
X176719000Y10248750I0J243750D01*
G01*
X176719000Y10736250D01*
G75*
G02*
X176962750Y10980000I243750J0D01*
G01*
G37*
G36*
G01*
X176962750Y12855000D02*
X177875250Y12855000D01*
G75*
G02*
X178119000Y12611250I0J-243750D01*
G01*
X178119000Y12123750D01*
G75*
G02*
X177875250Y11880000I-243750J0D01*
G01*
X176962750Y11880000D01*
G75*
G02*
X176719000Y12123750I0J243750D01*
G01*
X176719000Y12611250D01*
G75*
G02*
X176962750Y12855000I243750J0D01*
G01*
G37*
G36*
G01*
X196440000Y-10707459D02*
X196440000Y-11619959D01*
G75*
G02*
X196196250Y-11863709I-243750J0D01*
G01*
X195708750Y-11863709D01*
G75*
G02*
X195465000Y-11619959I0J243750D01*
G01*
X195465000Y-10707459D01*
G75*
G02*
X195708750Y-10463709I243750J0D01*
G01*
X196196250Y-10463709D01*
G75*
G02*
X196440000Y-10707459I0J-243750D01*
G01*
G37*
G36*
G01*
X198315000Y-10707459D02*
X198315000Y-11619959D01*
G75*
G02*
X198071250Y-11863709I-243750J0D01*
G01*
X197583750Y-11863709D01*
G75*
G02*
X197340000Y-11619959I0J243750D01*
G01*
X197340000Y-10707459D01*
G75*
G02*
X197583750Y-10463709I243750J0D01*
G01*
X198071250Y-10463709D01*
G75*
G02*
X198315000Y-10707459I0J-243750D01*
G01*
G37*
G36*
G01*
X188392750Y10940000D02*
X189305250Y10940000D01*
G75*
G02*
X189549000Y10696250I0J-243750D01*
G01*
X189549000Y10208750D01*
G75*
G02*
X189305250Y9965000I-243750J0D01*
G01*
X188392750Y9965000D01*
G75*
G02*
X188149000Y10208750I0J243750D01*
G01*
X188149000Y10696250D01*
G75*
G02*
X188392750Y10940000I243750J0D01*
G01*
G37*
G36*
G01*
X188392750Y12815000D02*
X189305250Y12815000D01*
G75*
G02*
X189549000Y12571250I0J-243750D01*
G01*
X189549000Y12083750D01*
G75*
G02*
X189305250Y11840000I-243750J0D01*
G01*
X188392750Y11840000D01*
G75*
G02*
X188149000Y12083750I0J243750D01*
G01*
X188149000Y12571250D01*
G75*
G02*
X188392750Y12815000I243750J0D01*
G01*
G37*
G36*
G01*
X196440000Y3877057D02*
X196440000Y2964557D01*
G75*
G02*
X196196250Y2720807I-243750J0D01*
G01*
X195708750Y2720807D01*
G75*
G02*
X195465000Y2964557I0J243750D01*
G01*
X195465000Y3877057D01*
G75*
G02*
X195708750Y4120807I243750J0D01*
G01*
X196196250Y4120807D01*
G75*
G02*
X196440000Y3877057I0J-243750D01*
G01*
G37*
G36*
G01*
X198315000Y3877057D02*
X198315000Y2964557D01*
G75*
G02*
X198071250Y2720807I-243750J0D01*
G01*
X197583750Y2720807D01*
G75*
G02*
X197340000Y2964557I0J243750D01*
G01*
X197340000Y3877057D01*
G75*
G02*
X197583750Y4120807I243750J0D01*
G01*
X198071250Y4120807D01*
G75*
G02*
X198315000Y3877057I0J-243750D01*
G01*
G37*
G36*
G01*
X196440000Y-3415201D02*
X196440000Y-4327701D01*
G75*
G02*
X196196250Y-4571451I-243750J0D01*
G01*
X195708750Y-4571451D01*
G75*
G02*
X195465000Y-4327701I0J243750D01*
G01*
X195465000Y-3415201D01*
G75*
G02*
X195708750Y-3171451I243750J0D01*
G01*
X196196250Y-3171451D01*
G75*
G02*
X196440000Y-3415201I0J-243750D01*
G01*
G37*
G36*
G01*
X198315000Y-3415201D02*
X198315000Y-4327701D01*
G75*
G02*
X198071250Y-4571451I-243750J0D01*
G01*
X197583750Y-4571451D01*
G75*
G02*
X197340000Y-4327701I0J243750D01*
G01*
X197340000Y-3415201D01*
G75*
G02*
X197583750Y-3171451I243750J0D01*
G01*
X198071250Y-3171451D01*
G75*
G02*
X198315000Y-3415201I0J-243750D01*
G01*
G37*
G36*
G01*
X196440000Y18461573D02*
X196440000Y17549073D01*
G75*
G02*
X196196250Y17305323I-243750J0D01*
G01*
X195708750Y17305323D01*
G75*
G02*
X195465000Y17549073I0J243750D01*
G01*
X195465000Y18461573D01*
G75*
G02*
X195708750Y18705323I243750J0D01*
G01*
X196196250Y18705323D01*
G75*
G02*
X196440000Y18461573I0J-243750D01*
G01*
G37*
G36*
G01*
X198315000Y18461573D02*
X198315000Y17549073D01*
G75*
G02*
X198071250Y17305323I-243750J0D01*
G01*
X197583750Y17305323D01*
G75*
G02*
X197340000Y17549073I0J243750D01*
G01*
X197340000Y18461573D01*
G75*
G02*
X197583750Y18705323I243750J0D01*
G01*
X198071250Y18705323D01*
G75*
G02*
X198315000Y18461573I0J-243750D01*
G01*
G37*
G36*
G01*
X196440000Y11169315D02*
X196440000Y10256815D01*
G75*
G02*
X196196250Y10013065I-243750J0D01*
G01*
X195708750Y10013065D01*
G75*
G02*
X195465000Y10256815I0J243750D01*
G01*
X195465000Y11169315D01*
G75*
G02*
X195708750Y11413065I243750J0D01*
G01*
X196196250Y11413065D01*
G75*
G02*
X196440000Y11169315I0J-243750D01*
G01*
G37*
G36*
G01*
X198315000Y11169315D02*
X198315000Y10256815D01*
G75*
G02*
X198071250Y10013065I-243750J0D01*
G01*
X197583750Y10013065D01*
G75*
G02*
X197340000Y10256815I0J243750D01*
G01*
X197340000Y11169315D01*
G75*
G02*
X197583750Y11413065I243750J0D01*
G01*
X198071250Y11413065D01*
G75*
G02*
X198315000Y11169315I0J-243750D01*
G01*
G37*
G36*
G01*
X196440000Y33046089D02*
X196440000Y32133589D01*
G75*
G02*
X196196250Y31889839I-243750J0D01*
G01*
X195708750Y31889839D01*
G75*
G02*
X195465000Y32133589I0J243750D01*
G01*
X195465000Y33046089D01*
G75*
G02*
X195708750Y33289839I243750J0D01*
G01*
X196196250Y33289839D01*
G75*
G02*
X196440000Y33046089I0J-243750D01*
G01*
G37*
G36*
G01*
X198315000Y33046089D02*
X198315000Y32133589D01*
G75*
G02*
X198071250Y31889839I-243750J0D01*
G01*
X197583750Y31889839D01*
G75*
G02*
X197340000Y32133589I0J243750D01*
G01*
X197340000Y33046089D01*
G75*
G02*
X197583750Y33289839I243750J0D01*
G01*
X198071250Y33289839D01*
G75*
G02*
X198315000Y33046089I0J-243750D01*
G01*
G37*
G36*
G01*
X196440000Y25753831D02*
X196440000Y24841331D01*
G75*
G02*
X196196250Y24597581I-243750J0D01*
G01*
X195708750Y24597581D01*
G75*
G02*
X195465000Y24841331I0J243750D01*
G01*
X195465000Y25753831D01*
G75*
G02*
X195708750Y25997581I243750J0D01*
G01*
X196196250Y25997581D01*
G75*
G02*
X196440000Y25753831I0J-243750D01*
G01*
G37*
G36*
G01*
X198315000Y25753831D02*
X198315000Y24841331D01*
G75*
G02*
X198071250Y24597581I-243750J0D01*
G01*
X197583750Y24597581D01*
G75*
G02*
X197340000Y24841331I0J243750D01*
G01*
X197340000Y25753831D01*
G75*
G02*
X197583750Y25997581I243750J0D01*
G01*
X198071250Y25997581D01*
G75*
G02*
X198315000Y25753831I0J-243750D01*
G01*
G37*
G36*
G01*
X196440000Y47630605D02*
X196440000Y46718105D01*
G75*
G02*
X196196250Y46474355I-243750J0D01*
G01*
X195708750Y46474355D01*
G75*
G02*
X195465000Y46718105I0J243750D01*
G01*
X195465000Y47630605D01*
G75*
G02*
X195708750Y47874355I243750J0D01*
G01*
X196196250Y47874355D01*
G75*
G02*
X196440000Y47630605I0J-243750D01*
G01*
G37*
G36*
G01*
X198315000Y47630605D02*
X198315000Y46718105D01*
G75*
G02*
X198071250Y46474355I-243750J0D01*
G01*
X197583750Y46474355D01*
G75*
G02*
X197340000Y46718105I0J243750D01*
G01*
X197340000Y47630605D01*
G75*
G02*
X197583750Y47874355I243750J0D01*
G01*
X198071250Y47874355D01*
G75*
G02*
X198315000Y47630605I0J-243750D01*
G01*
G37*
G36*
G01*
X196440000Y40338347D02*
X196440000Y39425847D01*
G75*
G02*
X196196250Y39182097I-243750J0D01*
G01*
X195708750Y39182097D01*
G75*
G02*
X195465000Y39425847I0J243750D01*
G01*
X195465000Y40338347D01*
G75*
G02*
X195708750Y40582097I243750J0D01*
G01*
X196196250Y40582097D01*
G75*
G02*
X196440000Y40338347I0J-243750D01*
G01*
G37*
G36*
G01*
X198315000Y40338347D02*
X198315000Y39425847D01*
G75*
G02*
X198071250Y39182097I-243750J0D01*
G01*
X197583750Y39182097D01*
G75*
G02*
X197340000Y39425847I0J243750D01*
G01*
X197340000Y40338347D01*
G75*
G02*
X197583750Y40582097I243750J0D01*
G01*
X198071250Y40582097D01*
G75*
G02*
X198315000Y40338347I0J-243750D01*
G01*
G37*
G36*
G01*
X196440000Y62215121D02*
X196440000Y61302621D01*
G75*
G02*
X196196250Y61058871I-243750J0D01*
G01*
X195708750Y61058871D01*
G75*
G02*
X195465000Y61302621I0J243750D01*
G01*
X195465000Y62215121D01*
G75*
G02*
X195708750Y62458871I243750J0D01*
G01*
X196196250Y62458871D01*
G75*
G02*
X196440000Y62215121I0J-243750D01*
G01*
G37*
G36*
G01*
X198315000Y62215121D02*
X198315000Y61302621D01*
G75*
G02*
X198071250Y61058871I-243750J0D01*
G01*
X197583750Y61058871D01*
G75*
G02*
X197340000Y61302621I0J243750D01*
G01*
X197340000Y62215121D01*
G75*
G02*
X197583750Y62458871I243750J0D01*
G01*
X198071250Y62458871D01*
G75*
G02*
X198315000Y62215121I0J-243750D01*
G01*
G37*
G36*
G01*
X196440000Y54812250D02*
X196440000Y53899750D01*
G75*
G02*
X196196250Y53656000I-243750J0D01*
G01*
X195708750Y53656000D01*
G75*
G02*
X195465000Y53899750I0J243750D01*
G01*
X195465000Y54812250D01*
G75*
G02*
X195708750Y55056000I243750J0D01*
G01*
X196196250Y55056000D01*
G75*
G02*
X196440000Y54812250I0J-243750D01*
G01*
G37*
G36*
G01*
X198315000Y54812250D02*
X198315000Y53899750D01*
G75*
G02*
X198071250Y53656000I-243750J0D01*
G01*
X197583750Y53656000D01*
G75*
G02*
X197340000Y53899750I0J243750D01*
G01*
X197340000Y54812250D01*
G75*
G02*
X197583750Y55056000I243750J0D01*
G01*
X198071250Y55056000D01*
G75*
G02*
X198315000Y54812250I0J-243750D01*
G01*
G37*
G36*
G01*
X154338000Y34597000D02*
X155288000Y34597000D01*
G75*
G02*
X155538000Y34347000I0J-250000D01*
G01*
X155538000Y33847000D01*
G75*
G02*
X155288000Y33597000I-250000J0D01*
G01*
X154338000Y33597000D01*
G75*
G02*
X154088000Y33847000I0J250000D01*
G01*
X154088000Y34347000D01*
G75*
G02*
X154338000Y34597000I250000J0D01*
G01*
G37*
G36*
G01*
X154338000Y32697000D02*
X155288000Y32697000D01*
G75*
G02*
X155538000Y32447000I0J-250000D01*
G01*
X155538000Y31947000D01*
G75*
G02*
X155288000Y31697000I-250000J0D01*
G01*
X154338000Y31697000D01*
G75*
G02*
X154088000Y31947000I0J250000D01*
G01*
X154088000Y32447000D01*
G75*
G02*
X154338000Y32697000I250000J0D01*
G01*
G37*
G36*
G01*
X151671000Y34663000D02*
X152621000Y34663000D01*
G75*
G02*
X152871000Y34413000I0J-250000D01*
G01*
X152871000Y33913000D01*
G75*
G02*
X152621000Y33663000I-250000J0D01*
G01*
X151671000Y33663000D01*
G75*
G02*
X151421000Y33913000I0J250000D01*
G01*
X151421000Y34413000D01*
G75*
G02*
X151671000Y34663000I250000J0D01*
G01*
G37*
G36*
G01*
X151671000Y32763000D02*
X152621000Y32763000D01*
G75*
G02*
X152871000Y32513000I0J-250000D01*
G01*
X152871000Y32013000D01*
G75*
G02*
X152621000Y31763000I-250000J0D01*
G01*
X151671000Y31763000D01*
G75*
G02*
X151421000Y32013000I0J250000D01*
G01*
X151421000Y32513000D01*
G75*
G02*
X151671000Y32763000I250000J0D01*
G01*
G37*
G36*
G01*
X181283429Y42310073D02*
X180611678Y41638322D01*
G75*
G02*
X180258124Y41638322I-176777J176777D01*
G01*
X179904571Y41991875D01*
G75*
G02*
X179904571Y42345429I176777J176777D01*
G01*
X180576322Y43017180D01*
G75*
G02*
X180929876Y43017180I176777J-176777D01*
G01*
X181283429Y42663627D01*
G75*
G02*
X181283429Y42310073I-176777J-176777D01*
G01*
G37*
G36*
G01*
X182626931Y40966571D02*
X181955180Y40294820D01*
G75*
G02*
X181601626Y40294820I-176777J176777D01*
G01*
X181248073Y40648373D01*
G75*
G02*
X181248073Y41001927I176777J176777D01*
G01*
X181919824Y41673678D01*
G75*
G02*
X182273378Y41673678I176777J-176777D01*
G01*
X182626931Y41320125D01*
G75*
G02*
X182626931Y40966571I-176777J-176777D01*
G01*
G37*
G36*
G01*
X156878000Y34597000D02*
X157828000Y34597000D01*
G75*
G02*
X158078000Y34347000I0J-250000D01*
G01*
X158078000Y33847000D01*
G75*
G02*
X157828000Y33597000I-250000J0D01*
G01*
X156878000Y33597000D01*
G75*
G02*
X156628000Y33847000I0J250000D01*
G01*
X156628000Y34347000D01*
G75*
G02*
X156878000Y34597000I250000J0D01*
G01*
G37*
G36*
G01*
X156878000Y32697000D02*
X157828000Y32697000D01*
G75*
G02*
X158078000Y32447000I0J-250000D01*
G01*
X158078000Y31947000D01*
G75*
G02*
X157828000Y31697000I-250000J0D01*
G01*
X156878000Y31697000D01*
G75*
G02*
X156628000Y31947000I0J250000D01*
G01*
X156628000Y32447000D01*
G75*
G02*
X156878000Y32697000I250000J0D01*
G01*
G37*
G36*
G01*
X159545000Y32697000D02*
X160495000Y32697000D01*
G75*
G02*
X160745000Y32447000I0J-250000D01*
G01*
X160745000Y31947000D01*
G75*
G02*
X160495000Y31697000I-250000J0D01*
G01*
X159545000Y31697000D01*
G75*
G02*
X159295000Y31947000I0J250000D01*
G01*
X159295000Y32447000D01*
G75*
G02*
X159545000Y32697000I250000J0D01*
G01*
G37*
G36*
G01*
X159545000Y34597000D02*
X160495000Y34597000D01*
G75*
G02*
X160745000Y34347000I0J-250000D01*
G01*
X160745000Y33847000D01*
G75*
G02*
X160495000Y33597000I-250000J0D01*
G01*
X159545000Y33597000D01*
G75*
G02*
X159295000Y33847000I0J250000D01*
G01*
X159295000Y34347000D01*
G75*
G02*
X159545000Y34597000I250000J0D01*
G01*
G37*
G36*
G01*
X155922960Y47700820D02*
X156872960Y47700820D01*
G75*
G02*
X157122960Y47450820I0J-250000D01*
G01*
X157122960Y46950820D01*
G75*
G02*
X156872960Y46700820I-250000J0D01*
G01*
X155922960Y46700820D01*
G75*
G02*
X155672960Y46950820I0J250000D01*
G01*
X155672960Y47450820D01*
G75*
G02*
X155922960Y47700820I250000J0D01*
G01*
G37*
G36*
G01*
X155922960Y45800820D02*
X156872960Y45800820D01*
G75*
G02*
X157122960Y45550820I0J-250000D01*
G01*
X157122960Y45050820D01*
G75*
G02*
X156872960Y44800820I-250000J0D01*
G01*
X155922960Y44800820D01*
G75*
G02*
X155672960Y45050820I0J250000D01*
G01*
X155672960Y45550820D01*
G75*
G02*
X155922960Y45800820I250000J0D01*
G01*
G37*
G36*
G01*
X158084500Y45783040D02*
X159034500Y45783040D01*
G75*
G02*
X159284500Y45533040I0J-250000D01*
G01*
X159284500Y45033040D01*
G75*
G02*
X159034500Y44783040I-250000J0D01*
G01*
X158084500Y44783040D01*
G75*
G02*
X157834500Y45033040I0J250000D01*
G01*
X157834500Y45533040D01*
G75*
G02*
X158084500Y45783040I250000J0D01*
G01*
G37*
G36*
G01*
X158084500Y47683040D02*
X159034500Y47683040D01*
G75*
G02*
X159284500Y47433040I0J-250000D01*
G01*
X159284500Y46933040D01*
G75*
G02*
X159034500Y46683040I-250000J0D01*
G01*
X158084500Y46683040D01*
G75*
G02*
X157834500Y46933040I0J250000D01*
G01*
X157834500Y47433040D01*
G75*
G02*
X158084500Y47683040I250000J0D01*
G01*
G37*
D24*
X167894000Y18923000D03*
D25*
X167894000Y16383000D03*
X165354000Y18923000D03*
X165354000Y16383000D03*
X162814000Y18923000D03*
X162814000Y16383000D03*
D24*
X189357000Y58801000D03*
D25*
X186817000Y58801000D03*
X189357000Y61341000D03*
X186817000Y61341000D03*
D35*
X152400000Y63500000D03*
G36*
G01*
X144900000Y62500000D02*
X144900000Y64500000D01*
G75*
G02*
X145650000Y65250000I750000J0D01*
G01*
X147150000Y65250000D01*
G75*
G02*
X147900000Y64500000I0J-750000D01*
G01*
X147900000Y62500000D01*
G75*
G02*
X147150000Y61750000I-750000J0D01*
G01*
X145650000Y61750000D01*
G75*
G02*
X144900000Y62500000I0J750000D01*
G01*
G37*
G36*
G01*
X147650000Y57925000D02*
X147650000Y59675000D01*
G75*
G02*
X148525000Y60550000I875000J0D01*
G01*
X150275000Y60550000D01*
G75*
G02*
X151150000Y59675000I0J-875000D01*
G01*
X151150000Y57925000D01*
G75*
G02*
X150275000Y57050000I-875000J0D01*
G01*
X148525000Y57050000D01*
G75*
G02*
X147650000Y57925000I0J875000D01*
G01*
G37*
G36*
G01*
X156636020Y63951699D02*
X156636020Y64851701D01*
G75*
G02*
X156886019Y65101700I249999J0D01*
G01*
X157411021Y65101700D01*
G75*
G02*
X157661020Y64851701I0J-249999D01*
G01*
X157661020Y63951699D01*
G75*
G02*
X157411021Y63701700I-249999J0D01*
G01*
X156886019Y63701700D01*
G75*
G02*
X156636020Y63951699I0J249999D01*
G01*
G37*
G36*
G01*
X158461020Y63951699D02*
X158461020Y64851701D01*
G75*
G02*
X158711019Y65101700I249999J0D01*
G01*
X159236021Y65101700D01*
G75*
G02*
X159486020Y64851701I0J-249999D01*
G01*
X159486020Y63951699D01*
G75*
G02*
X159236021Y63701700I-249999J0D01*
G01*
X158711019Y63701700D01*
G75*
G02*
X158461020Y63951699I0J249999D01*
G01*
G37*
G36*
G01*
X157648320Y67216441D02*
X157648320Y66316439D01*
G75*
G02*
X157398321Y66066440I-249999J0D01*
G01*
X156873319Y66066440D01*
G75*
G02*
X156623320Y66316439I0J249999D01*
G01*
X156623320Y67216441D01*
G75*
G02*
X156873319Y67466440I249999J0D01*
G01*
X157398321Y67466440D01*
G75*
G02*
X157648320Y67216441I0J-249999D01*
G01*
G37*
G36*
G01*
X159473320Y67216441D02*
X159473320Y66316439D01*
G75*
G02*
X159223321Y66066440I-249999J0D01*
G01*
X158698319Y66066440D01*
G75*
G02*
X158448320Y66316439I0J249999D01*
G01*
X158448320Y67216441D01*
G75*
G02*
X158698319Y67466440I249999J0D01*
G01*
X159223321Y67466440D01*
G75*
G02*
X159473320Y67216441I0J-249999D01*
G01*
G37*
G36*
G01*
X160525039Y45906100D02*
X161425041Y45906100D01*
G75*
G02*
X161675040Y45656101I0J-249999D01*
G01*
X161675040Y45131099D01*
G75*
G02*
X161425041Y44881100I-249999J0D01*
G01*
X160525039Y44881100D01*
G75*
G02*
X160275040Y45131099I0J249999D01*
G01*
X160275040Y45656101D01*
G75*
G02*
X160525039Y45906100I249999J0D01*
G01*
G37*
G36*
G01*
X160525039Y47731100D02*
X161425041Y47731100D01*
G75*
G02*
X161675040Y47481101I0J-249999D01*
G01*
X161675040Y46956099D01*
G75*
G02*
X161425041Y46706100I-249999J0D01*
G01*
X160525039Y46706100D01*
G75*
G02*
X160275040Y46956099I0J249999D01*
G01*
X160275040Y47481101D01*
G75*
G02*
X160525039Y47731100I249999J0D01*
G01*
G37*
G36*
G01*
X162121001Y11806500D02*
X161220999Y11806500D01*
G75*
G02*
X160971000Y12056499I0J249999D01*
G01*
X160971000Y12581501D01*
G75*
G02*
X161220999Y12831500I249999J0D01*
G01*
X162121001Y12831500D01*
G75*
G02*
X162371000Y12581501I0J-249999D01*
G01*
X162371000Y12056499D01*
G75*
G02*
X162121001Y11806500I-249999J0D01*
G01*
G37*
G36*
G01*
X162121001Y9981500D02*
X161220999Y9981500D01*
G75*
G02*
X160971000Y10231499I0J249999D01*
G01*
X160971000Y10756501D01*
G75*
G02*
X161220999Y11006500I249999J0D01*
G01*
X162121001Y11006500D01*
G75*
G02*
X162371000Y10756501I0J-249999D01*
G01*
X162371000Y10231499D01*
G75*
G02*
X162121001Y9981500I-249999J0D01*
G01*
G37*
G36*
G01*
X159516500Y60394001D02*
X159516500Y59493999D01*
G75*
G02*
X159266501Y59244000I-249999J0D01*
G01*
X158741499Y59244000D01*
G75*
G02*
X158491500Y59493999I0J249999D01*
G01*
X158491500Y60394001D01*
G75*
G02*
X158741499Y60644000I249999J0D01*
G01*
X159266501Y60644000D01*
G75*
G02*
X159516500Y60394001I0J-249999D01*
G01*
G37*
G36*
G01*
X157691500Y60394001D02*
X157691500Y59493999D01*
G75*
G02*
X157441501Y59244000I-249999J0D01*
G01*
X156916499Y59244000D01*
G75*
G02*
X156666500Y59493999I0J249999D01*
G01*
X156666500Y60394001D01*
G75*
G02*
X156916499Y60644000I249999J0D01*
G01*
X157441501Y60644000D01*
G75*
G02*
X157691500Y60394001I0J-249999D01*
G01*
G37*
G36*
G01*
X156666500Y61678399D02*
X156666500Y62578401D01*
G75*
G02*
X156916499Y62828400I249999J0D01*
G01*
X157441501Y62828400D01*
G75*
G02*
X157691500Y62578401I0J-249999D01*
G01*
X157691500Y61678399D01*
G75*
G02*
X157441501Y61428400I-249999J0D01*
G01*
X156916499Y61428400D01*
G75*
G02*
X156666500Y61678399I0J249999D01*
G01*
G37*
G36*
G01*
X158491500Y61678399D02*
X158491500Y62578401D01*
G75*
G02*
X158741499Y62828400I249999J0D01*
G01*
X159266501Y62828400D01*
G75*
G02*
X159516500Y62578401I0J-249999D01*
G01*
X159516500Y61678399D01*
G75*
G02*
X159266501Y61428400I-249999J0D01*
G01*
X158741499Y61428400D01*
G75*
G02*
X158491500Y61678399I0J249999D01*
G01*
G37*
D36*
X159481600Y56794800D03*
X159481600Y50494800D03*
X155681600Y56794800D03*
X155681600Y50494800D03*
D37*
X150329900Y54239560D03*
D38*
X150329900Y47939560D03*
X152629900Y47939560D03*
X148029900Y47939560D03*
M02*
