M48
; DRILL file {KiCad (5.1.12)-1} date 11/18/21 21:12:19
; FORMAT={-:-/ absolute / metric / decimal}
; #@! TF.CreationDate,2021-11-18T21:12:19+02:00
; #@! TF.GenerationSoftware,Kicad,Pcbnew,(5.1.12)-1
; #@! TF.FileFunction,Plated,1,2,PTH
FMAT,2
METRIC
T1C0.200
T2C0.700
T3C0.800
T4C0.950
T5C1.000
T6C1.100
T7C1.400
%
G90
G05
T1
X150.33Y46.256
X150.741Y16.274
X150.965Y19.403
X151.511Y14.478
X151.658Y4.084
X151.765Y9.271
X151.824Y11.87
X152.019Y6.731
X152.273Y1.524
X152.781Y-19.431
X153.289Y-16.764
X153.797Y-14.224
X154.305Y-11.557
X154.813Y-8.89
X155.321Y-6.35
X155.829Y-3.683
X156.337Y-1.016
X157.155Y48.682
X157.582Y30.277
X158.064Y58.875
X159.253Y20.858
X160.665Y60.005
X160.691Y37.026
X160.733Y21.389
X160.782Y22.047
X161.387Y63.617
X161.407Y65.636
X161.737Y32.197
X162.282Y60.682
X162.634Y39.403
X163.449Y37.084
X163.703Y38.735
X164.727Y36.203
X164.727Y33.175
X165.227Y32.385
X165.235Y35.433
X165.735Y37.846
X166.637Y40.467
X167.386Y9.144
X167.46Y40.98
X167.488Y20.777
X167.589Y22.2
X168.021Y49.022
X168.046Y21.438
X168.529Y33.02
X168.593Y43.117
X168.758Y32.233
X169.393Y43.672
X169.672Y13.843
X170.053Y48.768
X170.18Y44.072
X170.942Y44.577
X171.005Y45.58
X171.704Y35.433
X171.831Y45.085
X172.593Y37.211
X173.482Y35.306
X173.736Y9.398
X173.863Y18.542
X179.393Y47.036
X179.959Y9.271
X180.086Y19.304
X182.372Y33.663
X182.372Y31.115
X183.236Y53.696
X183.261Y29.845
X183.441Y45.082
X183.769Y40.005
X183.769Y37.465
X183.769Y34.925
X183.896Y55.245
X183.896Y36.195
X183.896Y31.115
X184.023Y38.735
X184.053Y41.277
X184.758Y55.745
X186.182Y13.83
X186.182Y9.398
X186.69Y40.742
X187.452Y11.43
X189.741Y67.821
X190.535Y43.907
X190.535Y32.801
X190.564Y21.272
X191.833Y64.874
X193.767Y43.145
X194.437Y48.895
X194.531Y63.82
X194.564Y51.435
X194.564Y61.976
X194.564Y54.229
X195.453Y45.72
X195.952Y2.04
X195.961Y16.637
X195.961Y-9.398
X196.088Y37.719
X196.85Y49.53
X196.85Y41.656
X196.85Y34.036
X196.85Y27.051
X196.85Y19.939
X196.85Y12.573
X196.85Y5.207
X196.85Y-2.032
X198.564Y16.573
T2
X144.78Y-26.797
X148.59Y-26.797
T3
X154.686Y39.497
X159.566Y39.497
T4
X145.034Y29.083
X145.034Y26.583
X145.034Y24.083
X145.034Y21.583
X145.034Y13.462
X145.034Y10.962
X145.034Y8.462
X145.034Y5.962
X145.034Y3.462
X145.034Y0.962
X145.034Y-1.538
X145.034Y-4.038
X145.034Y-6.538
X145.034Y-9.038
X145.034Y-11.538
X145.034Y-14.038
X145.034Y-16.538
X145.034Y-19.038
T5
X144.264Y53.734
X144.264Y51.194
X144.264Y48.654
X144.264Y46.114
X162.814Y18.923
X162.814Y16.383
X164.208Y6.731
X164.208Y4.191
X164.208Y-5.969
X164.208Y-13.589
X165.354Y18.923
X165.354Y16.383
X167.894Y18.923
X167.894Y16.383
X170.558Y6.731
X170.558Y4.191
X170.558Y-5.969
X170.558Y-13.589
X176.781Y6.731
X176.781Y4.191
X176.781Y-5.969
X176.781Y-13.589
X183.385Y6.731
X183.385Y4.191
X183.385Y-5.969
X183.385Y-13.589
X186.817Y61.341
X186.817Y58.801
X189.357Y61.341
X189.357Y58.801
X189.735Y6.731
X189.735Y4.191
X189.735Y-5.969
X189.735Y-13.589
X203.835Y62.1
X203.835Y54.692
X203.835Y47.283
X203.835Y39.875
X203.835Y32.467
X203.835Y25.058
X203.835Y17.65
X203.835Y10.242
X203.835Y2.833
X203.835Y-4.575
X203.835Y-11.983
X206.375Y62.1
X206.375Y54.692
X206.375Y47.283
X206.375Y39.875
X206.375Y32.467
X206.375Y25.058
X206.375Y17.65
X206.375Y10.242
X206.375Y2.833
X206.375Y-4.575
X206.375Y-11.983
X216.535Y62.1
X216.535Y54.692
X216.535Y47.283
X216.535Y39.875
X216.535Y32.467
X216.535Y25.058
X216.535Y17.65
X216.535Y10.242
X216.535Y2.833
X216.535Y-4.575
X216.535Y-11.983
X224.155Y62.1
X224.155Y54.692
X224.155Y47.283
X224.155Y39.875
X224.155Y32.467
X224.155Y25.058
X224.155Y17.65
X224.155Y10.242
X224.155Y2.833
X224.155Y-4.575
X224.155Y-11.983
T6
X143.914Y40.846
X143.914Y34.346
X148.414Y40.846
X148.414Y34.346
T7
X155.655Y-24.003
X160.655Y-24.003
X166.831Y-24.003
X171.831Y-24.003
X178.134Y-24.003
X183.134Y-24.003
X189.31Y-24.003
X194.31Y-24.003
X200.486Y-24.003
X205.486Y-24.003
X211.662Y-24.003
X216.662Y-24.003
X222.838Y-24.003
X227.838Y-24.003
X235.481Y65.537
X235.481Y60.537
X235.504Y43.451
X235.504Y38.451
X235.509Y54.526
X235.509Y49.526
X235.511Y32.363
X235.511Y27.363
X235.511Y-0.876
X235.511Y-5.876
X235.511Y-11.932
X235.511Y-16.932
X235.516Y10.204
X235.516Y5.204
X235.519Y-22.987
X235.519Y-27.987
X235.522Y21.274
X235.522Y16.274
T5
X146.4Y64.5G85X146.4Y62.5
G05
X148.4Y58.8G85X150.4Y58.8
G05
X152.4Y64.5G85X152.4Y62.5
G05
T0
M30
