%FSLAX45Y45*%
G04 Gerber Fmt 4.5, Leading zero omitted, Abs format (unit mm)*
G04 Created by KiCad (PCBNEW (5.1.12)-1) date 2021-11-18 21:12:21*
%MOMM*%
%LPD*%
G01*
G04 APERTURE LIST*
%TA.AperFunction,Profile*%
%ADD10C,0.050000*%
%TD*%
%ADD11C,0.200000*%
%ADD12C,0.300000*%
G04 APERTURE END LIST*
D10*
X16319500Y6858000D02*
X14224000Y6858000D01*
X14224000Y6858000D02*
X14224000Y-3111500D01*
X16319500Y6413500D02*
X16319500Y6858000D01*
X18097500Y6413500D02*
X16319500Y6413500D01*
X18097500Y6858000D02*
X18097500Y6413500D01*
X18224500Y6858000D02*
X18097500Y6858000D01*
X24257000Y-3111500D02*
X14224000Y-3111500D01*
X24257000Y6858000D02*
X24257000Y-3111500D01*
X18224500Y6858000D02*
X24257000Y6858000D01*
D11*
D12*
X14507928Y-3579714D02*
X14507928Y-3279714D01*
X14579357Y-3279714D01*
X14622214Y-3294000D01*
X14650786Y-3322571D01*
X14665071Y-3351143D01*
X14679357Y-3408286D01*
X14679357Y-3451143D01*
X14665071Y-3508286D01*
X14650786Y-3536857D01*
X14622214Y-3565429D01*
X14579357Y-3579714D01*
X14507928Y-3579714D01*
X14807928Y-3579714D02*
X14807928Y-3379714D01*
X14807928Y-3436857D02*
X14822214Y-3408286D01*
X14836500Y-3394000D01*
X14865071Y-3379714D01*
X14893643Y-3379714D01*
X14993643Y-3579714D02*
X14993643Y-3379714D01*
X14993643Y-3279714D02*
X14979357Y-3294000D01*
X14993643Y-3308286D01*
X15007928Y-3294000D01*
X14993643Y-3279714D01*
X14993643Y-3308286D01*
X15179357Y-3579714D02*
X15150786Y-3565429D01*
X15136500Y-3536857D01*
X15136500Y-3279714D01*
X15336500Y-3579714D02*
X15307928Y-3565429D01*
X15293643Y-3536857D01*
X15293643Y-3279714D01*
X15679357Y-3579714D02*
X15679357Y-3279714D01*
X15779357Y-3494000D01*
X15879357Y-3279714D01*
X15879357Y-3579714D01*
X16150786Y-3579714D02*
X16150786Y-3422571D01*
X16136500Y-3394000D01*
X16107928Y-3379714D01*
X16050786Y-3379714D01*
X16022214Y-3394000D01*
X16150786Y-3565429D02*
X16122214Y-3579714D01*
X16050786Y-3579714D01*
X16022214Y-3565429D01*
X16007928Y-3536857D01*
X16007928Y-3508286D01*
X16022214Y-3479714D01*
X16050786Y-3465429D01*
X16122214Y-3465429D01*
X16150786Y-3451143D01*
X16293643Y-3379714D02*
X16293643Y-3679714D01*
X16293643Y-3394000D02*
X16322214Y-3379714D01*
X16379357Y-3379714D01*
X16407928Y-3394000D01*
X16422214Y-3408286D01*
X16436500Y-3436857D01*
X16436500Y-3522571D01*
X16422214Y-3551143D01*
X16407928Y-3565429D01*
X16379357Y-3579714D01*
X16322214Y-3579714D01*
X16293643Y-3565429D01*
X16565071Y-3551143D02*
X16579357Y-3565429D01*
X16565071Y-3579714D01*
X16550786Y-3565429D01*
X16565071Y-3551143D01*
X16565071Y-3579714D01*
X16565071Y-3394000D02*
X16579357Y-3408286D01*
X16565071Y-3422571D01*
X16550786Y-3408286D01*
X16565071Y-3394000D01*
X16565071Y-3422571D01*
M02*
