G04 #@! TF.GenerationSoftware,KiCad,Pcbnew,(5.1.12)-1*
G04 #@! TF.CreationDate,2021-11-18T21:12:02+02:00*
G04 #@! TF.ProjectId,SmartHome,536d6172-7448-46f6-9d65-2e6b69636164,rev?*
G04 #@! TF.SameCoordinates,Original*
G04 #@! TF.FileFunction,Copper,L2,Bot*
G04 #@! TF.FilePolarity,Positive*
%FSLAX46Y46*%
G04 Gerber Fmt 4.6, Leading zero omitted, Abs format (unit mm)*
G04 Created by KiCad (PCBNEW (5.1.12)-1) date 2021-11-18 21:12:02*
%MOMM*%
%LPD*%
G01*
G04 APERTURE LIST*
G04 #@! TA.AperFunction,ComponentPad*
%ADD10R,1.700000X1.700000*%
G04 #@! TD*
G04 #@! TA.AperFunction,ComponentPad*
%ADD11O,1.700000X1.700000*%
G04 #@! TD*
G04 #@! TA.AperFunction,ComponentPad*
%ADD12R,1.508000X1.508000*%
G04 #@! TD*
G04 #@! TA.AperFunction,ComponentPad*
%ADD13C,1.508000*%
G04 #@! TD*
G04 #@! TA.AperFunction,ComponentPad*
%ADD14C,1.400000*%
G04 #@! TD*
G04 #@! TA.AperFunction,ComponentPad*
%ADD15R,1.400000X1.400000*%
G04 #@! TD*
G04 #@! TA.AperFunction,ComponentPad*
%ADD16O,1.950000X1.700000*%
G04 #@! TD*
G04 #@! TA.AperFunction,ComponentPad*
%ADD17C,2.000000*%
G04 #@! TD*
G04 #@! TA.AperFunction,ComponentPad*
%ADD18C,1.500000*%
G04 #@! TD*
G04 #@! TA.AperFunction,ComponentPad*
%ADD19C,2.800000*%
G04 #@! TD*
G04 #@! TA.AperFunction,ComponentPad*
%ADD20R,2.800000X2.800000*%
G04 #@! TD*
G04 #@! TA.AperFunction,ComponentPad*
%ADD21R,3.500000X3.500000*%
G04 #@! TD*
G04 #@! TA.AperFunction,ViaPad*
%ADD22C,0.400000*%
G04 #@! TD*
G04 #@! TA.AperFunction,Conductor*
%ADD23C,0.200000*%
G04 #@! TD*
G04 #@! TA.AperFunction,Conductor*
%ADD24C,0.250000*%
G04 #@! TD*
G04 #@! TA.AperFunction,Conductor*
%ADD25C,0.800000*%
G04 #@! TD*
G04 APERTURE END LIST*
G04 #@! TA.AperFunction,SMDPad,CuDef*
G36*
G01*
X150295560Y17218239D02*
X150295560Y18118241D01*
G75*
G02*
X150545559Y18368240I249999J0D01*
G01*
X151070561Y18368240D01*
G75*
G02*
X151320560Y18118241I0J-249999D01*
G01*
X151320560Y17218239D01*
G75*
G02*
X151070561Y16968240I-249999J0D01*
G01*
X150545559Y16968240D01*
G75*
G02*
X150295560Y17218239I0J249999D01*
G01*
G37*
G04 #@! TD.AperFunction*
G04 #@! TA.AperFunction,SMDPad,CuDef*
G36*
G01*
X148470560Y17218239D02*
X148470560Y18118241D01*
G75*
G02*
X148720559Y18368240I249999J0D01*
G01*
X149245561Y18368240D01*
G75*
G02*
X149495560Y18118241I0J-249999D01*
G01*
X149495560Y17218239D01*
G75*
G02*
X149245561Y16968240I-249999J0D01*
G01*
X148720559Y16968240D01*
G75*
G02*
X148470560Y17218239I0J249999D01*
G01*
G37*
G04 #@! TD.AperFunction*
D10*
X144264380Y53733700D03*
D11*
X144264380Y51193700D03*
X144264380Y48653700D03*
X144264380Y46113700D03*
D12*
X164208000Y-13589000D03*
D13*
X164208000Y-5969000D03*
X164208000Y4191000D03*
X164208000Y6731000D03*
D14*
X144780000Y-26797000D03*
D15*
X148590000Y-26797000D03*
D16*
X145034000Y21583000D03*
X145034000Y24083000D03*
X145034000Y26583000D03*
G04 #@! TA.AperFunction,ComponentPad*
G36*
G01*
X144309000Y29933000D02*
X145759000Y29933000D01*
G75*
G02*
X146009000Y29683000I0J-250000D01*
G01*
X146009000Y28483000D01*
G75*
G02*
X145759000Y28233000I-250000J0D01*
G01*
X144309000Y28233000D01*
G75*
G02*
X144059000Y28483000I0J250000D01*
G01*
X144059000Y29683000D01*
G75*
G02*
X144309000Y29933000I250000J0D01*
G01*
G37*
G04 #@! TD.AperFunction*
D17*
X143913860Y40845880D03*
X148413860Y40845880D03*
X143913860Y34345880D03*
X148413860Y34345880D03*
G04 #@! TA.AperFunction,SMDPad,CuDef*
G36*
G01*
X159126500Y-19754001D02*
X159126500Y-18853999D01*
G75*
G02*
X159376499Y-18604000I249999J0D01*
G01*
X159901501Y-18604000D01*
G75*
G02*
X160151500Y-18853999I0J-249999D01*
G01*
X160151500Y-19754001D01*
G75*
G02*
X159901501Y-20004000I-249999J0D01*
G01*
X159376499Y-20004000D01*
G75*
G02*
X159126500Y-19754001I0J249999D01*
G01*
G37*
G04 #@! TD.AperFunction*
G04 #@! TA.AperFunction,SMDPad,CuDef*
G36*
G01*
X157301500Y-19754001D02*
X157301500Y-18853999D01*
G75*
G02*
X157551499Y-18604000I249999J0D01*
G01*
X158076501Y-18604000D01*
G75*
G02*
X158326500Y-18853999I0J-249999D01*
G01*
X158326500Y-19754001D01*
G75*
G02*
X158076501Y-20004000I-249999J0D01*
G01*
X157551499Y-20004000D01*
G75*
G02*
X157301500Y-19754001I0J249999D01*
G01*
G37*
G04 #@! TD.AperFunction*
G04 #@! TA.AperFunction,SMDPad,CuDef*
G36*
G01*
X159046500Y-17155381D02*
X159046500Y-16255379D01*
G75*
G02*
X159296499Y-16005380I249999J0D01*
G01*
X159821501Y-16005380D01*
G75*
G02*
X160071500Y-16255379I0J-249999D01*
G01*
X160071500Y-17155381D01*
G75*
G02*
X159821501Y-17405380I-249999J0D01*
G01*
X159296499Y-17405380D01*
G75*
G02*
X159046500Y-17155381I0J249999D01*
G01*
G37*
G04 #@! TD.AperFunction*
G04 #@! TA.AperFunction,SMDPad,CuDef*
G36*
G01*
X157221500Y-17155381D02*
X157221500Y-16255379D01*
G75*
G02*
X157471499Y-16005380I249999J0D01*
G01*
X157996501Y-16005380D01*
G75*
G02*
X158246500Y-16255379I0J-249999D01*
G01*
X158246500Y-17155381D01*
G75*
G02*
X157996501Y-17405380I-249999J0D01*
G01*
X157471499Y-17405380D01*
G75*
G02*
X157221500Y-17155381I0J249999D01*
G01*
G37*
G04 #@! TD.AperFunction*
G04 #@! TA.AperFunction,SMDPad,CuDef*
G36*
G01*
X150260000Y-19881001D02*
X150260000Y-18980999D01*
G75*
G02*
X150509999Y-18731000I249999J0D01*
G01*
X151035001Y-18731000D01*
G75*
G02*
X151285000Y-18980999I0J-249999D01*
G01*
X151285000Y-19881001D01*
G75*
G02*
X151035001Y-20131000I-249999J0D01*
G01*
X150509999Y-20131000D01*
G75*
G02*
X150260000Y-19881001I0J249999D01*
G01*
G37*
G04 #@! TD.AperFunction*
G04 #@! TA.AperFunction,SMDPad,CuDef*
G36*
G01*
X148435000Y-19881001D02*
X148435000Y-18980999D01*
G75*
G02*
X148684999Y-18731000I249999J0D01*
G01*
X149210001Y-18731000D01*
G75*
G02*
X149460000Y-18980999I0J-249999D01*
G01*
X149460000Y-19881001D01*
G75*
G02*
X149210001Y-20131000I-249999J0D01*
G01*
X148684999Y-20131000D01*
G75*
G02*
X148435000Y-19881001I0J249999D01*
G01*
G37*
G04 #@! TD.AperFunction*
G04 #@! TA.AperFunction,SMDPad,CuDef*
G36*
G01*
X150260000Y-17272609D02*
X150260000Y-16372607D01*
G75*
G02*
X150509999Y-16122608I249999J0D01*
G01*
X151035001Y-16122608D01*
G75*
G02*
X151285000Y-16372607I0J-249999D01*
G01*
X151285000Y-17272609D01*
G75*
G02*
X151035001Y-17522608I-249999J0D01*
G01*
X150509999Y-17522608D01*
G75*
G02*
X150260000Y-17272609I0J249999D01*
G01*
G37*
G04 #@! TD.AperFunction*
G04 #@! TA.AperFunction,SMDPad,CuDef*
G36*
G01*
X148435000Y-17272609D02*
X148435000Y-16372607D01*
G75*
G02*
X148684999Y-16122608I249999J0D01*
G01*
X149210001Y-16122608D01*
G75*
G02*
X149460000Y-16372607I0J-249999D01*
G01*
X149460000Y-17272609D01*
G75*
G02*
X149210001Y-17522608I-249999J0D01*
G01*
X148684999Y-17522608D01*
G75*
G02*
X148435000Y-17272609I0J249999D01*
G01*
G37*
G04 #@! TD.AperFunction*
G04 #@! TA.AperFunction,SMDPad,CuDef*
G36*
G01*
X159046500Y-11958151D02*
X159046500Y-11058149D01*
G75*
G02*
X159296499Y-10808150I249999J0D01*
G01*
X159821501Y-10808150D01*
G75*
G02*
X160071500Y-11058149I0J-249999D01*
G01*
X160071500Y-11958151D01*
G75*
G02*
X159821501Y-12208150I-249999J0D01*
G01*
X159296499Y-12208150D01*
G75*
G02*
X159046500Y-11958151I0J249999D01*
G01*
G37*
G04 #@! TD.AperFunction*
G04 #@! TA.AperFunction,SMDPad,CuDef*
G36*
G01*
X157221500Y-11958151D02*
X157221500Y-11058149D01*
G75*
G02*
X157471499Y-10808150I249999J0D01*
G01*
X157996501Y-10808150D01*
G75*
G02*
X158246500Y-11058149I0J-249999D01*
G01*
X158246500Y-11958151D01*
G75*
G02*
X157996501Y-12208150I-249999J0D01*
G01*
X157471499Y-12208150D01*
G75*
G02*
X157221500Y-11958151I0J249999D01*
G01*
G37*
G04 #@! TD.AperFunction*
G04 #@! TA.AperFunction,SMDPad,CuDef*
G36*
G01*
X159046500Y-9359536D02*
X159046500Y-8459534D01*
G75*
G02*
X159296499Y-8209535I249999J0D01*
G01*
X159821501Y-8209535D01*
G75*
G02*
X160071500Y-8459534I0J-249999D01*
G01*
X160071500Y-9359536D01*
G75*
G02*
X159821501Y-9609535I-249999J0D01*
G01*
X159296499Y-9609535D01*
G75*
G02*
X159046500Y-9359536I0J249999D01*
G01*
G37*
G04 #@! TD.AperFunction*
G04 #@! TA.AperFunction,SMDPad,CuDef*
G36*
G01*
X157221500Y-9359536D02*
X157221500Y-8459534D01*
G75*
G02*
X157471499Y-8209535I249999J0D01*
G01*
X157996501Y-8209535D01*
G75*
G02*
X158246500Y-8459534I0J-249999D01*
G01*
X158246500Y-9359536D01*
G75*
G02*
X157996501Y-9609535I-249999J0D01*
G01*
X157471499Y-9609535D01*
G75*
G02*
X157221500Y-9359536I0J249999D01*
G01*
G37*
G04 #@! TD.AperFunction*
G04 #@! TA.AperFunction,SMDPad,CuDef*
G36*
G01*
X159046500Y-14556766D02*
X159046500Y-13656764D01*
G75*
G02*
X159296499Y-13406765I249999J0D01*
G01*
X159821501Y-13406765D01*
G75*
G02*
X160071500Y-13656764I0J-249999D01*
G01*
X160071500Y-14556766D01*
G75*
G02*
X159821501Y-14806765I-249999J0D01*
G01*
X159296499Y-14806765D01*
G75*
G02*
X159046500Y-14556766I0J249999D01*
G01*
G37*
G04 #@! TD.AperFunction*
G04 #@! TA.AperFunction,SMDPad,CuDef*
G36*
G01*
X157221500Y-14556766D02*
X157221500Y-13656764D01*
G75*
G02*
X157471499Y-13406765I249999J0D01*
G01*
X157996501Y-13406765D01*
G75*
G02*
X158246500Y-13656764I0J-249999D01*
G01*
X158246500Y-14556766D01*
G75*
G02*
X157996501Y-14806765I-249999J0D01*
G01*
X157471499Y-14806765D01*
G75*
G02*
X157221500Y-14556766I0J249999D01*
G01*
G37*
G04 #@! TD.AperFunction*
G04 #@! TA.AperFunction,SMDPad,CuDef*
G36*
G01*
X150260000Y-12055841D02*
X150260000Y-11155839D01*
G75*
G02*
X150509999Y-10905840I249999J0D01*
G01*
X151035001Y-10905840D01*
G75*
G02*
X151285000Y-11155839I0J-249999D01*
G01*
X151285000Y-12055841D01*
G75*
G02*
X151035001Y-12305840I-249999J0D01*
G01*
X150509999Y-12305840D01*
G75*
G02*
X150260000Y-12055841I0J249999D01*
G01*
G37*
G04 #@! TD.AperFunction*
G04 #@! TA.AperFunction,SMDPad,CuDef*
G36*
G01*
X148435000Y-12055841D02*
X148435000Y-11155839D01*
G75*
G02*
X148684999Y-10905840I249999J0D01*
G01*
X149210001Y-10905840D01*
G75*
G02*
X149460000Y-11155839I0J-249999D01*
G01*
X149460000Y-12055841D01*
G75*
G02*
X149210001Y-12305840I-249999J0D01*
G01*
X148684999Y-12305840D01*
G75*
G02*
X148435000Y-12055841I0J249999D01*
G01*
G37*
G04 #@! TD.AperFunction*
G04 #@! TA.AperFunction,SMDPad,CuDef*
G36*
G01*
X150260000Y-9447457D02*
X150260000Y-8547455D01*
G75*
G02*
X150509999Y-8297456I249999J0D01*
G01*
X151035001Y-8297456D01*
G75*
G02*
X151285000Y-8547455I0J-249999D01*
G01*
X151285000Y-9447457D01*
G75*
G02*
X151035001Y-9697456I-249999J0D01*
G01*
X150509999Y-9697456D01*
G75*
G02*
X150260000Y-9447457I0J249999D01*
G01*
G37*
G04 #@! TD.AperFunction*
G04 #@! TA.AperFunction,SMDPad,CuDef*
G36*
G01*
X148435000Y-9447457D02*
X148435000Y-8547455D01*
G75*
G02*
X148684999Y-8297456I249999J0D01*
G01*
X149210001Y-8297456D01*
G75*
G02*
X149460000Y-8547455I0J-249999D01*
G01*
X149460000Y-9447457D01*
G75*
G02*
X149210001Y-9697456I-249999J0D01*
G01*
X148684999Y-9697456D01*
G75*
G02*
X148435000Y-9447457I0J249999D01*
G01*
G37*
G04 #@! TD.AperFunction*
G04 #@! TA.AperFunction,SMDPad,CuDef*
G36*
G01*
X150260000Y-14664225D02*
X150260000Y-13764223D01*
G75*
G02*
X150509999Y-13514224I249999J0D01*
G01*
X151035001Y-13514224D01*
G75*
G02*
X151285000Y-13764223I0J-249999D01*
G01*
X151285000Y-14664225D01*
G75*
G02*
X151035001Y-14914224I-249999J0D01*
G01*
X150509999Y-14914224D01*
G75*
G02*
X150260000Y-14664225I0J249999D01*
G01*
G37*
G04 #@! TD.AperFunction*
G04 #@! TA.AperFunction,SMDPad,CuDef*
G36*
G01*
X148435000Y-14664225D02*
X148435000Y-13764223D01*
G75*
G02*
X148684999Y-13514224I249999J0D01*
G01*
X149210001Y-13514224D01*
G75*
G02*
X149460000Y-13764223I0J-249999D01*
G01*
X149460000Y-14664225D01*
G75*
G02*
X149210001Y-14914224I-249999J0D01*
G01*
X148684999Y-14914224D01*
G75*
G02*
X148435000Y-14664225I0J249999D01*
G01*
G37*
G04 #@! TD.AperFunction*
G04 #@! TA.AperFunction,SMDPad,CuDef*
G36*
G01*
X159046500Y-4162306D02*
X159046500Y-3262304D01*
G75*
G02*
X159296499Y-3012305I249999J0D01*
G01*
X159821501Y-3012305D01*
G75*
G02*
X160071500Y-3262304I0J-249999D01*
G01*
X160071500Y-4162306D01*
G75*
G02*
X159821501Y-4412305I-249999J0D01*
G01*
X159296499Y-4412305D01*
G75*
G02*
X159046500Y-4162306I0J249999D01*
G01*
G37*
G04 #@! TD.AperFunction*
G04 #@! TA.AperFunction,SMDPad,CuDef*
G36*
G01*
X157221500Y-4162306D02*
X157221500Y-3262304D01*
G75*
G02*
X157471499Y-3012305I249999J0D01*
G01*
X157996501Y-3012305D01*
G75*
G02*
X158246500Y-3262304I0J-249999D01*
G01*
X158246500Y-4162306D01*
G75*
G02*
X157996501Y-4412305I-249999J0D01*
G01*
X157471499Y-4412305D01*
G75*
G02*
X157221500Y-4162306I0J249999D01*
G01*
G37*
G04 #@! TD.AperFunction*
G04 #@! TA.AperFunction,SMDPad,CuDef*
G36*
G01*
X159046500Y-1563691D02*
X159046500Y-663689D01*
G75*
G02*
X159296499Y-413690I249999J0D01*
G01*
X159821501Y-413690D01*
G75*
G02*
X160071500Y-663689I0J-249999D01*
G01*
X160071500Y-1563691D01*
G75*
G02*
X159821501Y-1813690I-249999J0D01*
G01*
X159296499Y-1813690D01*
G75*
G02*
X159046500Y-1563691I0J249999D01*
G01*
G37*
G04 #@! TD.AperFunction*
G04 #@! TA.AperFunction,SMDPad,CuDef*
G36*
G01*
X157221500Y-1563691D02*
X157221500Y-663689D01*
G75*
G02*
X157471499Y-413690I249999J0D01*
G01*
X157996501Y-413690D01*
G75*
G02*
X158246500Y-663689I0J-249999D01*
G01*
X158246500Y-1563691D01*
G75*
G02*
X157996501Y-1813690I-249999J0D01*
G01*
X157471499Y-1813690D01*
G75*
G02*
X157221500Y-1563691I0J249999D01*
G01*
G37*
G04 #@! TD.AperFunction*
G04 #@! TA.AperFunction,SMDPad,CuDef*
G36*
G01*
X159046500Y-6760921D02*
X159046500Y-5860919D01*
G75*
G02*
X159296499Y-5610920I249999J0D01*
G01*
X159821501Y-5610920D01*
G75*
G02*
X160071500Y-5860919I0J-249999D01*
G01*
X160071500Y-6760921D01*
G75*
G02*
X159821501Y-7010920I-249999J0D01*
G01*
X159296499Y-7010920D01*
G75*
G02*
X159046500Y-6760921I0J249999D01*
G01*
G37*
G04 #@! TD.AperFunction*
G04 #@! TA.AperFunction,SMDPad,CuDef*
G36*
G01*
X157221500Y-6760921D02*
X157221500Y-5860919D01*
G75*
G02*
X157471499Y-5610920I249999J0D01*
G01*
X157996501Y-5610920D01*
G75*
G02*
X158246500Y-5860919I0J-249999D01*
G01*
X158246500Y-6760921D01*
G75*
G02*
X157996501Y-7010920I-249999J0D01*
G01*
X157471499Y-7010920D01*
G75*
G02*
X157221500Y-6760921I0J249999D01*
G01*
G37*
G04 #@! TD.AperFunction*
G04 #@! TA.AperFunction,SMDPad,CuDef*
G36*
G01*
X150260000Y-4230689D02*
X150260000Y-3330687D01*
G75*
G02*
X150509999Y-3080688I249999J0D01*
G01*
X151035001Y-3080688D01*
G75*
G02*
X151285000Y-3330687I0J-249999D01*
G01*
X151285000Y-4230689D01*
G75*
G02*
X151035001Y-4480688I-249999J0D01*
G01*
X150509999Y-4480688D01*
G75*
G02*
X150260000Y-4230689I0J249999D01*
G01*
G37*
G04 #@! TD.AperFunction*
G04 #@! TA.AperFunction,SMDPad,CuDef*
G36*
G01*
X148435000Y-4230689D02*
X148435000Y-3330687D01*
G75*
G02*
X148684999Y-3080688I249999J0D01*
G01*
X149210001Y-3080688D01*
G75*
G02*
X149460000Y-3330687I0J-249999D01*
G01*
X149460000Y-4230689D01*
G75*
G02*
X149210001Y-4480688I-249999J0D01*
G01*
X148684999Y-4480688D01*
G75*
G02*
X148435000Y-4230689I0J249999D01*
G01*
G37*
G04 #@! TD.AperFunction*
G04 #@! TA.AperFunction,SMDPad,CuDef*
G36*
G01*
X150260000Y-1622305D02*
X150260000Y-722303D01*
G75*
G02*
X150509999Y-472304I249999J0D01*
G01*
X151035001Y-472304D01*
G75*
G02*
X151285000Y-722303I0J-249999D01*
G01*
X151285000Y-1622305D01*
G75*
G02*
X151035001Y-1872304I-249999J0D01*
G01*
X150509999Y-1872304D01*
G75*
G02*
X150260000Y-1622305I0J249999D01*
G01*
G37*
G04 #@! TD.AperFunction*
G04 #@! TA.AperFunction,SMDPad,CuDef*
G36*
G01*
X148435000Y-1622305D02*
X148435000Y-722303D01*
G75*
G02*
X148684999Y-472304I249999J0D01*
G01*
X149210001Y-472304D01*
G75*
G02*
X149460000Y-722303I0J-249999D01*
G01*
X149460000Y-1622305D01*
G75*
G02*
X149210001Y-1872304I-249999J0D01*
G01*
X148684999Y-1872304D01*
G75*
G02*
X148435000Y-1622305I0J249999D01*
G01*
G37*
G04 #@! TD.AperFunction*
G04 #@! TA.AperFunction,SMDPad,CuDef*
G36*
G01*
X150260000Y-6839073D02*
X150260000Y-5939071D01*
G75*
G02*
X150509999Y-5689072I249999J0D01*
G01*
X151035001Y-5689072D01*
G75*
G02*
X151285000Y-5939071I0J-249999D01*
G01*
X151285000Y-6839073D01*
G75*
G02*
X151035001Y-7089072I-249999J0D01*
G01*
X150509999Y-7089072D01*
G75*
G02*
X150260000Y-6839073I0J249999D01*
G01*
G37*
G04 #@! TD.AperFunction*
G04 #@! TA.AperFunction,SMDPad,CuDef*
G36*
G01*
X148435000Y-6839073D02*
X148435000Y-5939071D01*
G75*
G02*
X148684999Y-5689072I249999J0D01*
G01*
X149210001Y-5689072D01*
G75*
G02*
X149460000Y-5939071I0J-249999D01*
G01*
X149460000Y-6839073D01*
G75*
G02*
X149210001Y-7089072I-249999J0D01*
G01*
X148684999Y-7089072D01*
G75*
G02*
X148435000Y-6839073I0J249999D01*
G01*
G37*
G04 #@! TD.AperFunction*
G04 #@! TA.AperFunction,SMDPad,CuDef*
G36*
G01*
X159046500Y3633539D02*
X159046500Y4533541D01*
G75*
G02*
X159296499Y4783540I249999J0D01*
G01*
X159821501Y4783540D01*
G75*
G02*
X160071500Y4533541I0J-249999D01*
G01*
X160071500Y3633539D01*
G75*
G02*
X159821501Y3383540I-249999J0D01*
G01*
X159296499Y3383540D01*
G75*
G02*
X159046500Y3633539I0J249999D01*
G01*
G37*
G04 #@! TD.AperFunction*
G04 #@! TA.AperFunction,SMDPad,CuDef*
G36*
G01*
X157221500Y3633539D02*
X157221500Y4533541D01*
G75*
G02*
X157471499Y4783540I249999J0D01*
G01*
X157996501Y4783540D01*
G75*
G02*
X158246500Y4533541I0J-249999D01*
G01*
X158246500Y3633539D01*
G75*
G02*
X157996501Y3383540I-249999J0D01*
G01*
X157471499Y3383540D01*
G75*
G02*
X157221500Y3633539I0J249999D01*
G01*
G37*
G04 #@! TD.AperFunction*
G04 #@! TA.AperFunction,SMDPad,CuDef*
G36*
G01*
X159046500Y6232154D02*
X159046500Y7132156D01*
G75*
G02*
X159296499Y7382155I249999J0D01*
G01*
X159821501Y7382155D01*
G75*
G02*
X160071500Y7132156I0J-249999D01*
G01*
X160071500Y6232154D01*
G75*
G02*
X159821501Y5982155I-249999J0D01*
G01*
X159296499Y5982155D01*
G75*
G02*
X159046500Y6232154I0J249999D01*
G01*
G37*
G04 #@! TD.AperFunction*
G04 #@! TA.AperFunction,SMDPad,CuDef*
G36*
G01*
X157221500Y6232154D02*
X157221500Y7132156D01*
G75*
G02*
X157471499Y7382155I249999J0D01*
G01*
X157996501Y7382155D01*
G75*
G02*
X158246500Y7132156I0J-249999D01*
G01*
X158246500Y6232154D01*
G75*
G02*
X157996501Y5982155I-249999J0D01*
G01*
X157471499Y5982155D01*
G75*
G02*
X157221500Y6232154I0J249999D01*
G01*
G37*
G04 #@! TD.AperFunction*
G04 #@! TA.AperFunction,SMDPad,CuDef*
G36*
G01*
X159046500Y1034924D02*
X159046500Y1934926D01*
G75*
G02*
X159296499Y2184925I249999J0D01*
G01*
X159821501Y2184925D01*
G75*
G02*
X160071500Y1934926I0J-249999D01*
G01*
X160071500Y1034924D01*
G75*
G02*
X159821501Y784925I-249999J0D01*
G01*
X159296499Y784925D01*
G75*
G02*
X159046500Y1034924I0J249999D01*
G01*
G37*
G04 #@! TD.AperFunction*
G04 #@! TA.AperFunction,SMDPad,CuDef*
G36*
G01*
X157221500Y1034924D02*
X157221500Y1934926D01*
G75*
G02*
X157471499Y2184925I249999J0D01*
G01*
X157996501Y2184925D01*
G75*
G02*
X158246500Y1934926I0J-249999D01*
G01*
X158246500Y1034924D01*
G75*
G02*
X157996501Y784925I-249999J0D01*
G01*
X157471499Y784925D01*
G75*
G02*
X157221500Y1034924I0J249999D01*
G01*
G37*
G04 #@! TD.AperFunction*
G04 #@! TA.AperFunction,SMDPad,CuDef*
G36*
G01*
X150260000Y3594463D02*
X150260000Y4494465D01*
G75*
G02*
X150509999Y4744464I249999J0D01*
G01*
X151035001Y4744464D01*
G75*
G02*
X151285000Y4494465I0J-249999D01*
G01*
X151285000Y3594463D01*
G75*
G02*
X151035001Y3344464I-249999J0D01*
G01*
X150509999Y3344464D01*
G75*
G02*
X150260000Y3594463I0J249999D01*
G01*
G37*
G04 #@! TD.AperFunction*
G04 #@! TA.AperFunction,SMDPad,CuDef*
G36*
G01*
X148435000Y3594463D02*
X148435000Y4494465D01*
G75*
G02*
X148684999Y4744464I249999J0D01*
G01*
X149210001Y4744464D01*
G75*
G02*
X149460000Y4494465I0J-249999D01*
G01*
X149460000Y3594463D01*
G75*
G02*
X149210001Y3344464I-249999J0D01*
G01*
X148684999Y3344464D01*
G75*
G02*
X148435000Y3594463I0J249999D01*
G01*
G37*
G04 #@! TD.AperFunction*
G04 #@! TA.AperFunction,SMDPad,CuDef*
G36*
G01*
X150260000Y6202847D02*
X150260000Y7102849D01*
G75*
G02*
X150509999Y7352848I249999J0D01*
G01*
X151035001Y7352848D01*
G75*
G02*
X151285000Y7102849I0J-249999D01*
G01*
X151285000Y6202847D01*
G75*
G02*
X151035001Y5952848I-249999J0D01*
G01*
X150509999Y5952848D01*
G75*
G02*
X150260000Y6202847I0J249999D01*
G01*
G37*
G04 #@! TD.AperFunction*
G04 #@! TA.AperFunction,SMDPad,CuDef*
G36*
G01*
X148435000Y6202847D02*
X148435000Y7102849D01*
G75*
G02*
X148684999Y7352848I249999J0D01*
G01*
X149210001Y7352848D01*
G75*
G02*
X149460000Y7102849I0J-249999D01*
G01*
X149460000Y6202847D01*
G75*
G02*
X149210001Y5952848I-249999J0D01*
G01*
X148684999Y5952848D01*
G75*
G02*
X148435000Y6202847I0J249999D01*
G01*
G37*
G04 #@! TD.AperFunction*
G04 #@! TA.AperFunction,SMDPad,CuDef*
G36*
G01*
X150260000Y986079D02*
X150260000Y1886081D01*
G75*
G02*
X150509999Y2136080I249999J0D01*
G01*
X151035001Y2136080D01*
G75*
G02*
X151285000Y1886081I0J-249999D01*
G01*
X151285000Y986079D01*
G75*
G02*
X151035001Y736080I-249999J0D01*
G01*
X150509999Y736080D01*
G75*
G02*
X150260000Y986079I0J249999D01*
G01*
G37*
G04 #@! TD.AperFunction*
G04 #@! TA.AperFunction,SMDPad,CuDef*
G36*
G01*
X148435000Y986079D02*
X148435000Y1886081D01*
G75*
G02*
X148684999Y2136080I249999J0D01*
G01*
X149210001Y2136080D01*
G75*
G02*
X149460000Y1886081I0J-249999D01*
G01*
X149460000Y986079D01*
G75*
G02*
X149210001Y736080I-249999J0D01*
G01*
X148684999Y736080D01*
G75*
G02*
X148435000Y986079I0J249999D01*
G01*
G37*
G04 #@! TD.AperFunction*
G04 #@! TA.AperFunction,SMDPad,CuDef*
G36*
G01*
X159046500Y11429384D02*
X159046500Y12329386D01*
G75*
G02*
X159296499Y12579385I249999J0D01*
G01*
X159821501Y12579385D01*
G75*
G02*
X160071500Y12329386I0J-249999D01*
G01*
X160071500Y11429384D01*
G75*
G02*
X159821501Y11179385I-249999J0D01*
G01*
X159296499Y11179385D01*
G75*
G02*
X159046500Y11429384I0J249999D01*
G01*
G37*
G04 #@! TD.AperFunction*
G04 #@! TA.AperFunction,SMDPad,CuDef*
G36*
G01*
X157221500Y11429384D02*
X157221500Y12329386D01*
G75*
G02*
X157471499Y12579385I249999J0D01*
G01*
X157996501Y12579385D01*
G75*
G02*
X158246500Y12329386I0J-249999D01*
G01*
X158246500Y11429384D01*
G75*
G02*
X157996501Y11179385I-249999J0D01*
G01*
X157471499Y11179385D01*
G75*
G02*
X157221500Y11429384I0J249999D01*
G01*
G37*
G04 #@! TD.AperFunction*
G04 #@! TA.AperFunction,SMDPad,CuDef*
G36*
G01*
X159126500Y14027999D02*
X159126500Y14928001D01*
G75*
G02*
X159376499Y15178000I249999J0D01*
G01*
X159901501Y15178000D01*
G75*
G02*
X160151500Y14928001I0J-249999D01*
G01*
X160151500Y14027999D01*
G75*
G02*
X159901501Y13778000I-249999J0D01*
G01*
X159376499Y13778000D01*
G75*
G02*
X159126500Y14027999I0J249999D01*
G01*
G37*
G04 #@! TD.AperFunction*
G04 #@! TA.AperFunction,SMDPad,CuDef*
G36*
G01*
X157301500Y14027999D02*
X157301500Y14928001D01*
G75*
G02*
X157551499Y15178000I249999J0D01*
G01*
X158076501Y15178000D01*
G75*
G02*
X158326500Y14928001I0J-249999D01*
G01*
X158326500Y14027999D01*
G75*
G02*
X158076501Y13778000I-249999J0D01*
G01*
X157551499Y13778000D01*
G75*
G02*
X157301500Y14027999I0J249999D01*
G01*
G37*
G04 #@! TD.AperFunction*
G04 #@! TA.AperFunction,SMDPad,CuDef*
G36*
G01*
X159046500Y8830769D02*
X159046500Y9730771D01*
G75*
G02*
X159296499Y9980770I249999J0D01*
G01*
X159821501Y9980770D01*
G75*
G02*
X160071500Y9730771I0J-249999D01*
G01*
X160071500Y8830769D01*
G75*
G02*
X159821501Y8580770I-249999J0D01*
G01*
X159296499Y8580770D01*
G75*
G02*
X159046500Y8830769I0J249999D01*
G01*
G37*
G04 #@! TD.AperFunction*
G04 #@! TA.AperFunction,SMDPad,CuDef*
G36*
G01*
X157221500Y8830769D02*
X157221500Y9730771D01*
G75*
G02*
X157471499Y9980770I249999J0D01*
G01*
X157996501Y9980770D01*
G75*
G02*
X158246500Y9730771I0J-249999D01*
G01*
X158246500Y8830769D01*
G75*
G02*
X157996501Y8580770I-249999J0D01*
G01*
X157471499Y8580770D01*
G75*
G02*
X157221500Y8830769I0J249999D01*
G01*
G37*
G04 #@! TD.AperFunction*
G04 #@! TA.AperFunction,SMDPad,CuDef*
G36*
G01*
X150260000Y11419615D02*
X150260000Y12319617D01*
G75*
G02*
X150509999Y12569616I249999J0D01*
G01*
X151035001Y12569616D01*
G75*
G02*
X151285000Y12319617I0J-249999D01*
G01*
X151285000Y11419615D01*
G75*
G02*
X151035001Y11169616I-249999J0D01*
G01*
X150509999Y11169616D01*
G75*
G02*
X150260000Y11419615I0J249999D01*
G01*
G37*
G04 #@! TD.AperFunction*
G04 #@! TA.AperFunction,SMDPad,CuDef*
G36*
G01*
X148435000Y11419615D02*
X148435000Y12319617D01*
G75*
G02*
X148684999Y12569616I249999J0D01*
G01*
X149210001Y12569616D01*
G75*
G02*
X149460000Y12319617I0J-249999D01*
G01*
X149460000Y11419615D01*
G75*
G02*
X149210001Y11169616I-249999J0D01*
G01*
X148684999Y11169616D01*
G75*
G02*
X148435000Y11419615I0J249999D01*
G01*
G37*
G04 #@! TD.AperFunction*
G04 #@! TA.AperFunction,SMDPad,CuDef*
G36*
G01*
X150260000Y14027999D02*
X150260000Y14928001D01*
G75*
G02*
X150509999Y15178000I249999J0D01*
G01*
X151035001Y15178000D01*
G75*
G02*
X151285000Y14928001I0J-249999D01*
G01*
X151285000Y14027999D01*
G75*
G02*
X151035001Y13778000I-249999J0D01*
G01*
X150509999Y13778000D01*
G75*
G02*
X150260000Y14027999I0J249999D01*
G01*
G37*
G04 #@! TD.AperFunction*
G04 #@! TA.AperFunction,SMDPad,CuDef*
G36*
G01*
X148435000Y14027999D02*
X148435000Y14928001D01*
G75*
G02*
X148684999Y15178000I249999J0D01*
G01*
X149210001Y15178000D01*
G75*
G02*
X149460000Y14928001I0J-249999D01*
G01*
X149460000Y14027999D01*
G75*
G02*
X149210001Y13778000I-249999J0D01*
G01*
X148684999Y13778000D01*
G75*
G02*
X148435000Y14027999I0J249999D01*
G01*
G37*
G04 #@! TD.AperFunction*
G04 #@! TA.AperFunction,SMDPad,CuDef*
G36*
G01*
X150260000Y8811231D02*
X150260000Y9711233D01*
G75*
G02*
X150509999Y9961232I249999J0D01*
G01*
X151035001Y9961232D01*
G75*
G02*
X151285000Y9711233I0J-249999D01*
G01*
X151285000Y8811231D01*
G75*
G02*
X151035001Y8561232I-249999J0D01*
G01*
X150509999Y8561232D01*
G75*
G02*
X150260000Y8811231I0J249999D01*
G01*
G37*
G04 #@! TD.AperFunction*
G04 #@! TA.AperFunction,SMDPad,CuDef*
G36*
G01*
X148435000Y8811231D02*
X148435000Y9711233D01*
G75*
G02*
X148684999Y9961232I249999J0D01*
G01*
X149210001Y9961232D01*
G75*
G02*
X149460000Y9711233I0J-249999D01*
G01*
X149460000Y8811231D01*
G75*
G02*
X149210001Y8561232I-249999J0D01*
G01*
X148684999Y8561232D01*
G75*
G02*
X148435000Y8811231I0J249999D01*
G01*
G37*
G04 #@! TD.AperFunction*
D16*
X145034000Y-19038000D03*
X145034000Y-16538000D03*
X145034000Y-14038000D03*
X145034000Y-11538000D03*
X145034000Y-9038000D03*
X145034000Y-6538000D03*
X145034000Y-4038000D03*
X145034000Y-1538000D03*
X145034000Y962000D03*
X145034000Y3462000D03*
X145034000Y5962000D03*
X145034000Y8462000D03*
X145034000Y10962000D03*
G04 #@! TA.AperFunction,ComponentPad*
G36*
G01*
X144309000Y14312000D02*
X145759000Y14312000D01*
G75*
G02*
X146009000Y14062000I0J-250000D01*
G01*
X146009000Y12862000D01*
G75*
G02*
X145759000Y12612000I-250000J0D01*
G01*
X144309000Y12612000D01*
G75*
G02*
X144059000Y12862000I0J250000D01*
G01*
X144059000Y14062000D01*
G75*
G02*
X144309000Y14312000I250000J0D01*
G01*
G37*
G04 #@! TD.AperFunction*
D18*
X159566000Y39497000D03*
X154686000Y39497000D03*
D12*
X170558000Y-13589000D03*
D13*
X170558000Y-5969000D03*
X170558000Y4191000D03*
X170558000Y6731000D03*
D12*
X183385000Y-13589000D03*
D13*
X183385000Y-5969000D03*
X183385000Y4191000D03*
X183385000Y6731000D03*
D12*
X176781000Y-13589000D03*
D13*
X176781000Y-5969000D03*
X176781000Y4191000D03*
X176781000Y6731000D03*
D12*
X224155000Y-11983330D03*
D13*
X216535000Y-11983330D03*
X206375000Y-11983330D03*
X203835000Y-11983330D03*
D12*
X189735000Y-13589000D03*
D13*
X189735000Y-5969000D03*
X189735000Y4191000D03*
X189735000Y6731000D03*
D12*
X224155000Y2833336D03*
D13*
X216535000Y2833336D03*
X206375000Y2833336D03*
X203835000Y2833336D03*
D12*
X224155000Y-4574997D03*
D13*
X216535000Y-4574997D03*
X206375000Y-4574997D03*
X203835000Y-4574997D03*
D12*
X224155000Y17650002D03*
D13*
X216535000Y17650002D03*
X206375000Y17650002D03*
X203835000Y17650002D03*
D12*
X224155000Y10241669D03*
D13*
X216535000Y10241669D03*
X206375000Y10241669D03*
X203835000Y10241669D03*
D12*
X224155000Y32466668D03*
D13*
X216535000Y32466668D03*
X206375000Y32466668D03*
X203835000Y32466668D03*
D12*
X224155000Y25058335D03*
D13*
X216535000Y25058335D03*
X206375000Y25058335D03*
X203835000Y25058335D03*
D12*
X224155000Y47283334D03*
D13*
X216535000Y47283334D03*
X206375000Y47283334D03*
X203835000Y47283334D03*
D12*
X224155000Y39875001D03*
D13*
X216535000Y39875001D03*
X206375000Y39875001D03*
X203835000Y39875001D03*
D12*
X224155000Y62100000D03*
D13*
X216535000Y62100000D03*
X206375000Y62100000D03*
X203835000Y62100000D03*
D12*
X224155000Y54691667D03*
D13*
X216535000Y54691667D03*
X206375000Y54691667D03*
X203835000Y54691667D03*
D19*
X166831000Y-24003000D03*
D20*
X171831000Y-24003000D03*
D19*
X155655000Y-24003000D03*
D20*
X160655000Y-24003000D03*
D19*
X189310000Y-24003000D03*
D20*
X194310000Y-24003000D03*
D19*
X178134000Y-24003000D03*
D20*
X183134000Y-24003000D03*
D19*
X211662000Y-24003000D03*
D20*
X216662000Y-24003000D03*
D19*
X200486000Y-24003000D03*
D20*
X205486000Y-24003000D03*
D19*
X235518960Y-27987000D03*
D20*
X235518960Y-22987000D03*
D19*
X222838000Y-24003000D03*
D20*
X227838000Y-24003000D03*
D19*
X235511340Y-5876300D03*
D20*
X235511340Y-876300D03*
D19*
X235511340Y-16931640D03*
D20*
X235511340Y-11931640D03*
D19*
X235521500Y16273780D03*
D20*
X235521500Y21273780D03*
D19*
X235516420Y5204460D03*
D20*
X235516420Y10204460D03*
D19*
X235503720Y38450520D03*
D20*
X235503720Y43450520D03*
D19*
X235511340Y27363420D03*
D20*
X235511340Y32363420D03*
D19*
X235480860Y60537080D03*
D20*
X235480860Y65537080D03*
D19*
X235508800Y49526180D03*
D20*
X235508800Y54526180D03*
D10*
X167894000Y18923000D03*
D11*
X167894000Y16383000D03*
X165354000Y18923000D03*
X165354000Y16383000D03*
X162814000Y18923000D03*
X162814000Y16383000D03*
D10*
X189357000Y58801000D03*
D11*
X186817000Y58801000D03*
X189357000Y61341000D03*
X186817000Y61341000D03*
D21*
X152400000Y63500000D03*
G04 #@! TA.AperFunction,ComponentPad*
G36*
G01*
X144900000Y62500000D02*
X144900000Y64500000D01*
G75*
G02*
X145650000Y65250000I750000J0D01*
G01*
X147150000Y65250000D01*
G75*
G02*
X147900000Y64500000I0J-750000D01*
G01*
X147900000Y62500000D01*
G75*
G02*
X147150000Y61750000I-750000J0D01*
G01*
X145650000Y61750000D01*
G75*
G02*
X144900000Y62500000I0J750000D01*
G01*
G37*
G04 #@! TD.AperFunction*
G04 #@! TA.AperFunction,ComponentPad*
G36*
G01*
X147650000Y57925000D02*
X147650000Y59675000D01*
G75*
G02*
X148525000Y60550000I875000J0D01*
G01*
X150275000Y60550000D01*
G75*
G02*
X151150000Y59675000I0J-875000D01*
G01*
X151150000Y57925000D01*
G75*
G02*
X150275000Y57050000I-875000J0D01*
G01*
X148525000Y57050000D01*
G75*
G02*
X147650000Y57925000I0J875000D01*
G01*
G37*
G04 #@! TD.AperFunction*
D22*
X171831000Y45085000D03*
X184053032Y41276689D03*
X183769000Y40005000D03*
X170942000Y44577000D03*
X184023000Y38735000D03*
X170179942Y44072022D03*
X183769000Y37465000D03*
X169392699Y43672011D03*
X183896000Y36195000D03*
X168593000Y43117000D03*
X183769000Y34925000D03*
X162633660Y39403020D03*
X183896000Y31115000D03*
X163703000Y38735000D03*
X183261000Y29845000D03*
X165735000Y37846000D03*
X163449000Y37084000D03*
X160665169Y60004969D03*
X160690560Y37025580D03*
X194564020Y54229020D03*
X196850000Y41656000D03*
X196850000Y34036000D03*
X196850000Y27051000D03*
X196850000Y19939000D03*
X196850000Y12573000D03*
X196850000Y5207000D03*
X195952500Y2040500D03*
X196850000Y-2032000D03*
X164726990Y33175026D03*
X164726990Y36202990D03*
X193767010Y43145010D03*
X196850000Y49530000D03*
X194530980Y63820040D03*
X187452000Y11430000D03*
X194564001Y61976019D03*
X161737000Y32197000D03*
X165227000Y32385000D03*
X172593000Y37211000D03*
X171704000Y35433000D03*
X179392580Y47035720D03*
X182372000Y31115000D03*
X186690000Y40741600D03*
X158064200Y58874660D03*
X183441340Y45082460D03*
X182372000Y33662620D03*
X165234990Y35433000D03*
X173482000Y35306000D03*
X168529000Y33020000D03*
X166636700Y40467280D03*
X168021000Y49022000D03*
X168758000Y32233000D03*
X170053000Y48768000D03*
X167459660Y40980360D03*
X151511000Y14478000D03*
X151823616Y11869616D03*
X151765000Y9271000D03*
X152019000Y6731000D03*
X151657540Y4083540D03*
X152273000Y1524000D03*
X152781000Y-19431000D03*
X153289000Y-16764000D03*
X153797000Y-14224000D03*
X154305000Y-11557000D03*
X154813000Y-8890000D03*
X155321000Y-6350000D03*
X155829000Y-3683000D03*
X156337000Y-1016000D03*
X157154520Y48682000D03*
X150329900Y46255940D03*
X161386520Y63616840D03*
X161406840Y65636140D03*
X191833500Y64874140D03*
X198564500Y16573500D03*
X195961000Y16637000D03*
X190535000Y32801000D03*
X190535000Y43907000D03*
X190563500Y21272500D03*
X189740540Y67820540D03*
X195453000Y45720000D03*
X194564000Y51435000D03*
X194437000Y48895000D03*
X196088000Y37719000D03*
X195961000Y-9398000D03*
X179959000Y9271000D03*
X180086000Y19304000D03*
X186182000Y9398000D03*
X186182000Y13830300D03*
X167386000Y9144000D03*
X169672000Y13843000D03*
X173736000Y9398000D03*
X173863000Y18542000D03*
X159252920Y20858480D03*
X183235600Y53695600D03*
X167589200Y22199600D03*
X167487600Y20777200D03*
X160733239Y21388839D03*
X184758385Y55745010D03*
X183896000Y55245000D03*
X168046400Y21437600D03*
X160782000Y22047200D03*
X162282000Y60682000D03*
X171005000Y45579800D03*
X157581600Y30276800D03*
X150964900Y19403060D03*
X150741380Y16273780D03*
D23*
X184053032Y41559531D02*
X184053032Y41276689D01*
X184053032Y43678288D02*
X184053032Y41559531D01*
X182646320Y45085000D02*
X184053032Y43678288D01*
X171831000Y45085000D02*
X182646320Y45085000D01*
X183553022Y40220978D02*
X183553022Y43511378D01*
X183769000Y40005000D02*
X183553022Y40220978D01*
X182487400Y44577000D02*
X170942000Y44577000D01*
X183553022Y43511378D02*
X182487400Y44577000D01*
X170942000Y44577000D02*
X170942000Y44577000D01*
X183153011Y43345689D02*
X182429700Y44069000D01*
X182429700Y44069000D02*
X170180000Y44069000D01*
X184023000Y38735000D02*
X183153011Y39604989D01*
X183153011Y39604989D02*
X183153011Y43345689D01*
X182645009Y43091691D02*
X182164688Y43572012D01*
X183769000Y37465000D02*
X182645009Y38588991D01*
X182645009Y38588991D02*
X182645009Y43091691D01*
X182164688Y43572012D02*
X170931014Y43572012D01*
X170931014Y43572012D02*
X169429012Y43572012D01*
X168648001Y43172001D02*
X168593000Y43117000D01*
X181998999Y43172001D02*
X168648001Y43172001D01*
X182245000Y42926000D02*
X181998999Y43172001D01*
X182245000Y37846000D02*
X182245000Y42926000D01*
X183896000Y36195000D02*
X182245000Y37846000D01*
X165354000Y16383000D02*
X165989000Y16383000D01*
X162664140Y39433500D02*
X162633660Y39403020D01*
X181737000Y42545000D02*
X163703000Y42545000D01*
X162633660Y41475660D02*
X162633660Y39403020D01*
X163703000Y42545000D02*
X162633660Y41475660D01*
X181737000Y36957000D02*
X181737000Y42545000D01*
X183769000Y34925000D02*
X181737000Y36957000D01*
X162633660Y39120178D02*
X162633660Y39403020D01*
X161571940Y19382942D02*
X162633660Y20444662D01*
X162633660Y20444662D02*
X162633660Y39120178D01*
X161571940Y18387060D02*
X161571940Y19382942D01*
X162186001Y17772999D02*
X161571940Y18387060D01*
X163964001Y17772999D02*
X162186001Y17772999D01*
X165354000Y16383000D02*
X163964001Y17772999D01*
X165735000Y42037000D02*
X165481000Y42037000D01*
X163703000Y40259000D02*
X163703000Y38735000D01*
X163703000Y41656000D02*
X163703000Y38735000D01*
X164084000Y42037000D02*
X163703000Y41656000D01*
X165735000Y42037000D02*
X164084000Y42037000D01*
X163703000Y38100000D02*
X163703000Y38735000D01*
X164058600Y37744400D02*
X163703000Y38100000D01*
X164058600Y18313400D02*
X164058600Y37744400D01*
X164729160Y17642840D02*
X164058600Y18313400D01*
X166613840Y17642840D02*
X164729160Y17642840D01*
X167894000Y18923000D02*
X166613840Y17642840D01*
X180975000Y42037000D02*
X165735000Y42037000D01*
X183896000Y33909000D02*
X181229000Y36576000D01*
X183896000Y31115000D02*
X183896000Y33909000D01*
X181229000Y41783000D02*
X180975000Y42037000D01*
X181229000Y36576000D02*
X181229000Y41783000D01*
X165735000Y37846000D02*
X165735000Y37846000D01*
X164909500Y31623000D02*
X165486080Y31623000D01*
X164703760Y31417260D02*
X164909500Y31623000D01*
X164703760Y21244560D02*
X164703760Y31417260D01*
X165735000Y31871920D02*
X165735000Y37846000D01*
X165486080Y31623000D02*
X165735000Y31871920D01*
X165354000Y20594320D02*
X164703760Y21244560D01*
X165354000Y18923000D02*
X165354000Y20594320D01*
X183261000Y33782000D02*
X183261000Y29845000D01*
X180721000Y36322000D02*
X183261000Y33782000D01*
X180721000Y41275000D02*
X180721000Y36322000D01*
X166005550Y41636990D02*
X180359010Y41636990D01*
X165754010Y41385450D02*
X166005550Y41636990D01*
X165735000Y37846000D02*
X165754010Y37865010D01*
X180359010Y41636990D02*
X180721000Y41275000D01*
X165754010Y37865010D02*
X165754010Y41385450D01*
X163449000Y37084000D02*
X163449000Y37084000D01*
X163449000Y21209000D02*
X163449000Y37084000D01*
X162814000Y20045680D02*
X163449000Y20680680D01*
X163449000Y20680680D02*
X163449000Y21209000D01*
X162814000Y18923000D02*
X162814000Y20045680D01*
X160680400Y59989738D02*
X160665169Y60004969D01*
X160680400Y33581340D02*
X160680400Y59989738D01*
X148623020Y32948880D02*
X160047940Y32948880D01*
X160047940Y32948880D02*
X160680400Y33581340D01*
X148413860Y33158040D02*
X148623020Y32948880D01*
X148413860Y34345880D02*
X148413860Y33158040D01*
X194564020Y54229020D02*
X194564020Y54229020D01*
X196850000Y41656000D02*
X196850000Y27051000D01*
X196850000Y27051000D02*
X196850000Y12573000D01*
X196850000Y11303000D02*
X196850000Y5207000D01*
X196850000Y12573000D02*
X196850000Y11303000D01*
X196850000Y5207000D02*
X196850000Y5207000D01*
X195952500Y2040500D02*
X196460500Y2040500D01*
X196460500Y2040500D02*
X196850000Y1651000D01*
X196850000Y1651000D02*
X196850000Y-2032000D01*
X196850000Y-2032000D02*
X196850000Y-2032000D01*
X164726990Y36202990D02*
X164726990Y33457868D01*
X164726990Y33457868D02*
X164726990Y33175026D01*
X164726990Y36202990D02*
X164726990Y36202990D01*
X193767010Y43145010D02*
X193767010Y49241010D01*
X193767010Y49241010D02*
X194056000Y49530000D01*
X194056000Y49530000D02*
X196850000Y49530000D01*
X196850000Y49530000D02*
X196850000Y49530000D01*
X196723000Y11430000D02*
X196850000Y11303000D01*
X187452000Y11430000D02*
X196723000Y11430000D01*
X194564020Y54229020D02*
X194564020Y61976000D01*
X194564000Y61976020D02*
X194564001Y61976019D01*
X194564020Y61976000D02*
X194564001Y61976019D01*
X194530980Y63820040D02*
X194530980Y62009040D01*
X194530980Y62009040D02*
X194564001Y61976019D01*
X146400000Y63500000D02*
X146400000Y59721000D01*
X147321000Y58800000D02*
X149400000Y58800000D01*
X146400000Y59721000D02*
X147321000Y58800000D01*
X161737000Y20259000D02*
X161544000Y20066000D01*
X161737000Y32197000D02*
X161737000Y20259000D01*
X159559000Y-14106765D02*
X159559000Y-16705380D01*
X159559000Y-19224000D02*
X159639000Y-19304000D01*
X159559000Y-16705380D02*
X159559000Y-19224000D01*
X159639000Y-19304000D02*
X159639000Y-20574000D01*
X149733000Y-21082000D02*
X148590000Y-22225000D01*
X148590000Y-22225000D02*
X148590000Y-26797000D01*
X159131000Y-21082000D02*
X149733000Y-21082000D01*
X159639000Y-20574000D02*
X159131000Y-21082000D01*
X149400000Y58800000D02*
X158022560Y58800000D01*
X145145620Y40845880D02*
X143913860Y40845880D01*
X145646140Y41346400D02*
X145145620Y40845880D01*
X171704000Y35867340D02*
X171704000Y35433000D01*
X172593000Y36756340D02*
X171704000Y35867340D01*
X172593000Y37211000D02*
X172593000Y36756340D01*
X161544000Y20066000D02*
X161516060Y20066000D01*
X161516060Y20066000D02*
X161170620Y19720560D01*
X161170620Y19720560D02*
X161170620Y16403320D01*
X160794700Y14478000D02*
X159639000Y14478000D01*
X161170620Y14853920D02*
X160794700Y14478000D01*
X161170620Y16449040D02*
X161170620Y14853920D01*
X162814000Y16383000D02*
X161170620Y16383000D01*
X145387060Y48651160D02*
X145646140Y48392080D01*
X145387060Y48653700D02*
X145387060Y48651160D01*
X145646140Y48392080D02*
X145646140Y41346400D01*
X144264380Y48653700D02*
X145387060Y48653700D01*
X182372000Y31115000D02*
X182372000Y33662620D01*
X165227000Y32385000D02*
X165227000Y35425010D01*
X165227000Y35425010D02*
X165234990Y35433000D01*
X179392580Y47035720D02*
X179405280Y47035720D01*
X179405280Y47035720D02*
X180848000Y45593000D01*
X180848000Y45593000D02*
X182867300Y45593000D01*
X182867300Y45593000D02*
X186690000Y41770300D01*
X186690000Y41770300D02*
X186690000Y40741600D01*
X173482000Y35306000D02*
X173482000Y35306000D01*
X171704000Y35433000D02*
X173355000Y35433000D01*
X173355000Y35433000D02*
X173482000Y35306000D01*
X173482000Y35306000D02*
X181129940Y35306000D01*
X182372000Y34063940D02*
X182372000Y33662620D01*
X181129940Y35306000D02*
X182372000Y34063940D01*
X159559000Y14398000D02*
X159639000Y14478000D01*
X159559000Y-14106765D02*
X159559000Y14398000D01*
X159639000Y11959385D02*
X159559000Y11879385D01*
X159639000Y14478000D02*
X159639000Y11959385D01*
X189357000Y57277000D02*
X189357000Y58801000D01*
X188849000Y56769000D02*
X189357000Y57277000D01*
X175768000Y56769000D02*
X188849000Y56769000D01*
X168021000Y49022000D02*
X175768000Y56769000D01*
X168816020Y33307020D02*
X168529000Y33020000D01*
X168816020Y40210740D02*
X168816020Y33307020D01*
X168567100Y40459660D02*
X168816020Y40210740D01*
X166644320Y40459660D02*
X168567100Y40459660D01*
X166636700Y40467280D02*
X166644320Y40459660D01*
X190698120Y61341000D02*
X189357000Y61341000D01*
X190760350Y61278770D02*
X190698120Y61341000D01*
X190825120Y61214000D02*
X190760350Y61278770D01*
X190827660Y61211460D02*
X190760350Y61278770D01*
X190827660Y57033160D02*
X190827660Y61211460D01*
X190039511Y56245011D02*
X190827660Y57033160D01*
X175988231Y56245011D02*
X190039511Y56245011D01*
X170053000Y50309780D02*
X175988231Y56245011D01*
X170053000Y48768000D02*
X170053000Y50309780D01*
X167528240Y40911780D02*
X167459660Y40980360D01*
X169054780Y40911780D02*
X167528240Y40911780D01*
X169237660Y40728900D02*
X169054780Y40911780D01*
X169237660Y32712660D02*
X169237660Y40728900D01*
X168758000Y32233000D02*
X169237660Y32712660D01*
X157814000Y14478000D02*
X150772500Y14478000D01*
X157724231Y11869616D02*
X157734000Y11879385D01*
X150772500Y11869616D02*
X151823616Y11869616D01*
X151823616Y11869616D02*
X157724231Y11869616D01*
X150792038Y9280770D02*
X150772500Y9261232D01*
X157734000Y9280770D02*
X150792038Y9280770D01*
X150801807Y6682155D02*
X150772500Y6652848D01*
X157734000Y6682155D02*
X150801807Y6682155D01*
X150811576Y4083540D02*
X150772500Y4044464D01*
X157734000Y4083540D02*
X151657540Y4083540D01*
X151657540Y4083540D02*
X150811576Y4083540D01*
D24*
X157685155Y1436080D02*
X157734000Y1484925D01*
X150772500Y1436080D02*
X157685155Y1436080D01*
X157687000Y-19431000D02*
X157814000Y-19304000D01*
X150772500Y-19431000D02*
X157687000Y-19431000D01*
X150889728Y-16705380D02*
X150772500Y-16822608D01*
X157734000Y-16705380D02*
X150889728Y-16705380D01*
X157626541Y-14214224D02*
X157734000Y-14106765D01*
X150772500Y-14214224D02*
X157626541Y-14214224D01*
X150870190Y-11508150D02*
X150772500Y-11605840D01*
X157734000Y-11508150D02*
X150870190Y-11508150D01*
X150860421Y-8909535D02*
X150772500Y-8997456D01*
X157734000Y-8909535D02*
X150860421Y-8909535D01*
X157655848Y-6389072D02*
X157734000Y-6310920D01*
X150772500Y-6389072D02*
X157655848Y-6389072D01*
X157665617Y-3780688D02*
X157734000Y-3712305D01*
X150772500Y-3780688D02*
X157665617Y-3780688D01*
X150831114Y-1113690D02*
X150772500Y-1172304D01*
X157734000Y-1113690D02*
X150831114Y-1113690D01*
D23*
X156735780Y46230540D02*
X150279100Y46230540D01*
X157154520Y46649280D02*
X156735780Y46230540D01*
X157154520Y48682000D02*
X157154520Y46649280D01*
D25*
X216535000Y62100000D02*
X216535000Y64643000D01*
X217297000Y65405000D02*
X235585000Y65405000D01*
X216535000Y64643000D02*
X217297000Y65405000D01*
D23*
X161386520Y65615820D02*
X161406840Y65636140D01*
X161386520Y63616840D02*
X161386520Y65615820D01*
X143764000Y46355000D02*
X144780000Y46355000D01*
X142803880Y47315120D02*
X143764000Y46355000D01*
X142803880Y66603880D02*
X142803880Y47315120D01*
X143891000Y67691000D02*
X142803880Y66603880D01*
X151511000Y67691000D02*
X143891000Y67691000D01*
X152400000Y66802000D02*
X151511000Y67691000D01*
X152400000Y63500000D02*
X152400000Y66802000D01*
X153162000Y62865000D02*
X191475360Y62865000D01*
X191475360Y62865000D02*
X191833500Y63223140D01*
X191833500Y63223140D02*
X191833500Y64874140D01*
X191833500Y64874140D02*
X191833500Y64874140D01*
D25*
X224155000Y47283334D02*
X226528666Y47283334D01*
X235178428Y38633572D02*
X235585000Y38633572D01*
X226528666Y47283334D02*
X235178428Y38633572D01*
X229170240Y49784000D02*
X235503720Y43450520D01*
X216916000Y49784000D02*
X229170240Y49784000D01*
X216535000Y49403000D02*
X216916000Y49784000D01*
X216535000Y47283334D02*
X216535000Y49403000D01*
X235511340Y27821518D02*
X235511340Y27363420D01*
X224155000Y39177858D02*
X235511340Y27821518D01*
X224155000Y39875001D02*
X224155000Y39177858D01*
X234580420Y32363420D02*
X235511340Y32363420D01*
X224779840Y42164000D02*
X234580420Y32363420D01*
X216933780Y42164000D02*
X224779840Y42164000D01*
X216535000Y41765220D02*
X216933780Y42164000D01*
X216535000Y39875001D02*
X216535000Y41765220D01*
X235186220Y16273780D02*
X235521500Y16273780D01*
X230124000Y21336000D02*
X235186220Y16273780D01*
X230124000Y27940000D02*
X230124000Y21336000D01*
X225597332Y32466668D02*
X230124000Y27940000D01*
X224155000Y32466668D02*
X225597332Y32466668D01*
X235521500Y16273780D02*
X235585000Y16337280D01*
X235497360Y21249640D02*
X235521500Y21273780D01*
X232750360Y21249640D02*
X235497360Y21249640D01*
X231648000Y22352000D02*
X232750360Y21249640D01*
X231648000Y28956000D02*
X231648000Y22352000D01*
X226060000Y34544000D02*
X231648000Y28956000D01*
X216916000Y34544000D02*
X226060000Y34544000D01*
X216535000Y34163000D02*
X216916000Y34544000D01*
X216535000Y32466668D02*
X216535000Y34163000D01*
X234063540Y5204460D02*
X235516420Y5204460D01*
X232156000Y14224000D02*
X232156000Y7112000D01*
X227076000Y19304000D02*
X232156000Y14224000D01*
X232156000Y7112000D02*
X234063540Y5204460D01*
X227076000Y23876000D02*
X227076000Y19304000D01*
X225893665Y25058335D02*
X227076000Y23876000D01*
X224155000Y25058335D02*
X225893665Y25058335D01*
X235516420Y12895580D02*
X235516420Y10204460D01*
X228600000Y19812000D02*
X235516420Y12895580D01*
X228600000Y26416000D02*
X228600000Y19812000D01*
X217424000Y27940000D02*
X227076000Y27940000D01*
X216535000Y27051000D02*
X217424000Y27940000D01*
X227076000Y27940000D02*
X228600000Y26416000D01*
X216535000Y25058335D02*
X216535000Y27051000D01*
X235511340Y-5387340D02*
X235511340Y-5876300D01*
X229108000Y1016000D02*
X235511340Y-5387340D01*
X235585000Y-5802640D02*
X235585000Y-4909284D01*
X235511340Y-5876300D02*
X235585000Y-5802640D01*
X229108000Y13208000D02*
X229108000Y1016000D01*
X224665998Y17650002D02*
X229108000Y13208000D01*
X224155000Y17650002D02*
X224665998Y17650002D01*
X230632000Y13716000D02*
X230632000Y2032000D01*
X226568000Y17825004D02*
X226568000Y17780000D01*
X233540300Y-876300D02*
X235511340Y-876300D01*
X224581004Y19812000D02*
X226568000Y17825004D01*
X216916000Y19812000D02*
X224581004Y19812000D01*
X216535000Y19431000D02*
X216916000Y19812000D01*
X230632000Y2032000D02*
X233540300Y-876300D01*
X226568000Y17780000D02*
X230632000Y13716000D01*
X216535000Y17650002D02*
X216535000Y19431000D01*
X234607100Y-16931640D02*
X235511340Y-16931640D01*
X231648000Y-13972540D02*
X234607100Y-16931640D01*
X227076000Y-219543D02*
X231648000Y-4791542D01*
X231648000Y-4791542D02*
X231648000Y-13972540D01*
X227076000Y9144000D02*
X227076000Y-219543D01*
X225978331Y10241669D02*
X227076000Y9144000D01*
X224155000Y10241669D02*
X225978331Y10241669D01*
X234521642Y-11931640D02*
X235511340Y-11931640D01*
X232664000Y-10073998D02*
X234521642Y-11931640D01*
X232664000Y-4393313D02*
X232664000Y-10073998D01*
X228092000Y178686D02*
X232664000Y-4393313D01*
X228092000Y12192000D02*
X228092000Y178686D01*
X227601780Y12682220D02*
X228092000Y12192000D01*
X217319860Y12682220D02*
X227601780Y12682220D01*
X216535000Y11897360D02*
X217319860Y12682220D01*
X216535000Y10241669D02*
X216535000Y11897360D01*
X235611680Y-27894280D02*
X235518960Y-27987000D01*
X237916720Y-27894280D02*
X235611680Y-27894280D01*
X239141000Y-26670000D02*
X237916720Y-27894280D01*
X239141000Y-20955000D02*
X239141000Y-26670000D01*
X234696000Y-19558000D02*
X237744000Y-19558000D01*
X237744000Y-19558000D02*
X239141000Y-20955000D01*
X230505000Y-15367000D02*
X234696000Y-19558000D01*
X224155000Y1143000D02*
X230505000Y-5207000D01*
X230505000Y-5207000D02*
X230505000Y-15367000D01*
X224155000Y2833336D02*
X224155000Y1143000D01*
X235585000Y-22920960D02*
X235518960Y-22987000D01*
X235585000Y-22225000D02*
X235585000Y-22920960D01*
X220686664Y2833336D02*
X216535000Y2833336D01*
X229235000Y-5715000D02*
X220686664Y2833336D01*
X229235000Y-16256000D02*
X229235000Y-5715000D01*
X235518960Y-22539960D02*
X229235000Y-16256000D01*
X235518960Y-22987000D02*
X235518960Y-22539960D01*
X222838000Y-27258000D02*
X222838000Y-24003000D01*
X223266000Y-27686000D02*
X222838000Y-27258000D01*
X230759000Y-27686000D02*
X223266000Y-27686000D01*
X231394000Y-27051000D02*
X230759000Y-27686000D01*
X231394000Y-22352000D02*
X231394000Y-27051000D01*
X227965000Y-18923000D02*
X231394000Y-22352000D01*
X227965000Y-6604000D02*
X227965000Y-18923000D01*
X225935997Y-4574997D02*
X227965000Y-6604000D01*
X224155000Y-4574997D02*
X225935997Y-4574997D01*
X216535000Y-4574997D02*
X216535000Y-6096000D01*
X216535000Y-6096000D02*
X217170000Y-6731000D01*
X217170000Y-6731000D02*
X225552000Y-6731000D01*
X225552000Y-6731000D02*
X226695000Y-7874000D01*
X226695000Y-7874000D02*
X226695000Y-20447000D01*
X227838000Y-21590000D02*
X227838000Y-24003000D01*
X226695000Y-20447000D02*
X227838000Y-21590000D01*
X224155000Y-11983330D02*
X224155000Y-10033000D01*
X224155000Y-10033000D02*
X223266000Y-9144000D01*
X223266000Y-9144000D02*
X213487000Y-9144000D01*
X211662000Y-10969000D02*
X211662000Y-24003000D01*
X213487000Y-9144000D02*
X211662000Y-10969000D01*
X216535000Y-23876000D02*
X216662000Y-24003000D01*
X216535000Y-11983330D02*
X216535000Y-23876000D01*
X200486000Y-22061160D02*
X200486000Y-24003000D01*
X192013840Y-13589000D02*
X200486000Y-22061160D01*
X189735000Y-13589000D02*
X192013840Y-13589000D01*
X189735000Y-5969000D02*
X194564000Y-10798000D01*
X194564000Y-10798000D02*
X194567000Y-10798000D01*
X205486000Y-21717000D02*
X205486000Y-24003000D01*
X194567000Y-10798000D02*
X205486000Y-21717000D01*
X183385000Y-13589000D02*
X183385000Y-13713000D01*
X189310000Y-19638000D02*
X189310000Y-24003000D01*
X183385000Y-13713000D02*
X189310000Y-19638000D01*
X194310000Y-21717000D02*
X194310000Y-24003000D01*
X187833000Y-15240000D02*
X194310000Y-21717000D01*
X187833000Y-8001000D02*
X187833000Y-15240000D01*
X185801000Y-5969000D02*
X187833000Y-8001000D01*
X183385000Y-5969000D02*
X185801000Y-5969000D01*
X176781000Y-13589000D02*
X178308000Y-13589000D01*
X178308000Y-13589000D02*
X178689000Y-13970000D01*
X178689000Y-23448000D02*
X178134000Y-24003000D01*
X178689000Y-13970000D02*
X178689000Y-23448000D01*
X176781000Y-5969000D02*
X180340000Y-5969000D01*
X180340000Y-5969000D02*
X181610000Y-7239000D01*
X181610000Y-7239000D02*
X181610000Y-18669000D01*
X183134000Y-20193000D02*
X183134000Y-24003000D01*
X181610000Y-18669000D02*
X183134000Y-20193000D01*
D23*
X206375000Y62100000D02*
X206375000Y54691667D01*
X206375000Y4318000D02*
X206375000Y-11983330D01*
X206375000Y6731000D02*
X206375000Y4318000D01*
X206248000Y4191000D02*
X206375000Y4318000D01*
X164208000Y4191000D02*
X206248000Y4191000D01*
X206375000Y16510000D02*
X198628000Y16510000D01*
X206375000Y54691667D02*
X206375000Y16510000D01*
X206375000Y16510000D02*
X206375000Y6731000D01*
X198628000Y16510000D02*
X198564500Y16573500D01*
X198564500Y16573500D02*
X198501000Y16637000D01*
X191135000Y16637000D02*
X195961000Y16637000D01*
X195961000Y16637000D02*
X195961000Y16637000D01*
X190535000Y32801000D02*
X190535000Y16983000D01*
X190881000Y16637000D02*
X191135000Y16637000D01*
X190535000Y16983000D02*
X190881000Y16637000D01*
X190535000Y32801000D02*
X190535000Y43907000D01*
X190535000Y43907000D02*
X190535000Y43907000D01*
X205994000Y68072000D02*
X206375000Y67691000D01*
X189992000Y68072000D02*
X205994000Y68072000D01*
X206375000Y67691000D02*
X206375000Y62100000D01*
X189740540Y67820540D02*
X189992000Y68072000D01*
D25*
X155655000Y-26592520D02*
X155655000Y-24003000D01*
X156342080Y-27279600D02*
X155655000Y-26592520D01*
X164208000Y-26419000D02*
X163347400Y-27279600D01*
X163347400Y-27279600D02*
X156342080Y-27279600D01*
X164208000Y-13589000D02*
X164208000Y-26419000D01*
D23*
X202819000Y45720000D02*
X195453000Y45720000D01*
X203835000Y44704000D02*
X202819000Y45720000D01*
X203835000Y39875001D02*
X203835000Y44704000D01*
X203200000Y51435000D02*
X194564000Y51435000D01*
X203835000Y50800000D02*
X203200000Y51435000D01*
X203835000Y47283334D02*
X203835000Y50800000D01*
X196088000Y37719000D02*
X196088000Y37719000D01*
X195199000Y37719000D02*
X196088000Y37719000D01*
X194437000Y38481000D02*
X195199000Y37719000D01*
X194437000Y48895000D02*
X194437000Y38481000D01*
X195961000Y-9398000D02*
X195961000Y-9398000D01*
X203553060Y-9398000D02*
X195961000Y-9398000D01*
X203835000Y-9679940D02*
X203553060Y-9398000D01*
X203835000Y-11983330D02*
X203835000Y-9679940D01*
X179959000Y9271000D02*
X179959000Y19177000D01*
X179959000Y19177000D02*
X180086000Y19304000D01*
X180086000Y19304000D02*
X180086000Y19304000D01*
X186184540Y13837920D02*
X186179460Y13843000D01*
X186184540Y9400540D02*
X186184540Y13837920D01*
X186182000Y9398000D02*
X186184540Y9400540D01*
X169672000Y9392920D02*
X169672000Y13843000D01*
X169423080Y9144000D02*
X169672000Y9392920D01*
X167386000Y9144000D02*
X169423080Y9144000D01*
X173736000Y18415000D02*
X173863000Y18542000D01*
X173736000Y9398000D02*
X173736000Y18415000D01*
D25*
X235480860Y60537080D02*
X235480860Y60509140D01*
X233917940Y62100000D02*
X235480860Y60537080D01*
X235480860Y60509140D02*
X235585000Y60405000D01*
X224155000Y62100000D02*
X233917940Y62100000D01*
X235585000Y49593500D02*
X235585000Y49519286D01*
X230486833Y54691667D02*
X235585000Y49593500D01*
X224155000Y54691667D02*
X230486833Y54691667D01*
X235585000Y56476900D02*
X235585000Y54519286D01*
X216916000Y56896000D02*
X235165900Y56896000D01*
X235165900Y56896000D02*
X235585000Y56476900D01*
X216535000Y56515000D02*
X216916000Y56896000D01*
X216535000Y54691667D02*
X216535000Y56515000D01*
X168442000Y-15705000D02*
X170558000Y-13589000D01*
X168442000Y-22392000D02*
X168442000Y-15705000D01*
X166831000Y-24003000D02*
X168442000Y-22392000D01*
X174406560Y-23840440D02*
X174244000Y-24003000D01*
X174244000Y-24003000D02*
X171831000Y-24003000D01*
X173609000Y-5969000D02*
X174406560Y-6766560D01*
X174406560Y-6766560D02*
X174406560Y-23840440D01*
X170558000Y-5969000D02*
X173609000Y-5969000D01*
D23*
X145034000Y-19038000D02*
X147308000Y-19038000D01*
X147701000Y-19431000D02*
X148947500Y-19431000D01*
X147308000Y-19038000D02*
X147701000Y-19431000D01*
X148662892Y-16538000D02*
X148947500Y-16822608D01*
X145034000Y-16538000D02*
X148662892Y-16538000D01*
X148771276Y-14038000D02*
X148947500Y-14214224D01*
X145034000Y-14038000D02*
X148771276Y-14038000D01*
X148879660Y-11538000D02*
X148947500Y-11605840D01*
X145034000Y-11538000D02*
X148879660Y-11538000D01*
X148906956Y-9038000D02*
X148947500Y-8997456D01*
X145034000Y-9038000D02*
X148906956Y-9038000D01*
X145034000Y-6538000D02*
X146751000Y-6538000D01*
X146899928Y-6389072D02*
X148947500Y-6389072D01*
X146751000Y-6538000D02*
X146899928Y-6389072D01*
X145034000Y-4038000D02*
X146457000Y-4038000D01*
X146714312Y-3780688D02*
X148947500Y-3780688D01*
X146457000Y-4038000D02*
X146714312Y-3780688D01*
X145034000Y-1538000D02*
X146417000Y-1538000D01*
X146782696Y-1172304D02*
X148947500Y-1172304D01*
X146417000Y-1538000D02*
X146782696Y-1172304D01*
X145034000Y962000D02*
X147012000Y962000D01*
X147486080Y1436080D02*
X148947500Y1436080D01*
X147012000Y962000D02*
X147486080Y1436080D01*
X145034000Y3462000D02*
X146779000Y3462000D01*
X147361464Y4044464D02*
X147681464Y4044464D01*
X146779000Y3462000D02*
X147361464Y4044464D01*
X147681464Y4044464D02*
X148947500Y4044464D01*
X145724848Y6652848D02*
X145034000Y5962000D01*
X148947500Y6652848D02*
X145724848Y6652848D01*
X145833232Y9261232D02*
X145034000Y8462000D01*
X148947500Y9261232D02*
X145833232Y9261232D01*
X145941616Y11869616D02*
X145034000Y10962000D01*
X148947500Y11869616D02*
X145941616Y11869616D01*
X146050000Y14478000D02*
X145034000Y13462000D01*
X148947500Y14478000D02*
X146050000Y14478000D01*
X159211840Y20850860D02*
X159290580Y20929600D01*
X145891140Y20850860D02*
X159211840Y20850860D01*
X145159000Y21583000D02*
X145891140Y20850860D01*
X145034000Y21583000D02*
X145159000Y21583000D01*
X172770800Y22199600D02*
X167589200Y22199600D01*
X187294520Y22199600D02*
X172770800Y22199600D01*
X187960000Y53446680D02*
X187960000Y22865080D01*
X187960000Y22865080D02*
X187294520Y22199600D01*
X187711080Y53695600D02*
X187960000Y53446680D01*
X183235600Y53695600D02*
X187711080Y53695600D01*
X187858050Y55745010D02*
X184758385Y55745010D01*
X188760022Y54843038D02*
X187858050Y55745010D01*
X188760022Y22357002D02*
X188760022Y54843038D01*
X187180220Y20777200D02*
X188760022Y22357002D01*
X167487600Y20777200D02*
X187180220Y20777200D01*
X160450397Y21388839D02*
X160733239Y21388839D01*
X146809961Y21388839D02*
X160450397Y21388839D01*
X146558000Y21640800D02*
X146809961Y21388839D01*
X146558000Y23883620D02*
X146558000Y21640800D01*
X146358620Y24083000D02*
X146558000Y23883620D01*
X145034000Y24083000D02*
X146358620Y24083000D01*
X173789340Y21440140D02*
X173786800Y21437600D01*
X188360011Y22599611D02*
X187198000Y21437600D01*
X173791880Y21437600D02*
X173789340Y21440140D01*
X188360011Y54677349D02*
X188360011Y22599611D01*
X173786800Y21437600D02*
X168046400Y21437600D01*
X187198000Y21437600D02*
X173791880Y21437600D01*
X187792360Y55245000D02*
X188360011Y54677349D01*
X183896000Y55245000D02*
X187792360Y55245000D01*
X145034000Y26583000D02*
X146594200Y26583000D01*
X146594200Y26583000D02*
X147063460Y26113740D01*
X147063460Y26113740D02*
X147063460Y22529800D01*
X147546060Y22047200D02*
X149926040Y22047200D01*
X147063460Y22529800D02*
X147546060Y22047200D01*
X149926040Y22047200D02*
X160782000Y22047200D01*
X145671540Y32489140D02*
X145034000Y31851600D01*
X160505140Y32489140D02*
X145671540Y32489140D01*
X161239200Y60220860D02*
X161239200Y33223200D01*
X145034000Y31851600D02*
X145034000Y29083000D01*
X161700340Y60682000D02*
X161239200Y60220860D01*
X161239200Y33223200D02*
X160505140Y32489140D01*
X162282000Y60682000D02*
X161700340Y60682000D01*
X171005000Y45579800D02*
X162310580Y45579800D01*
X162310580Y45579800D02*
X161899600Y45168820D01*
X161899600Y45168820D02*
X161899600Y33218120D01*
X161899600Y33218120D02*
X158958280Y30276800D01*
X158958280Y30276800D02*
X157581600Y30276800D01*
X157581600Y30276800D02*
X157581600Y30276800D01*
X150964900Y17825080D02*
X150808060Y17668240D01*
X150964900Y19403060D02*
X150964900Y17825080D01*
X148983060Y16607160D02*
X149316440Y16273780D01*
X149316440Y16273780D02*
X150741380Y16273780D01*
X148983060Y17668240D02*
X148983060Y16607160D01*
M02*
